<svg width="18" height="18" viewBox="0 0 18 18" fill="none" xmlns="http://www.w3.org/2000/svg">
<path fill-rule="evenodd" clip-rule="evenodd" d="M17.25 9C17.25 9.45 16.9499 9.75 16.4998 9.75H8.99769C8.54757 9.75 8.24749 9.45 8.24749 9V1.5C8.24749 1.05 8.54757 0.75 8.99769 0.75C13.574 0.75 17.25 4.425 17.25 9ZM16.5748 12.225C15.2995 15.375 12.2236 17.25 8.99769 17.25C7.9474 17.25 6.82209 17.025 5.77179 16.575C1.57062 14.775 -0.379925 9.975 1.42058 5.775C2.24581 3.825 3.74623 2.25 5.69677 1.425C6.07188 1.275 6.522 1.425 6.67205 1.8C6.82209 2.175 6.67205 2.625 6.29694 2.775C4.7215 3.525 3.44614 4.8 2.77096 6.375C1.34556 9.825 2.921 13.8 6.37196 15.225C9.82293 16.65 13.799 15.075 15.2244 11.625C15.3745 11.25 15.8246 11.1 16.1997 11.25C16.5748 11.4 16.7249 11.85 16.5748 12.225ZM9.7479 2.325C12.8238 2.625 15.2995 5.1 15.6746 8.25H9.7479V2.325Z" fill="#5E5873"/>
<mask id="mask0_307_30929" style="mask-type:luminance" maskUnits="userSpaceOnUse" x="0" y="0" width="18" height="18">
<path fill-rule="evenodd" clip-rule="evenodd" d="M17.25 9C17.25 9.45 16.9499 9.75 16.4998 9.75H8.99769C8.54757 9.75 8.24749 9.45 8.24749 9V1.5C8.24749 1.05 8.54757 0.75 8.99769 0.75C13.574 0.75 17.25 4.425 17.25 9ZM16.5748 12.225C15.2995 15.375 12.2236 17.25 8.99769 17.25C7.9474 17.25 6.82209 17.025 5.77179 16.575C1.57062 14.775 -0.379925 9.975 1.42058 5.775C2.24581 3.825 3.74623 2.25 5.69677 1.425C6.07188 1.275 6.522 1.425 6.67205 1.8C6.82209 2.175 6.67205 2.625 6.29694 2.775C4.7215 3.525 3.44614 4.8 2.77096 6.375C1.34556 9.825 2.921 13.8 6.37196 15.225C9.82293 16.65 13.799 15.075 15.2244 11.625C15.3745 11.25 15.8246 11.1 16.1997 11.25C16.5748 11.4 16.7249 11.85 16.5748 12.225ZM9.7479 2.325C12.8238 2.625 15.2995 5.1 15.6746 8.25H9.7479V2.325Z" fill="white"/>
</mask>
<g mask="url(#mask0_307_30929)">
<rect width="18" height="18" fill="#5E5873"/>
</g>
</svg>
