<svg width="24" height="24" viewBox="0 0 24 24" fill="none" xmlns="http://www.w3.org/2000/svg">
<path fill-rule="evenodd" clip-rule="evenodd" d="M6.84844 9.00039C6.84844 7.6815 7.28903 6.3904 8.13374 5.4401C8.96455 4.50544 10.2291 3.85039 11.9984 3.85039C13.7678 3.85039 15.0323 4.50544 15.8631 5.4401C16.7078 6.3904 17.1484 7.6815 17.1484 9.00039C17.1484 10.26 17.775 11.1986 18.2526 11.9141L18.2912 11.9719C18.8095 12.7493 19.1484 13.2942 19.1484 14.0004C19.1484 14.9746 18.4547 15.7582 17.0149 16.3367C15.5974 16.9062 13.7169 17.1504 11.9984 17.1504C10.28 17.1504 8.39943 16.9062 6.982 16.3367C5.54217 15.7582 4.84844 14.9746 4.84844 14.0004C4.84844 13.3069 5.17265 12.83 5.69655 12.0758C6.20017 11.3508 6.84844 10.4082 6.84844 9.00039ZM11.9984 2.15039C9.76779 2.15039 8.03234 2.99534 6.86314 4.31068C5.70785 5.61038 5.14844 7.31928 5.14844 9.00039C5.14844 9.83392 4.7967 10.3914 4.30033 11.106L4.23059 11.2061C3.761 11.8789 3.14844 12.7565 3.14844 14.0004C3.14844 16.0261 4.67693 17.2426 6.34821 17.9141C8.0419 18.5946 10.1614 18.8504 11.9984 18.8504C13.8355 18.8504 15.955 18.5946 17.6487 17.9141C19.3199 17.2426 20.8484 16.0261 20.8484 14.0004C20.8484 12.7408 20.2219 11.8022 19.7442 11.0867L19.7057 11.0289C19.1874 10.2515 18.8484 9.70661 18.8484 9.00039C18.8484 7.31928 18.289 5.61038 17.1337 4.31068C15.9645 2.99534 14.2291 2.15039 11.9984 2.15039ZM9.52694 19.2931C9.91446 19.0348 10.437 19.1367 10.6995 19.5197L10.7058 19.5282C10.7149 19.5401 10.7326 19.5625 10.7587 19.5919C10.8116 19.6515 10.8954 19.7356 11.0084 19.8204C11.232 19.988 11.5574 20.1504 11.9984 20.1504C12.4394 20.1504 12.7649 19.988 12.9884 19.8204C13.1015 19.7356 13.1852 19.6515 13.2381 19.5919C13.2643 19.5625 13.282 19.5401 13.2911 19.5282L13.2974 19.5197C13.5599 19.1367 14.0824 19.0348 14.4699 19.2931C14.8605 19.5535 14.9661 20.0813 14.7057 20.4719L13.9984 20.0004C14.7057 20.4719 14.7055 20.4722 14.7052 20.4725L14.7048 20.4732L14.7038 20.4746L14.7017 20.4778L14.6967 20.4851L14.6833 20.5042C14.673 20.5188 14.6596 20.5371 14.6433 20.5585C14.6107 20.6013 14.5659 20.657 14.5087 20.7213C14.395 20.8493 14.2287 21.0152 14.0084 21.1804C13.5653 21.5127 12.8908 21.8504 11.9984 21.8504C11.1061 21.8504 10.4316 21.5127 9.98844 21.1804C9.76815 21.0152 9.60189 20.8493 9.48814 20.7213C9.43097 20.657 9.38616 20.6013 9.35357 20.5585C9.33725 20.5371 9.32391 20.5188 9.31354 20.5042L9.30017 20.4851L9.29514 20.4778L9.29303 20.4746L9.29208 20.4732L9.29163 20.4725C9.29141 20.4722 9.29119 20.4719 9.99844 20.0004L9.29119 20.4719C9.0308 20.0813 9.13634 19.5535 9.52694 19.2931Z" fill="#5E5873"/>
</svg>
