<svg width="568" height="318" viewBox="0 0 568 318" fill="none" xmlns="http://www.w3.org/2000/svg">
<rect x="0.5" y="0.5" width="560" height="317" rx="11.5" fill="white"/>
<circle cx="24" cy="29" r="4" fill="#347AE2"/>
<path d="M42.516 27.084C42.516 27.78 42.276 28.36 41.796 28.824C41.324 29.28 40.6 29.508 39.624 29.508H38.016V33H36.924V24.636H39.624C40.568 24.636 41.284 24.864 41.772 25.32C42.268 25.776 42.516 26.364 42.516 27.084ZM39.624 28.608C40.232 28.608 40.68 28.476 40.968 28.212C41.256 27.948 41.4 27.572 41.4 27.084C41.4 26.052 40.808 25.536 39.624 25.536H38.016V28.608H39.624ZM43.4652 29.688C43.4652 29.016 43.6012 28.428 43.8732 27.924C44.1452 27.412 44.5172 27.016 44.9892 26.736C45.4692 26.456 46.0012 26.316 46.5852 26.316C47.1612 26.316 47.6612 26.44 48.0852 26.688C48.5092 26.936 48.8252 27.248 49.0332 27.624V26.424H50.1372V33H49.0332V31.776C48.8172 32.16 48.4932 32.48 48.0612 32.736C47.6372 32.984 47.1412 33.108 46.5732 33.108C45.9892 33.108 45.4612 32.964 44.9892 32.676C44.5172 32.388 44.1452 31.984 43.8732 31.464C43.6012 30.944 43.4652 30.352 43.4652 29.688ZM49.0332 29.7C49.0332 29.204 48.9332 28.772 48.7332 28.404C48.5332 28.036 48.2612 27.756 47.9172 27.564C47.5812 27.364 47.2092 27.264 46.8012 27.264C46.3932 27.264 46.0212 27.36 45.6852 27.552C45.3492 27.744 45.0812 28.024 44.8812 28.392C44.6812 28.76 44.5812 29.192 44.5812 29.688C44.5812 30.192 44.6812 30.632 44.8812 31.008C45.0812 31.376 45.3492 31.66 45.6852 31.86C46.0212 32.052 46.3932 32.148 46.8012 32.148C47.2092 32.148 47.5812 32.052 47.9172 31.86C48.2612 31.66 48.5332 31.376 48.7332 31.008C48.9332 30.632 49.0332 30.196 49.0332 29.7ZM57.6466 26.424L53.6866 36.096H52.5586L53.8546 32.928L51.2026 26.424H52.4146L54.4786 31.752L56.5186 26.424H57.6466ZM66.6523 26.304C67.1643 26.304 67.6203 26.412 68.0203 26.628C68.4203 26.836 68.7363 27.152 68.9683 27.576C69.2003 28 69.3163 28.516 69.3163 29.124V33H68.2363V29.28C68.2363 28.624 68.0723 28.124 67.7443 27.78C67.4243 27.428 66.9883 27.252 66.4363 27.252C65.8683 27.252 65.4163 27.436 65.0803 27.804C64.7443 28.164 64.5763 28.688 64.5763 29.376V33H63.4963V29.28C63.4963 28.624 63.3323 28.124 63.0043 27.78C62.6843 27.428 62.2483 27.252 61.6963 27.252C61.1283 27.252 60.6763 27.436 60.3403 27.804C60.0043 28.164 59.8363 28.688 59.8363 29.376V33H58.7443V26.424H59.8363V27.372C60.0523 27.028 60.3403 26.764 60.7003 26.58C61.0683 26.396 61.4723 26.304 61.9123 26.304C62.4643 26.304 62.9523 26.428 63.3763 26.676C63.8003 26.924 64.1163 27.288 64.3243 27.768C64.5083 27.304 64.8123 26.944 65.2363 26.688C65.6603 26.432 66.1323 26.304 66.6523 26.304ZM77.1076 29.46C77.1076 29.668 77.0956 29.888 77.0716 30.12H71.8156C71.8556 30.768 72.0756 31.276 72.4756 31.644C72.8836 32.004 73.3756 32.184 73.9516 32.184C74.4236 32.184 74.8156 32.076 75.1276 31.86C75.4476 31.636 75.6716 31.34 75.7996 30.972H76.9756C76.7996 31.604 76.4476 32.12 75.9196 32.52C75.3916 32.912 74.7356 33.108 73.9516 33.108C73.3276 33.108 72.7676 32.968 72.2716 32.688C71.7836 32.408 71.3996 32.012 71.1196 31.5C70.8396 30.98 70.6996 30.38 70.6996 29.7C70.6996 29.02 70.8356 28.424 71.1076 27.912C71.3796 27.4 71.7596 27.008 72.2476 26.736C72.7436 26.456 73.3116 26.316 73.9516 26.316C74.5756 26.316 75.1276 26.452 75.6076 26.724C76.0876 26.996 76.4556 27.372 76.7116 27.852C76.9756 28.324 77.1076 28.86 77.1076 29.46ZM75.9796 29.232C75.9796 28.816 75.8876 28.46 75.7036 28.164C75.5196 27.86 75.2676 27.632 74.9476 27.48C74.6356 27.32 74.2876 27.24 73.9036 27.24C73.3516 27.24 72.8796 27.416 72.4876 27.768C72.1036 28.12 71.8836 28.608 71.8276 29.232H75.9796ZM81.753 26.304C82.553 26.304 83.201 26.548 83.697 27.036C84.193 27.516 84.441 28.212 84.441 29.124V33H83.361V29.28C83.361 28.624 83.197 28.124 82.869 27.78C82.541 27.428 82.093 27.252 81.525 27.252C80.949 27.252 80.489 27.432 80.145 27.792C79.809 28.152 79.641 28.676 79.641 29.364V33H78.549V26.424H79.641V27.36C79.857 27.024 80.149 26.764 80.517 26.58C80.893 26.396 81.305 26.304 81.753 26.304ZM87.5568 27.324V31.2C87.5568 31.52 87.6248 31.748 87.7608 31.884C87.8968 32.012 88.1328 32.076 88.4688 32.076H89.2728V33H88.2888C87.6808 33 87.2248 32.86 86.9208 32.58C86.6168 32.3 86.4648 31.84 86.4648 31.2V27.324H85.6128V26.424H86.4648V24.768H87.5568V26.424H89.2728V27.324H87.5568ZM92.9239 33.108C92.4199 33.108 91.9679 33.024 91.5679 32.856C91.1679 32.68 90.8519 32.44 90.6199 32.136C90.3879 31.824 90.2599 31.468 90.2359 31.068H91.3639C91.3959 31.396 91.5479 31.664 91.8199 31.872C92.0999 32.08 92.4639 32.184 92.9119 32.184C93.3279 32.184 93.6559 32.092 93.8959 31.908C94.1359 31.724 94.2559 31.492 94.2559 31.212C94.2559 30.924 94.1279 30.712 93.8719 30.576C93.6159 30.432 93.2199 30.292 92.6839 30.156C92.1959 30.028 91.7959 29.9 91.4839 29.772C91.1799 29.636 90.9159 29.44 90.6919 29.184C90.4759 28.92 90.3679 28.576 90.3679 28.152C90.3679 27.816 90.4679 27.508 90.6679 27.228C90.8679 26.948 91.1519 26.728 91.5199 26.568C91.8879 26.4 92.3079 26.316 92.7799 26.316C93.5079 26.316 94.0959 26.5 94.5439 26.868C94.9919 27.236 95.2319 27.74 95.2639 28.38H94.1719C94.1479 28.036 94.0079 27.76 93.7519 27.552C93.5039 27.344 93.1679 27.24 92.7439 27.24C92.3519 27.24 92.0399 27.324 91.8079 27.492C91.5759 27.66 91.4599 27.88 91.4599 28.152C91.4599 28.368 91.5279 28.548 91.6639 28.692C91.8079 28.828 91.9839 28.94 92.1919 29.028C92.4079 29.108 92.7039 29.2 93.0799 29.304C93.5519 29.432 93.9359 29.56 94.2319 29.688C94.5279 29.808 94.7799 29.992 94.9879 30.24C95.2039 30.488 95.3159 30.812 95.3239 31.212C95.3239 31.572 95.2239 31.896 95.0239 32.184C94.8239 32.472 94.5399 32.7 94.1719 32.868C93.8119 33.028 93.3959 33.108 92.9239 33.108Z" fill="#5E5873"/>
<circle cx="120" cy="29" r="4" fill="#FF9500"/>
<path d="M138.516 27.084C138.516 27.78 138.276 28.36 137.796 28.824C137.324 29.28 136.6 29.508 135.624 29.508H134.016V33H132.924V24.636H135.624C136.568 24.636 137.284 24.864 137.772 25.32C138.268 25.776 138.516 26.364 138.516 27.084ZM135.624 28.608C136.232 28.608 136.68 28.476 136.968 28.212C137.256 27.948 137.4 27.572 137.4 27.084C137.4 26.052 136.808 25.536 135.624 25.536H134.016V28.608H135.624ZM139.465 29.688C139.465 29.016 139.601 28.428 139.873 27.924C140.145 27.412 140.517 27.016 140.989 26.736C141.469 26.456 142.001 26.316 142.585 26.316C143.161 26.316 143.661 26.44 144.085 26.688C144.509 26.936 144.825 27.248 145.033 27.624V26.424H146.137V33H145.033V31.776C144.817 32.16 144.493 32.48 144.061 32.736C143.637 32.984 143.141 33.108 142.573 33.108C141.989 33.108 141.461 32.964 140.989 32.676C140.517 32.388 140.145 31.984 139.873 31.464C139.601 30.944 139.465 30.352 139.465 29.688ZM145.033 29.7C145.033 29.204 144.933 28.772 144.733 28.404C144.533 28.036 144.261 27.756 143.917 27.564C143.581 27.364 143.209 27.264 142.801 27.264C142.393 27.264 142.021 27.36 141.685 27.552C141.349 27.744 141.081 28.024 140.881 28.392C140.681 28.76 140.581 29.192 140.581 29.688C140.581 30.192 140.681 30.632 140.881 31.008C141.081 31.376 141.349 31.66 141.685 31.86C142.021 32.052 142.393 32.148 142.801 32.148C143.209 32.148 143.581 32.052 143.917 31.86C144.261 31.66 144.533 31.376 144.733 31.008C144.933 30.632 145.033 30.196 145.033 29.7ZM153.647 26.424L149.687 36.096H148.559L149.855 32.928L147.203 26.424H148.415L150.479 31.752L152.519 26.424H153.647ZM157.612 33.108C156.996 33.108 156.436 32.968 155.932 32.688C155.436 32.408 155.044 32.012 154.756 31.5C154.476 30.98 154.336 30.38 154.336 29.7C154.336 29.028 154.48 28.436 154.768 27.924C155.064 27.404 155.464 27.008 155.968 26.736C156.472 26.456 157.036 26.316 157.66 26.316C158.284 26.316 158.848 26.456 159.352 26.736C159.856 27.008 160.252 27.4 160.54 27.912C160.836 28.424 160.984 29.02 160.984 29.7C160.984 30.38 160.832 30.98 160.528 31.5C160.232 32.012 159.828 32.408 159.316 32.688C158.804 32.968 158.236 33.108 157.612 33.108ZM157.612 32.148C158.004 32.148 158.372 32.056 158.716 31.872C159.06 31.688 159.336 31.412 159.544 31.044C159.76 30.676 159.868 30.228 159.868 29.7C159.868 29.172 159.764 28.724 159.556 28.356C159.348 27.988 159.076 27.716 158.74 27.54C158.404 27.356 158.04 27.264 157.648 27.264C157.248 27.264 156.88 27.356 156.544 27.54C156.216 27.716 155.952 27.988 155.752 28.356C155.552 28.724 155.452 29.172 155.452 29.7C155.452 30.236 155.548 30.688 155.74 31.056C155.94 31.424 156.204 31.7 156.532 31.884C156.86 32.06 157.22 32.148 157.612 32.148ZM168.252 26.424V33H167.16V32.028C166.952 32.364 166.66 32.628 166.284 32.82C165.916 33.004 165.508 33.096 165.06 33.096C164.548 33.096 164.088 32.992 163.68 32.784C163.272 32.568 162.948 32.248 162.708 31.824C162.476 31.4 162.36 30.884 162.36 30.276V26.424H163.44V30.132C163.44 30.78 163.604 31.28 163.932 31.632C164.26 31.976 164.708 32.148 165.276 32.148C165.86 32.148 166.32 31.968 166.656 31.608C166.992 31.248 167.16 30.724 167.16 30.036V26.424H168.252ZM171.428 27.324V31.2C171.428 31.52 171.496 31.748 171.632 31.884C171.768 32.012 172.004 32.076 172.34 32.076H173.144V33H172.16C171.552 33 171.096 32.86 170.792 32.58C170.488 32.3 170.336 31.84 170.336 31.2V27.324H169.484V26.424H170.336V24.768H171.428V26.424H173.144V27.324H171.428Z" fill="#5E5873"/>
<circle cx="198" cy="29" r="4" fill="#0991F3"/>
<path d="M219.408 24.696V33H218.316V26.808L215.556 33H214.788L212.016 26.796V33H210.924V24.696H212.1L215.172 31.56L218.244 24.696H219.408ZM220.852 29.688C220.852 29.016 220.988 28.428 221.26 27.924C221.532 27.412 221.904 27.016 222.376 26.736C222.856 26.456 223.388 26.316 223.972 26.316C224.548 26.316 225.048 26.44 225.472 26.688C225.896 26.936 226.212 27.248 226.42 27.624V26.424H227.524V33H226.42V31.776C226.204 32.16 225.88 32.48 225.448 32.736C225.024 32.984 224.528 33.108 223.96 33.108C223.376 33.108 222.848 32.964 222.376 32.676C221.904 32.388 221.532 31.984 221.26 31.464C220.988 30.944 220.852 30.352 220.852 29.688ZM226.42 29.7C226.42 29.204 226.32 28.772 226.12 28.404C225.92 28.036 225.648 27.756 225.304 27.564C224.968 27.364 224.596 27.264 224.188 27.264C223.78 27.264 223.408 27.36 223.072 27.552C222.736 27.744 222.468 28.024 222.268 28.392C222.068 28.76 221.968 29.192 221.968 29.688C221.968 30.192 222.068 30.632 222.268 31.008C222.468 31.376 222.736 31.66 223.072 31.86C223.408 32.052 223.78 32.148 224.188 32.148C224.596 32.148 224.968 32.052 225.304 31.86C225.648 31.66 225.92 31.376 226.12 31.008C226.32 30.632 226.42 30.196 226.42 29.7ZM230.461 27.492C230.653 27.116 230.925 26.824 231.277 26.616C231.637 26.408 232.073 26.304 232.585 26.304V27.432H232.297C231.073 27.432 230.461 28.096 230.461 29.424V33H229.369V26.424H230.461V27.492ZM236.558 26.316C237.126 26.316 237.622 26.44 238.046 26.688C238.478 26.936 238.798 27.248 239.006 27.624V26.424H240.11V33.144C240.11 33.744 239.982 34.276 239.726 34.74C239.47 35.212 239.102 35.58 238.622 35.844C238.15 36.108 237.598 36.24 236.966 36.24C236.102 36.24 235.382 36.036 234.806 35.628C234.23 35.22 233.89 34.664 233.786 33.96H234.866C234.986 34.36 235.234 34.68 235.61 34.92C235.986 35.168 236.438 35.292 236.966 35.292C237.566 35.292 238.054 35.104 238.43 34.728C238.814 34.352 239.006 33.824 239.006 33.144V31.764C238.79 32.148 238.47 32.468 238.046 32.724C237.622 32.98 237.126 33.108 236.558 33.108C235.974 33.108 235.442 32.964 234.962 32.676C234.49 32.388 234.118 31.984 233.846 31.464C233.574 30.944 233.438 30.352 233.438 29.688C233.438 29.016 233.574 28.428 233.846 27.924C234.118 27.412 234.49 27.016 234.962 26.736C235.442 26.456 235.974 26.316 236.558 26.316ZM239.006 29.7C239.006 29.204 238.906 28.772 238.706 28.404C238.506 28.036 238.234 27.756 237.89 27.564C237.554 27.364 237.182 27.264 236.774 27.264C236.366 27.264 235.994 27.36 235.658 27.552C235.322 27.744 235.054 28.024 234.854 28.392C234.654 28.76 234.554 29.192 234.554 29.688C234.554 30.192 234.654 30.632 234.854 31.008C235.054 31.376 235.322 31.66 235.658 31.86C235.994 32.052 236.366 32.148 236.774 32.148C237.182 32.148 237.554 32.052 237.89 31.86C238.234 31.66 238.506 31.376 238.706 31.008C238.906 30.632 239.006 30.196 239.006 29.7ZM242.519 25.356C242.311 25.356 242.135 25.284 241.991 25.14C241.847 24.996 241.775 24.82 241.775 24.612C241.775 24.404 241.847 24.228 241.991 24.084C242.135 23.94 242.311 23.868 242.519 23.868C242.719 23.868 242.887 23.94 243.023 24.084C243.167 24.228 243.239 24.404 243.239 24.612C243.239 24.82 243.167 24.996 243.023 25.14C242.887 25.284 242.719 25.356 242.519 25.356ZM243.047 26.424V33H241.955V26.424H243.047ZM248.112 26.304C248.912 26.304 249.56 26.548 250.056 27.036C250.552 27.516 250.8 28.212 250.8 29.124V33H249.72V29.28C249.72 28.624 249.556 28.124 249.228 27.78C248.9 27.428 248.452 27.252 247.884 27.252C247.308 27.252 246.848 27.432 246.504 27.792C246.168 28.152 246 28.676 246 29.364V33H244.908V26.424H246V27.36C246.216 27.024 246.508 26.764 246.876 26.58C247.252 26.396 247.664 26.304 248.112 26.304Z" fill="#5E5873"/>
<path d="M21.4656 68.04V66.878H24.0976V77H22.8096V68.04H21.4656ZM26.2859 71.834C26.2859 70.2287 26.5473 68.978 27.0699 68.082C27.5926 67.1767 28.5073 66.724 29.8139 66.724C31.1113 66.724 32.0213 67.1767 32.5439 68.082C33.0666 68.978 33.3279 70.2287 33.3279 71.834C33.3279 73.4673 33.0666 74.7367 32.5439 75.642C32.0213 76.5473 31.1113 77 29.8139 77C28.5073 77 27.5926 76.5473 27.0699 75.642C26.5473 74.7367 26.2859 73.4673 26.2859 71.834ZM32.068 71.834C32.068 71.022 32.012 70.336 31.9 69.776C31.7973 69.2067 31.5779 68.7493 31.2419 68.404C30.9153 68.0587 30.4393 67.886 29.8139 67.886C29.1793 67.886 28.6939 68.0587 28.3579 68.404C28.0313 68.7493 27.8119 69.2067 27.6999 69.776C27.5973 70.336 27.5459 71.022 27.5459 71.834C27.5459 72.674 27.5973 73.3787 27.6999 73.948C27.8119 74.5173 28.0313 74.9747 28.3579 75.32C28.6939 75.6653 29.1793 75.838 29.8139 75.838C30.4393 75.838 30.9153 75.6653 31.2419 75.32C31.5779 74.9747 31.7973 74.5173 31.9 73.948C32.012 73.3787 32.068 72.674 32.068 71.834ZM35.077 71.834C35.077 70.2287 35.3383 68.978 35.861 68.082C36.3836 67.1767 37.2983 66.724 38.605 66.724C39.9023 66.724 40.8123 67.1767 41.335 68.082C41.8576 68.978 42.119 70.2287 42.119 71.834C42.119 73.4673 41.8576 74.7367 41.335 75.642C40.8123 76.5473 39.9023 77 38.605 77C37.2983 77 36.3836 76.5473 35.861 75.642C35.3383 74.7367 35.077 73.4673 35.077 71.834ZM40.859 71.834C40.859 71.022 40.803 70.336 40.691 69.776C40.5883 69.2067 40.369 68.7493 40.033 68.404C39.7063 68.0587 39.2303 67.886 38.605 67.886C37.9703 67.886 37.485 68.0587 37.149 68.404C36.8223 68.7493 36.603 69.2067 36.491 69.776C36.3883 70.336 36.337 71.022 36.337 71.834C36.337 72.674 36.3883 73.3787 36.491 73.948C36.603 74.5173 36.8223 74.9747 37.149 75.32C37.485 75.6653 37.9703 75.838 38.605 75.838C39.2303 75.838 39.7063 75.6653 40.033 75.32C40.369 74.9747 40.5883 74.5173 40.691 73.948C40.803 73.3787 40.859 72.674 40.859 71.834Z" fill="#7C8DB5"/>
<line x1="58.0007" y1="71.625" x2="561.001" y2="72.375" stroke="#E6EDFF"/>
<path d="M27.0929 111.736C26.5703 111.531 26.1689 111.232 25.8889 110.84C25.6089 110.448 25.4689 109.972 25.4689 109.412C25.4689 108.908 25.5949 108.455 25.8469 108.054C26.0989 107.643 26.4723 107.321 26.9669 107.088C27.4709 106.845 28.0776 106.724 28.7869 106.724C29.4963 106.724 30.0983 106.845 30.5929 107.088C31.0969 107.321 31.4749 107.643 31.7269 108.054C31.9883 108.455 32.1189 108.908 32.1189 109.412C32.1189 109.953 31.9743 110.429 31.6849 110.84C31.3956 111.241 30.9989 111.54 30.4949 111.736C31.0736 111.913 31.5309 112.226 31.8669 112.674C32.2123 113.113 32.3849 113.645 32.3849 114.27C32.3849 114.877 32.2356 115.409 31.9369 115.866C31.6383 116.314 31.2136 116.664 30.6629 116.916C30.1216 117.159 29.4963 117.28 28.7869 117.28C28.0776 117.28 27.4523 117.159 26.9109 116.916C26.3789 116.664 25.9636 116.314 25.6649 115.866C25.3663 115.409 25.2169 114.877 25.2169 114.27C25.2169 113.645 25.3849 113.108 25.7209 112.66C26.0569 112.212 26.5143 111.904 27.0929 111.736ZM30.8869 109.566C30.8869 108.997 30.7003 108.558 30.3269 108.25C29.9536 107.942 29.4403 107.788 28.7869 107.788C28.1429 107.788 27.6343 107.942 27.2609 108.25C26.8876 108.558 26.7009 109.001 26.7009 109.58C26.7009 110.103 26.8923 110.523 27.2749 110.84C27.6669 111.157 28.1709 111.316 28.7869 111.316C29.4123 111.316 29.9163 111.157 30.2989 110.84C30.6909 110.513 30.8869 110.089 30.8869 109.566ZM28.7869 112.296C28.0963 112.296 27.5316 112.459 27.0929 112.786C26.6543 113.103 26.4349 113.584 26.4349 114.228C26.4349 114.825 26.6449 115.306 27.0649 115.67C27.4943 116.034 28.0683 116.216 28.7869 116.216C29.5056 116.216 30.0749 116.034 30.4949 115.67C30.9149 115.306 31.1249 114.825 31.1249 114.228C31.1249 113.603 30.9103 113.127 30.4809 112.8C30.0516 112.464 29.4869 112.296 28.7869 112.296ZM34.077 111.834C34.077 110.229 34.3383 108.978 34.861 108.082C35.3836 107.177 36.2983 106.724 37.605 106.724C38.9023 106.724 39.8123 107.177 40.335 108.082C40.8576 108.978 41.119 110.229 41.119 111.834C41.119 113.467 40.8576 114.737 40.335 115.642C39.8123 116.547 38.9023 117 37.605 117C36.2983 117 35.3836 116.547 34.861 115.642C34.3383 114.737 34.077 113.467 34.077 111.834ZM39.859 111.834C39.859 111.022 39.803 110.336 39.691 109.776C39.5883 109.207 39.369 108.749 39.033 108.404C38.7063 108.059 38.2303 107.886 37.605 107.886C36.9703 107.886 36.485 108.059 36.149 108.404C35.8223 108.749 35.603 109.207 35.491 109.776C35.3883 110.336 35.337 111.022 35.337 111.834C35.337 112.674 35.3883 113.379 35.491 113.948C35.603 114.517 35.8223 114.975 36.149 115.32C36.485 115.665 36.9703 115.838 37.605 115.838C38.2303 115.838 38.7063 115.665 39.033 115.32C39.369 114.975 39.5883 114.517 39.691 113.948C39.803 113.379 39.859 112.674 39.859 111.834Z" fill="#7C8DB5"/>
<line x1="57.9998" y1="112.125" x2="568" y2="111.875" stroke="#E6EDFF"/>
<path d="M30.8323 149.286C30.6269 148.25 29.9876 147.732 28.9143 147.732C28.0836 147.732 27.4629 148.054 27.0523 148.698C26.6416 149.333 26.4409 150.383 26.4503 151.848C26.6649 151.363 27.0196 150.985 27.5143 150.714C28.0183 150.434 28.5783 150.294 29.1943 150.294C30.1556 150.294 30.9209 150.593 31.4903 151.19C32.0689 151.787 32.3583 152.613 32.3583 153.668C32.3583 154.303 32.2323 154.872 31.9803 155.376C31.7376 155.88 31.3643 156.281 30.8603 156.58C30.3656 156.879 29.7636 157.028 29.0543 157.028C28.0929 157.028 27.3416 156.813 26.8003 156.384C26.2589 155.955 25.8809 155.362 25.6663 154.606C25.4516 153.85 25.3443 152.917 25.3443 151.806C25.3443 148.381 26.5389 146.668 28.9283 146.668C29.8429 146.668 30.5616 146.915 31.0843 147.41C31.6069 147.905 31.9149 148.53 32.0083 149.286H30.8323ZM28.9283 151.372C28.5269 151.372 28.1489 151.456 27.7943 151.624C27.4396 151.783 27.1503 152.03 26.9263 152.366C26.7116 152.693 26.6043 153.094 26.6043 153.57C26.6043 154.279 26.8096 154.858 27.2203 155.306C27.6309 155.745 28.2189 155.964 28.9843 155.964C29.6376 155.964 30.1556 155.763 30.5383 155.362C30.9303 154.951 31.1263 154.401 31.1263 153.71C31.1263 152.982 30.9396 152.413 30.5663 152.002C30.1929 151.582 29.6469 151.372 28.9283 151.372ZM34.077 151.834C34.077 150.229 34.3383 148.978 34.861 148.082C35.3837 147.177 36.2983 146.724 37.605 146.724C38.9023 146.724 39.8123 147.177 40.335 148.082C40.8577 148.978 41.119 150.229 41.119 151.834C41.119 153.467 40.8577 154.737 40.335 155.642C39.8123 156.547 38.9023 157 37.605 157C36.2983 157 35.3837 156.547 34.861 155.642C34.3383 154.737 34.077 153.467 34.077 151.834ZM39.859 151.834C39.859 151.022 39.803 150.336 39.691 149.776C39.5883 149.207 39.369 148.749 39.033 148.404C38.7063 148.059 38.2303 147.886 37.605 147.886C36.9703 147.886 36.485 148.059 36.149 148.404C35.8223 148.749 35.603 149.207 35.491 149.776C35.3883 150.336 35.337 151.022 35.337 151.834C35.337 152.674 35.3883 153.379 35.491 153.948C35.603 154.517 35.8223 154.975 36.149 155.32C36.485 155.665 36.9703 155.838 37.605 155.838C38.2303 155.838 38.7063 155.665 39.033 155.32C39.369 154.975 39.5883 154.517 39.691 153.948C39.803 153.379 39.859 152.674 39.859 151.834Z" fill="#7C8DB5"/>
<line x1="57.9995" y1="152.25" x2="561" y2="151.75" stroke="#E6EDFF"/>
<path d="M24.9643 194.746V193.78L29.8783 186.976H31.4043V193.64H32.8043V194.746H31.4043V197H30.1443V194.746H24.9643ZM30.2003 188.306L26.4343 193.64H30.2003V188.306ZM34.077 191.834C34.077 190.229 34.3383 188.978 34.861 188.082C35.3837 187.177 36.2983 186.724 37.605 186.724C38.9023 186.724 39.8123 187.177 40.335 188.082C40.8577 188.978 41.119 190.229 41.119 191.834C41.119 193.467 40.8577 194.737 40.335 195.642C39.8123 196.547 38.9023 197 37.605 197C36.2983 197 35.3837 196.547 34.861 195.642C34.3383 194.737 34.077 193.467 34.077 191.834ZM39.859 191.834C39.859 191.022 39.803 190.336 39.691 189.776C39.5883 189.207 39.369 188.749 39.033 188.404C38.7063 188.059 38.2303 187.886 37.605 187.886C36.9703 187.886 36.485 188.059 36.149 188.404C35.8223 188.749 35.603 189.207 35.491 189.776C35.3883 190.336 35.337 191.022 35.337 191.834C35.337 192.674 35.3883 193.379 35.491 193.948C35.603 194.517 35.8223 194.975 36.149 195.32C36.485 195.665 36.9703 195.838 37.605 195.838C38.2303 195.838 38.7063 195.665 39.033 195.32C39.369 194.975 39.5883 194.517 39.691 193.948C39.803 193.379 39.859 192.674 39.859 191.834Z" fill="#7C8DB5"/>
<line x1="57.9995" y1="192.25" x2="561" y2="191.75" stroke="#E6EDFF"/>
<path d="M25.8703 235.978C27.0556 235.026 27.9843 234.247 28.6562 233.64C29.3283 233.024 29.8929 232.385 30.3503 231.722C30.8169 231.05 31.0503 230.392 31.0503 229.748C31.0503 229.141 30.9009 228.665 30.6023 228.32C30.3129 227.965 29.8416 227.788 29.1883 227.788C28.5536 227.788 28.0589 227.989 27.7043 228.39C27.3589 228.782 27.1723 229.309 27.1443 229.972H25.9123C25.9496 228.927 26.2669 228.119 26.8643 227.55C27.4616 226.981 28.2316 226.696 29.1743 226.696C30.1356 226.696 30.8963 226.962 31.4563 227.494C32.0256 228.026 32.3103 228.759 32.3103 229.692C32.3103 230.467 32.0769 231.223 31.6103 231.96C31.1529 232.688 30.6303 233.332 30.0423 233.892C29.4543 234.443 28.7029 235.087 27.7883 235.824H32.6043V236.888H25.8703V235.978ZM34.077 231.834C34.077 230.229 34.3383 228.978 34.861 228.082C35.3837 227.177 36.2983 226.724 37.605 226.724C38.9023 226.724 39.8123 227.177 40.335 228.082C40.8577 228.978 41.119 230.229 41.119 231.834C41.119 233.467 40.8577 234.737 40.335 235.642C39.8123 236.547 38.9023 237 37.605 237C36.2983 237 35.3837 236.547 34.861 235.642C34.3383 234.737 34.077 233.467 34.077 231.834ZM39.859 231.834C39.859 231.022 39.803 230.336 39.691 229.776C39.5883 229.207 39.369 228.749 39.033 228.404C38.7063 228.059 38.2303 227.886 37.605 227.886C36.9703 227.886 36.485 228.059 36.149 228.404C35.8223 228.749 35.603 229.207 35.491 229.776C35.3883 230.336 35.337 231.022 35.337 231.834C35.337 232.674 35.3883 233.379 35.491 233.948C35.603 234.517 35.8223 234.975 36.149 235.32C36.485 235.665 36.9703 235.838 37.605 235.838C38.2303 235.838 38.7063 235.665 39.033 235.32C39.369 234.975 39.5883 234.517 39.691 233.948C39.803 233.379 39.859 232.674 39.859 231.834Z" fill="#7C8DB5"/>
<line x1="57.9995" y1="232.25" x2="561" y2="231.75" stroke="#E6EDFF"/>
<path d="M34.077 271.834C34.077 270.229 34.3383 268.978 34.861 268.082C35.3837 267.177 36.2983 266.724 37.605 266.724C38.9023 266.724 39.8123 267.177 40.335 268.082C40.8577 268.978 41.119 270.229 41.119 271.834C41.119 273.467 40.8577 274.737 40.335 275.642C39.8123 276.547 38.9023 277 37.605 277C36.2983 277 35.3837 276.547 34.861 275.642C34.3383 274.737 34.077 273.467 34.077 271.834ZM39.859 271.834C39.859 271.022 39.803 270.336 39.691 269.776C39.5883 269.207 39.369 268.749 39.033 268.404C38.7063 268.059 38.2303 267.886 37.605 267.886C36.9703 267.886 36.485 268.059 36.149 268.404C35.8223 268.749 35.603 269.207 35.491 269.776C35.3883 270.336 35.337 271.022 35.337 271.834C35.337 272.674 35.3883 273.379 35.491 273.948C35.603 274.517 35.8223 274.975 36.149 275.32C36.485 275.665 36.9703 275.838 37.605 275.838C38.2303 275.838 38.7063 275.665 39.033 275.32C39.369 274.975 39.5883 274.517 39.691 273.948C39.803 273.379 39.859 272.674 39.859 271.834Z" fill="#7C8DB5"/>
<line x1="57.9995" y1="272.25" x2="561" y2="271.75" stroke="#E6EDFF"/>
<path d="M306 91H333V264C333 268.418 329.418 272 325 272H314C309.582 272 306 268.418 306 264V91Z" fill="url(#paint0_linear_0_10)"/>
<path d="M60 205.512C64.3937 205.859 74.8035 208.006 81.2927 213.824C89.4043 221.096 109.683 234.602 111.204 224.213C112.421 215.902 118.133 217.633 120.836 219.538C123.033 221.269 127.934 224.213 129.962 222.135C132.497 219.538 136.552 199.279 143.65 198.24C150.748 197.201 146.692 205.512 151.255 206.551C155.817 207.59 157.845 201.357 161.901 201.357C165.957 201.357 171.533 212.785 178.631 211.746C185.729 210.707 191.305 211.746 196.375 209.149C201.445 206.551 199.417 201.357 202.459 198.24C205.5 195.123 210.57 193.046 211.077 188.89C211.584 184.734 213.612 173.826 218.682 173.306C223.751 172.787 223.244 176.423 232.37 175.904C241.495 175.384 242.509 174.345 245.551 177.981C248.593 181.618 250.114 188.89 255.183 188.89C260.253 188.89 257.211 193.046 261.774 195.123C266.337 197.201 267.858 196.162 272.927 192.526C277.997 188.89 287.123 162.917 298.783 162.917C310.443 162.917 308.415 158.762 319.062 160.839C329.708 162.917 329.708 161.359 332.243 156.684C334.778 152.009 339.34 147.334 345.424 147.334C351.508 147.334 360.126 150.45 365.703 148.892C371.28 147.334 376.856 137.464 382.94 137.983C389.023 138.503 386.489 141.1 398.149 141.1C409.809 141.1 405.754 127.075 418.935 126.036C432.116 124.997 443.269 146.814 453.409 148.892C463.548 150.97 471.153 141.1 479.771 141.1C488.39 141.1 496.501 153.048 507.654 152.528C518.808 152.009 516.78 144.736 525.905 144.736C535.031 144.736 536.045 152.528 545.677 152.528C555.31 152.528 556.324 144.736 561.393 144.736" stroke="#FE7208" stroke-opacity="0.24" stroke-width="2" stroke-linecap="round" stroke-linejoin="round"/>
<path d="M60 240C64.0647 237.928 65.589 228.087 71.1779 228.605C76.7669 229.123 79.8154 230.677 83.8801 227.051C87.9449 223.426 93.5338 214.103 99.1228 214.103C104.712 214.103 115.382 206.851 117.922 210.477C120.462 214.103 132.657 219.8 139.262 218.764C145.867 217.728 140.278 214.103 156.029 215.656C171.779 217.21 158.569 218.764 175.844 218.764C193.119 218.764 198.708 231.713 206.837 227.051C214.967 222.39 206.329 202.708 220.048 200.118C233.766 197.528 231.226 201.154 245.452 205.815C259.679 210.477 275.429 181.99 284.575 183.544C293.721 185.097 295.245 193.385 301.85 183.544C308.455 173.703 308.455 155.056 317.093 154.021C325.73 152.985 343.005 154.021 346.054 161.79C349.102 169.559 348.086 177.846 356.724 178.882C365.361 179.918 371.966 171.631 384.668 173.185C397.371 174.738 391.782 178.882 398.895 178.882C406.008 178.882 410.073 168.523 414.138 169.559C418.202 170.595 422.267 174.738 424.299 178.882C426.332 183.026 426.84 189.241 430.904 189.241C434.969 189.241 434.461 201.154 438.526 199.082C442.59 197.01 443.099 199.6 444.623 194.938C446.147 190.277 448.179 180.954 451.228 180.436C454.276 179.918 453.26 179.4 457.325 180.436C461.39 181.472 463.93 180.954 464.438 177.846C464.946 174.738 464.438 173.185 467.995 173.185C471.551 173.185 473.076 175.256 478.665 177.846C484.254 180.436 505.593 198.046 512.199 196.492C518.804 194.938 523.885 189.241 535.062 189.241C546.24 189.241 547.257 194.42 555.386 191.831" stroke="#7367F0" stroke-width="2" stroke-linecap="round" stroke-linejoin="round"/>
<g filter="url(#filter0_d_0_10)">
<circle cx="320" cy="153" r="4" fill="#347AE2"/>
<circle cx="320" cy="153" r="3.5" stroke="white"/>
</g>
<g filter="url(#filter1_d_0_10)">
<rect x="266" y="74" width="128" height="66" rx="8" fill="white" shape-rendering="crispEdges"/>
<path d="M278.456 91.32V90.324H280.712V99H279.608V91.32H278.456ZM288.12 91.272H283.908V94.008C284.092 93.752 284.364 93.544 284.724 93.384C285.084 93.216 285.472 93.132 285.888 93.132C286.552 93.132 287.092 93.272 287.508 93.552C287.924 93.824 288.22 94.18 288.396 94.62C288.58 95.052 288.672 95.512 288.672 96C288.672 96.576 288.564 97.092 288.348 97.548C288.132 98.004 287.8 98.364 287.352 98.628C286.912 98.892 286.364 99.024 285.708 99.024C284.868 99.024 284.188 98.808 283.668 98.376C283.148 97.944 282.832 97.368 282.72 96.648H283.788C283.892 97.104 284.112 97.46 284.448 97.716C284.784 97.972 285.208 98.1 285.72 98.1C286.352 98.1 286.828 97.912 287.148 97.536C287.468 97.152 287.628 96.648 287.628 96.024C287.628 95.4 287.468 94.92 287.148 94.584C286.828 94.24 286.356 94.068 285.732 94.068C285.308 94.068 284.936 94.172 284.616 94.38C284.304 94.58 284.076 94.856 283.932 95.208H282.9V90.312H288.12V91.272ZM298.446 97.14H294.798L294.126 99H292.974L295.998 90.684H297.258L300.27 99H299.118L298.446 97.14ZM298.134 96.252L296.622 92.028L295.11 96.252H298.134ZM307.42 92.424V99H306.328V98.028C306.12 98.364 305.828 98.628 305.452 98.82C305.084 99.004 304.676 99.096 304.228 99.096C303.716 99.096 303.256 98.992 302.848 98.784C302.44 98.568 302.116 98.248 301.876 97.824C301.644 97.4 301.528 96.884 301.528 96.276V92.424H302.608V96.132C302.608 96.78 302.772 97.28 303.1 97.632C303.428 97.976 303.876 98.148 304.444 98.148C305.028 98.148 305.488 97.968 305.824 97.608C306.16 97.248 306.328 96.724 306.328 96.036V92.424H307.42ZM311.976 92.316C312.544 92.316 313.04 92.44 313.464 92.688C313.896 92.936 314.216 93.248 314.424 93.624V92.424H315.528V99.144C315.528 99.744 315.4 100.276 315.144 100.74C314.888 101.212 314.52 101.58 314.04 101.844C313.568 102.108 313.016 102.24 312.384 102.24C311.52 102.24 310.8 102.036 310.224 101.628C309.648 101.22 309.308 100.664 309.204 99.96H310.284C310.404 100.36 310.652 100.68 311.028 100.92C311.404 101.168 311.856 101.292 312.384 101.292C312.984 101.292 313.472 101.104 313.848 100.728C314.232 100.352 314.424 99.824 314.424 99.144V97.764C314.208 98.148 313.888 98.468 313.464 98.724C313.04 98.98 312.544 99.108 311.976 99.108C311.392 99.108 310.86 98.964 310.38 98.676C309.908 98.388 309.536 97.984 309.264 97.464C308.992 96.944 308.856 96.352 308.856 95.688C308.856 95.016 308.992 94.428 309.264 93.924C309.536 93.412 309.908 93.016 310.38 92.736C310.86 92.456 311.392 92.316 311.976 92.316ZM314.424 95.7C314.424 95.204 314.324 94.772 314.124 94.404C313.924 94.036 313.652 93.756 313.308 93.564C312.972 93.364 312.6 93.264 312.192 93.264C311.784 93.264 311.412 93.36 311.076 93.552C310.74 93.744 310.472 94.024 310.272 94.392C310.072 94.76 309.972 95.192 309.972 95.688C309.972 96.192 310.072 96.632 310.272 97.008C310.472 97.376 310.74 97.66 311.076 97.86C311.412 98.052 311.784 98.148 312.192 98.148C312.6 98.148 312.972 98.052 313.308 97.86C313.652 97.66 313.924 97.376 314.124 97.008C314.324 96.632 314.424 96.196 314.424 95.7ZM320.26 98.124C321.276 97.308 322.072 96.64 322.648 96.12C323.224 95.592 323.708 95.044 324.1 94.476C324.5 93.9 324.7 93.336 324.7 92.784C324.7 92.264 324.572 91.856 324.316 91.56C324.068 91.256 323.664 91.104 323.104 91.104C322.56 91.104 322.136 91.276 321.832 91.62C321.536 91.956 321.376 92.408 321.352 92.976H320.296C320.328 92.08 320.6 91.388 321.112 90.9C321.624 90.412 322.284 90.168 323.092 90.168C323.916 90.168 324.568 90.396 325.048 90.852C325.536 91.308 325.78 91.936 325.78 92.736C325.78 93.4 325.58 94.048 325.18 94.68C324.788 95.304 324.34 95.856 323.836 96.336C323.332 96.808 322.688 97.36 321.904 97.992H326.032V98.904H320.26V98.124ZM327.295 94.572C327.295 93.196 327.519 92.124 327.967 91.356C328.415 90.58 329.199 90.192 330.319 90.192C331.431 90.192 332.211 90.58 332.659 91.356C333.107 92.124 333.331 93.196 333.331 94.572C333.331 95.972 333.107 97.06 332.659 97.836C332.211 98.612 331.431 99 330.319 99C329.199 99 328.415 98.612 327.967 97.836C327.519 97.06 327.295 95.972 327.295 94.572ZM332.251 94.572C332.251 93.876 332.203 93.288 332.107 92.808C332.019 92.32 331.831 91.928 331.543 91.632C331.263 91.336 330.855 91.188 330.319 91.188C329.775 91.188 329.359 91.336 329.071 91.632C328.791 91.928 328.603 92.32 328.507 92.808C328.419 93.288 328.375 93.876 328.375 94.572C328.375 95.292 328.419 95.896 328.507 96.384C328.603 96.872 328.791 97.264 329.071 97.56C329.359 97.856 329.775 98.004 330.319 98.004C330.855 98.004 331.263 97.856 331.543 97.56C331.831 97.264 332.019 96.872 332.107 96.384C332.203 95.896 332.251 95.292 332.251 94.572ZM334.698 98.124C335.714 97.308 336.51 96.64 337.086 96.12C337.662 95.592 338.146 95.044 338.538 94.476C338.938 93.9 339.138 93.336 339.138 92.784C339.138 92.264 339.01 91.856 338.754 91.56C338.506 91.256 338.102 91.104 337.542 91.104C336.998 91.104 336.574 91.276 336.27 91.62C335.974 91.956 335.814 92.408 335.79 92.976H334.734C334.766 92.08 335.038 91.388 335.55 90.9C336.062 90.412 336.722 90.168 337.53 90.168C338.354 90.168 339.006 90.396 339.486 90.852C339.974 91.308 340.218 91.936 340.218 92.736C340.218 93.4 340.018 94.048 339.618 94.68C339.226 95.304 338.778 95.856 338.274 96.336C337.77 96.808 337.126 97.36 336.342 97.992H340.47V98.904H334.698V98.124ZM341.6 98.124C342.616 97.308 343.412 96.64 343.988 96.12C344.564 95.592 345.048 95.044 345.44 94.476C345.84 93.9 346.04 93.336 346.04 92.784C346.04 92.264 345.912 91.856 345.656 91.56C345.408 91.256 345.004 91.104 344.444 91.104C343.9 91.104 343.476 91.276 343.172 91.62C342.876 91.956 342.716 92.408 342.692 92.976H341.636C341.668 92.08 341.94 91.388 342.452 90.9C342.964 90.412 343.624 90.168 344.432 90.168C345.256 90.168 345.908 90.396 346.388 90.852C346.876 91.308 347.12 91.936 347.12 92.736C347.12 93.4 346.92 94.048 346.52 94.68C346.128 95.304 345.68 95.856 345.176 96.336C344.672 96.808 344.028 97.36 343.244 97.992H347.372V98.904H341.6V98.124ZM349.943 97.488L348.599 100.716H347.867L348.743 97.488H349.943ZM354.213 94.572C354.213 93.196 354.437 92.124 354.885 91.356C355.333 90.58 356.117 90.192 357.237 90.192C358.349 90.192 359.129 90.58 359.577 91.356C360.025 92.124 360.249 93.196 360.249 94.572C360.249 95.972 360.025 97.06 359.577 97.836C359.129 98.612 358.349 99 357.237 99C356.117 99 355.333 98.612 354.885 97.836C354.437 97.06 354.213 95.972 354.213 94.572ZM359.169 94.572C359.169 93.876 359.121 93.288 359.025 92.808C358.937 92.32 358.749 91.928 358.461 91.632C358.181 91.336 357.773 91.188 357.237 91.188C356.693 91.188 356.277 91.336 355.989 91.632C355.709 91.928 355.521 92.32 355.425 92.808C355.337 93.288 355.293 93.876 355.293 94.572C355.293 95.292 355.337 95.896 355.425 96.384C355.521 96.872 355.709 97.264 355.989 97.56C356.277 97.856 356.693 98.004 357.237 98.004C357.773 98.004 358.181 97.856 358.461 97.56C358.749 97.264 358.937 96.872 359.025 96.384C359.121 95.896 359.169 95.292 359.169 94.572ZM366.584 92.388C366.408 91.5 365.86 91.056 364.94 91.056C364.228 91.056 363.696 91.332 363.344 91.884C362.992 92.428 362.82 93.328 362.828 94.584C363.012 94.168 363.316 93.844 363.74 93.612C364.172 93.372 364.652 93.252 365.18 93.252C366.004 93.252 366.66 93.508 367.148 94.02C367.644 94.532 367.892 95.24 367.892 96.144C367.892 96.688 367.784 97.176 367.568 97.608C367.36 98.04 367.04 98.384 366.608 98.64C366.184 98.896 365.668 99.024 365.06 99.024C364.236 99.024 363.592 98.84 363.128 98.472C362.664 98.104 362.34 97.596 362.156 96.948C361.972 96.3 361.88 95.5 361.88 94.548C361.88 91.612 362.904 90.144 364.952 90.144C365.736 90.144 366.352 90.356 366.8 90.78C367.248 91.204 367.512 91.74 367.592 92.388H366.584ZM364.952 94.176C364.608 94.176 364.284 94.248 363.98 94.392C363.676 94.528 363.428 94.74 363.236 95.028C363.052 95.308 362.96 95.652 362.96 96.06C362.96 96.668 363.136 97.164 363.488 97.548C363.84 97.924 364.344 98.112 365 98.112C365.56 98.112 366.004 97.94 366.332 97.596C366.668 97.244 366.836 96.772 366.836 96.18C366.836 95.556 366.676 95.068 366.356 94.716C366.036 94.356 365.568 94.176 364.952 94.176ZM369.893 99.072C369.685 99.072 369.509 99 369.365 98.856C369.221 98.712 369.149 98.536 369.149 98.328C369.149 98.12 369.221 97.944 369.365 97.8C369.509 97.656 369.685 97.584 369.893 97.584C370.093 97.584 370.261 97.656 370.397 97.8C370.541 97.944 370.613 98.12 370.613 98.328C370.613 98.536 370.541 98.712 370.397 98.856C370.261 99 370.093 99.072 369.893 99.072ZM369.893 93.936C369.685 93.936 369.509 93.864 369.365 93.72C369.221 93.576 369.149 93.4 369.149 93.192C369.149 92.984 369.221 92.808 369.365 92.664C369.509 92.52 369.685 92.448 369.893 92.448C370.093 92.448 370.261 92.52 370.397 92.664C370.541 92.808 370.613 92.984 370.613 93.192C370.613 93.4 370.541 93.576 370.397 93.72C370.261 93.864 370.093 93.936 369.893 93.936ZM371.632 91.32V90.324H373.888V99H372.784V91.32H371.632ZM375.632 98.124C376.648 97.308 377.444 96.64 378.02 96.12C378.596 95.592 379.08 95.044 379.472 94.476C379.872 93.9 380.072 93.336 380.072 92.784C380.072 92.264 379.944 91.856 379.688 91.56C379.44 91.256 379.036 91.104 378.476 91.104C377.932 91.104 377.508 91.276 377.204 91.62C376.908 91.956 376.748 92.408 376.724 92.976H375.668C375.7 92.08 375.972 91.388 376.484 90.9C376.996 90.412 377.656 90.168 378.464 90.168C379.288 90.168 379.94 90.396 380.42 90.852C380.908 91.308 381.152 91.936 381.152 92.736C381.152 93.4 380.952 94.048 380.552 94.68C380.16 95.304 379.712 95.856 379.208 96.336C378.704 96.808 378.06 97.36 377.276 97.992H381.404V98.904H375.632V98.124Z" fill="#7C8DB5"/>
<path d="M289.704 118.832C289.704 119.365 289.571 119.867 289.304 120.336C289.048 120.805 288.664 121.2 288.152 121.52C287.651 121.84 287.053 122.032 286.36 122.096V123.392H285.32V122.096C284.317 122 283.507 121.685 282.888 121.152C282.269 120.619 281.96 119.915 281.96 119.04H283.912C283.944 119.456 284.077 119.803 284.312 120.08C284.547 120.347 284.883 120.517 285.32 120.592V117.072C284.605 116.891 284.024 116.709 283.576 116.528C283.128 116.336 282.744 116.037 282.424 115.632C282.115 115.227 281.96 114.672 281.96 113.968C281.96 113.083 282.269 112.352 282.888 111.776C283.507 111.189 284.317 110.848 285.32 110.752V109.456H286.36V110.752C287.299 110.837 288.051 111.136 288.616 111.648C289.192 112.149 289.517 112.843 289.592 113.728H287.64C287.608 113.397 287.48 113.104 287.256 112.848C287.032 112.581 286.733 112.4 286.36 112.304V115.76C287.075 115.931 287.656 116.112 288.104 116.304C288.552 116.485 288.931 116.779 289.24 117.184C289.549 117.579 289.704 118.128 289.704 118.832ZM283.816 113.872C283.816 114.309 283.944 114.651 284.2 114.896C284.467 115.141 284.84 115.339 285.32 115.488V112.256C284.861 112.309 284.493 112.475 284.216 112.752C283.949 113.029 283.816 113.403 283.816 113.872ZM286.36 120.592C286.829 120.517 287.197 120.331 287.464 120.032C287.731 119.723 287.864 119.355 287.864 118.928C287.864 118.501 287.731 118.171 287.464 117.936C287.208 117.691 286.84 117.493 286.36 117.344V120.592ZM292.334 113.216C292.398 112.224 292.777 111.451 293.47 110.896C294.174 110.341 295.07 110.064 296.158 110.064C296.905 110.064 297.55 110.197 298.094 110.464C298.638 110.731 299.049 111.093 299.326 111.552C299.604 112.011 299.742 112.528 299.742 113.104C299.742 113.765 299.566 114.331 299.214 114.8C298.862 115.269 298.441 115.584 297.95 115.744V115.808C298.58 116 299.07 116.352 299.422 116.864C299.774 117.365 299.95 118.011 299.95 118.8C299.95 119.429 299.806 119.989 299.518 120.48C299.23 120.971 298.804 121.36 298.238 121.648C297.673 121.925 296.996 122.064 296.206 122.064C295.054 122.064 294.105 121.771 293.358 121.184C292.622 120.587 292.228 119.733 292.174 118.624H293.934C293.977 119.189 294.196 119.653 294.59 120.016C294.985 120.368 295.518 120.544 296.19 120.544C296.841 120.544 297.342 120.368 297.694 120.016C298.046 119.653 298.222 119.189 298.222 118.624C298.222 117.877 297.982 117.349 297.502 117.04C297.033 116.72 296.308 116.56 295.326 116.56H294.91V115.056H295.342C296.206 115.045 296.862 114.901 297.31 114.624C297.769 114.347 297.998 113.909 297.998 113.312C297.998 112.8 297.833 112.395 297.502 112.096C297.172 111.787 296.702 111.632 296.094 111.632C295.497 111.632 295.033 111.787 294.702 112.096C294.372 112.395 294.174 112.768 294.11 113.216H292.334ZM309.258 111.744L304.81 122H302.97L307.466 111.936H301.546V110.384H309.258V111.744ZM312.787 115.904C311.678 115.349 311.123 114.475 311.123 113.28C311.123 112.704 311.267 112.176 311.555 111.696C311.843 111.216 312.275 110.837 312.851 110.56C313.427 110.272 314.131 110.128 314.963 110.128C315.785 110.128 316.483 110.272 317.059 110.56C317.646 110.837 318.083 111.216 318.371 111.696C318.659 112.176 318.803 112.704 318.803 113.28C318.803 113.877 318.649 114.405 318.339 114.864C318.041 115.312 317.641 115.659 317.139 115.904C317.747 116.128 318.227 116.496 318.579 117.008C318.931 117.509 319.107 118.101 319.107 118.784C319.107 119.477 318.931 120.091 318.579 120.624C318.227 121.157 317.737 121.568 317.107 121.856C316.478 122.144 315.763 122.288 314.963 122.288C314.163 122.288 313.449 122.144 312.819 121.856C312.201 121.568 311.715 121.157 311.363 120.624C311.011 120.091 310.835 119.477 310.835 118.784C310.835 118.091 311.011 117.493 311.363 116.992C311.715 116.491 312.19 116.128 312.787 115.904ZM317.059 113.504C317.059 112.907 316.873 112.448 316.499 112.128C316.126 111.808 315.614 111.648 314.963 111.648C314.323 111.648 313.817 111.808 313.443 112.128C313.07 112.448 312.883 112.912 312.883 113.52C312.883 114.053 313.075 114.491 313.459 114.832C313.854 115.163 314.355 115.328 314.963 115.328C315.571 115.328 316.073 115.157 316.467 114.816C316.862 114.475 317.059 114.037 317.059 113.504ZM314.963 116.704C314.259 116.704 313.683 116.88 313.235 117.232C312.798 117.573 312.579 118.069 312.579 118.72C312.579 119.328 312.793 119.824 313.219 120.208C313.646 120.581 314.227 120.768 314.963 120.768C315.689 120.768 316.259 120.576 316.675 120.192C317.102 119.808 317.315 119.317 317.315 118.72C317.315 118.08 317.097 117.584 316.659 117.232C316.233 116.88 315.667 116.704 314.963 116.704ZM323.263 119.808L321.327 124.224H320.143L321.279 119.808H323.263ZM326.584 115.904C325.475 115.349 324.92 114.475 324.92 113.28C324.92 112.704 325.064 112.176 325.352 111.696C325.64 111.216 326.072 110.837 326.648 110.56C327.224 110.272 327.928 110.128 328.76 110.128C329.582 110.128 330.28 110.272 330.856 110.56C331.443 110.837 331.88 111.216 332.168 111.696C332.456 112.176 332.6 112.704 332.6 113.28C332.6 113.877 332.446 114.405 332.136 114.864C331.838 115.312 331.438 115.659 330.936 115.904C331.544 116.128 332.024 116.496 332.376 117.008C332.728 117.509 332.904 118.101 332.904 118.784C332.904 119.477 332.728 120.091 332.376 120.624C332.024 121.157 331.534 121.568 330.904 121.856C330.275 122.144 329.56 122.288 328.76 122.288C327.96 122.288 327.246 122.144 326.616 121.856C325.998 121.568 325.512 121.157 325.16 120.624C324.808 120.091 324.632 119.477 324.632 118.784C324.632 118.091 324.808 117.493 325.16 116.992C325.512 116.491 325.987 116.128 326.584 115.904ZM330.856 113.504C330.856 112.907 330.67 112.448 330.296 112.128C329.923 111.808 329.411 111.648 328.76 111.648C328.12 111.648 327.614 111.808 327.24 112.128C326.867 112.448 326.68 112.912 326.68 113.52C326.68 114.053 326.872 114.491 327.256 114.832C327.651 115.163 328.152 115.328 328.76 115.328C329.368 115.328 329.87 115.157 330.264 114.816C330.659 114.475 330.856 114.037 330.856 113.504ZM328.76 116.704C328.056 116.704 327.48 116.88 327.032 117.232C326.595 117.573 326.376 118.069 326.376 118.72C326.376 119.328 326.59 119.824 327.016 120.208C327.443 120.581 328.024 120.768 328.76 120.768C329.486 120.768 330.056 120.576 330.472 120.192C330.899 119.808 331.112 119.317 331.112 118.72C331.112 118.08 330.894 117.584 330.456 117.232C330.03 116.88 329.464 116.704 328.76 116.704ZM336.787 115.904C335.678 115.349 335.123 114.475 335.123 113.28C335.123 112.704 335.267 112.176 335.555 111.696C335.843 111.216 336.275 110.837 336.851 110.56C337.427 110.272 338.131 110.128 338.963 110.128C339.785 110.128 340.483 110.272 341.059 110.56C341.646 110.837 342.083 111.216 342.371 111.696C342.659 112.176 342.803 112.704 342.803 113.28C342.803 113.877 342.649 114.405 342.339 114.864C342.041 115.312 341.641 115.659 341.139 115.904C341.747 116.128 342.227 116.496 342.579 117.008C342.931 117.509 343.107 118.101 343.107 118.784C343.107 119.477 342.931 120.091 342.579 120.624C342.227 121.157 341.737 121.568 341.107 121.856C340.478 122.144 339.763 122.288 338.963 122.288C338.163 122.288 337.449 122.144 336.819 121.856C336.201 121.568 335.715 121.157 335.363 120.624C335.011 120.091 334.835 119.477 334.835 118.784C334.835 118.091 335.011 117.493 335.363 116.992C335.715 116.491 336.19 116.128 336.787 115.904ZM341.059 113.504C341.059 112.907 340.873 112.448 340.499 112.128C340.126 111.808 339.614 111.648 338.963 111.648C338.323 111.648 337.817 111.808 337.443 112.128C337.07 112.448 336.883 112.912 336.883 113.52C336.883 114.053 337.075 114.491 337.459 114.832C337.854 115.163 338.355 115.328 338.963 115.328C339.571 115.328 340.073 115.157 340.467 114.816C340.862 114.475 341.059 114.037 341.059 113.504ZM338.963 116.704C338.259 116.704 337.683 116.88 337.235 117.232C336.798 117.573 336.579 118.069 336.579 118.72C336.579 119.328 336.793 119.824 337.219 120.208C337.646 120.581 338.227 120.768 338.963 120.768C339.689 120.768 340.259 120.576 340.675 120.192C341.102 119.808 341.315 119.317 341.315 118.72C341.315 118.08 341.097 117.584 340.659 117.232C340.233 116.88 339.667 116.704 338.963 116.704ZM344.799 119.568V118.192L350.175 110.48H352.383V117.984H353.871V119.568H352.383V122H350.591V119.568H344.799ZM350.671 112.336L346.895 117.984H350.671V112.336ZM356.358 122.112C356.027 122.112 355.75 122 355.526 121.776C355.302 121.552 355.19 121.275 355.19 120.944C355.19 120.613 355.302 120.336 355.526 120.112C355.75 119.888 356.027 119.776 356.358 119.776C356.678 119.776 356.95 119.888 357.174 120.112C357.398 120.336 357.51 120.613 357.51 120.944C357.51 121.275 357.398 121.552 357.174 121.776C356.95 122 356.678 122.112 356.358 122.112ZM359.241 116.016C359.241 114.171 359.551 112.731 360.169 111.696C360.799 110.651 361.876 110.128 363.401 110.128C364.927 110.128 365.999 110.651 366.617 111.696C367.247 112.731 367.561 114.171 367.561 116.016C367.561 117.883 367.247 119.344 366.617 120.4C365.999 121.445 364.927 121.968 363.401 121.968C361.876 121.968 360.799 121.445 360.169 120.4C359.551 119.344 359.241 117.883 359.241 116.016ZM365.769 116.016C365.769 115.152 365.711 114.421 365.593 113.824C365.487 113.227 365.263 112.741 364.921 112.368C364.58 111.984 364.073 111.792 363.401 111.792C362.729 111.792 362.223 111.984 361.881 112.368C361.54 112.741 361.311 113.227 361.193 113.824C361.087 114.421 361.033 115.152 361.033 116.016C361.033 116.912 361.087 117.664 361.193 118.272C361.3 118.88 361.524 119.371 361.865 119.744C362.217 120.117 362.729 120.304 363.401 120.304C364.073 120.304 364.58 120.117 364.921 119.744C365.273 119.371 365.503 118.88 365.609 118.272C365.716 117.664 365.769 116.912 365.769 116.016ZM369.491 116.016C369.491 114.171 369.801 112.731 370.419 111.696C371.049 110.651 372.126 110.128 373.651 110.128C375.177 110.128 376.249 110.651 376.867 111.696C377.497 112.731 377.811 114.171 377.811 116.016C377.811 117.883 377.497 119.344 376.867 120.4C376.249 121.445 375.177 121.968 373.651 121.968C372.126 121.968 371.049 121.445 370.419 120.4C369.801 119.344 369.491 117.883 369.491 116.016ZM376.019 116.016C376.019 115.152 375.961 114.421 375.843 113.824C375.737 113.227 375.513 112.741 375.171 112.368C374.83 111.984 374.323 111.792 373.651 111.792C372.979 111.792 372.473 111.984 372.131 112.368C371.79 112.741 371.561 113.227 371.443 113.824C371.337 114.421 371.283 115.152 371.283 116.016C371.283 116.912 371.337 117.664 371.443 118.272C371.55 118.88 371.774 119.371 372.115 119.744C372.467 120.117 372.979 120.304 373.651 120.304C374.323 120.304 374.83 120.117 375.171 119.744C375.523 119.371 375.753 118.88 375.859 118.272C375.966 117.664 376.019 116.912 376.019 116.016Z" fill="#5E5873"/>
</g>
<path d="M330.64 144.467C330.269 144.776 329.731 144.776 329.36 144.467L324 140L336 140L330.64 144.467Z" fill="white"/>
<path d="M58.868 296.834C58.868 295.229 59.1293 293.978 59.652 293.082C60.1747 292.177 61.0893 291.724 62.396 291.724C63.6933 291.724 64.6033 292.177 65.126 293.082C65.6487 293.978 65.91 295.229 65.91 296.834C65.91 298.467 65.6487 299.737 65.126 300.642C64.6033 301.547 63.6933 302 62.396 302C61.0893 302 60.1747 301.547 59.652 300.642C59.1293 299.737 58.868 298.467 58.868 296.834ZM64.65 296.834C64.65 296.022 64.594 295.336 64.482 294.776C64.3793 294.207 64.16 293.749 63.824 293.404C63.4973 293.059 63.0213 292.886 62.396 292.886C61.7613 292.886 61.276 293.059 60.94 293.404C60.6133 293.749 60.394 294.207 60.282 294.776C60.1793 295.336 60.128 296.022 60.128 296.834C60.128 297.674 60.1793 298.379 60.282 298.948C60.394 299.517 60.6133 299.975 60.94 300.32C61.276 300.665 61.7613 300.838 62.396 300.838C63.0213 300.838 63.4973 300.665 63.824 300.32C64.16 299.975 64.3793 299.517 64.482 298.948C64.594 298.379 64.65 297.674 64.65 296.834ZM67.659 296.834C67.659 295.229 67.9203 293.978 68.443 293.082C68.9657 292.177 69.8803 291.724 71.187 291.724C72.4843 291.724 73.3943 292.177 73.917 293.082C74.4397 293.978 74.701 295.229 74.701 296.834C74.701 298.467 74.4397 299.737 73.917 300.642C73.3943 301.547 72.4843 302 71.187 302C69.8803 302 68.9657 301.547 68.443 300.642C67.9203 299.737 67.659 298.467 67.659 296.834ZM73.441 296.834C73.441 296.022 73.385 295.336 73.273 294.776C73.1703 294.207 72.951 293.749 72.615 293.404C72.2883 293.059 71.8123 292.886 71.187 292.886C70.5523 292.886 70.067 293.059 69.731 293.404C69.4043 293.749 69.185 294.207 69.073 294.776C68.9703 295.336 68.919 296.022 68.919 296.834C68.919 297.674 68.9703 298.379 69.073 298.948C69.185 299.517 69.4043 299.975 69.731 300.32C70.067 300.665 70.5523 300.838 71.187 300.838C71.8123 300.838 72.2883 300.665 72.615 300.32C72.951 299.975 73.1703 299.517 73.273 298.948C73.385 298.379 73.441 297.674 73.441 296.834ZM77.066 302.084C76.8234 302.084 76.618 302 76.45 301.832C76.282 301.664 76.198 301.459 76.198 301.216C76.198 300.973 76.282 300.768 76.45 300.6C76.618 300.432 76.8234 300.348 77.066 300.348C77.2994 300.348 77.4954 300.432 77.654 300.6C77.822 300.768 77.906 300.973 77.906 301.216C77.906 301.459 77.822 301.664 77.654 301.832C77.4954 302 77.2994 302.084 77.066 302.084ZM77.066 296.092C76.8234 296.092 76.618 296.008 76.45 295.84C76.282 295.672 76.198 295.467 76.198 295.224C76.198 294.981 76.282 294.776 76.45 294.608C76.618 294.44 76.8234 294.356 77.066 294.356C77.2994 294.356 77.4954 294.44 77.654 294.608C77.822 294.776 77.906 294.981 77.906 295.224C77.906 295.467 77.822 295.672 77.654 295.84C77.4954 296.008 77.2994 296.092 77.066 296.092ZM79.4305 296.834C79.4305 295.229 79.6918 293.978 80.2145 293.082C80.7372 292.177 81.6518 291.724 82.9585 291.724C84.2558 291.724 85.1658 292.177 85.6885 293.082C86.2112 293.978 86.4725 295.229 86.4725 296.834C86.4725 298.467 86.2112 299.737 85.6885 300.642C85.1658 301.547 84.2558 302 82.9585 302C81.6518 302 80.7372 301.547 80.2145 300.642C79.6918 299.737 79.4305 298.467 79.4305 296.834ZM85.2125 296.834C85.2125 296.022 85.1565 295.336 85.0445 294.776C84.9418 294.207 84.7225 293.749 84.3865 293.404C84.0598 293.059 83.5838 292.886 82.9585 292.886C82.3238 292.886 81.8385 293.059 81.5025 293.404C81.1758 293.749 80.9565 294.207 80.8445 294.776C80.7418 295.336 80.6905 296.022 80.6905 296.834C80.6905 297.674 80.7418 298.379 80.8445 298.948C80.9565 299.517 81.1758 299.975 81.5025 300.32C81.8385 300.665 82.3238 300.838 82.9585 300.838C83.5838 300.838 84.0598 300.665 84.3865 300.32C84.7225 299.975 84.9418 299.517 85.0445 298.948C85.1565 298.379 85.2125 297.674 85.2125 296.834ZM88.2215 296.834C88.2215 295.229 88.4828 293.978 89.0055 293.082C89.5282 292.177 90.4428 291.724 91.7495 291.724C93.0468 291.724 93.9568 292.177 94.4795 293.082C95.0022 293.978 95.2635 295.229 95.2635 296.834C95.2635 298.467 95.0022 299.737 94.4795 300.642C93.9568 301.547 93.0468 302 91.7495 302C90.4428 302 89.5282 301.547 89.0055 300.642C88.4828 299.737 88.2215 298.467 88.2215 296.834ZM94.0035 296.834C94.0035 296.022 93.9475 295.336 93.8355 294.776C93.7328 294.207 93.5135 293.749 93.1775 293.404C92.8508 293.059 92.3748 292.886 91.7495 292.886C91.1148 292.886 90.6295 293.059 90.2935 293.404C89.9668 293.749 89.7475 294.207 89.6355 294.776C89.5328 295.336 89.4815 296.022 89.4815 296.834C89.4815 297.674 89.5328 298.379 89.6355 298.948C89.7475 299.517 89.9668 299.975 90.2935 300.32C90.6295 300.665 91.1148 300.838 91.7495 300.838C92.3748 300.838 92.8508 300.665 93.1775 300.32C93.5135 299.975 93.7328 299.517 93.8355 298.948C93.9475 298.379 94.0035 297.674 94.0035 296.834Z" fill="#7C8DB5"/>
<path d="M151.268 296.834C151.268 295.229 151.529 293.978 152.052 293.082C152.575 292.177 153.489 291.724 154.796 291.724C156.093 291.724 157.003 292.177 157.526 293.082C158.049 293.978 158.31 295.229 158.31 296.834C158.31 298.467 158.049 299.737 157.526 300.642C157.003 301.547 156.093 302 154.796 302C153.489 302 152.575 301.547 152.052 300.642C151.529 299.737 151.268 298.467 151.268 296.834ZM157.05 296.834C157.05 296.022 156.994 295.336 156.882 294.776C156.779 294.207 156.56 293.749 156.224 293.404C155.897 293.059 155.421 292.886 154.796 292.886C154.161 292.886 153.676 293.059 153.34 293.404C153.013 293.749 152.794 294.207 152.682 294.776C152.579 295.336 152.528 296.022 152.528 296.834C152.528 297.674 152.579 298.379 152.682 298.948C152.794 299.517 153.013 299.975 153.34 300.32C153.676 300.665 154.161 300.838 154.796 300.838C155.421 300.838 155.897 300.665 156.224 300.32C156.56 299.975 156.779 299.517 156.882 298.948C156.994 298.379 157.05 297.674 157.05 296.834ZM165.701 294.286C165.496 293.25 164.856 292.732 163.783 292.732C162.952 292.732 162.332 293.054 161.921 293.698C161.51 294.333 161.31 295.383 161.319 296.848C161.534 296.363 161.888 295.985 162.383 295.714C162.887 295.434 163.447 295.294 164.063 295.294C165.024 295.294 165.79 295.593 166.359 296.19C166.938 296.787 167.227 297.613 167.227 298.668C167.227 299.303 167.101 299.872 166.849 300.376C166.606 300.88 166.233 301.281 165.729 301.58C165.234 301.879 164.632 302.028 163.923 302.028C162.962 302.028 162.21 301.813 161.669 301.384C161.128 300.955 160.75 300.362 160.535 299.606C160.32 298.85 160.213 297.917 160.213 296.806C160.213 293.381 161.408 291.668 163.797 291.668C164.712 291.668 165.43 291.915 165.953 292.41C166.476 292.905 166.784 293.53 166.877 294.286H165.701ZM163.797 296.372C163.396 296.372 163.018 296.456 162.663 296.624C162.308 296.783 162.019 297.03 161.795 297.366C161.58 297.693 161.473 298.094 161.473 298.57C161.473 299.279 161.678 299.858 162.089 300.306C162.5 300.745 163.088 300.964 163.853 300.964C164.506 300.964 165.024 300.763 165.407 300.362C165.799 299.951 165.995 299.401 165.995 298.71C165.995 297.982 165.808 297.413 165.435 297.002C165.062 296.582 164.516 296.372 163.797 296.372ZM169.562 302.084C169.319 302.084 169.114 302 168.946 301.832C168.778 301.664 168.694 301.459 168.694 301.216C168.694 300.973 168.778 300.768 168.946 300.6C169.114 300.432 169.319 300.348 169.562 300.348C169.795 300.348 169.991 300.432 170.15 300.6C170.318 300.768 170.402 300.973 170.402 301.216C170.402 301.459 170.318 301.664 170.15 301.832C169.991 302 169.795 302.084 169.562 302.084ZM169.562 296.092C169.319 296.092 169.114 296.008 168.946 295.84C168.778 295.672 168.694 295.467 168.694 295.224C168.694 294.981 168.778 294.776 168.946 294.608C169.114 294.44 169.319 294.356 169.562 294.356C169.795 294.356 169.991 294.44 170.15 294.608C170.318 294.776 170.402 294.981 170.402 295.224C170.402 295.467 170.318 295.672 170.15 295.84C169.991 296.008 169.795 296.092 169.562 296.092ZM171.926 296.834C171.926 295.229 172.188 293.978 172.71 293.082C173.233 292.177 174.148 291.724 175.454 291.724C176.752 291.724 177.662 292.177 178.184 293.082C178.707 293.978 178.968 295.229 178.968 296.834C178.968 298.467 178.707 299.737 178.184 300.642C177.662 301.547 176.752 302 175.454 302C174.148 302 173.233 301.547 172.71 300.642C172.188 299.737 171.926 298.467 171.926 296.834ZM177.708 296.834C177.708 296.022 177.652 295.336 177.54 294.776C177.438 294.207 177.218 293.749 176.882 293.404C176.556 293.059 176.08 292.886 175.454 292.886C174.82 292.886 174.334 293.059 173.998 293.404C173.672 293.749 173.452 294.207 173.34 294.776C173.238 295.336 173.186 296.022 173.186 296.834C173.186 297.674 173.238 298.379 173.34 298.948C173.452 299.517 173.672 299.975 173.998 300.32C174.334 300.665 174.82 300.838 175.454 300.838C176.08 300.838 176.556 300.665 176.882 300.32C177.218 299.975 177.438 299.517 177.54 298.948C177.652 298.379 177.708 297.674 177.708 296.834ZM180.717 296.834C180.717 295.229 180.979 293.978 181.501 293.082C182.024 292.177 182.939 291.724 184.245 291.724C185.543 291.724 186.453 292.177 186.975 293.082C187.498 293.978 187.759 295.229 187.759 296.834C187.759 298.467 187.498 299.737 186.975 300.642C186.453 301.547 185.543 302 184.245 302C182.939 302 182.024 301.547 181.501 300.642C180.979 299.737 180.717 298.467 180.717 296.834ZM186.499 296.834C186.499 296.022 186.443 295.336 186.331 294.776C186.229 294.207 186.009 293.749 185.673 293.404C185.347 293.059 184.871 292.886 184.245 292.886C183.611 292.886 183.125 293.059 182.789 293.404C182.463 293.749 182.243 294.207 182.131 294.776C182.029 295.336 181.977 296.022 181.977 296.834C181.977 297.674 182.029 298.379 182.131 298.948C182.243 299.517 182.463 299.975 182.789 300.32C183.125 300.665 183.611 300.838 184.245 300.838C184.871 300.838 185.347 300.665 185.673 300.32C186.009 299.975 186.229 299.517 186.331 298.948C186.443 298.379 186.499 297.674 186.499 296.834Z" fill="#7C8DB5"/>
<path d="M243.332 293.04V291.878H245.964V302H244.676V293.04H243.332ZM247.998 300.978C249.184 300.026 250.112 299.247 250.784 298.64C251.456 298.024 252.021 297.385 252.478 296.722C252.945 296.05 253.178 295.392 253.178 294.748C253.178 294.141 253.029 293.665 252.73 293.32C252.441 292.965 251.97 292.788 251.316 292.788C250.682 292.788 250.187 292.989 249.832 293.39C249.487 293.782 249.3 294.309 249.272 294.972H248.04C248.078 293.927 248.395 293.119 248.992 292.55C249.59 291.981 250.36 291.696 251.302 291.696C252.264 291.696 253.024 291.962 253.584 292.494C254.154 293.026 254.438 293.759 254.438 294.692C254.438 295.467 254.205 296.223 253.738 296.96C253.281 297.688 252.758 298.332 252.17 298.892C251.582 299.443 250.831 300.087 249.916 300.824H254.732V301.888H247.998V300.978ZM256.821 302.084C256.578 302.084 256.373 302 256.205 301.832C256.037 301.664 255.953 301.459 255.953 301.216C255.953 300.973 256.037 300.768 256.205 300.6C256.373 300.432 256.578 300.348 256.821 300.348C257.054 300.348 257.25 300.432 257.409 300.6C257.577 300.768 257.661 300.973 257.661 301.216C257.661 301.459 257.577 301.664 257.409 301.832C257.25 302 257.054 302.084 256.821 302.084ZM256.821 296.092C256.578 296.092 256.373 296.008 256.205 295.84C256.037 295.672 255.953 295.467 255.953 295.224C255.953 294.981 256.037 294.776 256.205 294.608C256.373 294.44 256.578 294.356 256.821 294.356C257.054 294.356 257.25 294.44 257.409 294.608C257.577 294.776 257.661 294.981 257.661 295.224C257.661 295.467 257.577 295.672 257.409 295.84C257.25 296.008 257.054 296.092 256.821 296.092ZM259.186 296.834C259.186 295.229 259.447 293.978 259.97 293.082C260.492 292.177 261.407 291.724 262.714 291.724C264.011 291.724 264.921 292.177 265.444 293.082C265.966 293.978 266.228 295.229 266.228 296.834C266.228 298.467 265.966 299.737 265.444 300.642C264.921 301.547 264.011 302 262.714 302C261.407 302 260.492 301.547 259.97 300.642C259.447 299.737 259.186 298.467 259.186 296.834ZM264.968 296.834C264.968 296.022 264.912 295.336 264.8 294.776C264.697 294.207 264.478 293.749 264.142 293.404C263.815 293.059 263.339 292.886 262.714 292.886C262.079 292.886 261.594 293.059 261.258 293.404C260.931 293.749 260.712 294.207 260.6 294.776C260.497 295.336 260.446 296.022 260.446 296.834C260.446 297.674 260.497 298.379 260.6 298.948C260.712 299.517 260.931 299.975 261.258 300.32C261.594 300.665 262.079 300.838 262.714 300.838C263.339 300.838 263.815 300.665 264.142 300.32C264.478 299.975 264.697 299.517 264.8 298.948C264.912 298.379 264.968 297.674 264.968 296.834ZM267.977 296.834C267.977 295.229 268.238 293.978 268.761 293.082C269.283 292.177 270.198 291.724 271.505 291.724C272.802 291.724 273.712 292.177 274.235 293.082C274.757 293.978 275.019 295.229 275.019 296.834C275.019 298.467 274.757 299.737 274.235 300.642C273.712 301.547 272.802 302 271.505 302C270.198 302 269.283 301.547 268.761 300.642C268.238 299.737 267.977 298.467 267.977 296.834ZM273.759 296.834C273.759 296.022 273.703 295.336 273.591 294.776C273.488 294.207 273.269 293.749 272.933 293.404C272.606 293.059 272.13 292.886 271.505 292.886C270.87 292.886 270.385 293.059 270.049 293.404C269.722 293.749 269.503 294.207 269.391 294.776C269.288 295.336 269.237 296.022 269.237 296.834C269.237 297.674 269.288 298.379 269.391 298.948C269.503 299.517 269.722 299.975 270.049 300.32C270.385 300.665 270.87 300.838 271.505 300.838C272.13 300.838 272.606 300.665 272.933 300.32C273.269 299.975 273.488 299.517 273.591 298.948C273.703 298.379 273.759 297.674 273.759 296.834Z" fill="#7C8DB5"/>
<path d="M330.732 293.04V291.878H333.364V302H332.076V293.04H330.732ZM341.194 294.286C340.989 293.25 340.35 292.732 339.276 292.732C338.446 292.732 337.825 293.054 337.414 293.698C337.004 294.333 336.803 295.383 336.812 296.848C337.027 296.363 337.382 295.985 337.876 295.714C338.38 295.434 338.94 295.294 339.556 295.294C340.518 295.294 341.283 295.593 341.852 296.19C342.431 296.787 342.72 297.613 342.72 298.668C342.72 299.303 342.594 299.872 342.342 300.376C342.1 300.88 341.726 301.281 341.222 301.58C340.728 301.879 340.126 302.028 339.416 302.028C338.455 302.028 337.704 301.813 337.162 301.384C336.621 300.955 336.243 300.362 336.028 299.606C335.814 298.85 335.706 297.917 335.706 296.806C335.706 293.381 336.901 291.668 339.29 291.668C340.205 291.668 340.924 291.915 341.446 292.41C341.969 292.905 342.277 293.53 342.37 294.286H341.194ZM339.29 296.372C338.889 296.372 338.511 296.456 338.156 296.624C337.802 296.783 337.512 297.03 337.288 297.366C337.074 297.693 336.966 298.094 336.966 298.57C336.966 299.279 337.172 299.858 337.582 300.306C337.993 300.745 338.581 300.964 339.346 300.964C340 300.964 340.518 300.763 340.9 300.362C341.292 299.951 341.488 299.401 341.488 298.71C341.488 297.982 341.302 297.413 340.928 297.002C340.555 296.582 340.009 296.372 339.29 296.372ZM345.055 302.084C344.812 302.084 344.607 302 344.439 301.832C344.271 301.664 344.187 301.459 344.187 301.216C344.187 300.973 344.271 300.768 344.439 300.6C344.607 300.432 344.812 300.348 345.055 300.348C345.288 300.348 345.484 300.432 345.643 300.6C345.811 300.768 345.895 300.973 345.895 301.216C345.895 301.459 345.811 301.664 345.643 301.832C345.484 302 345.288 302.084 345.055 302.084ZM345.055 296.092C344.812 296.092 344.607 296.008 344.439 295.84C344.271 295.672 344.187 295.467 344.187 295.224C344.187 294.981 344.271 294.776 344.439 294.608C344.607 294.44 344.812 294.356 345.055 294.356C345.288 294.356 345.484 294.44 345.643 294.608C345.811 294.776 345.895 294.981 345.895 295.224C345.895 295.467 345.811 295.672 345.643 295.84C345.484 296.008 345.288 296.092 345.055 296.092ZM347.42 296.834C347.42 295.229 347.681 293.978 348.204 293.082C348.726 292.177 349.641 291.724 350.948 291.724C352.245 291.724 353.155 292.177 353.678 293.082C354.2 293.978 354.462 295.229 354.462 296.834C354.462 298.467 354.2 299.737 353.678 300.642C353.155 301.547 352.245 302 350.948 302C349.641 302 348.726 301.547 348.204 300.642C347.681 299.737 347.42 298.467 347.42 296.834ZM353.202 296.834C353.202 296.022 353.146 295.336 353.034 294.776C352.931 294.207 352.712 293.749 352.376 293.404C352.049 293.059 351.573 292.886 350.948 292.886C350.313 292.886 349.828 293.059 349.492 293.404C349.165 293.749 348.946 294.207 348.834 294.776C348.731 295.336 348.68 296.022 348.68 296.834C348.68 297.674 348.731 298.379 348.834 298.948C348.946 299.517 349.165 299.975 349.492 300.32C349.828 300.665 350.313 300.838 350.948 300.838C351.573 300.838 352.049 300.665 352.376 300.32C352.712 299.975 352.931 299.517 353.034 298.948C353.146 298.379 353.202 297.674 353.202 296.834ZM356.211 296.834C356.211 295.229 356.472 293.978 356.995 293.082C357.517 292.177 358.432 291.724 359.739 291.724C361.036 291.724 361.946 292.177 362.469 293.082C362.991 293.978 363.253 295.229 363.253 296.834C363.253 298.467 362.991 299.737 362.469 300.642C361.946 301.547 361.036 302 359.739 302C358.432 302 357.517 301.547 356.995 300.642C356.472 299.737 356.211 298.467 356.211 296.834ZM361.993 296.834C361.993 296.022 361.937 295.336 361.825 294.776C361.722 294.207 361.503 293.749 361.167 293.404C360.84 293.059 360.364 292.886 359.739 292.886C359.104 292.886 358.619 293.059 358.283 293.404C357.956 293.749 357.737 294.207 357.625 294.776C357.522 295.336 357.471 296.022 357.471 296.834C357.471 297.674 357.522 298.379 357.625 298.948C357.737 299.517 357.956 299.975 358.283 300.32C358.619 300.665 359.104 300.838 359.739 300.838C360.364 300.838 360.84 300.665 361.167 300.32C361.503 299.975 361.722 299.517 361.825 298.948C361.937 298.379 361.993 297.674 361.993 296.834Z" fill="#7C8DB5"/>
<path d="M418.314 300.978C419.499 300.026 420.428 299.247 421.1 298.64C421.772 298.024 422.337 297.385 422.794 296.722C423.261 296.05 423.494 295.392 423.494 294.748C423.494 294.141 423.345 293.665 423.046 293.32C422.757 292.965 422.285 292.788 421.632 292.788C420.997 292.788 420.503 292.989 420.148 293.39C419.803 293.782 419.616 294.309 419.588 294.972H418.356C418.393 293.927 418.711 293.119 419.308 292.55C419.905 291.981 420.675 291.696 421.618 291.696C422.579 291.696 423.34 291.962 423.9 292.494C424.469 293.026 424.754 293.759 424.754 294.692C424.754 295.467 424.521 296.223 424.054 296.96C423.597 297.688 423.074 298.332 422.486 298.892C421.898 299.443 421.147 300.087 420.232 300.824H425.048V301.888H418.314V300.978ZM426.521 296.834C426.521 295.229 426.782 293.978 427.305 293.082C427.827 292.177 428.742 291.724 430.049 291.724C431.346 291.724 432.256 292.177 432.779 293.082C433.301 293.978 433.563 295.229 433.563 296.834C433.563 298.467 433.301 299.737 432.779 300.642C432.256 301.547 431.346 302 430.049 302C428.742 302 427.827 301.547 427.305 300.642C426.782 299.737 426.521 298.467 426.521 296.834ZM432.303 296.834C432.303 296.022 432.247 295.336 432.135 294.776C432.032 294.207 431.813 293.749 431.477 293.404C431.15 293.059 430.674 292.886 430.049 292.886C429.414 292.886 428.929 293.059 428.593 293.404C428.266 293.749 428.047 294.207 427.935 294.776C427.832 295.336 427.781 296.022 427.781 296.834C427.781 297.674 427.832 298.379 427.935 298.948C428.047 299.517 428.266 299.975 428.593 300.32C428.929 300.665 429.414 300.838 430.049 300.838C430.674 300.838 431.15 300.665 431.477 300.32C431.813 299.975 432.032 299.517 432.135 298.948C432.247 298.379 432.303 297.674 432.303 296.834ZM435.928 302.084C435.685 302.084 435.48 302 435.312 301.832C435.144 301.664 435.06 301.459 435.06 301.216C435.06 300.973 435.144 300.768 435.312 300.6C435.48 300.432 435.685 300.348 435.928 300.348C436.161 300.348 436.357 300.432 436.516 300.6C436.684 300.768 436.768 300.973 436.768 301.216C436.768 301.459 436.684 301.664 436.516 301.832C436.357 302 436.161 302.084 435.928 302.084ZM435.928 296.092C435.685 296.092 435.48 296.008 435.312 295.84C435.144 295.672 435.06 295.467 435.06 295.224C435.06 294.981 435.144 294.776 435.312 294.608C435.48 294.44 435.685 294.356 435.928 294.356C436.161 294.356 436.357 294.44 436.516 294.608C436.684 294.776 436.768 294.981 436.768 295.224C436.768 295.467 436.684 295.672 436.516 295.84C436.357 296.008 436.161 296.092 435.928 296.092ZM438.292 296.834C438.292 295.229 438.554 293.978 439.076 293.082C439.599 292.177 440.514 291.724 441.82 291.724C443.118 291.724 444.028 292.177 444.55 293.082C445.073 293.978 445.334 295.229 445.334 296.834C445.334 298.467 445.073 299.737 444.55 300.642C444.028 301.547 443.118 302 441.82 302C440.514 302 439.599 301.547 439.076 300.642C438.554 299.737 438.292 298.467 438.292 296.834ZM444.074 296.834C444.074 296.022 444.018 295.336 443.906 294.776C443.804 294.207 443.584 293.749 443.248 293.404C442.922 293.059 442.446 292.886 441.82 292.886C441.186 292.886 440.7 293.059 440.364 293.404C440.038 293.749 439.818 294.207 439.706 294.776C439.604 295.336 439.552 296.022 439.552 296.834C439.552 297.674 439.604 298.379 439.706 298.948C439.818 299.517 440.038 299.975 440.364 300.32C440.7 300.665 441.186 300.838 441.82 300.838C442.446 300.838 442.922 300.665 443.248 300.32C443.584 299.975 443.804 299.517 443.906 298.948C444.018 298.379 444.074 297.674 444.074 296.834ZM447.083 296.834C447.083 295.229 447.345 293.978 447.867 293.082C448.39 292.177 449.305 291.724 450.611 291.724C451.909 291.724 452.819 292.177 453.341 293.082C453.864 293.978 454.125 295.229 454.125 296.834C454.125 298.467 453.864 299.737 453.341 300.642C452.819 301.547 451.909 302 450.611 302C449.305 302 448.39 301.547 447.867 300.642C447.345 299.737 447.083 298.467 447.083 296.834ZM452.865 296.834C452.865 296.022 452.809 295.336 452.697 294.776C452.595 294.207 452.375 293.749 452.039 293.404C451.713 293.059 451.237 292.886 450.611 292.886C449.977 292.886 449.491 293.059 449.155 293.404C448.829 293.749 448.609 294.207 448.497 294.776C448.395 295.336 448.343 296.022 448.343 296.834C448.343 297.674 448.395 298.379 448.497 298.948C448.609 299.517 448.829 299.975 449.155 300.32C449.491 300.665 449.977 300.838 450.611 300.838C451.237 300.838 451.713 300.665 452.039 300.32C452.375 299.975 452.595 299.517 452.697 298.948C452.809 298.379 452.865 297.674 452.865 296.834Z" fill="#7C8DB5"/>
<path d="M509.714 300.978C510.899 300.026 511.828 299.247 512.5 298.64C513.172 298.024 513.737 297.385 514.194 296.722C514.661 296.05 514.894 295.392 514.894 294.748C514.894 294.141 514.745 293.665 514.446 293.32C514.157 292.965 513.685 292.788 513.032 292.788C512.397 292.788 511.903 292.989 511.548 293.39C511.203 293.782 511.016 294.309 510.988 294.972H509.756C509.793 293.927 510.111 293.119 510.708 292.55C511.305 291.981 512.075 291.696 513.018 291.696C513.979 291.696 514.74 291.962 515.3 292.494C515.869 293.026 516.154 293.759 516.154 294.692C516.154 295.467 515.921 296.223 515.454 296.96C514.997 297.688 514.474 298.332 513.886 298.892C513.298 299.443 512.547 300.087 511.632 300.824H516.448V301.888H509.714V300.978ZM517.613 299.746V298.78L522.527 291.976H524.053V298.64H525.453V299.746H524.053V302H522.793V299.746H517.613ZM522.849 293.306L519.083 298.64H522.849V293.306ZM527.341 302.084C527.099 302.084 526.893 302 526.725 301.832C526.557 301.664 526.473 301.459 526.473 301.216C526.473 300.973 526.557 300.768 526.725 300.6C526.893 300.432 527.099 300.348 527.341 300.348C527.575 300.348 527.771 300.432 527.929 300.6C528.097 300.768 528.181 300.973 528.181 301.216C528.181 301.459 528.097 301.664 527.929 301.832C527.771 302 527.575 302.084 527.341 302.084ZM527.341 296.092C527.099 296.092 526.893 296.008 526.725 295.84C526.557 295.672 526.473 295.467 526.473 295.224C526.473 294.981 526.557 294.776 526.725 294.608C526.893 294.44 527.099 294.356 527.341 294.356C527.575 294.356 527.771 294.44 527.929 294.608C528.097 294.776 528.181 294.981 528.181 295.224C528.181 295.467 528.097 295.672 527.929 295.84C527.771 296.008 527.575 296.092 527.341 296.092ZM529.706 296.834C529.706 295.229 529.967 293.978 530.49 293.082C531.013 292.177 531.927 291.724 533.234 291.724C534.531 291.724 535.441 292.177 535.964 293.082C536.487 293.978 536.748 295.229 536.748 296.834C536.748 298.467 536.487 299.737 535.964 300.642C535.441 301.547 534.531 302 533.234 302C531.927 302 531.013 301.547 530.49 300.642C529.967 299.737 529.706 298.467 529.706 296.834ZM535.488 296.834C535.488 296.022 535.432 295.336 535.32 294.776C535.217 294.207 534.998 293.749 534.662 293.404C534.335 293.059 533.859 292.886 533.234 292.886C532.599 292.886 532.114 293.059 531.778 293.404C531.451 293.749 531.232 294.207 531.12 294.776C531.017 295.336 530.966 296.022 530.966 296.834C530.966 297.674 531.017 298.379 531.12 298.948C531.232 299.517 531.451 299.975 531.778 300.32C532.114 300.665 532.599 300.838 533.234 300.838C533.859 300.838 534.335 300.665 534.662 300.32C534.998 299.975 535.217 299.517 535.32 298.948C535.432 298.379 535.488 297.674 535.488 296.834ZM538.497 296.834C538.497 295.229 538.758 293.978 539.281 293.082C539.804 292.177 540.718 291.724 542.025 291.724C543.322 291.724 544.232 292.177 544.755 293.082C545.278 293.978 545.539 295.229 545.539 296.834C545.539 298.467 545.278 299.737 544.755 300.642C544.232 301.547 543.322 302 542.025 302C540.718 302 539.804 301.547 539.281 300.642C538.758 299.737 538.497 298.467 538.497 296.834ZM544.279 296.834C544.279 296.022 544.223 295.336 544.111 294.776C544.008 294.207 543.789 293.749 543.453 293.404C543.126 293.059 542.65 292.886 542.025 292.886C541.39 292.886 540.905 293.059 540.569 293.404C540.242 293.749 540.023 294.207 539.911 294.776C539.808 295.336 539.757 296.022 539.757 296.834C539.757 297.674 539.808 298.379 539.911 298.948C540.023 299.517 540.242 299.975 540.569 300.32C540.905 300.665 541.39 300.838 542.025 300.838C542.65 300.838 543.126 300.665 543.453 300.32C543.789 299.975 544.008 299.517 544.111 298.948C544.223 298.379 544.279 297.674 544.279 296.834Z" fill="#7C8DB5"/>
<rect x="0.5" y="0.5" width="560" height="317" rx="11.5" stroke="#EFF0F6"/>
<defs>
<filter id="filter0_d_0_10" x="306" y="141" width="28" height="28" filterUnits="userSpaceOnUse" color-interpolation-filters="sRGB">
<feFlood flood-opacity="0" result="BackgroundImageFix"/>
<feColorMatrix in="SourceAlpha" type="matrix" values="0 0 0 0 0 0 0 0 0 0 0 0 0 0 0 0 0 0 127 0" result="hardAlpha"/>
<feOffset dy="2"/>
<feGaussianBlur stdDeviation="5"/>
<feComposite in2="hardAlpha" operator="out"/>
<feColorMatrix type="matrix" values="0 0 0 0 0.486275 0 0 0 0 0.552941 0 0 0 0 0.709804 0 0 0 0.12 0"/>
<feBlend mode="normal" in2="BackgroundImageFix" result="effect1_dropShadow_0_10"/>
<feBlend mode="normal" in="SourceGraphic" in2="effect1_dropShadow_0_10" result="shape"/>
</filter>
<filter id="filter1_d_0_10" x="256" y="66" width="148" height="86" filterUnits="userSpaceOnUse" color-interpolation-filters="sRGB">
<feFlood flood-opacity="0" result="BackgroundImageFix"/>
<feColorMatrix in="SourceAlpha" type="matrix" values="0 0 0 0 0 0 0 0 0 0 0 0 0 0 0 0 0 0 127 0" result="hardAlpha"/>
<feOffset dy="2"/>
<feGaussianBlur stdDeviation="5"/>
<feComposite in2="hardAlpha" operator="out"/>
<feColorMatrix type="matrix" values="0 0 0 0 0.486275 0 0 0 0 0.552941 0 0 0 0 0.709804 0 0 0 0.12 0"/>
<feBlend mode="normal" in2="BackgroundImageFix" result="effect1_dropShadow_0_10"/>
<feBlend mode="normal" in="SourceGraphic" in2="effect1_dropShadow_0_10" result="shape"/>
</filter>
<linearGradient id="paint0_linear_0_10" x1="320" y1="272" x2="320" y2="91" gradientUnits="userSpaceOnUse">
<stop stop-color="#7367F0" stop-opacity="0.45277"/>
<stop offset="1" stop-color="#7367F0" stop-opacity="0"/>
</linearGradient>
</defs>
</svg>
