<svg width="18" height="18" viewBox="0 0 18 18" fill="none" xmlns="http://www.w3.org/2000/svg">
<path fill-rule="evenodd" clip-rule="evenodd" d="M15.7439 6.75C16.0436 6.75 16.2684 6.9 16.4183 7.2C16.5682 7.425 16.4932 7.725 16.3434 7.95L8.85014 16.95C8.70027 17.175 8.47547 17.25 8.25068 17.25C8.17574 17.25 8.02588 17.25 7.95095 17.175C7.65122 17.1 7.42642 16.725 7.50135 16.425L8.17574 11.25H2.25608C1.95635 11.25 1.73155 11.1 1.58169 10.875C1.43182 10.575 1.50676 10.275 1.65662 10.05L9.14986 1.05C9.37466 0.75 9.74932 0.675 10.0491 0.825C10.3488 0.9 10.5736 1.275 10.4986 1.575L9.82426 6.75H15.7439ZM9.74932 10.575L9.29973 14.025L14.0954 8.25H8.92507C8.7752 8.25 8.55041 8.175 8.40054 8.025C8.32561 7.875 8.25068 7.65 8.25068 7.425L8.62534 3.975L3.82966 9.75H9C9.2248 9.75 9.44959 9.825 9.59946 9.975C9.67439 10.125 9.74932 10.35 9.74932 10.575Z" fill="#5E5873"/>
<mask id="mask0_307_124493" style="mask-type:luminance" maskUnits="userSpaceOnUse" x="1" y="0" width="16" height="18">
<path fill-rule="evenodd" clip-rule="evenodd" d="M15.7439 6.75C16.0436 6.75 16.2684 6.9 16.4183 7.2C16.5682 7.425 16.4932 7.725 16.3434 7.95L8.85014 16.95C8.70027 17.175 8.47547 17.25 8.25068 17.25C8.17574 17.25 8.02588 17.25 7.95095 17.175C7.65122 17.1 7.42642 16.725 7.50135 16.425L8.17574 11.25H2.25608C1.95635 11.25 1.73155 11.1 1.58169 10.875C1.43182 10.575 1.50676 10.275 1.65662 10.05L9.14986 1.05C9.37466 0.75 9.74932 0.675 10.0491 0.825C10.3488 0.9 10.5736 1.275 10.4986 1.575L9.82426 6.75H15.7439ZM9.74932 10.575L9.29973 14.025L14.0954 8.25H8.92507C8.7752 8.25 8.55041 8.175 8.40054 8.025C8.32561 7.875 8.25068 7.65 8.25068 7.425L8.62534 3.975L3.82966 9.75H9C9.2248 9.75 9.44959 9.825 9.59946 9.975C9.67439 10.125 9.74932 10.35 9.74932 10.575Z" fill="white"/>
</mask>
<g mask="url(#mask0_307_124493)">
<rect width="18" height="18" fill="#5E5873"/>
</g>
</svg>
