<svg width="18" height="18" viewBox="0 0 18 18" fill="none" xmlns="http://www.w3.org/2000/svg">
<path fill-rule="evenodd" clip-rule="evenodd" d="M12 10.5H13.5C15.15 10.5 16.5 11.85 16.5 13.5C16.5 15.15 15.15 16.5 13.5 16.5C11.85 16.5 10.5 15.15 10.5 13.5V12H7.5V13.5C7.5 15.15 6.15 16.5 4.5 16.5C2.85 16.5 1.5 15.15 1.5 13.5C1.5 11.85 2.85 10.5 4.5 10.5H6V7.5H4.5C2.85 7.5 1.5 6.15 1.5 4.5C1.5 2.85 2.85 1.5 4.5 1.5C6.15 1.5 7.5 2.85 7.5 4.5V6H10.5V4.5C10.5 2.85 11.85 1.5 13.5 1.5C15.15 1.5 16.5 2.85 16.5 4.5C16.5 6.15 15.15 7.5 13.5 7.5H12V10.5ZM13.5 3C12.675 3 12 3.675 12 4.5V6H13.5C14.325 6 15 5.325 15 4.5C15 3.675 14.325 3 13.5 3ZM6 13.5C6 14.325 5.325 15 4.5 15C3.675 15 3 14.325 3 13.5C3 12.675 3.675 12 4.5 12H6V13.5ZM4.5 6H6V4.5C6 3.675 5.325 3 4.5 3C3.675 3 3 3.675 3 4.5C3 5.325 3.675 6 4.5 6ZM10.5 10.5H7.5V7.5H10.5V10.5ZM12 13.5C12 14.325 12.675 15 13.5 15C14.325 15 15 14.325 15 13.5C15 12.675 14.325 12 13.5 12H12V13.5Z" fill="#5E5873"/>
<mask id="mask0_307_157409" style="mask-type:luminance" maskUnits="userSpaceOnUse" x="1" y="1" width="16" height="16">
<path fill-rule="evenodd" clip-rule="evenodd" d="M12 10.5H13.5C15.15 10.5 16.5 11.85 16.5 13.5C16.5 15.15 15.15 16.5 13.5 16.5C11.85 16.5 10.5 15.15 10.5 13.5V12H7.5V13.5C7.5 15.15 6.15 16.5 4.5 16.5C2.85 16.5 1.5 15.15 1.5 13.5C1.5 11.85 2.85 10.5 4.5 10.5H6V7.5H4.5C2.85 7.5 1.5 6.15 1.5 4.5C1.5 2.85 2.85 1.5 4.5 1.5C6.15 1.5 7.5 2.85 7.5 4.5V6H10.5V4.5C10.5 2.85 11.85 1.5 13.5 1.5C15.15 1.5 16.5 2.85 16.5 4.5C16.5 6.15 15.15 7.5 13.5 7.5H12V10.5ZM13.5 3C12.675 3 12 3.675 12 4.5V6H13.5C14.325 6 15 5.325 15 4.5C15 3.675 14.325 3 13.5 3ZM6 13.5C6 14.325 5.325 15 4.5 15C3.675 15 3 14.325 3 13.5C3 12.675 3.675 12 4.5 12H6V13.5ZM4.5 6H6V4.5C6 3.675 5.325 3 4.5 3C3.675 3 3 3.675 3 4.5C3 5.325 3.675 6 4.5 6ZM10.5 10.5H7.5V7.5H10.5V10.5ZM12 13.5C12 14.325 12.675 15 13.5 15C14.325 15 15 14.325 15 13.5C15 12.675 14.325 12 13.5 12H12V13.5Z" fill="white"/>
</mask>
<g mask="url(#mask0_307_157409)">
<rect width="18" height="18" fill="#5E5873"/>
</g>
</svg>
