<svg width="749" height="433" viewBox="0 0 749 433" fill="none" xmlns="http://www.w3.org/2000/svg">
<g clip-path="url(#clip0_55_237948)">
<rect width="749" height="435" fill="white"/>
<path d="M569.596 89V79.2H570.632V88.104H576.12V89H569.596ZM580.517 89.07C579.807 89.07 579.168 88.9113 578.599 88.594C578.039 88.2673 577.595 87.824 577.269 87.264C576.942 86.6947 576.779 86.046 576.779 85.318C576.779 84.5807 576.942 83.932 577.269 83.372C577.595 82.812 578.039 82.3733 578.599 82.056C579.159 81.7387 579.798 81.58 580.517 81.58C581.245 81.58 581.889 81.7387 582.449 82.056C583.018 82.3733 583.461 82.812 583.779 83.372C584.105 83.932 584.269 84.5807 584.269 85.318C584.269 86.046 584.105 86.6947 583.779 87.264C583.461 87.824 583.018 88.2673 582.449 88.594C581.879 88.9113 581.235 89.07 580.517 89.07ZM580.517 88.188C581.049 88.188 581.52 88.0713 581.931 87.838C582.341 87.5953 582.663 87.2593 582.897 86.83C583.139 86.3913 583.261 85.8873 583.261 85.318C583.261 84.7393 583.139 84.2353 582.897 83.806C582.663 83.3767 582.341 83.0453 581.931 82.812C581.52 82.5693 581.053 82.448 580.531 82.448C580.008 82.448 579.541 82.5693 579.131 82.812C578.72 83.0453 578.393 83.3767 578.151 83.806C577.908 84.2353 577.787 84.7393 577.787 85.318C577.787 85.8873 577.908 86.3913 578.151 86.83C578.393 87.2593 578.72 87.5953 579.131 87.838C579.541 88.0713 580.003 88.188 580.517 88.188ZM590.863 89V87.376L590.821 87.11V84.394C590.821 83.7687 590.644 83.288 590.289 82.952C589.944 82.616 589.426 82.448 588.735 82.448C588.259 82.448 587.806 82.5273 587.377 82.686C586.948 82.8447 586.584 83.0547 586.285 83.316L585.837 82.574C586.21 82.2567 586.658 82.014 587.181 81.846C587.704 81.6687 588.254 81.58 588.833 81.58C589.785 81.58 590.518 81.818 591.031 82.294C591.554 82.7607 591.815 83.4747 591.815 84.436V89H590.863ZM588.329 89.07C587.778 89.07 587.298 88.9813 586.887 88.804C586.486 88.6173 586.178 88.3653 585.963 88.048C585.748 87.7213 585.641 87.348 585.641 86.928C585.641 86.5453 585.73 86.2 585.907 85.892C586.094 85.5747 586.392 85.3227 586.803 85.136C587.223 84.94 587.783 84.842 588.483 84.842H591.017V85.584H588.511C587.802 85.584 587.307 85.71 587.027 85.962C586.756 86.214 586.621 86.5267 586.621 86.9C586.621 87.32 586.784 87.656 587.111 87.908C587.438 88.16 587.895 88.286 588.483 88.286C589.043 88.286 589.524 88.16 589.925 87.908C590.336 87.6467 590.634 87.2733 590.821 86.788L591.045 87.474C590.858 87.9593 590.532 88.3467 590.065 88.636C589.608 88.9253 589.029 89.07 588.329 89.07ZM598.267 81.58C598.864 81.58 599.387 81.6967 599.835 81.93C600.292 82.154 600.647 82.4993 600.899 82.966C601.16 83.4327 601.291 84.0207 601.291 84.73V89H600.297V84.828C600.297 84.0533 600.101 83.47 599.709 83.078C599.326 82.6767 598.785 82.476 598.085 82.476C597.562 82.476 597.105 82.5833 596.713 82.798C596.33 83.0033 596.032 83.3067 595.817 83.708C595.612 84.1 595.509 84.576 595.509 85.136V89H594.515V81.65H595.467V83.666L595.313 83.288C595.546 82.756 595.92 82.3407 596.433 82.042C596.946 81.734 597.558 81.58 598.267 81.58ZM611.434 89.07C610.79 89.07 610.211 88.9253 609.698 88.636C609.185 88.3373 608.779 87.908 608.48 87.348C608.181 86.788 608.032 86.1113 608.032 85.318C608.032 84.5153 608.181 83.8387 608.48 83.288C608.788 82.728 609.199 82.3033 609.712 82.014C610.225 81.7247 610.799 81.58 611.434 81.58C612.134 81.58 612.759 81.7387 613.31 82.056C613.87 82.364 614.309 82.798 614.626 83.358C614.943 83.918 615.102 84.5713 615.102 85.318C615.102 86.0553 614.943 86.7087 614.626 87.278C614.309 87.838 613.87 88.2767 613.31 88.594C612.759 88.9113 612.134 89.07 611.434 89.07ZM607.64 89V78.612H608.634V83.82L608.494 85.304L608.592 86.788V89H607.64ZM611.364 88.188C611.887 88.188 612.353 88.0713 612.764 87.838C613.175 87.5953 613.501 87.2593 613.744 86.83C613.987 86.3913 614.108 85.8873 614.108 85.318C614.108 84.7393 613.987 84.2353 613.744 83.806C613.501 83.3767 613.175 83.0453 612.764 82.812C612.353 82.5693 611.887 82.448 611.364 82.448C610.841 82.448 610.37 82.5693 609.95 82.812C609.539 83.0453 609.213 83.3767 608.97 83.806C608.737 84.2353 608.62 84.7393 608.62 85.318C608.62 85.8873 608.737 86.3913 608.97 86.83C609.213 87.2593 609.539 87.5953 609.95 87.838C610.37 88.0713 610.841 88.188 611.364 88.188ZM620.124 89.07C619.415 89.07 618.776 88.9113 618.206 88.594C617.646 88.2673 617.203 87.824 616.876 87.264C616.55 86.6947 616.386 86.046 616.386 85.318C616.386 84.5807 616.55 83.932 616.876 83.372C617.203 82.812 617.646 82.3733 618.206 82.056C618.766 81.7387 619.406 81.58 620.124 81.58C620.852 81.58 621.496 81.7387 622.056 82.056C622.626 82.3733 623.069 82.812 623.386 83.372C623.713 83.932 623.876 84.5807 623.876 85.318C623.876 86.046 623.713 86.6947 623.386 87.264C623.069 87.824 622.626 88.2673 622.056 88.594C621.487 88.9113 620.843 89.07 620.124 89.07ZM620.124 88.188C620.656 88.188 621.128 88.0713 621.538 87.838C621.949 87.5953 622.271 87.2593 622.504 86.83C622.747 86.3913 622.868 85.8873 622.868 85.318C622.868 84.7393 622.747 84.2353 622.504 83.806C622.271 83.3767 621.949 83.0453 621.538 82.812C621.128 82.5693 620.661 82.448 620.138 82.448C619.616 82.448 619.149 82.5693 618.738 82.812C618.328 83.0453 618.001 83.3767 617.758 83.806C617.516 84.2353 617.394 84.7393 617.394 85.318C617.394 85.8873 617.516 86.3913 617.758 86.83C618.001 87.2593 618.328 87.5953 618.738 87.838C619.149 88.0713 619.611 88.188 620.124 88.188ZM628.832 89.07C628.132 89.07 627.502 88.9113 626.942 88.594C626.391 88.2767 625.957 87.838 625.64 87.278C625.322 86.7087 625.164 86.0553 625.164 85.318C625.164 84.5713 625.322 83.918 625.64 83.358C625.957 82.798 626.391 82.364 626.942 82.056C627.502 81.7387 628.132 81.58 628.832 81.58C629.476 81.58 630.05 81.7247 630.554 82.014C631.067 82.3033 631.473 82.728 631.772 83.288C632.08 83.8387 632.234 84.5153 632.234 85.318C632.234 86.1113 632.084 86.788 631.786 87.348C631.487 87.908 631.081 88.3373 630.568 88.636C630.064 88.9253 629.485 89.07 628.832 89.07ZM628.902 88.188C629.424 88.188 629.891 88.0713 630.302 87.838C630.722 87.5953 631.048 87.2593 631.282 86.83C631.524 86.3913 631.646 85.8873 631.646 85.318C631.646 84.7393 631.524 84.2353 631.282 83.806C631.048 83.3767 630.722 83.0453 630.302 82.812C629.891 82.5693 629.424 82.448 628.902 82.448C628.388 82.448 627.926 82.5693 627.516 82.812C627.105 83.0453 626.778 83.3767 626.536 83.806C626.293 84.2353 626.172 84.7393 626.172 85.318C626.172 85.8873 626.293 86.3913 626.536 86.83C626.778 87.2593 627.105 87.5953 627.516 87.838C627.926 88.0713 628.388 88.188 628.902 88.188ZM631.674 89V86.788L631.772 85.304L631.632 83.82V78.612H632.626V89H631.674ZM635.45 91.786C635.104 91.786 634.773 91.73 634.456 91.618C634.148 91.506 633.882 91.338 633.658 91.114L634.12 90.372C634.306 90.5493 634.507 90.6847 634.722 90.778C634.946 90.8807 635.193 90.932 635.464 90.932C635.79 90.932 636.07 90.8387 636.304 90.652C636.546 90.4747 636.775 90.1573 636.99 89.7L637.466 88.622L637.578 88.468L640.602 81.65H641.582L637.9 89.882C637.694 90.358 637.466 90.736 637.214 91.016C636.971 91.296 636.705 91.492 636.416 91.604C636.126 91.7253 635.804 91.786 635.45 91.786ZM637.41 89.21L634.022 81.65H635.058L638.054 88.398L637.41 89.21ZM646.646 89V81.65H647.598V83.652L647.5 83.302C647.705 82.742 648.05 82.3173 648.536 82.028C649.021 81.7293 649.623 81.58 650.342 81.58V82.546C650.304 82.546 650.267 82.546 650.23 82.546C650.192 82.5367 650.155 82.532 650.118 82.532C649.343 82.532 648.736 82.77 648.298 83.246C647.859 83.7127 647.64 84.38 647.64 85.248V89H646.646ZM655.209 89.07C654.444 89.07 653.772 88.9113 653.193 88.594C652.615 88.2673 652.162 87.824 651.835 87.264C651.509 86.6947 651.345 86.046 651.345 85.318C651.345 84.59 651.499 83.946 651.807 83.386C652.125 82.826 652.554 82.3873 653.095 82.07C653.646 81.7433 654.262 81.58 654.943 81.58C655.634 81.58 656.245 81.7387 656.777 82.056C657.319 82.364 657.743 82.8027 658.051 83.372C658.359 83.932 658.513 84.5807 658.513 85.318C658.513 85.3647 658.509 85.416 658.499 85.472C658.499 85.5187 658.499 85.57 658.499 85.626H652.101V84.884H657.967L657.575 85.178C657.575 84.646 657.459 84.1747 657.225 83.764C657.001 83.344 656.693 83.0173 656.301 82.784C655.909 82.5507 655.457 82.434 654.943 82.434C654.439 82.434 653.987 82.5507 653.585 82.784C653.184 83.0173 652.871 83.344 652.647 83.764C652.423 84.184 652.311 84.6647 652.311 85.206V85.36C652.311 85.92 652.433 86.4147 652.675 86.844C652.927 87.264 653.273 87.5953 653.711 87.838C654.159 88.0713 654.668 88.188 655.237 88.188C655.685 88.188 656.101 88.1087 656.483 87.95C656.875 87.7913 657.211 87.5487 657.491 87.222L658.051 87.866C657.725 88.258 657.314 88.5567 656.819 88.762C656.334 88.9673 655.797 89.07 655.209 89.07ZM664.33 89.07C663.696 89.07 663.122 88.9253 662.608 88.636C662.095 88.3373 661.684 87.9127 661.376 87.362C661.078 86.802 660.928 86.1207 660.928 85.318C660.928 84.5153 661.078 83.8387 661.376 83.288C661.675 82.728 662.081 82.3033 662.594 82.014C663.108 81.7247 663.686 81.58 664.33 81.58C665.03 81.58 665.656 81.7387 666.206 82.056C666.766 82.364 667.205 82.8027 667.522 83.372C667.84 83.932 667.998 84.5807 667.998 85.318C667.998 86.0647 667.84 86.718 667.522 87.278C667.205 87.838 666.766 88.2767 666.206 88.594C665.656 88.9113 665.03 89.07 664.33 89.07ZM660.536 91.716V81.65H661.488V83.862L661.39 85.332L661.53 86.816V91.716H660.536ZM664.26 88.188C664.783 88.188 665.25 88.0713 665.66 87.838C666.071 87.5953 666.398 87.2593 666.64 86.83C666.883 86.3913 667.004 85.8873 667.004 85.318C667.004 84.7487 666.883 84.2493 666.64 83.82C666.398 83.3907 666.071 83.0547 665.66 82.812C665.25 82.5693 664.783 82.448 664.26 82.448C663.738 82.448 663.266 82.5693 662.846 82.812C662.436 83.0547 662.109 83.3907 661.866 83.82C661.633 84.2493 661.516 84.7487 661.516 85.318C661.516 85.8873 661.633 86.3913 661.866 86.83C662.109 87.2593 662.436 87.5953 662.846 87.838C663.266 88.0713 663.738 88.188 664.26 88.188ZM674.59 89V87.376L674.548 87.11V84.394C674.548 83.7687 674.37 83.288 674.016 82.952C673.67 82.616 673.152 82.448 672.462 82.448C671.986 82.448 671.533 82.5273 671.104 82.686C670.674 82.8447 670.31 83.0547 670.012 83.316L669.564 82.574C669.937 82.2567 670.385 82.014 670.908 81.846C671.43 81.6687 671.981 81.58 672.56 81.58C673.512 81.58 674.244 81.818 674.758 82.294C675.28 82.7607 675.542 83.4747 675.542 84.436V89H674.59ZM672.056 89.07C671.505 89.07 671.024 88.9813 670.614 88.804C670.212 88.6173 669.904 88.3653 669.69 88.048C669.475 87.7213 669.368 87.348 669.368 86.928C669.368 86.5453 669.456 86.2 669.634 85.892C669.82 85.5747 670.119 85.3227 670.53 85.136C670.95 84.94 671.51 84.842 672.21 84.842H674.744V85.584H672.238C671.528 85.584 671.034 85.71 670.754 85.962C670.483 86.214 670.348 86.5267 670.348 86.9C670.348 87.32 670.511 87.656 670.838 87.908C671.164 88.16 671.622 88.286 672.21 88.286C672.77 88.286 673.25 88.16 673.652 87.908C674.062 87.6467 674.361 87.2733 674.548 86.788L674.772 87.474C674.585 87.9593 674.258 88.3467 673.792 88.636C673.334 88.9253 672.756 89.07 672.056 89.07ZM678.161 91.786C677.815 91.786 677.484 91.73 677.167 91.618C676.859 91.506 676.593 91.338 676.369 91.114L676.831 90.372C677.017 90.5493 677.218 90.6847 677.433 90.778C677.657 90.8807 677.904 90.932 678.175 90.932C678.501 90.932 678.781 90.8387 679.015 90.652C679.257 90.4747 679.486 90.1573 679.701 89.7L680.177 88.622L680.289 88.468L683.313 81.65H684.293L680.611 89.882C680.405 90.358 680.177 90.736 679.925 91.016C679.682 91.296 679.416 91.492 679.127 91.604C678.837 91.7253 678.515 91.786 678.161 91.786ZM680.121 89.21L676.733 81.65H677.769L680.765 88.398L680.121 89.21ZM694.877 81.58C695.474 81.58 695.992 81.6967 696.431 81.93C696.879 82.154 697.224 82.4993 697.467 82.966C697.719 83.4327 697.845 84.0207 697.845 84.73V89H696.851V84.828C696.851 84.0533 696.664 83.47 696.291 83.078C695.927 82.6767 695.409 82.476 694.737 82.476C694.233 82.476 693.794 82.5833 693.421 82.798C693.057 83.0033 692.772 83.3067 692.567 83.708C692.371 84.1 692.273 84.576 692.273 85.136V89H691.279V84.828C691.279 84.0533 691.092 83.47 690.719 83.078C690.345 82.6767 689.823 82.476 689.151 82.476C688.656 82.476 688.222 82.5833 687.849 82.798C687.475 83.0033 687.186 83.3067 686.981 83.708C686.785 84.1 686.687 84.576 686.687 85.136V89H685.693V81.65H686.645V83.638L686.491 83.288C686.715 82.756 687.074 82.3407 687.569 82.042C688.073 81.734 688.665 81.58 689.347 81.58C690.065 81.58 690.677 81.762 691.181 82.126C691.685 82.4807 692.011 83.0173 692.161 83.736L691.769 83.582C691.983 82.9847 692.361 82.504 692.903 82.14C693.453 81.7667 694.111 81.58 694.877 81.58ZM703.662 89.07C702.897 89.07 702.225 88.9113 701.646 88.594C701.068 88.2673 700.615 87.824 700.288 87.264C699.962 86.6947 699.798 86.046 699.798 85.318C699.798 84.59 699.952 83.946 700.26 83.386C700.578 82.826 701.007 82.3873 701.548 82.07C702.099 81.7433 702.715 81.58 703.396 81.58C704.087 81.58 704.698 81.7387 705.23 82.056C705.772 82.364 706.196 82.8027 706.504 83.372C706.812 83.932 706.966 84.5807 706.966 85.318C706.966 85.3647 706.962 85.416 706.952 85.472C706.952 85.5187 706.952 85.57 706.952 85.626H700.554V84.884H706.42L706.028 85.178C706.028 84.646 705.912 84.1747 705.678 83.764C705.454 83.344 705.146 83.0173 704.754 82.784C704.362 82.5507 703.91 82.434 703.396 82.434C702.892 82.434 702.44 82.5507 702.038 82.784C701.637 83.0173 701.324 83.344 701.1 83.764C700.876 84.184 700.764 84.6647 700.764 85.206V85.36C700.764 85.92 700.886 86.4147 701.128 86.844C701.38 87.264 701.726 87.5953 702.164 87.838C702.612 88.0713 703.121 88.188 703.69 88.188C704.138 88.188 704.554 88.1087 704.936 87.95C705.328 87.7913 705.664 87.5487 705.944 87.222L706.504 87.866C706.178 88.258 705.767 88.5567 705.272 88.762C704.787 88.9673 704.25 89.07 703.662 89.07ZM712.742 81.58C713.339 81.58 713.862 81.6967 714.31 81.93C714.767 82.154 715.122 82.4993 715.374 82.966C715.635 83.4327 715.766 84.0207 715.766 84.73V89H714.772V84.828C714.772 84.0533 714.576 83.47 714.184 83.078C713.801 82.6767 713.26 82.476 712.56 82.476C712.037 82.476 711.58 82.5833 711.188 82.798C710.805 83.0033 710.506 83.3067 710.292 83.708C710.086 84.1 709.984 84.576 709.984 85.136V89H708.99V81.65H709.942V83.666L709.788 83.288C710.021 82.756 710.394 82.3407 710.908 82.042C711.421 81.734 712.032 81.58 712.742 81.58ZM720.774 89.07C720.084 89.07 719.552 88.8833 719.178 88.51C718.805 88.1367 718.618 87.6093 718.618 86.928V80.026H719.612V86.872C719.612 87.3013 719.72 87.6327 719.934 87.866C720.158 88.0993 720.476 88.216 720.886 88.216C721.325 88.216 721.689 88.09 721.978 87.838L722.328 88.552C722.132 88.7293 721.894 88.86 721.614 88.944C721.344 89.028 721.064 89.07 720.774 89.07ZM717.302 82.476V81.65H721.852V82.476H717.302ZM572.004 111.68V98.52H572.704V111.68H572.004ZM572.298 110.084C571.57 110.084 570.87 109.967 570.198 109.734C569.535 109.491 569.022 109.183 568.658 108.81L569.064 108.012C569.409 108.348 569.871 108.633 570.45 108.866C571.038 109.09 571.654 109.202 572.298 109.202C572.914 109.202 573.413 109.127 573.796 108.978C574.188 108.819 574.473 108.609 574.65 108.348C574.837 108.087 574.93 107.797 574.93 107.48C574.93 107.097 574.818 106.789 574.594 106.556C574.379 106.323 574.095 106.141 573.74 106.01C573.385 105.87 572.993 105.749 572.564 105.646C572.135 105.543 571.705 105.436 571.276 105.324C570.847 105.203 570.45 105.044 570.086 104.848C569.731 104.652 569.442 104.395 569.218 104.078C569.003 103.751 568.896 103.327 568.896 102.804C568.896 102.319 569.022 101.875 569.274 101.474C569.535 101.063 569.932 100.737 570.464 100.494C570.996 100.242 571.677 100.116 572.508 100.116C573.059 100.116 573.605 100.195 574.146 100.354C574.687 100.503 575.154 100.713 575.546 100.984L575.196 101.81C574.776 101.53 574.328 101.325 573.852 101.194C573.385 101.063 572.933 100.998 572.494 100.998C571.906 100.998 571.421 101.077 571.038 101.236C570.655 101.395 570.371 101.609 570.184 101.88C570.007 102.141 569.918 102.44 569.918 102.776C569.918 103.159 570.025 103.467 570.24 103.7C570.464 103.933 570.753 104.115 571.108 104.246C571.472 104.377 571.869 104.493 572.298 104.596C572.727 104.699 573.152 104.811 573.572 104.932C574.001 105.053 574.393 105.212 574.748 105.408C575.112 105.595 575.401 105.847 575.616 106.164C575.84 106.481 575.952 106.897 575.952 107.41C575.952 107.886 575.821 108.329 575.56 108.74C575.299 109.141 574.897 109.468 574.356 109.72C573.824 109.963 573.138 110.084 572.298 110.084ZM578.913 110V100.62L579.361 101.096H576.603V100.2H579.921V110H578.913ZM582.319 112.044L582.935 109.454L583.047 110.056C582.832 110.056 582.65 109.986 582.501 109.846C582.361 109.706 582.291 109.524 582.291 109.3C582.291 109.076 582.361 108.894 582.501 108.754C582.65 108.614 582.828 108.544 583.033 108.544C583.248 108.544 583.42 108.619 583.551 108.768C583.691 108.917 583.761 109.095 583.761 109.3C583.761 109.375 583.756 109.449 583.747 109.524C583.738 109.599 583.719 109.683 583.691 109.776C583.663 109.869 583.626 109.981 583.579 110.112L582.991 112.044H582.319ZM585.185 110V109.286L589.259 105.296C589.632 104.932 589.912 104.615 590.099 104.344C590.285 104.064 590.411 103.803 590.477 103.56C590.542 103.317 590.575 103.089 590.575 102.874C590.575 102.305 590.379 101.857 589.987 101.53C589.604 101.203 589.035 101.04 588.279 101.04C587.7 101.04 587.187 101.129 586.739 101.306C586.3 101.483 585.922 101.759 585.605 102.132L584.891 101.516C585.273 101.068 585.763 100.723 586.361 100.48C586.958 100.237 587.625 100.116 588.363 100.116C589.025 100.116 589.599 100.223 590.085 100.438C590.57 100.643 590.943 100.947 591.205 101.348C591.475 101.749 591.611 102.221 591.611 102.762C591.611 103.079 591.564 103.392 591.471 103.7C591.387 104.008 591.228 104.335 590.995 104.68C590.771 105.016 590.439 105.399 590.001 105.828L586.263 109.496L585.983 109.104H592.059V110H585.185ZM596.25 110.084C595.54 110.084 594.868 109.972 594.234 109.748C593.608 109.515 593.104 109.207 592.722 108.824L593.212 108.026C593.529 108.353 593.954 108.623 594.486 108.838C595.027 109.053 595.615 109.16 596.25 109.16C597.062 109.16 597.682 108.983 598.112 108.628C598.55 108.273 598.77 107.797 598.77 107.2C598.77 106.603 598.555 106.127 598.126 105.772C597.706 105.417 597.038 105.24 596.124 105.24H595.424V104.498L598.448 100.704L598.588 101.096H593.128V100.2H599.428V100.914L596.404 104.708L595.914 104.386H596.292C597.468 104.386 598.345 104.647 598.924 105.17C599.512 105.693 599.806 106.365 599.806 107.186C599.806 107.737 599.675 108.231 599.414 108.67C599.152 109.109 598.756 109.454 598.224 109.706C597.701 109.958 597.043 110.084 596.25 110.084ZM604.278 100.116C605.146 100.116 605.879 100.312 606.476 100.704C607.073 101.087 607.526 101.642 607.834 102.37C608.142 103.098 608.296 103.98 608.296 105.016C608.296 106.117 608.105 107.046 607.722 107.802C607.349 108.558 606.826 109.127 606.154 109.51C605.482 109.893 604.703 110.084 603.816 110.084C603.377 110.084 602.957 110.042 602.556 109.958C602.164 109.874 601.809 109.739 601.492 109.552L601.898 108.74C602.15 108.908 602.439 109.029 602.766 109.104C603.102 109.169 603.447 109.202 603.802 109.202C604.857 109.202 605.697 108.866 606.322 108.194C606.957 107.522 607.274 106.519 607.274 105.184C607.274 104.969 607.26 104.713 607.232 104.414C607.213 104.115 607.162 103.817 607.078 103.518L607.428 103.784C607.335 104.269 607.134 104.685 606.826 105.03C606.527 105.366 606.154 105.623 605.706 105.8C605.267 105.977 604.777 106.066 604.236 106.066C603.592 106.066 603.018 105.945 602.514 105.702C602.019 105.459 601.632 105.119 601.352 104.68C601.072 104.241 600.932 103.723 600.932 103.126C600.932 102.51 601.077 101.978 601.366 101.53C601.655 101.082 602.052 100.737 602.556 100.494C603.069 100.242 603.643 100.116 604.278 100.116ZM604.32 100.97C603.853 100.97 603.438 101.059 603.074 101.236C602.719 101.404 602.439 101.647 602.234 101.964C602.029 102.281 601.926 102.659 601.926 103.098C601.926 103.742 602.145 104.255 602.584 104.638C603.032 105.021 603.634 105.212 604.39 105.212C604.894 105.212 605.333 105.119 605.706 104.932C606.089 104.745 606.383 104.489 606.588 104.162C606.803 103.835 606.91 103.471 606.91 103.07C606.91 102.706 606.812 102.365 606.616 102.048C606.42 101.731 606.131 101.474 605.748 101.278C605.365 101.073 604.889 100.97 604.32 100.97ZM609.663 112.044L610.279 109.454L610.391 110.056C610.176 110.056 609.994 109.986 609.845 109.846C609.705 109.706 609.635 109.524 609.635 109.3C609.635 109.076 609.705 108.894 609.845 108.754C609.994 108.614 610.172 108.544 610.377 108.544C610.592 108.544 610.764 108.619 610.895 108.768C611.035 108.917 611.105 109.095 611.105 109.3C611.105 109.375 611.1 109.449 611.091 109.524C611.082 109.599 611.063 109.683 611.035 109.776C611.007 109.869 610.97 109.981 610.923 110.112L610.335 112.044H609.663ZM614.118 110V100.62L614.566 101.096H611.808V100.2H615.126V110H614.118ZM617.286 110V109.286L621.36 105.296C621.734 104.932 622.014 104.615 622.2 104.344C622.387 104.064 622.513 103.803 622.578 103.56C622.644 103.317 622.676 103.089 622.676 102.874C622.676 102.305 622.48 101.857 622.088 101.53C621.706 101.203 621.136 101.04 620.38 101.04C619.802 101.04 619.288 101.129 618.84 101.306C618.402 101.483 618.024 101.759 617.706 102.132L616.992 101.516C617.375 101.068 617.865 100.723 618.462 100.48C619.06 100.237 619.727 100.116 620.464 100.116C621.127 100.116 621.701 100.223 622.186 100.438C622.672 100.643 623.045 100.947 623.306 101.348C623.577 101.749 623.712 102.221 623.712 102.762C623.712 103.079 623.666 103.392 623.572 103.7C623.488 104.008 623.33 104.335 623.096 104.68C622.872 105.016 622.541 105.399 622.102 105.828L618.364 109.496L618.084 109.104H624.16V110H617.286ZM625.243 110V109.286L629.317 105.296C629.691 104.932 629.971 104.615 630.157 104.344C630.344 104.064 630.47 103.803 630.535 103.56C630.601 103.317 630.633 103.089 630.633 102.874C630.633 102.305 630.437 101.857 630.045 101.53C629.663 101.203 629.093 101.04 628.337 101.04C627.759 101.04 627.245 101.129 626.797 101.306C626.359 101.483 625.981 101.759 625.663 102.132L624.949 101.516C625.332 101.068 625.822 100.723 626.419 100.48C627.017 100.237 627.684 100.116 628.421 100.116C629.084 100.116 629.658 100.223 630.143 100.438C630.629 100.643 631.002 100.947 631.263 101.348C631.534 101.749 631.669 102.221 631.669 102.762C631.669 103.079 631.623 103.392 631.529 103.7C631.445 104.008 631.287 104.335 631.053 104.68C630.829 105.016 630.498 105.399 630.059 105.828L626.321 109.496L626.041 109.104H632.117V110H625.243Z" fill="#6E6B7B"/>
<path d="M580.349 38.4521H580.964V41.8213H580.715C579.602 41.8213 578.61 41.9873 577.741 42.3193C576.872 42.6514 576.135 43.125 575.529 43.7402C574.934 44.3457 574.475 45.0781 574.152 45.9375C573.84 46.7969 573.684 47.7588 573.684 48.8232V52.3682C573.684 53.1299 573.757 53.8037 573.903 54.3896C574.06 54.9658 574.279 55.4492 574.562 55.8398C574.855 56.2207 575.197 56.5088 575.588 56.7041C575.979 56.8896 576.418 56.9824 576.906 56.9824C577.365 56.9824 577.78 56.8848 578.151 56.6895C578.532 56.4941 578.854 56.2207 579.118 55.8691C579.392 55.5078 579.597 55.0879 579.733 54.6094C579.88 54.1211 579.953 53.5889 579.953 53.0127C579.953 52.4365 579.88 51.9043 579.733 51.416C579.597 50.9277 579.392 50.5078 579.118 50.1562C578.845 49.7949 578.513 49.5166 578.122 49.3213C577.731 49.126 577.292 49.0283 576.804 49.0283C576.14 49.0283 575.554 49.1846 575.046 49.4971C574.548 49.7998 574.157 50.1904 573.874 50.6689C573.591 51.1475 573.439 51.6504 573.42 52.1777L572.146 51.3574C572.175 50.6055 572.331 49.8926 572.614 49.2188C572.907 48.5449 573.308 47.9492 573.815 47.4316C574.333 46.9043 574.953 46.4941 575.676 46.2012C576.398 45.8984 577.214 45.7471 578.122 45.7471C579.118 45.7471 579.992 45.9375 580.744 46.3184C581.506 46.6992 582.141 47.2217 582.648 47.8857C583.156 48.5498 583.537 49.3164 583.791 50.1855C584.045 51.0547 584.172 51.9824 584.172 52.9688C584.172 54.0039 584.001 54.9658 583.659 55.8545C583.327 56.7432 582.844 57.5195 582.209 58.1836C581.584 58.8477 580.832 59.3652 579.953 59.7363C579.074 60.1074 578.088 60.293 576.994 60.293C575.861 60.293 574.831 60.0879 573.903 59.6777C572.985 59.2578 572.194 58.6719 571.53 57.9199C570.866 57.168 570.354 56.2744 569.992 55.2393C569.641 54.2041 569.465 53.0713 569.465 51.8408V50.2002C569.465 48.4814 569.714 46.9092 570.212 45.4834C570.72 44.0479 571.447 42.8076 572.395 41.7627C573.342 40.708 574.484 39.8926 575.822 39.3164C577.16 38.7402 578.669 38.4521 580.349 38.4521ZM601.047 47.4609V51.1523C601.047 52.7539 600.876 54.1357 600.534 55.2979C600.192 56.4502 599.699 57.3975 599.055 58.1396C598.42 58.8721 597.663 59.4141 596.784 59.7656C595.905 60.1172 594.929 60.293 593.854 60.293C592.995 60.293 592.194 60.1855 591.452 59.9707C590.71 59.7461 590.041 59.3994 589.445 58.9307C588.859 58.4619 588.352 57.8711 587.922 57.1582C587.502 56.4355 587.18 55.5762 586.955 54.5801C586.73 53.584 586.618 52.4414 586.618 51.1523V47.4609C586.618 45.8594 586.789 44.4873 587.131 43.3447C587.482 42.1924 587.976 41.25 588.61 40.5176C589.255 39.7852 590.017 39.248 590.896 38.9062C591.774 38.5547 592.751 38.3789 593.825 38.3789C594.685 38.3789 595.48 38.4912 596.213 38.7158C596.955 38.9307 597.624 39.2676 598.22 39.7266C598.815 40.1855 599.323 40.7764 599.743 41.499C600.163 42.2119 600.485 43.0664 600.71 44.0625C600.935 45.0488 601.047 46.1816 601.047 47.4609ZM596.813 51.709V46.8896C596.813 46.1182 596.77 45.4443 596.682 44.8682C596.604 44.292 596.481 43.8037 596.315 43.4033C596.149 42.9932 595.944 42.6611 595.7 42.4072C595.456 42.1533 595.178 41.9678 594.865 41.8506C594.553 41.7334 594.206 41.6748 593.825 41.6748C593.347 41.6748 592.922 41.7676 592.551 41.9531C592.189 42.1387 591.882 42.4365 591.628 42.8467C591.374 43.2471 591.179 43.7842 591.042 44.458C590.915 45.1221 590.852 45.9326 590.852 46.8896V51.709C590.852 52.4805 590.891 53.1592 590.969 53.7451C591.057 54.3311 591.184 54.834 591.35 55.2539C591.525 55.6641 591.73 56.001 591.965 56.2646C592.209 56.5186 592.487 56.7041 592.8 56.8213C593.122 56.9385 593.474 56.9971 593.854 56.9971C594.323 56.9971 594.738 56.9043 595.1 56.7188C595.471 56.5234 595.783 56.2207 596.037 55.8105C596.301 55.3906 596.496 54.8438 596.623 54.1699C596.75 53.4961 596.813 52.6758 596.813 51.709ZM603.859 43.9014V42.7734C603.859 41.9629 604.035 41.2256 604.387 40.5615C604.738 39.8975 605.256 39.3652 605.939 38.9648C606.623 38.5645 607.463 38.3643 608.459 38.3643C609.484 38.3643 610.339 38.5645 611.022 38.9648C611.716 39.3652 612.233 39.8975 612.575 40.5615C612.927 41.2256 613.103 41.9629 613.103 42.7734V43.9014C613.103 44.6924 612.927 45.4199 612.575 46.084C612.233 46.748 611.721 47.2803 611.037 47.6807C610.354 48.0811 609.509 48.2812 608.503 48.2812C607.487 48.2812 606.633 48.0811 605.939 47.6807C605.256 47.2803 604.738 46.748 604.387 46.084C604.035 45.4199 603.859 44.6924 603.859 43.9014ZM606.657 42.7734V43.9014C606.657 44.2432 606.721 44.5703 606.848 44.8828C606.984 45.1855 607.189 45.4346 607.463 45.6299C607.746 45.8154 608.088 45.9082 608.488 45.9082C608.908 45.9082 609.25 45.8154 609.514 45.6299C609.777 45.4346 609.973 45.1855 610.1 44.8828C610.227 44.5703 610.29 44.2432 610.29 43.9014V42.7734C610.29 42.4121 610.222 42.0801 610.085 41.7773C609.958 41.4648 609.758 41.2158 609.484 41.0303C609.221 40.835 608.879 40.7373 608.459 40.7373C608.068 40.7373 607.736 40.835 607.463 41.0303C607.189 41.2158 606.984 41.4648 606.848 41.7773C606.721 42.0801 606.657 42.4121 606.657 42.7734ZM614.055 55.8984V54.7705C614.055 53.9697 614.23 53.2373 614.582 52.5732C614.943 51.9092 615.466 51.377 616.149 50.9766C616.843 50.5762 617.692 50.376 618.698 50.376C619.714 50.376 620.563 50.5762 621.247 50.9766C621.931 51.377 622.448 51.9092 622.8 52.5732C623.151 53.2373 623.327 53.9697 623.327 54.7705V55.8984C623.327 56.6992 623.151 57.4316 622.8 58.0957C622.458 58.7598 621.945 59.292 621.262 59.6924C620.578 60.0928 619.733 60.293 618.728 60.293C617.712 60.293 616.857 60.0928 616.164 59.6924C615.471 59.292 614.943 58.7598 614.582 58.0957C614.23 57.4316 614.055 56.6992 614.055 55.8984ZM616.867 54.7705V55.8984C616.867 56.25 616.945 56.582 617.102 56.8945C617.258 57.207 617.473 57.4561 617.746 57.6416C618.029 57.8271 618.356 57.9199 618.728 57.9199C619.196 57.9199 619.562 57.8271 619.826 57.6416C620.09 57.4561 620.271 57.207 620.368 56.8945C620.476 56.582 620.529 56.25 620.529 55.8984V54.7705C620.529 54.4189 620.461 54.0918 620.324 53.7891C620.188 53.4766 619.982 53.2275 619.709 53.042C619.445 52.8467 619.108 52.749 618.698 52.749C618.288 52.749 617.946 52.8467 617.673 53.042C617.409 53.2275 617.209 53.4766 617.072 53.7891C616.936 54.0918 616.867 54.4189 616.867 54.7705ZM619.738 41.7188L609.323 58.3887L607.272 57.3047L617.688 40.6348L619.738 41.7188Z" fill="#7367F0"/>
<g filter="url(#filter0_d_55_237948)">
<circle cx="358.087" cy="202.543" r="195.743" fill="white"/>
</g>
<path d="M448.919 332.189C455.822 341.784 469.299 344.053 478.013 336.067C493.694 321.695 506.762 304.633 516.568 285.632C529.655 260.273 536.562 232.179 536.725 203.642C536.887 175.105 530.301 146.934 517.504 121.428C504.706 95.9211 486.06 73.8012 463.086 56.8728C440.112 39.9445 413.461 28.6872 385.309 24.0195C357.156 19.3518 328.298 21.4059 301.091 30.0143C273.883 38.6226 249.096 53.5413 228.751 73.5531C213.508 88.5474 201.082 106.083 192 125.317C186.953 136.006 193.113 148.206 204.322 151.957L247.623 166.446C258.832 170.197 270.767 163.955 276.986 153.903C280.866 147.633 285.495 141.827 290.788 136.621C301.19 126.389 313.865 118.76 327.777 114.359C341.688 109.957 356.444 108.907 370.839 111.294C385.234 113.68 398.861 119.436 410.608 128.092C422.355 136.748 431.889 148.058 438.433 161.1C444.976 174.142 448.344 188.547 448.261 203.138C448.177 217.729 444.646 232.094 437.954 245.061C434.549 251.659 430.375 257.799 425.536 263.362C417.778 272.28 415.351 285.528 422.254 295.123L448.919 332.189Z" fill="#7367F0"/>
<path d="M262.103 331.918C255.173 341.493 257.267 354.999 267.593 360.752C293.055 374.938 321.666 382.819 351.014 383.579C380.362 384.338 409.343 377.948 435.505 365.099C446.114 359.888 448.905 346.508 442.479 336.587L417.655 298.264C411.229 288.343 398.006 285.784 386.877 289.765C376.171 293.595 364.792 295.44 353.303 295.143C341.815 294.845 330.547 292.414 320.053 288.035C309.144 283.483 295.807 285.355 288.876 294.93L262.103 331.918Z" fill="url(#paint0_linear_55_237948)"/>
<path d="M213.449 275.037C202.916 280.401 198.623 293.376 205.191 303.203C212.036 313.444 219.908 322.961 228.685 331.603C237.108 339.896 250.658 338.111 257.9 328.769L286.499 291.876C293.396 282.979 291.553 270.286 284.377 261.613C277.202 252.939 265.079 248.75 255.048 253.857L213.449 275.037Z" fill="url(#paint1_linear_55_237948)"/>
<path d="M196.077 203.905C184.258 204 174.623 213.694 176.112 225.42C177.476 236.156 179.8 246.749 183.056 257.07C186.611 268.342 199.419 273.113 210.193 268.252L253.787 248.586C263.472 244.216 267.562 232.823 265.285 222.444C263.008 212.066 254.525 203.431 243.9 203.517L196.077 203.905Z" fill="url(#paint2_linear_55_237948)"/>
<path d="M194.416 164.22C183.181 162.63 172.661 170.46 172.353 181.802C172.046 193.144 182.126 201.533 193.43 200.555L250.632 195.602C256.412 195.101 260.629 190.001 260.786 184.201C260.944 178.401 257.009 173.079 251.265 172.266L194.416 164.22Z" fill="url(#paint3_linear_55_237948)"/>
<path d="M337.758 189.084C337.011 189.084 336.432 188.883 336.022 188.482C335.611 188.081 335.406 187.507 335.406 186.76V179.956H336.75V186.704C336.75 187.105 336.848 187.413 337.044 187.628C337.249 187.843 337.538 187.95 337.912 187.95C338.332 187.95 338.682 187.833 338.962 187.6L339.382 188.566C339.176 188.743 338.929 188.874 338.64 188.958C338.36 189.042 338.066 189.084 337.758 189.084ZM334.146 182.686V181.58H338.878V182.686H334.146ZM343.938 189.084C343.192 189.084 342.529 188.921 341.95 188.594C341.372 188.267 340.914 187.819 340.578 187.25C340.242 186.671 340.074 186.018 340.074 185.29C340.074 184.553 340.242 183.899 340.578 183.33C340.914 182.761 341.372 182.317 341.95 182C342.529 181.673 343.192 181.51 343.938 181.51C344.676 181.51 345.334 181.673 345.912 182C346.5 182.317 346.958 182.761 347.284 183.33C347.62 183.89 347.788 184.543 347.788 185.29C347.788 186.027 347.62 186.681 347.284 187.25C346.958 187.819 346.5 188.267 345.912 188.594C345.334 188.921 344.676 189.084 343.938 189.084ZM343.938 187.908C344.414 187.908 344.839 187.801 345.212 187.586C345.595 187.371 345.894 187.068 346.108 186.676C346.323 186.275 346.43 185.813 346.43 185.29C346.43 184.758 346.323 184.301 346.108 183.918C345.894 183.526 345.595 183.223 345.212 183.008C344.839 182.793 344.414 182.686 343.938 182.686C343.462 182.686 343.038 182.793 342.664 183.008C342.291 183.223 341.992 183.526 341.768 183.918C341.544 184.301 341.432 184.758 341.432 185.29C341.432 185.813 341.544 186.275 341.768 186.676C341.992 187.068 342.291 187.371 342.664 187.586C343.038 187.801 343.462 187.908 343.938 187.908ZM352.195 189.084C351.448 189.084 350.87 188.883 350.459 188.482C350.048 188.081 349.843 187.507 349.843 186.76V179.956H351.187V186.704C351.187 187.105 351.285 187.413 351.481 187.628C351.686 187.843 351.976 187.95 352.349 187.95C352.769 187.95 353.119 187.833 353.399 187.6L353.819 188.566C353.614 188.743 353.366 188.874 353.077 188.958C352.797 189.042 352.503 189.084 352.195 189.084ZM348.583 182.686V181.58H353.315V182.686H348.583ZM360.05 189V187.432L359.98 187.138V184.464C359.98 183.895 359.812 183.456 359.476 183.148C359.149 182.831 358.655 182.672 357.992 182.672C357.553 182.672 357.124 182.747 356.704 182.896C356.284 183.036 355.929 183.227 355.64 183.47L355.08 182.462C355.463 182.154 355.92 181.921 356.452 181.762C356.993 181.594 357.558 181.51 358.146 181.51C359.163 181.51 359.947 181.757 360.498 182.252C361.049 182.747 361.324 183.503 361.324 184.52V189H360.05ZM357.614 189.084C357.063 189.084 356.578 188.991 356.158 188.804C355.747 188.617 355.43 188.361 355.206 188.034C354.982 187.698 354.87 187.32 354.87 186.9C354.87 186.499 354.963 186.135 355.15 185.808C355.346 185.481 355.659 185.22 356.088 185.024C356.527 184.828 357.115 184.73 357.852 184.73H360.204V185.696H357.908C357.236 185.696 356.783 185.808 356.55 186.032C356.317 186.256 356.2 186.527 356.2 186.844C356.2 187.208 356.345 187.502 356.634 187.726C356.923 187.941 357.325 188.048 357.838 188.048C358.342 188.048 358.781 187.936 359.154 187.712C359.537 187.488 359.812 187.161 359.98 186.732L360.246 187.656C360.069 188.095 359.756 188.445 359.308 188.706C358.86 188.958 358.295 189.084 357.614 189.084ZM363.811 189V178.612H365.155V189H363.811ZM368.043 183.428C367.782 183.428 367.558 183.339 367.371 183.162C367.185 182.975 367.091 182.742 367.091 182.462C367.091 182.182 367.185 181.953 367.371 181.776C367.558 181.599 367.782 181.51 368.043 181.51C368.295 181.51 368.51 181.599 368.687 181.776C368.874 181.953 368.967 182.182 368.967 182.462C368.967 182.742 368.874 182.975 368.687 183.162C368.51 183.339 368.295 183.428 368.043 183.428ZM368.043 189.084C367.782 189.084 367.558 188.995 367.371 188.818C367.185 188.631 367.091 188.398 367.091 188.118C367.091 187.838 367.185 187.609 367.371 187.432C367.558 187.255 367.782 187.166 368.043 187.166C368.295 187.166 368.51 187.255 368.687 187.432C368.874 187.609 368.967 187.838 368.967 188.118C368.967 188.398 368.874 188.631 368.687 188.818C368.51 188.995 368.295 189.084 368.043 189.084ZM299.074 220.88V198.32H300.61V220.88H299.074ZM299.674 218.192C298.394 218.192 297.17 218 296.002 217.616C294.834 217.216 293.914 216.704 293.242 216.08L294.13 214.208C294.77 214.768 295.586 215.232 296.578 215.6C297.57 215.968 298.602 216.152 299.674 216.152C300.65 216.152 301.442 216.04 302.05 215.816C302.658 215.592 303.106 215.288 303.394 214.904C303.682 214.504 303.826 214.056 303.826 213.56C303.826 212.984 303.634 212.52 303.25 212.168C302.882 211.816 302.394 211.536 301.786 211.328C301.194 211.104 300.538 210.912 299.818 210.752C299.098 210.592 298.37 210.408 297.634 210.2C296.914 209.976 296.25 209.696 295.642 209.36C295.05 209.024 294.57 208.576 294.202 208.016C293.834 207.44 293.65 206.704 293.65 205.808C293.65 204.944 293.874 204.152 294.322 203.432C294.786 202.696 295.49 202.112 296.434 201.68C297.394 201.232 298.61 201.008 300.082 201.008C301.058 201.008 302.026 201.136 302.986 201.392C303.946 201.648 304.778 202.016 305.482 202.496L304.69 204.416C303.97 203.936 303.21 203.592 302.41 203.384C301.61 203.16 300.834 203.048 300.082 203.048C299.138 203.048 298.362 203.168 297.754 203.408C297.146 203.648 296.698 203.968 296.41 204.368C296.138 204.768 296.002 205.216 296.002 205.712C296.002 206.304 296.186 206.776 296.554 207.128C296.938 207.48 297.426 207.76 298.018 207.968C298.626 208.176 299.29 208.368 300.01 208.544C300.73 208.704 301.45 208.888 302.17 209.096C302.906 209.304 303.57 209.576 304.162 209.912C304.77 210.248 305.258 210.696 305.626 211.256C305.994 211.816 306.178 212.536 306.178 213.416C306.178 214.264 305.946 215.056 305.482 215.792C305.018 216.512 304.298 217.096 303.322 217.544C302.362 217.976 301.146 218.192 299.674 218.192ZM310.914 218V202.16L311.946 203.288H307.122V201.2H313.29V218H310.914ZM317.085 221.552L318.285 216.704L318.597 218.096C318.133 218.096 317.741 217.952 317.421 217.664C317.117 217.376 316.965 216.984 316.965 216.488C316.965 216.008 317.117 215.616 317.421 215.312C317.741 215.008 318.125 214.856 318.573 214.856C319.037 214.856 319.413 215.016 319.701 215.336C319.989 215.64 320.133 216.024 320.133 216.488C320.133 216.648 320.117 216.808 320.085 216.968C320.069 217.112 320.029 217.288 319.965 217.496C319.917 217.688 319.837 217.928 319.725 218.216L318.597 221.552H317.085ZM329.188 218.192C327.828 218.192 326.652 217.992 325.66 217.592C324.668 217.192 323.9 216.624 323.356 215.888C322.812 215.136 322.54 214.256 322.54 213.248C322.54 212.256 322.796 211.416 323.308 210.728C323.836 210.024 324.596 209.496 325.588 209.144C326.58 208.776 327.78 208.592 329.188 208.592C330.596 208.592 331.796 208.776 332.788 209.144C333.796 209.496 334.564 210.024 335.092 210.728C335.62 211.432 335.884 212.272 335.884 213.248C335.884 214.256 335.612 215.136 335.068 215.888C334.524 216.624 333.748 217.192 332.74 217.592C331.732 217.992 330.548 218.192 329.188 218.192ZM329.188 216.248C330.532 216.248 331.58 215.976 332.332 215.432C333.1 214.872 333.484 214.12 333.484 213.176C333.484 212.248 333.1 211.52 332.332 210.992C331.58 210.448 330.532 210.176 329.188 210.176C327.86 210.176 326.82 210.448 326.068 210.992C325.316 211.52 324.94 212.248 324.94 213.176C324.94 214.12 325.316 214.872 326.068 215.432C326.82 215.976 327.86 216.248 329.188 216.248ZM329.188 209.888C327.908 209.888 326.82 209.72 325.924 209.384C325.028 209.032 324.34 208.536 323.86 207.896C323.38 207.24 323.14 206.464 323.14 205.568C323.14 204.624 323.388 203.816 323.884 203.144C324.396 202.456 325.108 201.928 326.02 201.56C326.932 201.192 327.988 201.008 329.188 201.008C330.404 201.008 331.468 201.192 332.38 201.56C333.292 201.928 334.004 202.456 334.516 203.144C335.028 203.816 335.284 204.624 335.284 205.568C335.284 206.464 335.044 207.24 334.564 207.896C334.084 208.536 333.388 209.032 332.476 209.384C331.564 209.72 330.468 209.888 329.188 209.888ZM329.188 208.352C330.356 208.352 331.268 208.112 331.924 207.632C332.596 207.152 332.932 206.496 332.932 205.664C332.932 204.816 332.588 204.152 331.9 203.672C331.212 203.192 330.308 202.952 329.188 202.952C328.068 202.952 327.172 203.192 326.5 203.672C325.844 204.152 325.516 204.816 325.516 205.664C325.516 206.496 325.836 207.152 326.476 207.632C327.132 208.112 328.036 208.352 329.188 208.352ZM343.53 201.008C345.05 201.008 346.33 201.336 347.37 201.992C348.426 202.648 349.226 203.6 349.77 204.848C350.314 206.08 350.586 207.592 350.586 209.384C350.586 211.288 350.25 212.896 349.578 214.208C348.906 215.52 347.978 216.512 346.794 217.184C345.61 217.856 344.226 218.192 342.642 218.192C341.858 218.192 341.098 218.112 340.362 217.952C339.642 217.792 339.01 217.544 338.466 217.208L339.378 215.336C339.826 215.624 340.322 215.832 340.866 215.96C341.426 216.072 342.01 216.128 342.618 216.128C344.314 216.128 345.666 215.6 346.674 214.544C347.682 213.472 348.186 211.888 348.186 209.792C348.186 209.456 348.17 209.056 348.138 208.592C348.106 208.128 348.034 207.672 347.922 207.224L348.714 208.04C348.49 208.776 348.114 209.4 347.586 209.912C347.074 210.408 346.45 210.784 345.714 211.04C344.994 211.28 344.202 211.4 343.338 211.4C342.234 211.4 341.25 211.192 340.386 210.776C339.522 210.36 338.842 209.776 338.346 209.024C337.85 208.256 337.602 207.352 337.602 206.312C337.602 205.224 337.858 204.288 338.37 203.504C338.898 202.704 339.61 202.088 340.506 201.656C341.418 201.224 342.426 201.008 343.53 201.008ZM343.626 202.952C342.906 202.952 342.266 203.088 341.706 203.36C341.146 203.632 340.706 204.008 340.386 204.488C340.082 204.968 339.93 205.544 339.93 206.216C339.93 207.208 340.274 208 340.962 208.592C341.65 209.168 342.578 209.456 343.746 209.456C344.514 209.456 345.186 209.312 345.762 209.024C346.354 208.736 346.81 208.344 347.13 207.848C347.466 207.352 347.634 206.8 347.634 206.192C347.634 205.6 347.482 205.064 347.178 204.584C346.874 204.104 346.426 203.712 345.834 203.408C345.242 203.104 344.506 202.952 343.626 202.952ZM359.95 218.192C358.462 218.192 357.19 217.864 356.134 217.208C355.078 216.552 354.27 215.608 353.71 214.376C353.166 213.128 352.894 211.608 352.894 209.816C352.894 207.912 353.23 206.304 353.902 204.992C354.574 203.68 355.51 202.688 356.71 202.016C357.91 201.344 359.286 201.008 360.838 201.008C361.638 201.008 362.398 201.088 363.118 201.248C363.854 201.408 364.486 201.656 365.014 201.992L364.102 203.864C363.67 203.56 363.174 203.352 362.614 203.24C362.07 203.128 361.494 203.072 360.886 203.072C359.174 203.072 357.814 203.608 356.806 204.68C355.798 205.736 355.294 207.312 355.294 209.408C355.294 209.744 355.31 210.144 355.342 210.608C355.374 211.072 355.454 211.528 355.582 211.976L354.766 211.16C355.006 210.424 355.382 209.808 355.894 209.312C356.422 208.8 357.046 208.424 357.766 208.184C358.502 207.928 359.294 207.8 360.142 207.8C361.262 207.8 362.254 208.008 363.118 208.424C363.982 208.84 364.662 209.432 365.158 210.2C365.654 210.952 365.902 211.848 365.902 212.888C365.902 213.96 365.638 214.896 365.11 215.696C364.582 216.496 363.87 217.112 362.974 217.544C362.078 217.976 361.07 218.192 359.95 218.192ZM359.854 216.248C360.59 216.248 361.23 216.112 361.774 215.84C362.334 215.568 362.774 215.192 363.094 214.712C363.414 214.216 363.574 213.64 363.574 212.984C363.574 211.992 363.23 211.208 362.542 210.632C361.854 210.04 360.918 209.744 359.734 209.744C358.966 209.744 358.294 209.888 357.718 210.176C357.142 210.464 356.686 210.856 356.35 211.352C356.03 211.832 355.87 212.384 355.87 213.008C355.87 213.584 356.022 214.12 356.326 214.616C356.63 215.096 357.078 215.488 357.67 215.792C358.262 216.096 358.99 216.248 359.854 216.248ZM368.061 221.552L369.261 216.704L369.573 218.096C369.109 218.096 368.717 217.952 368.397 217.664C368.093 217.376 367.941 216.984 367.941 216.488C367.941 216.008 368.093 215.616 368.397 215.312C368.717 215.008 369.101 214.856 369.549 214.856C370.013 214.856 370.389 215.016 370.677 215.336C370.965 215.64 371.109 216.024 371.109 216.488C371.109 216.648 371.093 216.808 371.061 216.968C371.045 217.112 371.005 217.288 370.941 217.496C370.893 217.688 370.813 217.928 370.701 218.216L369.573 221.552H368.061ZM379.961 218.192C378.649 218.192 377.473 217.856 376.433 217.184C375.409 216.512 374.593 215.536 373.985 214.256C373.393 212.976 373.097 211.424 373.097 209.6C373.097 207.776 373.393 206.224 373.985 204.944C374.593 203.664 375.409 202.688 376.433 202.016C377.473 201.344 378.649 201.008 379.961 201.008C381.257 201.008 382.425 201.344 383.465 202.016C384.505 202.688 385.321 203.664 385.913 204.944C386.505 206.224 386.801 207.776 386.801 209.6C386.801 211.424 386.505 212.976 385.913 214.256C385.321 215.536 384.505 216.512 383.465 217.184C382.425 217.856 381.257 218.192 379.961 218.192ZM379.961 216.056C380.841 216.056 381.609 215.816 382.265 215.336C382.937 214.856 383.457 214.136 383.825 213.176C384.209 212.216 384.401 211.024 384.401 209.6C384.401 208.176 384.209 206.984 383.825 206.024C383.457 205.064 382.937 204.344 382.265 203.864C381.609 203.384 380.841 203.144 379.961 203.144C379.081 203.144 378.305 203.384 377.633 203.864C376.961 204.344 376.433 205.064 376.049 206.024C375.681 206.984 375.497 208.176 375.497 209.6C375.497 211.024 375.681 212.216 376.049 213.176C376.433 214.136 376.961 214.856 377.633 215.336C378.305 215.816 379.081 216.056 379.961 216.056ZM394.529 218.192C393.345 218.192 392.193 218.008 391.073 217.64C389.969 217.272 389.065 216.776 388.361 216.152L389.465 214.256C390.025 214.784 390.753 215.216 391.649 215.552C392.545 215.888 393.497 216.056 394.505 216.056C395.785 216.056 396.769 215.784 397.457 215.24C398.145 214.696 398.489 213.968 398.489 213.056C398.489 212.432 398.337 211.888 398.033 211.424C397.729 210.96 397.201 210.608 396.449 210.368C395.713 210.112 394.697 209.984 393.401 209.984H389.585L390.473 201.2H399.953V203.288H391.361L392.609 202.112L391.913 209.048L390.665 207.896H393.905C395.585 207.896 396.937 208.112 397.961 208.544C398.985 208.976 399.729 209.576 400.193 210.344C400.657 211.096 400.889 211.968 400.889 212.96C400.889 213.92 400.657 214.8 400.193 215.6C399.729 216.384 399.025 217.016 398.081 217.496C397.153 217.96 395.969 218.192 394.529 218.192ZM409.75 218.192C408.438 218.192 407.262 217.856 406.222 217.184C405.198 216.512 404.382 215.536 403.774 214.256C403.182 212.976 402.886 211.424 402.886 209.6C402.886 207.776 403.182 206.224 403.774 204.944C404.382 203.664 405.198 202.688 406.222 202.016C407.262 201.344 408.438 201.008 409.75 201.008C411.046 201.008 412.214 201.344 413.254 202.016C414.294 202.688 415.11 203.664 415.702 204.944C416.294 206.224 416.59 207.776 416.59 209.6C416.59 211.424 416.294 212.976 415.702 214.256C415.11 215.536 414.294 216.512 413.254 217.184C412.214 217.856 411.046 218.192 409.75 218.192ZM409.75 216.056C410.63 216.056 411.398 215.816 412.054 215.336C412.726 214.856 413.246 214.136 413.614 213.176C413.998 212.216 414.19 211.024 414.19 209.6C414.19 208.176 413.998 206.984 413.614 206.024C413.246 205.064 412.726 204.344 412.054 203.864C411.398 203.384 410.63 203.144 409.75 203.144C408.87 203.144 408.094 203.384 407.422 203.864C406.75 204.344 406.222 205.064 405.838 206.024C405.47 206.984 405.286 208.176 405.286 209.6C405.286 211.024 405.47 212.216 405.838 213.176C406.222 214.136 406.75 214.856 407.422 215.336C408.094 215.816 408.87 216.056 409.75 216.056Z" fill="#5E5873"/>
<path d="M684.5 74H560L508 103" stroke="#CDCDCD" stroke-width="2" stroke-dasharray="2 2"/>
</g>
<defs>
<filter id="filter0_d_55_237948" x="117.755" y="-34.2215" width="480.661" height="480.663" filterUnits="userSpaceOnUse" color-interpolation-filters="sRGB">
<feFlood flood-opacity="0" result="BackgroundImageFix"/>
<feColorMatrix in="SourceAlpha" type="matrix" values="0 0 0 0 0 0 0 0 0 0 0 0 0 0 0 0 0 0 127 0" result="hardAlpha"/>
<feOffset dy="3.56707"/>
<feGaussianBlur stdDeviation="22.2942"/>
<feComposite in2="hardAlpha" operator="out"/>
<feColorMatrix type="matrix" values="0 0 0 0 0 0 0 0 0 0 0 0 0 0 0 0 0 0 0.08 0"/>
<feBlend mode="normal" in2="BackgroundImageFix" result="effect1_dropShadow_55_237948"/>
<feBlend mode="normal" in="SourceGraphic" in2="effect1_dropShadow_55_237948" result="shape"/>
</filter>
<linearGradient id="paint0_linear_55_237948" x1="226.127" y1="329.211" x2="494.28" y2="85.9417" gradientUnits="userSpaceOnUse">
<stop stop-color="#7367F0" stop-opacity="0.45277"/>
<stop offset="1" stop-color="#7367F0" stop-opacity="0"/>
</linearGradient>
<linearGradient id="paint1_linear_55_237948" x1="226.127" y1="329.211" x2="494.28" y2="85.9417" gradientUnits="userSpaceOnUse">
<stop stop-color="#7367F0" stop-opacity="0.45277"/>
<stop offset="1" stop-color="#7367F0" stop-opacity="0"/>
</linearGradient>
<linearGradient id="paint2_linear_55_237948" x1="226.127" y1="329.211" x2="494.28" y2="85.9417" gradientUnits="userSpaceOnUse">
<stop stop-color="#7367F0" stop-opacity="0.45277"/>
<stop offset="1" stop-color="#7367F0" stop-opacity="0"/>
</linearGradient>
<linearGradient id="paint3_linear_55_237948" x1="223.744" y1="313.311" x2="491.897" y2="70.0423" gradientUnits="userSpaceOnUse">
<stop stop-color="#7367F0" stop-opacity="0.45277"/>
<stop offset="1" stop-color="#7367F0" stop-opacity="0"/>
</linearGradient>
<clipPath id="clip0_55_237948">
<rect width="749" height="435" fill="white"/>
</clipPath>
</defs>
</svg>
