<svg width="17" height="16" viewBox="0 0 17 16" fill="none" xmlns="http://www.w3.org/2000/svg">
<path d="M12.6822 6.46634L8.68216 10.4663C8.54883 10.5997 8.41549 10.6663 8.2155 10.6663C8.01549 10.6663 7.88216 10.5997 7.74883 10.4663L3.74883 6.46634C3.48216 6.19967 3.48216 5.79967 3.74883 5.53301C4.01549 5.26634 4.41549 5.26634 4.68216 5.53301L8.2155 9.06634L11.7488 5.53301C12.0155 5.26634 12.4155 5.26634 12.6822 5.53301C12.9488 5.79967 12.9488 6.19967 12.6822 6.46634Z" fill="black"/>
<mask id="mask0_307_5293" style="mask-type:luminance" maskUnits="userSpaceOnUse" x="3" y="5" width="10" height="6">
<path d="M12.6822 6.46634L8.68216 10.4663C8.54883 10.5997 8.41549 10.6663 8.2155 10.6663C8.01549 10.6663 7.88216 10.5997 7.74883 10.4663L3.74883 6.46634C3.48216 6.19967 3.48216 5.79967 3.74883 5.53301C4.01549 5.26634 4.41549 5.26634 4.68216 5.53301L8.2155 9.06634L11.7488 5.53301C12.0155 5.26634 12.4155 5.26634 12.6822 5.53301C12.9488 5.79967 12.9488 6.19967 12.6822 6.46634Z" fill="white"/>
</mask>
<g mask="url(#mask0_307_5293)">
<rect x="0.214844" width="16" height="16" fill="#6E6B7B"/>
</g>
</svg>
