<svg width="666" height="377" viewBox="0 0 666 377" fill="none" xmlns="http://www.w3.org/2000/svg">
<g id="Illustration">
<g id="Shape">
<g id="Group 59">
<path id="Path" opacity="0.0845424" d="M618.527 176.035C627.142 164.536 643.452 162.194 654.959 170.802C666.35 179.324 668.762 195.385 660.45 206.863L660.195 207.209L591.942 298.315C583.249 309.919 567.103 312.861 554.885 305.139L554.516 304.901L511.549 276.798L468.227 339.851C460.173 351.574 444.213 354.64 432.398 346.811L432.041 346.571C420.31 338.522 417.242 322.573 425.076 310.765L425.317 310.409L482.087 227.783C490.544 215.473 507.21 212.081 519.795 220.029L520.175 220.273L563.941 248.899L618.527 176.035Z" fill="#7367F0"/>
<path id="Path_2" opacity="0.0845424" d="M395.116 28.1919C397.3 25.0189 401.651 24.2119 404.834 26.3895C407.974 28.5383 408.804 32.7907 406.726 35.9516L406.641 36.0775L389.632 60.7861C387.138 64.2681 382.313 65.1068 378.789 62.6981L378.664 62.6107L368.895 55.6566L358.307 72.4284C356.278 75.643 352.048 76.638 348.797 74.6923L348.669 74.6139C345.445 72.5907 344.447 68.3734 346.399 65.1325L346.477 65.0051L360.518 42.7634C362.831 39.0993 367.686 37.9985 371.361 40.3046L371.553 40.4292L371.742 40.5593L381.716 47.6595L395.116 28.1919Z" fill="#7367F0"/>
<path id="+" opacity="0.070266" fill-rule="evenodd" clip-rule="evenodd" d="M580.737 143.94C582.117 143.94 583.237 142.821 583.237 141.44V125.131H599.558C600.939 125.131 602.058 124.012 602.058 122.631V115.089C602.058 113.708 600.939 112.589 599.558 112.589H583.237V96.1582C583.237 94.7775 582.117 93.6582 580.737 93.6582H573.064C571.683 93.6582 570.564 94.7775 570.564 96.1582V112.589H554.242C552.861 112.589 551.742 113.708 551.742 115.089V122.631C551.742 124.012 552.861 125.131 554.242 125.131H570.564V141.44C570.564 142.821 571.683 143.94 573.064 143.94H580.737Z" fill="#00CFE8"/>
<path id="Oval" opacity="0.0739397" fill-rule="evenodd" clip-rule="evenodd" d="M84.1493 43.5371C130.624 43.5371 168.299 81.1867 168.299 127.63C168.299 174.073 130.624 211.723 84.1493 211.723C37.6749 211.723 0 174.073 0 127.63C0 81.1867 37.6749 43.5371 84.1493 43.5371ZM84.1493 85.15C60.6726 85.15 41.6409 104.169 41.6409 127.63C41.6409 151.091 60.6726 170.11 84.1493 170.11C107.626 170.11 126.658 151.091 126.658 127.63C126.658 104.169 107.626 85.15 84.1493 85.15Z" fill="#00CFE8"/>
</g>
</g>
<g id="Illustration_2">
<path id="Rectangle" fill-rule="evenodd" clip-rule="evenodd" d="M503 260.111C503 246.795 492.205 236 478.889 236L354 236V354C354 356.209 355.791 358 358 358H499C501.209 358 503 356.209 503 354L503 260.111Z" fill="#DFDFDF"/>
<path id="Rectangle_2" fill-rule="evenodd" clip-rule="evenodd" d="M489 336L382 336V360H489L489 336Z" fill="#D1D1D1"/>
<path id="Path_3" fill-rule="evenodd" clip-rule="evenodd" d="M349.827 360L343 377H376L370.281 360H349.827Z" fill="#DFDFDF"/>
<path id="Path_4" fill-rule="evenodd" clip-rule="evenodd" d="M462.827 358L456 377H489L483.281 358H462.827Z" fill="#F1F1F1"/>
<path id="Path_5" fill-rule="evenodd" clip-rule="evenodd" d="M238.827 360L232 377H265L259.281 360H238.827Z" fill="#DFDFDF"/>
<path id="Rectangle_3" fill-rule="evenodd" clip-rule="evenodd" d="M418 134C418 120.891 407.527 110.184 394.422 109.894L354 109V248H418L418 134Z" fill="#DFDFDF"/>
<path id="Rectangle_4" fill-rule="evenodd" clip-rule="evenodd" d="M406 133.111C406 119.795 395.205 109 381.889 109H254.84C242.778 109 233 118.778 233 130.84V248.253C233 249.218 233.782 250 234.747 250H406V133.111Z" fill="#F2F2F2"/>
<path id="Rectangle_5" fill-rule="evenodd" clip-rule="evenodd" d="M281 133.111C281 119.795 270.205 109 256.889 109H253.84C241.778 109 232 118.778 232 130.84V234.253C232 235.218 232.782 236 233.747 236H281V133.111Z" fill="#DFDFDF"/>
<path id="Rectangle_6" fill-rule="evenodd" clip-rule="evenodd" d="M489 262.6C489 255.641 483.359 250 476.4 250H361V342H489L489 262.6Z" fill="#F2F2F2"/>
<g id="Wom1.4">
<g id="Head">
<path id="Path_6" fill-rule="evenodd" clip-rule="evenodd" d="M355.232 96.2715C338.036 92.2431 336.904 68.4991 349.977 60.2627C336.495 31.8309 367.673 3.60178 389.031 21.0111C403.032 14.9822 414.667 38.5083 401.639 56.7802C407.102 88.1536 395.984 96.2633 375.943 96.6078L355.232 96.2715Z" fill="#33373E"/>
<path id="Path_7" fill-rule="evenodd" clip-rule="evenodd" d="M355.445 90.6008C355.445 90.6008 363.81 88.6253 364.101 74.8371C364.391 61.0489 364.187 56.3423 364.187 56.3423L382.613 56.0078C382.613 56.0078 382.814 71.3746 382.816 76.9328C382.824 91.8613 393.164 90.6008 393.164 90.6008C393.164 90.6008 391.015 102.705 374.319 103.65C361.283 104.388 355.445 90.6008 355.445 90.6008Z" fill="#EDC2C2"/>
<path id="Path_8" fill-rule="evenodd" clip-rule="evenodd" d="M359.893 49.4567C351.674 49.1367 353.014 61.2414 361.553 61.2249C361.553 61.2249 366.512 78.4204 383.731 78.4204C397.714 78.4204 398.624 58.3788 398.751 54.3807C398.887 50.1178 398.905 36.1131 398.905 36.1131L359.573 36.0947L359.893 49.4567Z" fill="#FFD7D7"/>
<path id="Path_9" d="M380.41 66.8691C380.41 66.8691 384.511 70.3625 389.261 67.0914" stroke="#F77B7B" stroke-width="1.5" stroke-linecap="round"/>
<path id="Path_10" d="M383.117 70.9139C384.393 71.5062 385.622 71.5493 386.718 70.9588" stroke="#F49494" stroke-linecap="round"/>
<path id="Path 8" d="M360.731 55.9664C360.815 54.0247 360.226 52.4827 358.258 52.1729" stroke="#F77B7B" stroke-linecap="round"/>
<path id="Path_11" fill-rule="evenodd" clip-rule="evenodd" d="M358.592 47.9613C358.592 47.9613 363.098 54.0427 364.01 54.075C364.923 54.1073 365.242 46.1658 365.242 46.1658C370.769 45.7411 384.756 42.9393 388.184 36.412C390.582 42.1713 395.165 44.7295 398.177 44.2382L398.748 56.4738L400.153 31.875H357.49L358.592 47.9613Z" fill="#33373E"/>
</g>
<g id="LLeg">
<path id="Path_12" fill-rule="evenodd" clip-rule="evenodd" d="M439.633 333.75C439.633 333.75 432.259 348.733 438.304 353.454C444.358 358.176 460.349 367.025 460.349 367.025L417.982 364.347L427.4 331.671L439.633 333.75Z" fill="#FFD7D7"/>
<path id="Path_13" fill-rule="evenodd" clip-rule="evenodd" d="M422.08 348.009C424.171 348.255 421.938 355.336 426.465 355.874C430.983 356.412 433.179 349.703 438.306 351.83C443.433 353.957 462.131 364.953 462.867 369.449C463.612 373.943 456.646 375.266 447.092 374.251C437.538 373.235 435.777 369.816 428.605 371.194C421.442 372.57 416.076 370.376 416.312 365.111C416.549 359.846 419.99 347.763 422.08 348.009Z" fill="#2B2E35"/>
<path id="Path 14" fill-rule="evenodd" clip-rule="evenodd" d="M440.644 352.921L439.462 354.703C439.141 355.188 439.299 355.843 439.806 356.128L453.026 363.549C453.318 363.713 453.673 363.72 453.971 363.568L456.125 362.468C453.044 360.223 450.524 358.536 447.739 356.88C445.602 355.608 443.235 354.297 440.644 352.921Z" fill="white" fill-opacity="0.540975"/>
<path id="Path_14" fill-rule="evenodd" clip-rule="evenodd" d="M375.812 201.701C388.638 202.277 460.026 218.16 472.996 220.859C485.966 223.557 496.931 238.159 487.041 255.067C475.932 274.047 447.271 327.951 440.312 340.102C436.868 346.116 419.492 342.744 423.574 332.65C431.182 313.832 434.716 266.559 454.114 249.322C454.114 249.322 388.877 260.744 360.697 247.661C340.217 238.151 344.85 200.308 375.812 201.701Z" fill="#33373E"/>
</g>
<g id="LArm">
<path id="Path_15" fill-rule="evenodd" clip-rule="evenodd" d="M466.692 125.402C466.692 125.402 466.547 114.903 470.198 109.416C473.849 103.93 473.993 98.1019 476.756 98.2926C479.519 98.4834 476.784 112.03 476.784 112.03C476.784 112.03 480.289 110.682 482.807 108.978C485.326 107.274 492.962 98.8732 494.747 100.362C497.772 102.898 492.899 117.207 490.245 120.068C487.581 122.929 473.033 132.339 473.033 132.339L466.692 125.402Z" fill="#FFD7D7"/>
<path id="Path_16" fill-rule="evenodd" clip-rule="evenodd" d="M387.869 119.111C393.836 133.032 404.761 158.605 409.265 166.235C414.909 175.79 423.809 180 434.23 172.911C445.179 165.461 475.329 136.406 476.214 129.825C477.09 123.243 469.71 115.347 463.033 119.435C456.356 123.524 428.61 146.751 428.61 146.751C428.61 146.751 417.413 117.876 408.405 101.149C400.604 86.6777 378.787 97.947 387.869 119.111Z" fill="#675CD7"/>
<path id="Path_17" fill-rule="evenodd" clip-rule="evenodd" d="M428.727 146.766C428.727 146.766 431.734 157.027 432.437 156.433C433.14 155.839 431.9 144.084 431.9 144.084L428.727 146.766Z" fill="black" fill-opacity="0.302803"/>
</g>
<g id="PhoneMini4">
<g id="Group 3">
<path id="Rectangle_7" d="M505.11 98.0413C505.52 96.7807 504.83 95.4267 503.569 95.0171L485.674 89.2029C484.414 88.7933 483.06 89.4831 482.65 90.7438L469.451 131.366C469.042 132.626 469.732 133.98 470.992 134.39L488.887 140.204C490.147 140.614 491.501 139.924 491.911 138.663L505.11 98.0413Z" fill="#7596FF"/>
<rect id="Rectangle_8" width="23.6154" height="47.5125" rx="2.4" transform="matrix(-0.951057 -0.309017 -0.309017 0.951057 504.354 94.6152)" fill="#93C2F9"/>
<path id="Rectangle_9" d="M499.814 94.9246L498.111 94.3711C497.764 94.2584 497.394 94.4161 497.226 94.7284L497.173 94.8525C497.046 95.2453 496.626 95.4608 496.235 95.3339L488.022 92.6652C487.675 92.5524 487.468 92.2071 487.516 91.8559L487.546 91.7244C487.673 91.3317 487.46 90.9105 487.07 90.7837L485.375 90.233C484.116 89.8239 482.767 90.4638 482.264 91.6718L482.191 91.8693L470.284 128.626C469.767 130.231 470.637 131.949 472.23 132.47L485.706 136.848C487.23 137.347 488.866 136.563 489.462 135.089L489.536 134.884C489.537 134.884 489.537 134.883 489.535 134.881L501.439 98.133C501.873 96.7932 501.146 95.3572 499.814 94.9246Z" fill="#E6F3FF"/>
</g>
</g>
<g id="Body">
<path id="Path_18" fill-rule="evenodd" clip-rule="evenodd" d="M328.242 102.337C328.242 102.337 342.62 150.769 343.046 159.937C343.472 169.105 331.286 196.052 333.361 202.863C338.145 218.602 399.219 225.379 401.552 204.206C402.64 194.332 400.376 185.47 402.985 173.835C405.585 162.2 416.037 144.91 410.109 128.654C404.181 112.399 405.769 97.3602 401.529 94.5177C397.289 91.6752 387.377 88.6564 387.377 88.6564C382.557 95.7918 366.285 95.6879 358.521 88.1533C358.521 88.1533 339.232 91.9174 328.242 102.337Z" fill="#7367F0"/>
<path id="Path_19" fill-rule="evenodd" clip-rule="evenodd" d="M341.127 110.181C350.712 125.482 350.683 152.121 355.83 155.61C360.978 159.099 381.012 155.676 381.012 158.439C381.012 161.202 353.326 186.523 357.871 198.628C360.251 204.966 359.605 210.636 355.934 215.639L354.736 215.376C343.827 212.896 335.058 208.443 333.362 202.863C331.287 196.052 344.878 169.106 344.453 159.937C344.091 152.154 332.663 116.079 329.217 105.353C332.022 100.373 335.992 101.982 341.127 110.181Z" fill="black" fill-opacity="0.199355"/>
</g>
<g id="RArm">
<path id="Path_20" fill-rule="evenodd" clip-rule="evenodd" d="M357.469 150.774C357.469 150.774 369.579 139.992 373.287 138.74C376.994 137.489 398.708 135.986 398.57 138.814C398.415 141.843 386.752 141.668 385.544 143.159C384.336 144.648 384.061 154.834 379.493 155.978C374.935 157.121 361.268 159.093 361.268 159.093L357.469 150.774Z" fill="#FFD7D7"/>
<path id="Path_21" fill-rule="evenodd" clip-rule="evenodd" d="M325.25 105.12C312.491 123.235 301.597 150.829 297.416 161.587C293.234 172.345 297.452 188.572 315.839 185.386C334.193 182.209 363.396 164.945 366.627 159.909C369.859 154.873 364.95 145.709 358.768 146.909C353.042 148.018 324.635 160.169 324.635 160.169C324.635 160.169 342.91 127.583 347.373 118.848C354.827 104.259 336.489 89.1588 325.25 105.12Z" fill="#675CD7"/>
<path id="Path_22" fill-rule="evenodd" clip-rule="evenodd" d="M324.924 159.946C324.924 159.946 315.352 164.73 316.519 162.724C317.687 160.717 328.576 153.669 328.576 153.669L324.924 159.946Z" fill="black" fill-opacity="0.302803"/>
</g>
<g id="RLeg">
<path id="Path_23" fill-rule="evenodd" clip-rule="evenodd" d="M484.184 334.353C484.184 334.353 483.962 351.987 498.406 358.58C512.841 365.172 523.126 364.775 521.817 369.872C520.508 374.969 482.934 374.763 479.426 370.777C476.435 367.386 469.931 335.811 468.141 338.225L484.184 334.353Z" fill="#FFD7D7"/>
<path id="Path_24" fill-rule="evenodd" clip-rule="evenodd" d="M472.756 354.092C474.369 350.957 474.471 359.777 480.833 357.833C485.997 356.256 487.762 347.228 491.024 349.205C494.287 351.183 523.006 366.513 523.17 366.606C526.706 368.521 525.718 374.326 519.745 375.339C513.109 376.464 478.725 375.707 476.88 373.928C475.035 372.148 471.463 356.606 472.756 354.092Z" fill="#2B2E35"/>
<path id="Path 14_2" fill-rule="evenodd" clip-rule="evenodd" d="M495.273 354.478C494.611 354.478 493.984 355.462 493.597 356.227C493.354 356.708 493.598 357.273 494.096 357.479L509.51 363.863C509.851 364.004 510.246 363.949 510.503 363.683C510.868 363.307 511.302 362.755 511.131 362.396C510.851 361.808 496.355 354.478 495.273 354.478Z" fill="white" fill-opacity="0.540975"/>
<path id="Path_25" fill-rule="evenodd" clip-rule="evenodd" d="M334.217 196.25C334.217 196.25 315.57 235.866 341.775 249.469C367.118 262.624 442.986 247.065 442.986 247.065C442.986 247.065 441.63 258.045 442.986 267.838C446.526 293.414 463.366 336.025 466.928 341.379C471.855 348.784 486.864 343.2 487.146 337.034C487.429 330.869 475.832 252.129 474.069 237.114C472.314 222.098 466.775 219.917 450.598 215.812C446.881 214.869 402.93 203.881 398.904 204.201C364.308 206.953 334.217 196.25 334.217 196.25Z" fill="#42474F"/>
<path id="Path_26" fill-rule="evenodd" clip-rule="evenodd" d="M354.659 245.38C379.749 248.209 446.174 242.379 448.842 245.028C451.389 247.557 450.964 291.556 456.677 317.023L455.808 314.618C450.435 299.605 444.856 281.346 442.986 267.838C441.63 258.045 442.986 247.065 442.986 247.065L439.926 247.661C425.505 250.386 364.077 261.046 341.775 249.469C329.692 243.196 324.761 232.775 326.982 218.206C330.808 234.673 340.034 243.732 354.659 245.38Z" fill="#52565E"/>
<ellipse id="Oval_2" cx="484.769" cy="239.129" rx="4.21831" ry="7.77501" transform="rotate(13 484.769 239.129)" fill="#52565E"/>
<ellipse id="Oval_3" cx="465.089" cy="234.181" rx="5.62527" ry="8.48055" transform="rotate(-16 465.089 234.181)" fill="#52565E"/>
</g>
</g>
<path id="Rectangle_10" fill-rule="evenodd" clip-rule="evenodd" d="M382 260.111C382 246.795 371.205 236 357.889 236L233 236V356.253C233 357.218 233.782 358 234.747 358H382L382 260.111Z" fill="#DFDFDF"/>
<g id="Group 37">
<path id="Rectangle_11" fill-rule="evenodd" clip-rule="evenodd" d="M461 4C461 1.79086 462.791 0 465 0L466.923 0C469.132 0 470.923 1.79086 470.923 4V4.39657C470.923 5.06996 471.469 5.61585 472.142 5.61585H502.067C504.276 5.61585 506.067 7.40671 506.067 9.61585V34.2609C506.067 36.47 504.276 38.2609 502.067 38.2609H465C462.791 38.2609 461 36.47 461 34.2609V4Z" fill="url(#paint0_linear_2_376)"/>
<path id="Rectangle_12" fill-rule="evenodd" clip-rule="evenodd" d="M471.482 4.50923C471.575 3.91587 472.086 3.47852 472.687 3.47852H506.374C507.123 3.47852 507.695 4.14679 507.579 4.88635L502.516 37.2304C502.423 37.8238 501.912 38.2611 501.311 38.2611H467.624C466.876 38.2611 466.304 37.5929 466.42 36.8533L471.482 4.50923Z" fill="url(#paint1_linear_2_376)"/>
<path id="Rectangle_13" fill-rule="evenodd" clip-rule="evenodd" d="M508.151 12.1738C510.665 12.1738 512.556 14.4659 512.078 16.9342L508.867 33.5207C508.138 37.2827 504.844 39.9999 501.013 39.9999H465.849C463.335 39.9999 461.444 37.7079 461.922 35.2395L465.133 18.6531C465.862 14.891 469.156 12.1738 472.987 12.1738L508.151 12.1738Z" fill="#FFCC7B"/>
</g>
<g id="Group 79">
<g id="Group 86">
<path id="Path 113" fill-rule="evenodd" clip-rule="evenodd" d="M170.536 314.6C159.527 289.75 149.526 264.228 140.371 238.144C161.46 257.978 177.86 282.141 175.524 314.6H170.536Z" fill="#57E295"/>
<path id="Rectangle_14" fill-rule="evenodd" clip-rule="evenodd" d="M176.402 317.195C179.008 274.823 177.904 235.471 156.066 213C159.078 259.522 164.713 292.296 171.849 317.195H176.402Z" fill="#28C76F"/>
<path id="Path 112" fill-rule="evenodd" clip-rule="evenodd" d="M177.405 312.782C189.606 283.173 201.866 274.685 212 244.291C178.833 261.452 176.754 275.622 170.244 312.782H177.405Z" fill="#57E295"/>
<path id="Path 114" fill-rule="evenodd" clip-rule="evenodd" d="M183.972 312.783L205.859 283.173C195.289 286.18 177.62 291.048 177.62 312.783H183.972Z" fill="#28C76F"/>
<path id="Path 116" fill-rule="evenodd" clip-rule="evenodd" d="M163.5 312.783H156.198C151.558 303.115 145.02 296.46 129.201 304.527C139.57 288.767 160.845 283.998 163.5 312.783Z" fill="#57E295"/>
<path id="Path 117" fill-rule="evenodd" clip-rule="evenodd" d="M170.217 312.783H164.145C153.001 296.881 148.21 289.952 136.678 276.372C151.87 282.124 167.464 289.952 170.217 312.783Z" fill="#28C76F"/>
</g>
<g id="Group 85">
<path id="Rectangle_15" fill-rule="evenodd" clip-rule="evenodd" d="M185.48 310.487H154.807C153.639 310.487 152.692 311.427 152.692 312.587V318.361C144.936 328.073 141.057 337.784 141.057 347.496C141.057 356.908 144.369 366.321 150.993 375.733C151.389 376.295 152.036 376.63 152.727 376.63H187.561C188.252 376.63 188.899 376.295 189.295 375.733C195.919 366.321 199.23 356.908 199.23 347.496C199.23 337.968 195.497 328.439 188.031 318.911L187.596 318.361V312.587C187.596 311.427 186.649 310.487 185.48 310.487Z" fill="#7367F0"/>
<mask id="mask0_2_376" style="mask-type:luminance" maskUnits="userSpaceOnUse" x="141" y="310" width="59" height="67">
<path id="Rectangle_16" fill-rule="evenodd" clip-rule="evenodd" d="M185.48 310.487H154.807C153.639 310.487 152.692 311.427 152.692 312.587V318.361C144.936 328.073 141.057 337.784 141.057 347.496C141.057 356.908 144.369 366.321 150.993 375.733C151.389 376.295 152.036 376.63 152.727 376.63H187.561C188.252 376.63 188.899 376.295 189.295 375.733C195.919 366.321 199.23 356.908 199.23 347.496C199.23 337.968 195.497 328.439 188.031 318.911L187.596 318.361V312.587C187.596 311.427 186.649 310.487 185.48 310.487Z" fill="white"/>
</mask>
<g mask="url(#mask0_2_376)">
<path id="Rectangle_17" fill-rule="evenodd" clip-rule="evenodd" d="M206.635 308.669H179.135C192.3 339.09 166.331 357.105 179.135 387.411H206.635V308.669Z" fill="#857AF9"/>
</g>
</g>
</g>
</g>
</g>
<defs>
<linearGradient id="paint0_linear_2_376" x1="509.602" y1="31.0589" x2="509.602" y2="-13.205" gradientUnits="userSpaceOnUse">
<stop stop-color="#FF8C19"/>
<stop offset="1" stop-color="#FFC967"/>
</linearGradient>
<linearGradient id="paint1_linear_2_376" x1="504.28" y1="14.3936" x2="504.28" y2="-6.07904" gradientUnits="userSpaceOnUse">
<stop stop-color="#F8FDFF"/>
<stop offset="1" stop-color="#AAD4FF"/>
</linearGradient>
</defs>
</svg>
