<svg width="561" height="318" viewBox="0 0 561 318" fill="none" xmlns="http://www.w3.org/2000/svg">
<rect width="561" height="318" rx="12" fill="white"/>
<path d="M311.791 159C311.791 236.204 249.204 298.791 172 298.791C94.7958 298.791 32.2094 236.204 32.2094 159C32.2094 81.7958 94.7958 19.2094 172 19.2094C249.204 19.2094 311.791 81.7958 311.791 159ZM83.7612 159C83.7612 207.733 123.267 247.239 172 247.239C220.733 247.239 260.239 207.733 260.239 159C260.239 110.267 220.733 70.7612 172 70.7612C123.267 70.7612 83.7612 110.267 83.7612 159Z" fill="#F6F7F7"/>
<path d="M322 159C322 241.843 254.843 309 172 309C89.1573 309 22 241.843 22 159C22 76.1573 89.1573 9 172 9C254.843 9 322 76.1573 322 159ZM78.3768 159C78.3768 210.707 120.293 252.623 172 252.623C223.707 252.623 265.623 210.707 265.623 159C265.623 107.293 223.707 65.3768 172 65.3768C120.293 65.3768 78.3768 107.293 78.3768 159Z" fill="#F1F3F3"/>
<path d="M311.791 159C311.791 236.204 249.204 298.791 172 298.791C94.7958 298.791 32.2094 236.204 32.2094 159C32.2094 81.7958 94.7958 19.2094 172 19.2094C249.204 19.2094 311.791 81.7958 311.791 159ZM83.7612 159C83.7612 207.733 123.267 247.239 172 247.239C220.733 247.239 260.239 207.733 260.239 159C260.239 110.267 220.733 70.7612 172 70.7612C123.267 70.7612 83.7612 110.267 83.7612 159Z" fill="url(#paint0_linear_0_9)"/>
<path d="M290.434 195.573C298.792 198.154 307.755 193.476 309.374 184.881C314.061 160.005 311.921 134.216 303.035 110.304C292.301 81.421 272.325 56.8941 246.214 40.536C220.102 24.1779 189.317 16.9052 158.646 19.8488C127.974 22.7923 99.1345 35.787 76.6105 56.8127C54.0865 77.8383 39.1403 105.717 34.0957 136.113C29.051 166.51 34.1906 197.722 48.7154 224.896C63.2401 252.07 86.3361 273.684 114.413 286.378C137.658 296.887 163.239 300.794 188.378 297.828C197.064 296.803 202.347 288.183 200.347 279.668L195.801 260.319C193.801 251.803 185.255 246.675 176.519 247.123C162.551 247.839 148.532 245.228 135.65 239.404C117.927 231.391 103.348 217.748 94.1801 200.595C85.0118 183.442 81.7676 163.741 84.9518 144.553C88.1361 125.366 97.5705 107.769 111.788 94.4972C126.006 81.2254 144.21 73.0228 163.571 71.1648C182.931 69.3068 202.363 73.8974 218.845 84.223C235.328 94.5486 247.937 110.031 254.712 128.262C259.637 141.514 261.279 155.679 259.604 169.565C258.557 178.249 263.086 187.128 271.443 189.709L290.434 195.573Z" fill="#467FFF"/>
<path d="M159.944 46.9C159.944 47.2518 159.856 47.589 159.68 47.9115C159.504 48.2267 159.244 48.4906 158.899 48.7031C158.562 48.9157 158.155 49.0366 157.679 49.066V49.9565H157.085V49.066C156.418 49.0073 155.876 48.7948 155.458 48.4283C155.04 48.0545 154.828 47.5817 154.82 47.0099H155.887C155.916 47.3178 156.03 47.5853 156.228 47.8126C156.433 48.0398 156.719 48.1827 157.085 48.2414V45.4927C156.594 45.3681 156.198 45.2398 155.898 45.1079C155.597 44.9759 155.341 44.7707 155.128 44.4921C154.916 44.2136 154.809 43.8398 154.809 43.3707C154.809 42.777 155.015 42.2859 155.425 41.8974C155.843 41.5089 156.396 41.2927 157.085 41.2487V40.3361H157.679V41.2487C158.302 41.3 158.804 41.5016 159.185 41.8534C159.566 42.1979 159.786 42.6487 159.845 43.2058H158.778C158.742 42.9492 158.628 42.7183 158.438 42.5131C158.247 42.3005 157.994 42.1613 157.679 42.0953V44.778C158.163 44.9026 158.555 45.0309 158.855 45.1628C159.163 45.2874 159.42 45.489 159.625 45.7675C159.838 46.0461 159.944 46.4236 159.944 46.9ZM155.832 43.3157C155.832 43.6749 155.938 43.9497 156.151 44.1403C156.363 44.3309 156.675 44.4885 157.085 44.6131V42.0733C156.704 42.1099 156.4 42.2346 156.173 42.4471C155.945 42.6524 155.832 42.9419 155.832 43.3157ZM157.679 48.2524C158.075 48.2084 158.383 48.0654 158.602 47.8236C158.83 47.5817 158.943 47.2921 158.943 46.955C158.943 46.5958 158.833 46.3209 158.613 46.1304C158.394 45.9325 158.082 45.7749 157.679 45.6576V48.2524ZM166.102 42.9419C165.94 42.1283 165.438 41.7215 164.595 41.7215C163.943 41.7215 163.456 41.9743 163.133 42.4801C162.811 42.9785 162.653 43.8031 162.66 44.9539C162.829 44.5728 163.107 44.2759 163.496 44.0634C163.892 43.8435 164.332 43.7335 164.815 43.7335C165.57 43.7335 166.171 43.9681 166.618 44.4372C167.073 44.9063 167.3 45.555 167.3 46.3832C167.3 46.8817 167.201 47.3288 167.003 47.7246C166.813 48.1204 166.519 48.4356 166.124 48.6702C165.735 48.9047 165.262 49.022 164.705 49.022C163.95 49.022 163.36 48.8534 162.935 48.5162C162.51 48.1791 162.213 47.7136 162.045 47.1199C161.876 46.5262 161.792 45.7932 161.792 44.9209C161.792 42.2309 162.73 40.8859 164.606 40.8859C165.325 40.8859 165.889 41.0801 166.3 41.4686C166.71 41.8571 166.952 42.3482 167.025 42.9419H166.102ZM164.606 44.5801C164.291 44.5801 163.994 44.6461 163.716 44.778C163.437 44.9026 163.21 45.0969 163.034 45.3607C162.866 45.6173 162.781 45.9325 162.781 46.3063C162.781 46.8634 162.943 47.3178 163.265 47.6696C163.588 48.0141 164.049 48.1864 164.65 48.1864C165.163 48.1864 165.57 48.0288 165.871 47.7136C166.179 47.3911 166.333 46.9586 166.333 46.4162C166.333 45.8445 166.186 45.3974 165.893 45.0749C165.6 44.745 165.171 44.5801 164.606 44.5801ZM169.848 47.6147L168.617 50.5723H167.946L168.749 47.6147H169.848ZM175.898 41.9194H172.039V44.4262C172.208 44.1916 172.457 44.001 172.787 43.8545C173.116 43.7005 173.472 43.6236 173.853 43.6236C174.461 43.6236 174.956 43.7518 175.337 44.0084C175.719 44.2576 175.99 44.5838 176.151 44.9869C176.32 45.3827 176.404 45.8042 176.404 46.2513C176.404 46.7791 176.305 47.2518 176.107 47.6696C175.909 48.0874 175.605 48.4173 175.194 48.6592C174.791 48.901 174.289 49.022 173.688 49.022C172.919 49.022 172.295 48.8241 171.819 48.4283C171.343 48.0325 171.053 47.5047 170.95 46.845H171.929C172.024 47.2628 172.226 47.589 172.534 47.8236C172.842 48.0581 173.23 48.1754 173.699 48.1754C174.278 48.1754 174.714 48.0031 175.008 47.6586C175.301 47.3068 175.447 46.845 175.447 46.2733C175.447 45.7016 175.301 45.2618 175.008 44.9539C174.714 44.6387 174.282 44.4812 173.71 44.4812C173.322 44.4812 172.981 44.5764 172.688 44.767C172.402 44.9503 172.193 45.2031 172.061 45.5257H171.115V41.0398H175.898V41.9194ZM177.711 43.0518C177.763 42.3775 178.023 41.8497 178.492 41.4686C178.961 41.0874 179.57 40.8969 180.317 40.8969C180.816 40.8969 181.244 40.9885 181.604 41.1717C181.97 41.3476 182.245 41.5895 182.428 41.8974C182.619 42.2052 182.714 42.5534 182.714 42.9419C182.714 43.3963 182.582 43.7885 182.318 44.1183C182.062 44.4482 181.725 44.6607 181.307 44.756V44.811C181.783 44.9283 182.161 45.1592 182.439 45.5037C182.718 45.8482 182.857 46.299 182.857 46.856C182.857 47.2738 182.762 47.6513 182.571 47.9885C182.381 48.3183 182.095 48.5785 181.714 48.7691C181.332 48.9597 180.874 49.055 180.339 49.055C179.562 49.055 178.925 48.8534 178.426 48.4503C177.928 48.0398 177.649 47.4607 177.591 46.7131H178.558C178.609 47.1529 178.789 47.512 179.097 47.7906C179.405 48.0691 179.815 48.2084 180.328 48.2084C180.841 48.2084 181.23 48.0764 181.494 47.8126C181.765 47.5414 181.9 47.1932 181.9 46.7681C181.9 46.2183 181.717 45.8225 181.351 45.5806C180.984 45.3387 180.431 45.2178 179.691 45.2178H179.438V44.3822H179.702C180.376 44.3749 180.885 44.2649 181.23 44.0524C181.574 43.8325 181.747 43.4953 181.747 43.0408C181.747 42.6524 181.618 42.3408 181.362 42.1063C181.113 41.8717 180.753 41.7544 180.284 41.7544C179.83 41.7544 179.463 41.8717 179.185 42.1063C178.906 42.3408 178.741 42.656 178.69 43.0518H177.711ZM184.087 48.1974C185.018 47.4497 185.747 46.8377 186.275 46.3613C186.803 45.8775 187.246 45.3754 187.605 44.855C187.972 44.3272 188.155 43.8105 188.155 43.3047C188.155 42.8283 188.038 42.4545 187.803 42.1832C187.576 41.9047 187.206 41.7654 186.693 41.7654C186.194 41.7654 185.806 41.923 185.527 42.2382C185.256 42.5461 185.109 42.9602 185.088 43.4806H184.12C184.149 42.6597 184.399 42.0257 184.868 41.5785C185.337 41.1314 185.941 40.9079 186.682 40.9079C187.437 40.9079 188.034 41.1168 188.474 41.5346C188.921 41.9524 189.145 42.5277 189.145 43.2607C189.145 43.8691 188.961 44.4628 188.595 45.0419C188.236 45.6136 187.825 46.1194 187.363 46.5592C186.902 46.9916 186.312 47.4974 185.593 48.0764H189.375V48.912H184.087V48.1974Z" fill="white"/>
<circle cx="172" cy="158.215" r="82.4607" stroke="#AAAAAA" stroke-width="0.78534" stroke-linecap="round" stroke-dasharray="0.79 7.07"/>
<path d="M359.416 49.192C358.136 49.192 356.912 49 355.744 48.616C354.576 48.216 353.656 47.704 352.984 47.08L353.872 45.208C354.512 45.768 355.328 46.232 356.32 46.6C357.312 46.968 358.344 47.152 359.416 47.152C360.392 47.152 361.184 47.04 361.792 46.816C362.4 46.592 362.848 46.288 363.136 45.904C363.424 45.504 363.568 45.056 363.568 44.56C363.568 43.984 363.376 43.52 362.992 43.168C362.624 42.816 362.136 42.536 361.528 42.328C360.936 42.104 360.28 41.912 359.56 41.752C358.84 41.592 358.112 41.408 357.376 41.2C356.656 40.976 355.992 40.696 355.384 40.36C354.792 40.024 354.312 39.576 353.944 39.016C353.576 38.44 353.392 37.704 353.392 36.808C353.392 35.944 353.616 35.152 354.064 34.432C354.528 33.696 355.232 33.112 356.176 32.68C357.136 32.232 358.352 32.008 359.824 32.008C360.8 32.008 361.768 32.136 362.728 32.392C363.688 32.648 364.52 33.016 365.224 33.496L364.432 35.416C363.712 34.936 362.952 34.592 362.152 34.384C361.352 34.16 360.576 34.048 359.824 34.048C358.88 34.048 358.104 34.168 357.496 34.408C356.888 34.648 356.44 34.968 356.152 35.368C355.88 35.768 355.744 36.216 355.744 36.712C355.744 37.304 355.928 37.776 356.296 38.128C356.68 38.48 357.168 38.76 357.76 38.968C358.368 39.176 359.032 39.368 359.752 39.544C360.472 39.704 361.192 39.888 361.912 40.096C362.648 40.304 363.312 40.576 363.904 40.912C364.512 41.248 365 41.696 365.368 42.256C365.736 42.816 365.92 43.536 365.92 44.416C365.92 45.264 365.688 46.056 365.224 46.792C364.76 47.512 364.04 48.096 363.064 48.544C362.104 48.976 360.888 49.192 359.416 49.192ZM374.538 49.144C373.258 49.144 372.122 48.864 371.13 48.304C370.138 47.744 369.354 46.976 368.778 46C368.202 45.008 367.914 43.888 367.914 42.64C367.914 41.376 368.202 40.256 368.778 39.28C369.354 38.304 370.138 37.544 371.13 37C372.122 36.44 373.258 36.16 374.538 36.16C375.802 36.16 376.93 36.44 377.922 37C378.93 37.544 379.714 38.304 380.274 39.28C380.85 40.24 381.138 41.36 381.138 42.64C381.138 43.904 380.85 45.024 380.274 46C379.714 46.976 378.93 47.744 377.922 48.304C376.93 48.864 375.802 49.144 374.538 49.144ZM374.538 47.128C375.354 47.128 376.082 46.944 376.722 46.576C377.378 46.208 377.89 45.688 378.258 45.016C378.626 44.328 378.81 43.536 378.81 42.64C378.81 41.728 378.626 40.944 378.258 40.288C377.89 39.616 377.378 39.096 376.722 38.728C376.082 38.36 375.354 38.176 374.538 38.176C373.722 38.176 372.994 38.36 372.354 38.728C371.714 39.096 371.202 39.616 370.818 40.288C370.434 40.944 370.242 41.728 370.242 42.64C370.242 43.536 370.434 44.328 370.818 45.016C371.202 45.688 371.714 46.208 372.354 46.576C372.994 46.944 373.722 47.128 374.538 47.128ZM384.661 49V35.152C384.661 33.904 385.021 32.912 385.741 32.176C386.477 31.424 387.517 31.048 388.861 31.048C389.357 31.048 389.829 31.112 390.277 31.24C390.741 31.352 391.133 31.536 391.453 31.792L390.757 33.544C390.517 33.352 390.245 33.208 389.941 33.112C389.637 33 389.317 32.944 388.981 32.944C388.309 32.944 387.797 33.136 387.445 33.52C387.093 33.888 386.917 34.44 386.917 35.176V36.88L386.965 37.936V49H384.661ZM382.501 38.176V36.28H390.613V38.176H382.501ZM397.154 49.144C395.874 49.144 394.882 48.8 394.178 48.112C393.474 47.424 393.122 46.44 393.122 45.16V33.496H395.426V45.064C395.426 45.752 395.594 46.28 395.93 46.648C396.282 47.016 396.778 47.2 397.418 47.2C398.138 47.2 398.738 47 399.218 46.6L399.938 48.256C399.586 48.56 399.162 48.784 398.666 48.928C398.186 49.072 397.682 49.144 397.154 49.144ZM390.962 38.176V36.28H399.074V38.176H390.962ZM415.912 49.144C414.856 49.144 413.888 48.904 413.008 48.424C412.144 47.928 411.448 47.2 410.92 46.24C410.408 45.28 410.152 44.08 410.152 42.64C410.152 41.2 410.4 40 410.896 39.04C411.408 38.08 412.096 37.36 412.96 36.88C413.84 36.4 414.824 36.16 415.912 36.16C417.16 36.16 418.264 36.432 419.224 36.976C420.184 37.52 420.944 38.28 421.504 39.256C422.064 40.216 422.344 41.344 422.344 42.64C422.344 43.936 422.064 45.072 421.504 46.048C420.944 47.024 420.184 47.784 419.224 48.328C418.264 48.872 417.16 49.144 415.912 49.144ZM409.168 53.656V36.28H411.376V39.712L411.232 42.664L411.472 45.616V53.656H409.168ZM415.72 47.128C416.536 47.128 417.264 46.944 417.904 46.576C418.56 46.208 419.072 45.688 419.44 45.016C419.824 44.328 420.016 43.536 420.016 42.64C420.016 41.728 419.824 40.944 419.44 40.288C419.072 39.616 418.56 39.096 417.904 38.728C417.264 38.36 416.536 38.176 415.72 38.176C414.92 38.176 414.192 38.36 413.536 38.728C412.896 39.096 412.384 39.616 412 40.288C411.632 40.944 411.448 41.728 411.448 42.64C411.448 43.536 411.632 44.328 412 45.016C412.384 45.688 412.896 46.208 413.536 46.576C414.192 46.944 414.92 47.128 415.72 47.128ZM425.528 49V31.192H427.832V49H425.528ZM440.127 49V46.312L440.007 45.808V41.224C440.007 40.248 439.719 39.496 439.143 38.968C438.583 38.424 437.735 38.152 436.599 38.152C435.847 38.152 435.111 38.28 434.391 38.536C433.671 38.776 433.063 39.104 432.567 39.52L431.607 37.792C432.263 37.264 433.047 36.864 433.959 36.592C434.887 36.304 435.855 36.16 436.863 36.16C438.607 36.16 439.951 36.584 440.895 37.432C441.839 38.28 442.311 39.576 442.311 41.32V49H440.127ZM435.951 49.144C435.007 49.144 434.175 48.984 433.455 48.664C432.751 48.344 432.207 47.904 431.823 47.344C431.439 46.768 431.247 46.12 431.247 45.4C431.247 44.712 431.407 44.088 431.727 43.528C432.063 42.968 432.599 42.52 433.335 42.184C434.087 41.848 435.095 41.68 436.359 41.68H440.391V43.336H436.455C435.303 43.336 434.527 43.528 434.127 43.912C433.727 44.296 433.527 44.76 433.527 45.304C433.527 45.928 433.775 46.432 434.271 46.816C434.767 47.184 435.455 47.368 436.335 47.368C437.199 47.368 437.951 47.176 438.591 46.792C439.247 46.408 439.719 45.848 440.007 45.112L440.463 46.696C440.159 47.448 439.623 48.048 438.855 48.496C438.087 48.928 437.119 49.144 435.951 49.144ZM453.367 36.16C454.407 36.16 455.319 36.36 456.103 36.76C456.903 37.16 457.527 37.768 457.975 38.584C458.423 39.4 458.647 40.432 458.647 41.68V49H456.343V41.944C456.343 40.712 456.039 39.784 455.431 39.16C454.839 38.536 453.999 38.224 452.911 38.224C452.095 38.224 451.383 38.384 450.775 38.704C450.167 39.024 449.695 39.496 449.359 40.12C449.039 40.744 448.879 41.52 448.879 42.448V49H446.575V36.28H448.783V39.712L448.423 38.8C448.839 37.968 449.479 37.32 450.343 36.856C451.207 36.392 452.215 36.16 453.367 36.16Z" fill="#5E5873"/>
<circle cx="356" cy="104" r="4" fill="#467FFF"/>
<path d="M378.064 110.144C377.092 110.144 376.198 109.988 375.382 109.676C374.566 109.352 373.858 108.902 373.258 108.326C372.658 107.738 372.19 107.054 371.854 106.274C371.518 105.494 371.35 104.636 371.35 103.7C371.35 102.764 371.518 101.906 371.854 101.126C372.19 100.346 372.658 99.668 373.258 99.092C373.87 98.504 374.584 98.054 375.4 97.742C376.216 97.418 377.116 97.256 378.1 97.256C379.096 97.256 380.008 97.418 380.836 97.742C381.664 98.066 382.366 98.552 382.942 99.2L381.826 100.316C381.31 99.812 380.746 99.446 380.134 99.218C379.534 98.978 378.88 98.858 378.172 98.858C377.452 98.858 376.78 98.978 376.156 99.218C375.544 99.458 375.01 99.794 374.554 100.226C374.11 100.658 373.762 101.174 373.51 101.774C373.27 102.362 373.15 103.004 373.15 103.7C373.15 104.384 373.27 105.026 373.51 105.626C373.762 106.214 374.11 106.73 374.554 107.174C375.01 107.606 375.544 107.942 376.156 108.182C376.768 108.422 377.434 108.542 378.154 108.542C378.826 108.542 379.468 108.44 380.08 108.236C380.704 108.02 381.28 107.666 381.808 107.174L382.834 108.542C382.21 109.07 381.478 109.472 380.638 109.748C379.81 110.012 378.952 110.144 378.064 110.144ZM381.106 108.308V103.628H382.834V108.542L381.106 108.308ZM390.115 110.108C389.155 110.108 388.303 109.898 387.559 109.478C386.815 109.058 386.227 108.482 385.795 107.75C385.363 107.006 385.147 106.166 385.147 105.23C385.147 104.282 385.363 103.442 385.795 102.71C386.227 101.978 386.815 101.408 387.559 101C388.303 100.58 389.155 100.37 390.115 100.37C391.063 100.37 391.909 100.58 392.653 101C393.409 101.408 393.997 101.978 394.417 102.71C394.849 103.43 395.065 104.27 395.065 105.23C395.065 106.178 394.849 107.018 394.417 107.75C393.997 108.482 393.409 109.058 392.653 109.478C391.909 109.898 391.063 110.108 390.115 110.108ZM390.115 108.596C390.727 108.596 391.273 108.458 391.753 108.182C392.245 107.906 392.629 107.516 392.905 107.012C393.181 106.496 393.319 105.902 393.319 105.23C393.319 104.546 393.181 103.958 392.905 103.466C392.629 102.962 392.245 102.572 391.753 102.296C391.273 102.02 390.727 101.882 390.115 101.882C389.503 101.882 388.957 102.02 388.477 102.296C387.997 102.572 387.613 102.962 387.325 103.466C387.037 103.958 386.893 104.546 386.893 105.23C386.893 105.902 387.037 106.496 387.325 107.012C387.613 107.516 387.997 107.906 388.477 108.182C388.957 108.458 389.503 108.596 390.115 108.596ZM403.289 110V107.984L403.199 107.606V104.168C403.199 103.436 402.983 102.872 402.551 102.476C402.131 102.068 401.495 101.864 400.643 101.864C400.079 101.864 399.527 101.96 398.987 102.152C398.447 102.332 397.991 102.578 397.619 102.89L396.899 101.594C397.391 101.198 397.979 100.898 398.663 100.694C399.359 100.478 400.085 100.37 400.841 100.37C402.149 100.37 403.157 100.688 403.865 101.324C404.573 101.96 404.927 102.932 404.927 104.24V110H403.289ZM400.157 110.108C399.449 110.108 398.825 109.988 398.285 109.748C397.757 109.508 397.349 109.178 397.061 108.758C396.773 108.326 396.629 107.84 396.629 107.3C396.629 106.784 396.749 106.316 396.989 105.896C397.241 105.476 397.643 105.14 398.195 104.888C398.759 104.636 399.515 104.51 400.463 104.51H403.487V105.752H400.535C399.671 105.752 399.089 105.896 398.789 106.184C398.489 106.472 398.339 106.82 398.339 107.228C398.339 107.696 398.525 108.074 398.897 108.362C399.269 108.638 399.785 108.776 400.445 108.776C401.093 108.776 401.657 108.632 402.137 108.344C402.629 108.056 402.983 107.636 403.199 107.084L403.541 108.272C403.313 108.836 402.911 109.286 402.335 109.622C401.759 109.946 401.033 110.108 400.157 110.108ZM408.124 110V96.644H409.852V110H408.124Z" fill="#82868B"/>
<path d="M359.086 149.88V127.32H360.622V149.88H359.086ZM359.686 147.192C358.406 147.192 357.182 147 356.014 146.616C354.846 146.216 353.926 145.704 353.254 145.08L354.142 143.208C354.782 143.768 355.598 144.232 356.59 144.6C357.582 144.968 358.614 145.152 359.686 145.152C360.662 145.152 361.454 145.04 362.062 144.816C362.67 144.592 363.118 144.288 363.406 143.904C363.694 143.504 363.838 143.056 363.838 142.56C363.838 141.984 363.646 141.52 363.262 141.168C362.894 140.816 362.406 140.536 361.798 140.328C361.206 140.104 360.55 139.912 359.83 139.752C359.11 139.592 358.382 139.408 357.646 139.2C356.926 138.976 356.262 138.696 355.654 138.36C355.062 138.024 354.582 137.576 354.214 137.016C353.846 136.44 353.662 135.704 353.662 134.808C353.662 133.944 353.886 133.152 354.334 132.432C354.798 131.696 355.502 131.112 356.446 130.68C357.406 130.232 358.622 130.008 360.094 130.008C361.07 130.008 362.038 130.136 362.998 130.392C363.958 130.648 364.79 131.016 365.494 131.496L364.702 133.416C363.982 132.936 363.222 132.592 362.422 132.384C361.622 132.16 360.846 132.048 360.094 132.048C359.15 132.048 358.374 132.168 357.766 132.408C357.158 132.648 356.71 132.968 356.422 133.368C356.15 133.768 356.014 134.216 356.014 134.712C356.014 135.304 356.198 135.776 356.566 136.128C356.95 136.48 357.438 136.76 358.03 136.968C358.638 137.176 359.302 137.368 360.022 137.544C360.742 137.704 361.462 137.888 362.182 138.096C362.918 138.304 363.582 138.576 364.174 138.912C364.782 139.248 365.27 139.696 365.638 140.256C366.006 140.816 366.19 141.536 366.19 142.416C366.19 143.264 365.958 144.056 365.494 144.792C365.03 145.512 364.31 146.096 363.334 146.544C362.374 146.976 361.158 147.192 359.686 147.192ZM370.925 147V131.16L371.957 132.288H367.133V130.2H373.301V147H370.925ZM383.84 147.192C382.528 147.192 381.352 146.856 380.312 146.184C379.288 145.512 378.472 144.536 377.864 143.256C377.272 141.976 376.976 140.424 376.976 138.6C376.976 136.776 377.272 135.224 377.864 133.944C378.472 132.664 379.288 131.688 380.312 131.016C381.352 130.344 382.528 130.008 383.84 130.008C385.136 130.008 386.304 130.344 387.344 131.016C388.384 131.688 389.2 132.664 389.792 133.944C390.384 135.224 390.68 136.776 390.68 138.6C390.68 140.424 390.384 141.976 389.792 143.256C389.2 144.536 388.384 145.512 387.344 146.184C386.304 146.856 385.136 147.192 383.84 147.192ZM383.84 145.056C384.72 145.056 385.488 144.816 386.144 144.336C386.816 143.856 387.336 143.136 387.704 142.176C388.088 141.216 388.28 140.024 388.28 138.6C388.28 137.176 388.088 135.984 387.704 135.024C387.336 134.064 386.816 133.344 386.144 132.864C385.488 132.384 384.72 132.144 383.84 132.144C382.96 132.144 382.184 132.384 381.512 132.864C380.84 133.344 380.312 134.064 379.928 135.024C379.56 135.984 379.376 137.176 379.376 138.6C379.376 140.024 379.56 141.216 379.928 142.176C380.312 143.136 380.84 143.856 381.512 144.336C382.184 144.816 382.96 145.056 383.84 145.056ZM392.823 150.552L394.023 145.704L394.335 147.096C393.871 147.096 393.479 146.952 393.159 146.664C392.855 146.376 392.703 145.984 392.703 145.488C392.703 145.008 392.855 144.616 393.159 144.312C393.479 144.008 393.863 143.856 394.311 143.856C394.775 143.856 395.151 144.016 395.439 144.336C395.727 144.64 395.871 145.024 395.871 145.488C395.871 145.648 395.855 145.808 395.823 145.968C395.807 146.112 395.767 146.288 395.703 146.496C395.655 146.688 395.575 146.928 395.463 147.216L394.335 150.552H392.823ZM404.723 147.192C403.411 147.192 402.235 146.856 401.195 146.184C400.171 145.512 399.355 144.536 398.747 143.256C398.155 141.976 397.859 140.424 397.859 138.6C397.859 136.776 398.155 135.224 398.747 133.944C399.355 132.664 400.171 131.688 401.195 131.016C402.235 130.344 403.411 130.008 404.723 130.008C406.019 130.008 407.187 130.344 408.227 131.016C409.267 131.688 410.083 132.664 410.675 133.944C411.267 135.224 411.563 136.776 411.563 138.6C411.563 140.424 411.267 141.976 410.675 143.256C410.083 144.536 409.267 145.512 408.227 146.184C407.187 146.856 406.019 147.192 404.723 147.192ZM404.723 145.056C405.603 145.056 406.371 144.816 407.027 144.336C407.699 143.856 408.219 143.136 408.587 142.176C408.971 141.216 409.163 140.024 409.163 138.6C409.163 137.176 408.971 135.984 408.587 135.024C408.219 134.064 407.699 133.344 407.027 132.864C406.371 132.384 405.603 132.144 404.723 132.144C403.843 132.144 403.067 132.384 402.395 132.864C401.723 133.344 401.195 134.064 400.811 135.024C400.443 135.984 400.259 137.176 400.259 138.6C400.259 140.024 400.443 141.216 400.811 142.176C401.195 143.136 401.723 143.856 402.395 144.336C403.067 144.816 403.843 145.056 404.723 145.056ZM420.731 147.192C419.419 147.192 418.243 146.856 417.203 146.184C416.179 145.512 415.363 144.536 414.755 143.256C414.163 141.976 413.867 140.424 413.867 138.6C413.867 136.776 414.163 135.224 414.755 133.944C415.363 132.664 416.179 131.688 417.203 131.016C418.243 130.344 419.419 130.008 420.731 130.008C422.027 130.008 423.195 130.344 424.235 131.016C425.275 131.688 426.091 132.664 426.683 133.944C427.275 135.224 427.571 136.776 427.571 138.6C427.571 140.424 427.275 141.976 426.683 143.256C426.091 144.536 425.275 145.512 424.235 146.184C423.195 146.856 422.027 147.192 420.731 147.192ZM420.731 145.056C421.611 145.056 422.379 144.816 423.035 144.336C423.707 143.856 424.227 143.136 424.595 142.176C424.979 141.216 425.171 140.024 425.171 138.6C425.171 137.176 424.979 135.984 424.595 135.024C424.227 134.064 423.707 133.344 423.035 132.864C422.379 132.384 421.611 132.144 420.731 132.144C419.851 132.144 419.075 132.384 418.403 132.864C417.731 133.344 417.203 134.064 416.819 135.024C416.451 135.984 416.267 137.176 416.267 138.6C416.267 140.024 416.451 141.216 416.819 142.176C417.203 143.136 417.731 143.856 418.403 144.336C419.075 144.816 419.851 145.056 420.731 145.056ZM436.739 147.192C435.427 147.192 434.251 146.856 433.211 146.184C432.187 145.512 431.371 144.536 430.763 143.256C430.171 141.976 429.875 140.424 429.875 138.6C429.875 136.776 430.171 135.224 430.763 133.944C431.371 132.664 432.187 131.688 433.211 131.016C434.251 130.344 435.427 130.008 436.739 130.008C438.035 130.008 439.203 130.344 440.243 131.016C441.283 131.688 442.099 132.664 442.691 133.944C443.283 135.224 443.579 136.776 443.579 138.6C443.579 140.424 443.283 141.976 442.691 143.256C442.099 144.536 441.283 145.512 440.243 146.184C439.203 146.856 438.035 147.192 436.739 147.192ZM436.739 145.056C437.619 145.056 438.387 144.816 439.043 144.336C439.715 143.856 440.235 143.136 440.603 142.176C440.987 141.216 441.179 140.024 441.179 138.6C441.179 137.176 440.987 135.984 440.603 135.024C440.235 134.064 439.715 133.344 439.043 132.864C438.387 132.384 437.619 132.144 436.739 132.144C435.859 132.144 435.083 132.384 434.411 132.864C433.739 133.344 433.211 134.064 432.827 135.024C432.459 135.984 432.275 137.176 432.275 138.6C432.275 140.024 432.459 141.216 432.827 142.176C433.211 143.136 433.739 143.856 434.411 144.336C435.083 144.816 435.859 145.056 436.739 145.056Z" fill="#5E5873"/>
<circle cx="356" cy="193" r="4" fill="url(#paint1_linear_0_9)"/>
<path d="M372.312 199V186.4H377.226C378.33 186.4 379.272 186.574 380.052 186.922C380.832 187.27 381.432 187.774 381.852 188.434C382.272 189.094 382.482 189.88 382.482 190.792C382.482 191.704 382.272 192.49 381.852 193.15C381.432 193.798 380.832 194.296 380.052 194.644C379.272 194.992 378.33 195.166 377.226 195.166H373.302L374.112 194.338V199H372.312ZM380.736 199L377.532 194.428H379.458L382.698 199H380.736ZM374.112 194.518L373.302 193.636H377.172C378.324 193.636 379.194 193.39 379.782 192.898C380.382 192.394 380.682 191.692 380.682 190.792C380.682 189.892 380.382 189.196 379.782 188.704C379.194 188.212 378.324 187.966 377.172 187.966H373.302L374.112 187.066V194.518ZM389.386 199.108C388.366 199.108 387.466 198.898 386.686 198.478C385.918 198.058 385.318 197.482 384.886 196.75C384.466 196.018 384.256 195.178 384.256 194.23C384.256 193.282 384.46 192.442 384.868 191.71C385.288 190.978 385.858 190.408 386.578 190C387.31 189.58 388.132 189.37 389.044 189.37C389.968 189.37 390.784 189.574 391.492 189.982C392.2 190.39 392.752 190.966 393.148 191.71C393.556 192.442 393.76 193.3 393.76 194.284C393.76 194.356 393.754 194.44 393.742 194.536C393.742 194.632 393.736 194.722 393.724 194.806H385.606V193.564H392.824L392.122 193.996C392.134 193.384 392.008 192.838 391.744 192.358C391.48 191.878 391.114 191.506 390.646 191.242C390.19 190.966 389.656 190.828 389.044 190.828C388.444 190.828 387.91 190.966 387.442 191.242C386.974 191.506 386.608 191.884 386.344 192.376C386.08 192.856 385.948 193.408 385.948 194.032V194.32C385.948 194.956 386.092 195.526 386.38 196.03C386.68 196.522 387.094 196.906 387.622 197.182C388.15 197.458 388.756 197.596 389.44 197.596C390.004 197.596 390.514 197.5 390.97 197.308C391.438 197.116 391.846 196.828 392.194 196.444L393.148 197.56C392.716 198.064 392.176 198.448 391.528 198.712C390.892 198.976 390.178 199.108 389.386 199.108ZM408.093 189.37C408.861 189.37 409.539 189.52 410.127 189.82C410.715 190.12 411.171 190.576 411.495 191.188C411.831 191.8 411.999 192.574 411.999 193.51V199H410.271V193.708C410.271 192.784 410.055 192.088 409.623 191.62C409.191 191.152 408.585 190.918 407.805 190.918C407.229 190.918 406.725 191.038 406.293 191.278C405.861 191.518 405.525 191.872 405.285 192.34C405.057 192.808 404.943 193.39 404.943 194.086V199H403.215V193.708C403.215 192.784 402.999 192.088 402.567 191.62C402.147 191.152 401.541 190.918 400.749 190.918C400.185 190.918 399.687 191.038 399.255 191.278C398.823 191.518 398.487 191.872 398.247 192.34C398.007 192.808 397.887 193.39 397.887 194.086V199H396.159V189.46H397.815V191.998L397.545 191.35C397.845 190.726 398.307 190.24 398.931 189.892C399.555 189.544 400.281 189.37 401.109 189.37C402.021 189.37 402.807 189.598 403.467 190.054C404.127 190.498 404.559 191.176 404.763 192.088L404.061 191.8C404.349 191.068 404.853 190.48 405.573 190.036C406.293 189.592 407.133 189.37 408.093 189.37ZM421.101 199V196.984L421.011 196.606V193.168C421.011 192.436 420.795 191.872 420.363 191.476C419.943 191.068 419.307 190.864 418.455 190.864C417.891 190.864 417.339 190.96 416.799 191.152C416.259 191.332 415.803 191.578 415.431 191.89L414.711 190.594C415.203 190.198 415.791 189.898 416.475 189.694C417.171 189.478 417.897 189.37 418.653 189.37C419.961 189.37 420.969 189.688 421.677 190.324C422.385 190.96 422.739 191.932 422.739 193.24V199H421.101ZM417.969 199.108C417.261 199.108 416.637 198.988 416.097 198.748C415.569 198.508 415.161 198.178 414.873 197.758C414.585 197.326 414.441 196.84 414.441 196.3C414.441 195.784 414.561 195.316 414.801 194.896C415.053 194.476 415.455 194.14 416.007 193.888C416.571 193.636 417.327 193.51 418.275 193.51H421.299V194.752H418.347C417.483 194.752 416.901 194.896 416.601 195.184C416.301 195.472 416.151 195.82 416.151 196.228C416.151 196.696 416.337 197.074 416.709 197.362C417.081 197.638 417.597 197.776 418.257 197.776C418.905 197.776 419.469 197.632 419.949 197.344C420.441 197.056 420.795 196.636 421.011 196.084L421.353 197.272C421.125 197.836 420.723 198.286 420.147 198.622C419.571 198.946 418.845 199.108 417.969 199.108ZM425.937 199V189.46H427.665V199H425.937ZM426.801 187.624C426.465 187.624 426.183 187.516 425.955 187.3C425.739 187.084 425.631 186.82 425.631 186.508C425.631 186.184 425.739 185.914 425.955 185.698C426.183 185.482 426.465 185.374 426.801 185.374C427.137 185.374 427.413 185.482 427.629 185.698C427.857 185.902 427.971 186.16 427.971 186.472C427.971 186.796 427.863 187.072 427.647 187.3C427.431 187.516 427.149 187.624 426.801 187.624ZM436.058 189.37C436.838 189.37 437.522 189.52 438.11 189.82C438.71 190.12 439.178 190.576 439.514 191.188C439.85 191.8 440.018 192.574 440.018 193.51V199H438.29V193.708C438.29 192.784 438.062 192.088 437.606 191.62C437.162 191.152 436.532 190.918 435.716 190.918C435.104 190.918 434.57 191.038 434.114 191.278C433.658 191.518 433.304 191.872 433.052 192.34C432.812 192.808 432.692 193.39 432.692 194.086V199H430.964V189.46H432.62V192.034L432.35 191.35C432.662 190.726 433.142 190.24 433.79 189.892C434.438 189.544 435.194 189.37 436.058 189.37Z" fill="#82868B"/>
<path d="M359.089 238.88V216.32H360.625V238.88H359.089ZM359.689 236.192C358.409 236.192 357.185 236 356.017 235.616C354.849 235.216 353.929 234.704 353.257 234.08L354.145 232.208C354.785 232.768 355.601 233.232 356.593 233.6C357.585 233.968 358.617 234.152 359.689 234.152C360.665 234.152 361.457 234.04 362.065 233.816C362.673 233.592 363.121 233.288 363.409 232.904C363.697 232.504 363.841 232.056 363.841 231.56C363.841 230.984 363.649 230.52 363.265 230.168C362.897 229.816 362.409 229.536 361.801 229.328C361.209 229.104 360.553 228.912 359.833 228.752C359.113 228.592 358.385 228.408 357.649 228.2C356.929 227.976 356.265 227.696 355.657 227.36C355.065 227.024 354.585 226.576 354.217 226.016C353.849 225.44 353.665 224.704 353.665 223.808C353.665 222.944 353.889 222.152 354.337 221.432C354.801 220.696 355.505 220.112 356.449 219.68C357.409 219.232 358.625 219.008 360.097 219.008C361.073 219.008 362.041 219.136 363.001 219.392C363.961 219.648 364.793 220.016 365.497 220.496L364.705 222.416C363.985 221.936 363.225 221.592 362.425 221.384C361.625 221.16 360.849 221.048 360.097 221.048C359.153 221.048 358.377 221.168 357.769 221.408C357.161 221.648 356.713 221.968 356.425 222.368C356.153 222.768 356.017 223.216 356.017 223.712C356.017 224.304 356.201 224.776 356.569 225.128C356.953 225.48 357.441 225.76 358.033 225.968C358.641 226.176 359.305 226.368 360.025 226.544C360.745 226.704 361.465 226.888 362.185 227.096C362.921 227.304 363.585 227.576 364.177 227.912C364.785 228.248 365.273 228.696 365.641 229.256C366.009 229.816 366.193 230.536 366.193 231.416C366.193 232.264 365.961 233.056 365.497 233.792C365.033 234.512 364.313 235.096 363.337 235.544C362.377 235.976 361.161 236.192 359.689 236.192ZM375.388 236.192C373.9 236.192 372.628 235.864 371.572 235.208C370.516 234.552 369.708 233.608 369.148 232.376C368.604 231.128 368.332 229.608 368.332 227.816C368.332 225.912 368.668 224.304 369.34 222.992C370.012 221.68 370.948 220.688 372.148 220.016C373.348 219.344 374.724 219.008 376.276 219.008C377.076 219.008 377.836 219.088 378.556 219.248C379.292 219.408 379.924 219.656 380.452 219.992L379.54 221.864C379.108 221.56 378.612 221.352 378.052 221.24C377.508 221.128 376.932 221.072 376.324 221.072C374.612 221.072 373.252 221.608 372.244 222.68C371.236 223.736 370.732 225.312 370.732 227.408C370.732 227.744 370.748 228.144 370.78 228.608C370.812 229.072 370.892 229.528 371.02 229.976L370.204 229.16C370.444 228.424 370.82 227.808 371.332 227.312C371.86 226.8 372.484 226.424 373.204 226.184C373.94 225.928 374.732 225.8 375.58 225.8C376.7 225.8 377.692 226.008 378.556 226.424C379.42 226.84 380.1 227.432 380.596 228.2C381.092 228.952 381.34 229.848 381.34 230.888C381.34 231.96 381.076 232.896 380.548 233.696C380.02 234.496 379.308 235.112 378.412 235.544C377.516 235.976 376.508 236.192 375.388 236.192ZM375.292 234.248C376.028 234.248 376.668 234.112 377.212 233.84C377.772 233.568 378.212 233.192 378.532 232.712C378.852 232.216 379.012 231.64 379.012 230.984C379.012 229.992 378.668 229.208 377.98 228.632C377.292 228.04 376.356 227.744 375.172 227.744C374.404 227.744 373.732 227.888 373.156 228.176C372.58 228.464 372.124 228.856 371.788 229.352C371.468 229.832 371.308 230.384 371.308 231.008C371.308 231.584 371.46 232.12 371.764 232.616C372.068 233.096 372.516 233.488 373.108 233.792C373.7 234.096 374.428 234.248 375.292 234.248ZM383.499 239.552L384.699 234.704L385.011 236.096C384.547 236.096 384.155 235.952 383.835 235.664C383.531 235.376 383.379 234.984 383.379 234.488C383.379 234.008 383.531 233.616 383.835 233.312C384.155 233.008 384.539 232.856 384.987 232.856C385.451 232.856 385.827 233.016 386.115 233.336C386.403 233.64 386.547 234.024 386.547 234.488C386.547 234.648 386.531 234.808 386.499 234.968C386.483 235.112 386.443 235.288 386.379 235.496C386.331 235.688 386.251 235.928 386.139 236.216L385.011 239.552H383.499ZM394.24 236.192C393.056 236.192 391.904 236.008 390.784 235.64C389.68 235.272 388.776 234.776 388.072 234.152L389.176 232.256C389.736 232.784 390.464 233.216 391.36 233.552C392.256 233.888 393.208 234.056 394.216 234.056C395.496 234.056 396.48 233.784 397.168 233.24C397.856 232.696 398.2 231.968 398.2 231.056C398.2 230.432 398.048 229.888 397.744 229.424C397.44 228.96 396.912 228.608 396.16 228.368C395.424 228.112 394.408 227.984 393.112 227.984H389.296L390.184 219.2H399.664V221.288H391.072L392.32 220.112L391.624 227.048L390.376 225.896H393.616C395.296 225.896 396.648 226.112 397.672 226.544C398.696 226.976 399.44 227.576 399.904 228.344C400.368 229.096 400.6 229.968 400.6 230.96C400.6 231.92 400.368 232.8 399.904 233.6C399.44 234.384 398.736 235.016 397.792 235.496C396.864 235.96 395.68 236.192 394.24 236.192ZM407.616 236.192C406.432 236.192 405.28 236.008 404.16 235.64C403.056 235.272 402.152 234.776 401.448 234.152L402.552 232.256C403.112 232.784 403.84 233.216 404.736 233.552C405.632 233.888 406.592 234.056 407.616 234.056C408.864 234.056 409.832 233.792 410.52 233.264C411.224 232.72 411.576 231.992 411.576 231.08C411.576 230.2 411.24 229.496 410.568 228.968C409.912 228.424 408.864 228.152 407.424 228.152H406.08V226.472L411.072 220.328L411.408 221.288H402.216V219.2H413.304V220.832L408.336 226.952L407.088 226.208H407.88C409.912 226.208 411.432 226.664 412.44 227.576C413.464 228.488 413.976 229.648 413.976 231.056C413.976 232 413.744 232.864 413.28 233.648C412.816 234.432 412.112 235.056 411.168 235.52C410.24 235.968 409.056 236.192 407.616 236.192ZM415.833 236V234.368L422.673 227.768C423.281 227.192 423.729 226.688 424.017 226.256C424.321 225.808 424.521 225.4 424.617 225.032C424.729 224.648 424.785 224.28 424.785 223.928C424.785 223.064 424.481 222.384 423.873 221.888C423.265 221.392 422.377 221.144 421.209 221.144C420.313 221.144 419.505 221.296 418.785 221.6C418.065 221.888 417.441 222.344 416.913 222.968L415.281 221.552C415.921 220.736 416.777 220.112 417.849 219.68C418.937 219.232 420.129 219.008 421.425 219.008C422.593 219.008 423.609 219.2 424.473 219.584C425.337 219.952 426.001 220.488 426.465 221.192C426.945 221.896 427.185 222.728 427.185 223.688C427.185 224.232 427.113 224.768 426.969 225.296C426.825 225.824 426.553 226.384 426.153 226.976C425.753 227.568 425.177 228.232 424.425 228.968L418.329 234.848L417.753 233.912H427.905V236H415.833Z" fill="#5E5873"/>
<path d="M132.086 169.88V147.32H133.622V169.88H132.086ZM132.686 167.192C131.406 167.192 130.182 167 129.014 166.616C127.846 166.216 126.926 165.704 126.254 165.08L127.142 163.208C127.782 163.768 128.598 164.232 129.59 164.6C130.582 164.968 131.614 165.152 132.686 165.152C133.662 165.152 134.454 165.04 135.062 164.816C135.67 164.592 136.118 164.288 136.406 163.904C136.694 163.504 136.838 163.056 136.838 162.56C136.838 161.984 136.646 161.52 136.262 161.168C135.894 160.816 135.406 160.536 134.798 160.328C134.206 160.104 133.55 159.912 132.83 159.752C132.11 159.592 131.382 159.408 130.646 159.2C129.926 158.976 129.262 158.696 128.654 158.36C128.062 158.024 127.582 157.576 127.214 157.016C126.846 156.44 126.662 155.704 126.662 154.808C126.662 153.944 126.886 153.152 127.334 152.432C127.798 151.696 128.502 151.112 129.446 150.68C130.406 150.232 131.622 150.008 133.094 150.008C134.07 150.008 135.038 150.136 135.998 150.392C136.958 150.648 137.79 151.016 138.494 151.496L137.702 153.416C136.982 152.936 136.222 152.592 135.422 152.384C134.622 152.16 133.846 152.048 133.094 152.048C132.15 152.048 131.374 152.168 130.766 152.408C130.158 152.648 129.71 152.968 129.422 153.368C129.15 153.768 129.014 154.216 129.014 154.712C129.014 155.304 129.198 155.776 129.566 156.128C129.95 156.48 130.438 156.76 131.03 156.968C131.638 157.176 132.302 157.368 133.022 157.544C133.742 157.704 134.462 157.888 135.182 158.096C135.918 158.304 136.582 158.576 137.174 158.912C137.782 159.248 138.27 159.696 138.638 160.256C139.006 160.816 139.19 161.536 139.19 162.416C139.19 163.264 138.958 164.056 138.494 164.792C138.03 165.512 137.31 166.096 136.334 166.544C135.374 166.976 134.158 167.192 132.686 167.192ZM143.925 167V151.16L144.957 152.288H140.133V150.2H146.301V167H143.925ZM156.84 167.192C155.528 167.192 154.352 166.856 153.312 166.184C152.288 165.512 151.472 164.536 150.864 163.256C150.272 161.976 149.976 160.424 149.976 158.6C149.976 156.776 150.272 155.224 150.864 153.944C151.472 152.664 152.288 151.688 153.312 151.016C154.352 150.344 155.528 150.008 156.84 150.008C158.136 150.008 159.304 150.344 160.344 151.016C161.384 151.688 162.2 152.664 162.792 153.944C163.384 155.224 163.68 156.776 163.68 158.6C163.68 160.424 163.384 161.976 162.792 163.256C162.2 164.536 161.384 165.512 160.344 166.184C159.304 166.856 158.136 167.192 156.84 167.192ZM156.84 165.056C157.72 165.056 158.488 164.816 159.144 164.336C159.816 163.856 160.336 163.136 160.704 162.176C161.088 161.216 161.28 160.024 161.28 158.6C161.28 157.176 161.088 155.984 160.704 155.024C160.336 154.064 159.816 153.344 159.144 152.864C158.488 152.384 157.72 152.144 156.84 152.144C155.96 152.144 155.184 152.384 154.512 152.864C153.84 153.344 153.312 154.064 152.928 155.024C152.56 155.984 152.376 157.176 152.376 158.6C152.376 160.024 152.56 161.216 152.928 162.176C153.312 163.136 153.84 163.856 154.512 164.336C155.184 164.816 155.96 165.056 156.84 165.056ZM165.823 170.552L167.023 165.704L167.335 167.096C166.871 167.096 166.479 166.952 166.159 166.664C165.855 166.376 165.703 165.984 165.703 165.488C165.703 165.008 165.855 164.616 166.159 164.312C166.479 164.008 166.863 163.856 167.311 163.856C167.775 163.856 168.151 164.016 168.439 164.336C168.727 164.64 168.871 165.024 168.871 165.488C168.871 165.648 168.855 165.808 168.823 165.968C168.807 166.112 168.767 166.288 168.703 166.496C168.655 166.688 168.575 166.928 168.463 167.216L167.335 170.552H165.823ZM177.723 167.192C176.411 167.192 175.235 166.856 174.195 166.184C173.171 165.512 172.355 164.536 171.747 163.256C171.155 161.976 170.859 160.424 170.859 158.6C170.859 156.776 171.155 155.224 171.747 153.944C172.355 152.664 173.171 151.688 174.195 151.016C175.235 150.344 176.411 150.008 177.723 150.008C179.019 150.008 180.187 150.344 181.227 151.016C182.267 151.688 183.083 152.664 183.675 153.944C184.267 155.224 184.563 156.776 184.563 158.6C184.563 160.424 184.267 161.976 183.675 163.256C183.083 164.536 182.267 165.512 181.227 166.184C180.187 166.856 179.019 167.192 177.723 167.192ZM177.723 165.056C178.603 165.056 179.371 164.816 180.027 164.336C180.699 163.856 181.219 163.136 181.587 162.176C181.971 161.216 182.163 160.024 182.163 158.6C182.163 157.176 181.971 155.984 181.587 155.024C181.219 154.064 180.699 153.344 180.027 152.864C179.371 152.384 178.603 152.144 177.723 152.144C176.843 152.144 176.067 152.384 175.395 152.864C174.723 153.344 174.195 154.064 173.811 155.024C173.443 155.984 173.259 157.176 173.259 158.6C173.259 160.024 173.443 161.216 173.811 162.176C174.195 163.136 174.723 163.856 175.395 164.336C176.067 164.816 176.843 165.056 177.723 165.056ZM193.731 167.192C192.419 167.192 191.243 166.856 190.203 166.184C189.179 165.512 188.363 164.536 187.755 163.256C187.163 161.976 186.867 160.424 186.867 158.6C186.867 156.776 187.163 155.224 187.755 153.944C188.363 152.664 189.179 151.688 190.203 151.016C191.243 150.344 192.419 150.008 193.731 150.008C195.027 150.008 196.195 150.344 197.235 151.016C198.275 151.688 199.091 152.664 199.683 153.944C200.275 155.224 200.571 156.776 200.571 158.6C200.571 160.424 200.275 161.976 199.683 163.256C199.091 164.536 198.275 165.512 197.235 166.184C196.195 166.856 195.027 167.192 193.731 167.192ZM193.731 165.056C194.611 165.056 195.379 164.816 196.035 164.336C196.707 163.856 197.227 163.136 197.595 162.176C197.979 161.216 198.171 160.024 198.171 158.6C198.171 157.176 197.979 155.984 197.595 155.024C197.227 154.064 196.707 153.344 196.035 152.864C195.379 152.384 194.611 152.144 193.731 152.144C192.851 152.144 192.075 152.384 191.403 152.864C190.731 153.344 190.203 154.064 189.819 155.024C189.451 155.984 189.267 157.176 189.267 158.6C189.267 160.024 189.451 161.216 189.819 162.176C190.203 163.136 190.731 163.856 191.403 164.336C192.075 164.816 192.851 165.056 193.731 165.056ZM209.739 167.192C208.427 167.192 207.251 166.856 206.211 166.184C205.187 165.512 204.371 164.536 203.763 163.256C203.171 161.976 202.875 160.424 202.875 158.6C202.875 156.776 203.171 155.224 203.763 153.944C204.371 152.664 205.187 151.688 206.211 151.016C207.251 150.344 208.427 150.008 209.739 150.008C211.035 150.008 212.203 150.344 213.243 151.016C214.283 151.688 215.099 152.664 215.691 153.944C216.283 155.224 216.579 156.776 216.579 158.6C216.579 160.424 216.283 161.976 215.691 163.256C215.099 164.536 214.283 165.512 213.243 166.184C212.203 166.856 211.035 167.192 209.739 167.192ZM209.739 165.056C210.619 165.056 211.387 164.816 212.043 164.336C212.715 163.856 213.235 163.136 213.603 162.176C213.987 161.216 214.179 160.024 214.179 158.6C214.179 157.176 213.987 155.984 213.603 155.024C213.235 154.064 212.715 153.344 212.043 152.864C211.387 152.384 210.619 152.144 209.739 152.144C208.859 152.144 208.083 152.384 207.411 152.864C206.739 153.344 206.211 154.064 205.827 155.024C205.459 155.984 205.275 157.176 205.275 158.6C205.275 160.024 205.459 161.216 205.827 162.176C206.211 163.136 206.739 163.856 207.411 164.336C208.083 164.816 208.859 165.056 209.739 165.056Z" fill="#5E5873"/>
<defs>
<linearGradient id="paint0_linear_0_9" x1="177.177" y1="298.791" x2="177.177" y2="19.2094" gradientUnits="userSpaceOnUse">
<stop stop-color="#467FFF" stop-opacity="0.45277"/>
<stop offset="1" stop-color="#467FFF" stop-opacity="0"/>
</linearGradient>
<linearGradient id="paint1_linear_0_9" x1="356.148" y1="197" x2="356.148" y2="189" gradientUnits="userSpaceOnUse">
<stop stop-color="#467FFF" stop-opacity="0.45277"/>
<stop offset="1" stop-color="#467FFF" stop-opacity="0"/>
</linearGradient>
</defs>
</svg>
