<svg width="24" height="24" viewBox="0 0 24 24" fill="none" xmlns="http://www.w3.org/2000/svg">
<g clip-path="url(#clip0_257_154293)">
<g filter="url(#filter0_d_257_154293)">
<rect x="8.44531" y="-3" width="22.0133" height="22.0133" rx="11.0067" transform="rotate(30 8.44531 -3)" fill="white"/>
<rect x="8.44531" y="-3" width="22.0133" height="22.0133" rx="11.0067" transform="rotate(30 8.44531 -3)" stroke="#EEEFF5" stroke-width="0.5"/>
</g>
<path fill-rule="evenodd" clip-rule="evenodd" d="M16.4959 10.5C16.6958 10.5 16.8456 10.6 16.9455 10.8C17.0455 10.95 16.9955 11.15 16.8956 11.3L11.9001 17.3C11.8002 17.45 11.6503 17.5 11.5005 17.5C11.4505 17.5 11.3506 17.5 11.3006 17.45C11.1008 17.4 10.9509 17.15 11.0009 16.95L11.4505 13.5H7.50405C7.30423 13.5 7.15437 13.4 7.05446 13.25C6.95455 13.05 7.0045 12.85 7.10441 12.7L12.0999 6.7C12.2498 6.5 12.4995 6.45 12.6994 6.55C12.8992 6.6 13.0491 6.85 12.9991 7.05L12.5495 10.5H16.4959ZM12.4997 13.05L12.1999 15.35L15.3971 11.5H11.9502C11.8502 11.5 11.7004 11.45 11.6005 11.35C11.5505 11.25 11.5006 11.1 11.5006 10.95L11.7503 8.64999L8.55322 12.5H12.0001C12.15 12.5 12.2998 12.55 12.3998 12.65C12.4497 12.75 12.4997 12.9 12.4997 13.05Z" fill="#5E5873"/>
<mask id="mask0_257_154293" style="mask-type:luminance" maskUnits="userSpaceOnUse" x="7" y="6" width="10" height="12">
<path fill-rule="evenodd" clip-rule="evenodd" d="M16.4959 10.5C16.6958 10.5 16.8456 10.6 16.9455 10.8C17.0455 10.95 16.9955 11.15 16.8956 11.3L11.9001 17.3C11.8002 17.45 11.6503 17.5 11.5005 17.5C11.4505 17.5 11.3506 17.5 11.3006 17.45C11.1008 17.4 10.9509 17.15 11.0009 16.95L11.4505 13.5H7.50405C7.30423 13.5 7.15437 13.4 7.05446 13.25C6.95455 13.05 7.0045 12.85 7.10441 12.7L12.0999 6.7C12.2498 6.5 12.4995 6.45 12.6994 6.55C12.8992 6.6 13.0491 6.85 12.9991 7.05L12.5495 10.5H16.4959ZM12.4997 13.05L12.1999 15.35L15.3971 11.5H11.9502C11.8502 11.5 11.7004 11.45 11.6005 11.35C11.5505 11.25 11.5006 11.1 11.5006 10.95L11.7503 8.64999L8.55322 12.5H12.0001C12.15 12.5 12.2998 12.55 12.3998 12.65C12.4497 12.75 12.4997 12.9 12.4997 13.05Z" fill="white"/>
</mask>
<g mask="url(#mask0_257_154293)">
<rect x="6" y="6" width="12" height="12" fill="#7367F0"/>
</g>
</g>
<defs>
<filter id="filter0_d_257_154293" x="-38.7852" y="-35.2236" width="102.52" height="102.518" filterUnits="userSpaceOnUse" color-interpolation-filters="sRGB">
<feFlood flood-opacity="0" result="BackgroundImageFix"/>
<feColorMatrix in="SourceAlpha" type="matrix" values="0 0 0 0 0 0 0 0 0 0 0 0 0 0 0 0 0 0 127 0" result="hardAlpha"/>
<feOffset dy="4"/>
<feGaussianBlur stdDeviation="20"/>
<feComposite in2="hardAlpha" operator="out"/>
<feColorMatrix type="matrix" values="0 0 0 0 0 0 0 0 0 0 0 0 0 0 0 0 0 0 0.1 0"/>
<feBlend mode="normal" in2="BackgroundImageFix" result="effect1_dropShadow_257_154293"/>
<feBlend mode="normal" in="SourceGraphic" in2="effect1_dropShadow_257_154293" result="shape"/>
</filter>
<clipPath id="clip0_257_154293">
<rect width="24" height="24" fill="white"/>
</clipPath>
</defs>
</svg>
