<svg width="18" height="18" viewBox="0 0 18 18" fill="none" xmlns="http://www.w3.org/2000/svg">
<path fill-rule="evenodd" clip-rule="evenodd" d="M10.875 8.25H9.75V4.5H12.75C13.2 4.5 13.5 4.2 13.5 3.75C13.5 3.3 13.2 3 12.75 3H9.75V0.75C9.75 0.3 9.45 0 9 0C8.55 0 8.25 0.3 8.25 0.75V3H7.125C5.25 3 3.75 4.5 3.75 6.375C3.75 8.25 5.25 9.75 7.125 9.75H8.25V13.5H4.5C4.05 13.5 3.75 13.8 3.75 14.25C3.75 14.7 4.05 15 4.5 15H8.25V17.25C8.25 17.7 8.55 18 9 18C9.45 18 9.75 17.7 9.75 17.25V15H10.875C12.75 15 14.25 13.5 14.25 11.625C14.25 9.75 12.75 8.25 10.875 8.25ZM7.125 8.25C6.075 8.25 5.25 7.425 5.25 6.375C5.25 5.325 6.075 4.5 7.125 4.5H8.25V8.25H7.125ZM9.75 13.5H10.875C11.925 13.5 12.75 12.675 12.75 11.625C12.75 10.575 11.925 9.75 10.875 9.75H9.75V13.5Z" fill="#5E5873"/>
<mask id="mask0_307_156227" style="mask-type:luminance" maskUnits="userSpaceOnUse" x="3" y="0" width="12" height="18">
<path fill-rule="evenodd" clip-rule="evenodd" d="M10.875 8.25H9.75V4.5H12.75C13.2 4.5 13.5 4.2 13.5 3.75C13.5 3.3 13.2 3 12.75 3H9.75V0.75C9.75 0.3 9.45 0 9 0C8.55 0 8.25 0.3 8.25 0.75V3H7.125C5.25 3 3.75 4.5 3.75 6.375C3.75 8.25 5.25 9.75 7.125 9.75H8.25V13.5H4.5C4.05 13.5 3.75 13.8 3.75 14.25C3.75 14.7 4.05 15 4.5 15H8.25V17.25C8.25 17.7 8.55 18 9 18C9.45 18 9.75 17.7 9.75 17.25V15H10.875C12.75 15 14.25 13.5 14.25 11.625C14.25 9.75 12.75 8.25 10.875 8.25ZM7.125 8.25C6.075 8.25 5.25 7.425 5.25 6.375C5.25 5.325 6.075 4.5 7.125 4.5H8.25V8.25H7.125ZM9.75 13.5H10.875C11.925 13.5 12.75 12.675 12.75 11.625C12.75 10.575 11.925 9.75 10.875 9.75H9.75V13.5Z" fill="white"/>
</mask>
<g mask="url(#mask0_307_156227)">
<rect width="18" height="18" fill="#5E5873"/>
</g>
</svg>
