<svg width="1016" height="711" viewBox="0 0 1016 711" fill="none" xmlns="http://www.w3.org/2000/svg">
<g id="Illustration">
<g id="Shape">
<path id="Triangle" opacity="0.05" fill-rule="evenodd" clip-rule="evenodd" d="M896.47 68.668C898.047 66.2387 901.603 66.2387 903.18 68.668L1011.99 236.276C1013.72 238.938 1011.81 242.455 1008.63 242.455H791.014C787.841 242.455 785.932 238.938 787.659 236.276L896.47 68.668Z" fill="#EA5455"/>
<path id="Triangle_2" opacity="0.05" fill-rule="evenodd" clip-rule="evenodd" d="M137.35 350.125C138.926 347.685 142.495 347.685 144.071 350.125L277.437 556.672C279.155 559.333 277.245 562.841 274.076 562.841H7.34416C4.17588 562.841 2.26518 559.333 3.98379 556.672L137.35 350.125Z" fill="#EA5455"/>
<path id="Triangle_3" opacity="0.25" fill-rule="evenodd" clip-rule="evenodd" d="M640.296 315.502C641.871 313.058 645.445 313.058 647.021 315.502L861.935 649.038C863.65 651.7 861.739 655.205 858.572 655.205H428.744C425.577 655.205 423.666 651.7 425.382 649.038L640.296 315.502Z" fill="#7367F0"/>
<path id="Triangle_4" opacity="0.25" fill-rule="evenodd" clip-rule="evenodd" d="M846.592 54.8847C848.141 52.2677 851.928 52.2677 853.477 54.8847L930.166 184.463C931.744 187.129 929.822 190.5 926.724 190.5H773.345C770.247 190.5 768.325 187.129 769.903 184.463L846.592 54.8847Z" fill="#7367F0"/>
<path id="Triangle_5" opacity="0.05" fill-rule="evenodd" clip-rule="evenodd" d="M252.796 5.26733C254.369 2.80801 257.961 2.808 259.535 5.26732L315.006 91.9808C316.709 94.6433 314.797 98.1364 311.636 98.1364H200.694C197.533 98.1364 195.621 94.6433 197.324 91.9809L252.796 5.26733Z" fill="#EA5455"/>
</g>
<g id="Finance Presentation">
<g id="DesktopDasboard">
<path id="Rectangle" fill-rule="evenodd" clip-rule="evenodd" d="M137.102 143.478C137.102 129.595 148.356 118.341 162.239 118.341H852.037C865.92 118.341 877.174 129.595 877.174 143.478V577.801C877.174 591.684 865.92 602.938 852.037 602.938H162.239C148.356 602.938 137.102 591.684 137.102 577.801V143.478Z" fill="#F2F2F2"/>
<g id="ElementCard11">
<g id="Rectangle_2" filter="url(#filter0_d_2_86)">
<path fill-rule="evenodd" clip-rule="evenodd" d="M343.523 200.692C343.523 196.559 346.874 193.208 351.008 193.208H629.493C633.626 193.208 636.977 196.559 636.977 200.692V387.445C636.977 391.578 633.626 394.929 629.493 394.929H351.008C346.874 394.929 343.523 391.578 343.523 387.445V200.692Z" fill="#7367F0"/>
</g>
<g id="Group 12">
<path id="Path" opacity="0.39488" fill-rule="evenodd" clip-rule="evenodd" d="M421.863 268.301C422.69 268.301 423.36 268.971 423.36 269.798V314.813C423.36 315.64 422.69 316.31 421.863 316.31H410.616C409.789 316.31 409.119 315.64 409.119 314.813V269.798C409.119 268.971 409.789 268.301 410.616 268.301H421.863Z" fill="white"/>
<path id="Path_2" fill-rule="evenodd" clip-rule="evenodd" d="M399.422 286.404C400.249 286.404 400.919 287.074 400.919 287.901V314.813C400.919 315.64 400.249 316.31 399.422 316.31H388.175C387.348 316.31 386.678 315.64 386.678 314.813V287.901C386.678 287.074 387.348 286.404 388.175 286.404H399.422Z" fill="white"/>
<path id="Path_3" fill-rule="evenodd" clip-rule="evenodd" d="M444.303 251.06C445.13 251.06 445.8 251.73 445.8 252.556V314.813C445.8 315.639 445.13 316.31 444.303 316.31H433.055C432.229 316.31 431.559 315.639 431.559 314.813V252.556C431.559 251.73 432.229 251.06 433.055 251.06H444.303Z" fill="white"/>
<path id="Path_4" opacity="0.39488" fill-rule="evenodd" clip-rule="evenodd" d="M466.744 259.68C467.571 259.68 468.241 260.35 468.241 261.177V314.812C468.241 315.639 467.571 316.309 466.744 316.309H455.497C454.67 316.309 454 315.639 454 314.812V261.177C454 260.35 454.67 259.68 455.497 259.68H466.744Z" fill="white"/>
<path id="Path_5" fill-rule="evenodd" clip-rule="evenodd" d="M489.184 276.921C490.01 276.921 490.681 277.591 490.681 278.418V314.812C490.681 315.639 490.01 316.309 489.184 316.309H477.936C477.11 316.309 476.439 315.639 476.439 314.812V278.418C476.439 277.591 477.11 276.921 477.936 276.921H489.184Z" fill="white"/>
<path id="Path_6" opacity="0.39488" fill-rule="evenodd" clip-rule="evenodd" d="M511.625 315.714C512.452 315.714 513.122 316.384 513.122 317.211V344.985C513.122 345.812 512.452 346.482 511.625 346.482H500.378C499.551 346.482 498.881 345.812 498.881 344.985V317.211C498.881 316.384 499.551 315.714 500.378 315.714H511.625Z" fill="white"/>
<path id="Path_7" fill-rule="evenodd" clip-rule="evenodd" d="M534.065 315.714C534.891 315.714 535.561 316.384 535.561 317.211V369.122C535.561 369.949 534.891 370.619 534.065 370.619H522.817C521.99 370.619 521.32 369.949 521.32 369.122V317.211C521.32 316.384 521.99 315.714 522.817 315.714H534.065Z" fill="white"/>
<path id="Path_8" opacity="0.39488" fill-rule="evenodd" clip-rule="evenodd" d="M556.506 315.714C557.333 315.714 558.003 316.384 558.003 317.211V356.192C558.003 357.018 557.333 357.688 556.506 357.688H545.259C544.432 357.688 543.762 357.018 543.762 356.192V317.211C543.762 316.384 544.432 315.714 545.259 315.714H556.506Z" fill="white"/>
<path id="Path_9" fill-rule="evenodd" clip-rule="evenodd" d="M578.947 315.714C579.774 315.714 580.444 316.384 580.444 317.211V364.812C580.444 365.639 579.774 366.309 578.947 366.309H567.7C566.873 366.309 566.203 365.639 566.203 364.812V317.211C566.203 316.384 566.873 315.714 567.7 315.714H578.947Z" fill="white"/>
<path id="Path_10" opacity="0.39488" fill-rule="evenodd" clip-rule="evenodd" d="M601.387 315.714C602.214 315.714 602.884 316.384 602.884 317.211V344.985C602.884 345.812 602.214 346.482 601.387 346.482H590.139C589.313 346.482 588.643 345.812 588.643 344.985V317.211C588.643 316.384 589.313 315.714 590.139 315.714H601.387Z" fill="white"/>
</g>
<path id="Rectangle_3" opacity="0.39488" fill-rule="evenodd" clip-rule="evenodd" d="M378.91 230.277C378.91 228.848 380.068 227.69 381.496 227.69H467.812C469.241 227.69 470.399 228.848 470.399 230.277C470.399 231.705 469.241 232.863 467.812 232.863H381.496C380.068 232.863 378.91 231.705 378.91 230.277Z" fill="white"/>
<rect id="Rectangle_4" x="378.91" y="213.035" width="48.3335" height="5.17233" rx="2.58617" fill="white"/>
</g>
<path id="Rectangle_5" fill-rule="evenodd" clip-rule="evenodd" d="M137.102 143.478C137.102 129.595 148.356 118.341 162.239 118.341H263.907C277.79 118.341 289.044 129.595 289.044 143.478V602.938H162.239C148.356 602.938 137.102 591.684 137.102 577.801V143.478Z" fill="#E4E4E4"/>
<path id="Rectangle_6" fill-rule="evenodd" clip-rule="evenodd" d="M155.553 190.146C155.553 187.384 157.791 185.146 160.553 185.146L263.566 185.146C266.327 185.146 268.566 187.384 268.566 190.146V200.878C268.566 203.639 266.327 205.878 263.566 205.878H160.553C157.791 205.878 155.553 203.639 155.553 200.878V190.146Z" fill="white" fill-opacity="0.423924"/>
<path id="Rectangle_7" fill-rule="evenodd" clip-rule="evenodd" d="M155.553 228.155C155.553 225.394 157.791 223.155 160.553 223.155L217.438 223.155C220.2 223.155 222.438 225.394 222.438 228.155V238.888C222.438 241.649 220.2 243.888 217.438 243.888H160.553C157.791 243.888 155.553 241.649 155.553 238.888V228.155Z" fill="white" fill-opacity="0.204873"/>
<path id="Rectangle_8" fill-rule="evenodd" clip-rule="evenodd" d="M155.553 262.709C155.553 259.948 157.791 257.709 160.553 257.709L217.438 257.709C220.2 257.709 222.438 259.948 222.438 262.709V273.441C222.438 276.203 220.2 278.441 217.438 278.441H160.553C157.791 278.441 155.553 276.203 155.553 273.441V262.709Z" fill="white" fill-opacity="0.204873"/>
<path id="Rectangle_9" fill-rule="evenodd" clip-rule="evenodd" d="M679.104 118.341H852.037C865.92 118.341 877.174 129.595 877.174 143.478V577.801C877.174 591.684 865.919 602.938 852.037 602.938H679.104V118.341Z" fill="#E4E4E4"/>
<g id="Group 23">
<g id="Rectangle_10" filter="url(#filter1_d_2_86)">
<path fill-rule="evenodd" clip-rule="evenodd" d="M712.587 196.336C712.565 190.798 717.048 186.297 722.586 186.297L840.278 186.297C845.785 186.297 850.256 190.75 850.278 196.257L850.891 351.331C850.913 356.87 846.429 361.371 840.891 361.371H723.199C717.692 361.371 713.221 356.918 713.199 351.41L712.587 196.336Z" fill="white"/>
</g>
<path id="Rectangle_11" opacity="0.33996" d="M756.369 298.022C756.369 296.113 757.916 294.566 759.825 294.566H803.654C805.563 294.566 807.11 296.113 807.11 298.022C807.11 299.93 805.563 301.477 803.654 301.477H759.825C757.916 301.477 756.369 299.93 756.369 298.022Z" fill="#467FFF"/>
<path id="Rectangle_12" opacity="0.33996" d="M744.836 316.451C744.836 314.542 746.383 312.995 748.291 312.995H815.185C817.093 312.995 818.641 314.542 818.641 316.451C818.641 318.359 817.093 319.906 815.185 319.906H748.291C746.383 319.906 744.836 318.359 744.836 316.451Z" fill="#467FFF"/>
<g id="Icon8">
<g id="Oval" filter="url(#filter2_dd_2_86)">
<ellipse cx="781.825" cy="242.26" rx="26.61" ry="27.1684" fill="white"/>
</g>
<g id="Group 70">
<path id="Combined Shape" fill-rule="evenodd" clip-rule="evenodd" d="M782.326 241.359C786.086 241.359 789.133 238.315 789.133 234.561C789.133 230.806 786.086 227.762 782.326 227.762C778.567 227.762 775.519 230.806 775.519 234.561C775.519 238.315 778.567 241.359 782.326 241.359ZM781.529 243.284C775.912 243.284 771.359 247.837 771.359 253.453C771.359 254.095 771.88 254.616 772.522 254.616H792.131C792.773 254.616 793.293 254.095 793.293 253.453C793.293 247.837 788.74 243.284 783.124 243.284H781.529Z" fill="#7367F0"/>
</g>
</g>
</g>
<path id="Rectangle_13" fill-rule="evenodd" clip-rule="evenodd" d="M709.088 465.427C709.088 462.665 711.326 460.427 714.088 460.427L849.391 460.427C852.152 460.427 854.391 462.665 854.391 465.427V568.303C854.391 571.065 852.152 573.303 849.391 573.303H714.088C711.326 573.303 709.088 571.065 709.088 568.303V465.427Z" fill="white" fill-opacity="0.345908"/>
<path id="Rectangle_14" fill-rule="evenodd" clip-rule="evenodd" d="M137.102 143.478C137.102 129.595 148.356 118.341 162.239 118.341H852.037C865.92 118.341 877.174 129.595 877.174 143.478V158.342H137.102V143.478Z" fill="#D4D4D4"/>
<ellipse id="Oval_2" cx="167.085" cy="137.922" rx="4.61279" ry="4.60721" fill="#F5818D"/>
<ellipse id="Oval_3" cx="185.537" cy="137.922" rx="4.61279" ry="4.60721" fill="#FFBD63"/>
<ellipse id="Oval_4" cx="205.14" cy="137.922" rx="4.61279" ry="4.60721" fill="#4CE47A"/>
</g>
<g id="ElementCard25">
<g id="Rectangle_15" filter="url(#filter3_d_2_86)">
<path fill-rule="evenodd" clip-rule="evenodd" d="M346.363 425.953C346.363 422.647 349.044 419.966 352.351 419.966H524.949C528.256 419.966 530.937 422.647 530.937 425.953V482.416C530.937 485.722 528.256 488.403 524.949 488.403H352.351C349.044 488.403 346.363 485.722 346.363 482.416V425.953Z" fill="white"/>
</g>
<path id="Rectangle_16" opacity="0.2" fill-rule="evenodd" clip-rule="evenodd" d="M406.506 460.06C406.506 458.915 407.434 457.986 408.58 457.986H443.144C444.289 457.986 445.218 458.915 445.218 460.06C445.218 461.206 444.289 462.134 443.144 462.134H408.58C407.434 462.134 406.506 461.206 406.506 460.06Z" fill="#FF9F43"/>
<path id="Rectangle_17" opacity="0.5" fill-rule="evenodd" clip-rule="evenodd" d="M406.506 448.308C406.506 447.163 407.434 446.234 408.58 446.234H429.318C430.464 446.234 431.392 447.163 431.392 448.308C431.392 449.454 430.464 450.382 429.318 450.382H408.58C407.434 450.382 406.506 449.454 406.506 448.308Z" fill="#FF9F43"/>
<path id="Path_11" d="M474.428 446.424C475.022 445.121 476.559 444.547 477.862 445.14C478.293 445.337 478.661 445.647 478.927 446.036L479.022 446.185L484.106 454.831C484.154 454.913 484.26 454.941 484.342 454.892L484.365 454.877L484.384 454.858L487.089 451.8C488.038 450.727 489.676 450.627 490.749 451.575C490.819 451.638 490.886 451.704 490.949 451.773L491.041 451.88L495.008 456.752C495.069 456.826 495.177 456.837 495.252 456.777L495.272 456.757L495.289 456.734L501.555 446.608C502.309 445.39 503.907 445.014 505.124 445.768C505.313 445.884 505.485 446.024 505.638 446.185L505.748 446.309L508.667 449.798C509.096 450.31 509.028 451.073 508.516 451.502C508.032 451.907 507.324 451.869 506.886 451.432L506.812 451.35L503.892 447.861C503.881 447.847 503.867 447.835 503.851 447.825C503.783 447.783 503.698 447.794 503.642 447.845L503.613 447.881L497.347 458.007C497.195 458.252 497.003 458.471 496.779 458.653C495.707 459.526 494.148 459.4 493.228 458.391L493.132 458.28L489.165 453.408C489.159 453.401 489.153 453.394 489.146 453.388C489.086 453.335 489 453.331 488.937 453.372L488.902 453.403L486.197 456.461C486.016 456.665 485.804 456.84 485.569 456.978C484.376 457.68 482.851 457.318 482.096 456.178L482.02 456.057L476.936 447.412C476.918 447.381 476.891 447.357 476.859 447.342C476.787 447.309 476.703 447.33 476.655 447.388L476.63 447.428L471.677 458.297C471.492 458.702 471.207 459.052 470.849 459.314L470.712 459.408L464.839 463.152C464.275 463.512 463.528 463.346 463.168 462.783C462.829 462.251 462.958 461.554 463.448 461.176L463.538 461.112L469.411 457.368C469.43 457.356 469.446 457.341 469.459 457.323L469.475 457.294L474.428 446.424Z" fill="#FF9F43"/>
<circle id="Oval_5" cx="380.582" cy="454.875" r="14.1714" fill="#FF9F43"/>
</g>
<g id="ElementCard26">
<g id="Rectangle_18" filter="url(#filter4_d_2_86)">
<path fill-rule="evenodd" clip-rule="evenodd" d="M346.363 519.76C346.363 516.453 349.044 513.772 352.351 513.772H524.949C528.256 513.772 530.937 516.453 530.937 519.76V576.222C530.937 579.529 528.256 582.21 524.949 582.21H352.351C349.044 582.21 346.363 579.529 346.363 576.222V519.76Z" fill="white"/>
</g>
<path id="Rectangle_19" opacity="0.454078" fill-rule="evenodd" clip-rule="evenodd" d="M407.889 554.558C407.889 553.413 408.817 552.484 409.963 552.484H444.527C445.672 552.484 446.601 553.413 446.601 554.558C446.601 555.704 445.672 556.632 444.527 556.632H409.963C408.817 556.632 407.889 555.704 407.889 554.558Z" fill="#28C76F"/>
<path id="Rectangle_20" fill-rule="evenodd" clip-rule="evenodd" d="M407.889 542.806C407.889 541.661 408.817 540.732 409.963 540.732H430.701C431.846 540.732 432.775 541.661 432.775 542.806C432.775 543.952 431.846 544.88 430.701 544.88H409.963C408.817 544.88 407.889 543.952 407.889 542.806Z" fill="#28C76F"/>
<path id="Path 146" fill-rule="evenodd" clip-rule="evenodd" d="M464.574 556.338L472.194 542.965C472.856 541.803 474.341 541.408 475.492 542.088L478.799 544.04C479.648 544.542 480.719 544.471 481.495 543.861L485.754 540.516C486.553 539.889 487.661 539.833 488.518 540.378L491.958 542.565C493.259 543.391 495.018 542.799 495.758 541.448C496.886 539.385 498.751 536.794 501.252 536.093C505.582 534.88 511.112 536.093 511.112 536.093V556.338H464.574Z" fill="url(#paint0_linear_2_86)"/>
<path id="Path 146_2" fill-rule="evenodd" clip-rule="evenodd" d="M464.574 556.339L472.828 549.773C473.645 549.124 474.787 549.077 475.653 549.658L477.381 550.816C478.242 551.394 479.378 551.352 480.194 550.711L484.372 547.43C485.171 546.802 486.278 546.747 487.136 547.292L491.226 549.891C492.29 550.568 493.703 550.306 494.53 549.353C496.22 547.405 499.181 544.416 502.032 543.617C506.361 542.404 511.112 543.006 511.112 543.006V556.339H464.574Z" fill="#28C76F"/>
<circle id="Oval_6" cx="380.582" cy="548.682" r="14.1714" fill="#28C76F"/>
</g>
<g id="Icon2">
<ellipse id="Oval_7" cx="530.73" cy="517.319" rx="21.0324" ry="21.6468" fill="#28C76F"/>
<path id="Path_12" fill-rule="evenodd" clip-rule="evenodd" d="M523.534 515.69C522.908 514.931 521.785 514.824 521.026 515.45C520.268 516.076 520.16 517.198 520.786 517.956L526.97 525.443C527.715 526.346 529.052 526.474 529.955 525.729C530.087 525.62 530.205 525.496 530.307 525.359L539.168 513.455C539.755 512.666 539.591 511.551 538.802 510.964C538.012 510.377 536.897 510.541 536.309 511.33L528.546 521.759L523.534 515.69Z" fill="white"/>
</g>
<g id="Men3.2">
<g id="LLeg">
<path id="Path_13" fill-rule="evenodd" clip-rule="evenodd" d="M260.666 674.218C260.666 674.218 260.486 685.609 267.545 689.656C274.604 693.702 285.54 701.221 285.54 701.221L243.938 702.618L245.124 674.115L260.666 674.218Z" fill="#F8CFCF"/>
<path id="Path_14" fill-rule="evenodd" clip-rule="evenodd" d="M242.485 686.771L241.809 705.251H251.472L252.134 702.87C252.134 702.87 255.772 702.723 257.874 703.751C260.096 704.839 260.395 705.366 260.395 705.366L291.045 705.43C291.045 705.43 292.557 699.457 283.214 695.137C273.871 690.815 267.069 684.683 265.776 684.055C264.475 683.423 261.849 683.065 259.999 684.551C258.15 686.036 256.687 689.942 252.496 690.064C247.103 690.222 244.004 683.645 242.485 686.771Z" fill="#4B4B4B"/>
<path id="Path 38" d="M268.68 686.059L265.502 689.103" stroke="white" stroke-width="2" stroke-linecap="round"/>
<path id="Path 38_2" d="M273.312 688.366L270.135 691.41" stroke="white" stroke-width="2" stroke-linecap="round"/>
<path id="Path 38_3" d="M277.947 690.674L274.77 693.718" stroke="white" stroke-width="2" stroke-linecap="round"/>
<path id="Path_15" fill-rule="evenodd" clip-rule="evenodd" d="M230.217 428.121C230.217 428.121 241.774 554.154 242.134 562.915C242.493 571.676 238.422 586.796 238.501 603.184C238.58 619.572 239.988 677.331 239.988 677.331L265.484 677.865C265.484 677.865 276.199 573.491 276.314 557.84C276.429 542.188 277.412 429.628 277.412 429.628L230.217 428.121Z" fill="#383838"/>
<path id="Path_16" opacity="0.283552" fill-rule="evenodd" clip-rule="evenodd" d="M248.594 566.838L248.623 567.15C249.006 572.493 245.656 590.071 238.571 619.885L238.501 603.184C238.423 587.089 242.349 572.217 242.149 563.39L242.134 562.915C242.013 559.962 240.62 543.691 238.826 523.414L239.664 526.384C244.579 543.975 247.556 557.46 248.594 566.838Z" fill="white" fill-opacity="0.192499"/>
</g>
<g id="RLeg">
<path id="Path_17" fill-rule="evenodd" clip-rule="evenodd" d="M199.907 672.216L195.025 701.744L213.021 701.654L213.59 671.753L199.907 672.216Z" fill="#F8CFCF"/>
<path id="Path_18" fill-rule="evenodd" clip-rule="evenodd" d="M197.261 685.142C195.917 685.433 194.943 686.6 194.897 687.975L194.728 693.086C192.16 695.93 190.959 704.195 190.85 704.976C190.844 705.019 190.841 705.058 190.844 705.102C191.132 709.136 217.688 709.068 219.893 705.247C219.971 705.111 219.977 704.956 219.952 704.802C219.707 703.305 218.244 695.049 215.39 692.82L215.372 687.764C215.367 686.41 214.456 685.228 213.148 684.877L209.756 683.969C207.126 680.137 203.541 680.272 200.469 684.448L197.261 685.142Z" fill="#4B4B4B"/>
<path id="Path 39" d="M201.49 687.638H208.775" stroke="white" stroke-width="2" stroke-linecap="round"/>
<path id="Path 39_2" d="M201.49 691.099H208.775" stroke="white" stroke-width="2" stroke-linecap="round"/>
<path id="Path 39_3" d="M202.648 694.561H207.617" stroke="white" stroke-width="2" stroke-linecap="round"/>
<path id="Path_19" fill-rule="evenodd" clip-rule="evenodd" d="M208.983 429.145C208.983 429.145 200.942 515.622 201.051 532.182C201.161 548.743 203.526 556.015 200.16 567.895C196.793 579.775 193.922 674.598 193.922 674.598L218.817 677.319C218.817 677.319 234.72 575.853 236.45 561.785C238.179 547.717 259.554 427.952 259.554 427.952L208.983 429.145Z" fill="#2E2E2E"/>
<path id="Path_20" opacity="0.283552" fill-rule="evenodd" clip-rule="evenodd" d="M215.706 487.838L214.187 493.326C209.741 509.525 205.637 526.655 206.712 551.125L206.764 552.242C207.029 557.543 203.651 588.306 196.633 644.532L195.965 648.484C195.277 652.514 194.664 655.953 194.127 658.801L194.279 653.821C195.174 626.335 197.582 576.99 200.159 567.895C203.525 556.015 201.16 548.742 201.051 532.181C200.974 520.589 204.891 474.738 207.248 448.271L208.982 429.145L219.491 428.897L219.516 431.843C219.701 459.033 218.431 477.698 215.706 487.838Z" fill="white" fill-opacity="0.192499"/>
</g>
<g id="LArm">
<g id="Group 6">
<path id="Path_21" fill-rule="evenodd" clip-rule="evenodd" d="M331.331 322.578C331.331 322.578 329.258 311.07 330.004 308.74C330.64 306.726 336.658 303.822 336.658 303.822C336.658 303.822 347.124 287.353 349.415 289.03C351.278 290.39 343.964 302.531 343.964 302.531C343.964 302.531 350.634 309.501 350.541 312.616C350.448 315.733 339.655 325.486 339.655 325.486L331.331 322.578Z" fill="#F8CFCF"/>
<path id="Path_22" fill-rule="evenodd" clip-rule="evenodd" d="M336.883 303.656C336.883 303.656 341.518 303.028 342.256 304.465C342.885 305.69 339.034 309.162 339.034 310.138C339.034 311.114 339.089 318.503 339.399 318.57C339.708 318.637 344.042 306.513 343.118 303.949C342.357 301.843 336.883 303.656 336.883 303.656Z" fill="#F28585"/>
</g>
<path id="Path_23" fill-rule="evenodd" clip-rule="evenodd" d="M276.036 337.22C263.895 326.655 245.663 345.701 265.992 363.407C273.748 370.162 298.111 387.011 304.083 390.716C313.59 396.614 321.404 391.292 324.614 382.012C327.338 374.145 343.628 332.03 341.555 325.844C340.204 321.81 332.948 317.884 329.307 321.059C323.985 325.699 307.706 366.396 307.706 366.396C307.706 366.396 289.841 349.231 276.036 337.22Z" fill="#877BFF"/>
<path id="Path_24" fill-rule="evenodd" clip-rule="evenodd" d="M307.705 366.395C307.705 366.395 313.037 372.909 313.422 371.914C313.807 370.919 309.194 362.549 309.194 362.549L307.705 366.395Z" fill="black" fill-opacity="0.159856"/>
<path id="Path 41" d="M327.893 323.667C332.128 321.692 336.756 324.134 339.307 328.053" stroke="#5386BF" stroke-linecap="round"/>
</g>
<g id="Head">
<path id="Path_25" fill-rule="evenodd" clip-rule="evenodd" d="M223.762 325.282C223.762 325.282 230.655 323.67 230.894 312.419C231.133 301.169 230.965 297.329 230.965 297.329L247.307 297.056C247.307 297.056 247.472 309.594 247.475 314.129C247.481 324.002 254.843 326.67 254.843 326.67C254.843 326.67 254.231 337.466 240.473 338.236C229.731 338.839 223.762 325.282 223.762 325.282Z" fill="#F8C5C5"/>
<g id="Head1">
<path id="Path_26" fill-rule="evenodd" clip-rule="evenodd" d="M261.867 285.2L261.502 295.833C264.59 292.218 266.676 287.735 267.294 281.987L261.867 285.2Z" fill="url(#paint1_linear_2_86)"/>
<path id="Path_27" fill-rule="evenodd" clip-rule="evenodd" d="M229.464 291.642C222.69 291.381 223.795 301.257 230.832 301.244C230.832 301.244 238.393 316.389 250.265 316.428C255.984 316.447 257.851 311.373 259.565 307.811C261.28 304.25 262.538 298.922 262.643 295.66C262.755 292.181 262.769 280.754 262.769 280.754L229.2 280.739L229.464 291.642Z" fill="#F8CFCF"/>
<path id="Path_28" fill-rule="evenodd" clip-rule="evenodd" d="M262.77 285.998H239.161C238.913 290.247 237.496 293.776 233.898 296.378C234 302.604 236.091 307.135 239.717 310.313C242.873 301.303 262.181 303.768 260.776 309.647C257.826 321.998 230.174 322.278 231.851 293.852C230.748 292.354 226.803 292.074 225.504 293.572C223.286 287.362 224.232 278.576 230.647 277.306C225.612 264.072 294.077 261.272 262.77 285.998Z" fill="#424242"/>
<path id="Path_29" d="M247.643 309.102C247.643 309.102 250.719 311.353 254.768 308.891" stroke="#CC6969" stroke-linecap="round"/>
<path id="Path 8" d="M230.52 297.28C230.59 295.696 230.105 294.437 228.482 294.185" stroke="#DE6767" stroke-linecap="round"/>
</g>
</g>
<g id="Body">
<path id="Path_30" fill-rule="evenodd" clip-rule="evenodd" d="M226.487 323.524L246.207 336.376L255.099 326.001C255.099 326.001 273.832 331.825 277.307 338.635C282.322 348.463 275.715 427.2 278.595 431.951C284.732 442.076 276.572 449.026 249.557 451.579C222.541 454.133 198.574 452.042 202.923 438.531C207.273 425.019 190.488 336.837 205.286 331.98C209.91 330.462 226.487 323.524 226.487 323.524Z" fill="#7367F0"/>
<path id="Path_31" fill-rule="evenodd" clip-rule="evenodd" d="M213.179 347.834C214.373 349.952 213.757 357.29 211.332 369.849C209.266 380.548 211.628 391.615 217.866 400.544L218.217 401.038C220.327 403.963 222.271 407.815 224.052 412.593C228.417 424.311 218.348 434.08 226.064 452.412L225.131 452.368C209.99 451.582 199.982 447.667 202.923 438.53C206.49 427.452 195.848 366.176 200.056 341.788C207.341 343.223 211.715 345.238 213.179 347.834Z" fill="black" fill-opacity="0.159856"/>
<path id="Path_32" fill-rule="evenodd" clip-rule="evenodd" d="M226.487 323.524L244.126 335.063C241.54 338.078 240.154 341.586 239.63 345.446C232.851 340.129 225.805 332.698 223.621 324.708L226.487 323.524Z" fill="#5E54C7"/>
<path id="Path_33" fill-rule="evenodd" clip-rule="evenodd" d="M247.602 334.763C250.584 336.787 252.964 340.369 254.901 344.443C257.223 339.761 258.112 333.579 258.112 326.987L255.199 325.832L247.602 334.763Z" fill="#5E54C7"/>
<path id="Path_34" fill-rule="evenodd" clip-rule="evenodd" d="M244.127 335.062L244.356 335.19C245.413 335.783 246.734 335.609 247.602 334.763C254.252 359.219 258.929 386.137 260.344 413.494L253.403 425.058L245.285 414.236C246.343 385.803 246.336 358.081 244.127 335.062Z" fill="url(#paint2_linear_2_86)"/>
</g>
<g id="RArm">
<g id="Example Book Back">
<g id="Group 3">
<path id="Rectangle_21" d="M262.687 396.214C262.833 394.822 264.109 393.831 265.494 394.034L283.152 396.617C284.46 396.808 285.384 397.997 285.246 399.312L282.18 428.483C282.033 429.875 280.758 430.866 279.373 430.663L261.715 428.08C260.407 427.889 259.483 426.699 259.621 425.384L262.687 396.214Z" fill="#6182EC"/>
<path id="Rectangle_22" fill-rule="evenodd" clip-rule="evenodd" d="M264.613 395.617C264.764 394.177 266.118 393.178 267.538 393.457L285.235 396.932L297.648 396.72C299.127 396.695 300.295 397.97 300.14 399.441L297.078 428.579C296.948 429.817 295.914 430.764 294.669 430.785L281.653 431.007L263.524 427.447C262.272 427.201 261.415 426.04 261.549 424.772L264.613 395.617Z" fill="#96EFFA"/>
<path id="Rectangle_23" d="M267.628 402.387C267.725 401.46 268.591 400.812 269.508 400.98L278.235 402.579C279.058 402.73 279.625 403.488 279.538 404.32L279.102 408.472C279.004 409.399 278.139 410.047 277.222 409.879L268.495 408.28C267.672 408.129 267.104 407.37 267.192 406.539L267.628 402.387Z" fill="#74CFDB"/>
<path id="Rectangle_24" d="M283.971 397.603C284.017 397.164 284.411 396.845 284.85 396.891L286.024 397.015C286.463 397.061 286.782 397.454 286.736 397.894L283.333 430.268C283.287 430.707 282.893 431.026 282.454 430.98L281.28 430.856C280.841 430.81 280.522 430.417 280.568 429.977L283.971 397.603Z" fill="#EAEFFF"/>
<path id="Rectangle_25" d="M284.893 397.701C284.939 397.261 285.333 396.943 285.772 396.989L286.946 397.112C287.385 397.158 287.704 397.552 287.658 397.991L284.255 430.365C284.209 430.805 283.815 431.124 283.376 431.077L282.202 430.954C281.763 430.908 281.444 430.514 281.49 430.075L284.893 397.701Z" fill="#7AD2DD"/>
</g>
</g>
<path id="Path_35" fill-rule="evenodd" clip-rule="evenodd" d="M245.297 409.401C245.297 409.401 251.312 408.197 253.774 406.272C256.234 404.347 263.689 402.986 263.689 402.986L261.305 407.989C261.305 407.989 279.576 406.281 280.008 408.076C280.442 409.871 275.157 411.823 275.157 411.823C275.157 411.823 272.551 416.672 270.028 419.483C267.641 422.142 255.781 421.826 251.624 420.166C248.031 418.732 244.125 419.449 244.125 419.449L245.297 409.401Z" fill="#F8CFCF"/>
<path id="Path_36" fill-rule="evenodd" clip-rule="evenodd" d="M196.921 339.492C203.455 325.429 225.826 334.904 220.188 349.97C214.726 364.565 201.495 398.641 201.495 398.641C201.495 398.641 243.424 403.944 246.693 406.416C251.054 409.715 248.358 419.128 244.652 420.804C241.516 422.222 218.222 423.051 195.432 421.261C184.157 420.376 175.819 415.551 174.656 403.018C173.841 394.242 190.627 353.04 196.921 339.492Z" fill="#877BFF"/>
<path id="Path_37" fill-rule="evenodd" clip-rule="evenodd" d="M201.511 398.634C201.511 398.634 198.026 405.232 199.022 405.367C200.018 405.502 205.081 399.116 205.081 399.116L201.511 398.634Z" fill="black" fill-opacity="0.159856"/>
<path id="Path 40" d="M243.741 405.699C245.033 409.812 244.125 414.635 242.331 418.043" stroke="#5386BF" stroke-linecap="round"/>
</g>
</g>
<g id="Example Paper">
<path id="Rectangle_26" fill-rule="evenodd" clip-rule="evenodd" d="M688.189 369.901L655.364 390.413C655.364 390.413 662.706 402.162 670.048 413.912C677.389 425.661 680.042 440.34 680.042 440.34L712.867 419.829C712.867 419.829 710.215 405.149 702.873 393.4C695.531 381.651 688.189 369.901 688.189 369.901Z" fill="#E8FFFF"/>
<path id="Path 4" d="M687.362 383.726L670.294 394.391" stroke="black" stroke-opacity="0.115767" stroke-width="0.8" stroke-linecap="round"/>
<path id="Path 4_2" d="M690.829 390.316L673.76 400.981" stroke="black" stroke-opacity="0.115767" stroke-width="0.8" stroke-linecap="round"/>
<path id="Path 4_3" d="M694.296 396.905L677.227 407.571" stroke="black" stroke-opacity="0.115767" stroke-width="0.8" stroke-linecap="round"/>
<path id="Path 4_4" d="M697.764 403.495L680.696 414.161" stroke="black" stroke-opacity="0.115767" stroke-width="0.8" stroke-linecap="round"/>
</g>
<g id="Wom4.6">
<g id="RLeg_2">
<path id="Path_38" fill-rule="evenodd" clip-rule="evenodd" d="M822.917 677.561C822.917 677.561 822.778 685.57 822.778 688.149C822.778 690.124 822.858 695.972 822.641 696.872C822.334 698.137 822.021 701.237 822.021 701.237L838.822 701.684C838.822 701.684 834.575 693.428 834.328 692.336C834.081 691.244 832.205 677.561 832.205 677.561H822.917Z" fill="#FFE2E2"/>
<path id="Path_39" fill-rule="evenodd" clip-rule="evenodd" d="M835.736 698.656C835.365 698.334 833.101 693.227 829.089 693.227C824.607 693.227 823.389 698.492 823.237 698.656C822.988 698.925 821.84 698.818 821.561 699.328C820.204 701.806 819.487 706.835 820.73 708.654C822.051 710.597 840.032 710.63 841.026 708.8C842.068 706.868 839.608 701.603 837.714 699.328C837.232 698.749 835.929 698.824 835.736 698.656Z" fill="#2E2E2E"/>
<path id="Path_40" fill-rule="evenodd" clip-rule="evenodd" d="M780.643 453.575L813.466 449.997L813.949 450.446C816.288 452.682 826.454 463.062 829.376 477.25C834.891 504.035 827.51 553.507 827.673 564.355C827.829 575.203 832.941 581.749 835.065 597.087C837.19 612.425 837.39 680.974 837.39 680.974C831.758 684.321 826.802 684.561 820.086 680.773L780.643 453.575Z" fill="#26553B"/>
<path id="Path_41" fill-rule="evenodd" clip-rule="evenodd" d="M809.962 622.46L780.643 453.575L798.892 451.586C799.706 510.256 811.055 589.562 809.962 622.46Z" fill="white" fill-opacity="0.192499"/>
</g>
<g id="LLeg_2">
<path id="Path_42" fill-rule="evenodd" clip-rule="evenodd" d="M787.364 676.941L775.423 677.117C775.423 677.117 776.132 688.348 771.983 692.152L756.356 700.6C755.133 701.628 754.424 704.814 756.929 705.269C764.685 706.676 786.899 703.337 786.899 703.337L787.364 676.941Z" fill="#FFE2E2"/>
<path id="Path_43" fill-rule="evenodd" clip-rule="evenodd" d="M787.013 693.015C786.211 693.058 785.193 697.603 780.642 699.934C775.424 702.606 767.837 701.589 764.539 701.968C762.149 702.242 760.965 697.516 760.965 697.516C760.965 697.516 748.844 703.77 747.768 706.74C746.514 710.189 754.633 710.447 760.436 710.195C766.247 709.943 771.229 707.332 774.049 707.396C776.876 707.462 777.544 709.221 779.659 709.705C781.804 710.198 787.169 710.124 787.666 708.582C788.186 706.982 788.727 692.922 787.013 693.015Z" fill="#2E2E2E"/>
<path id="Path_44" fill-rule="evenodd" clip-rule="evenodd" d="M764.359 455.896L801.217 454.644L801.492 455.155C803.281 458.556 813.081 478.471 810.055 501.108C805.807 532.882 792.707 570.13 792.179 575.821C791.236 585.966 793.121 593.312 793.894 603.79C794.667 614.269 789.795 680.172 789.795 680.172C784.326 683.471 777.818 684.118 769.543 680.271C769.543 680.271 763.225 590.755 763.17 576.589C763.115 562.422 764.359 455.896 764.359 455.896Z" fill="#31694A"/>
<path id="Path_45" fill-rule="evenodd" clip-rule="evenodd" d="M771.944 490.263L771.696 492.617C769.152 517.441 767.003 570.158 767.91 578.288L768.037 579.319C769.053 588.288 768.782 610.804 767.225 646.866L765.844 626.168C764.172 600.535 763.284 584.334 763.18 577.567L763.17 576.588C763.115 562.422 764.359 455.896 764.359 455.896L772.133 455.632C772.963 469.253 772.9 480.796 771.944 490.263Z" fill="white" fill-opacity="0.192499"/>
</g>
<g id="Head_2">
<path id="Path_46" fill-rule="evenodd" clip-rule="evenodd" d="M778.416 338.237C773.88 338.735 774.202 346.73 779.723 347.147C780.851 354.854 784.875 358.526 789.781 358.951L789.509 370.609L811.21 370.596C811.21 370.596 805.099 362.361 805.404 351.087C805.709 339.812 805.2 329.221 805.2 329.221L777.092 329.726L778.416 338.237Z" fill="url(#paint3_linear_2_86)"/>
</g>
<g id="RArm_2">
<path id="Path_47" fill-rule="evenodd" clip-rule="evenodd" d="M859.723 393.75C859.723 393.75 858.774 387.268 859.075 383.003C859.632 375.114 858.567 368.46 860.289 367.425C862.498 366.097 863.872 378.569 863.872 378.569C863.872 378.569 874.512 358.201 877.142 360.717C879.772 363.233 875.438 373.025 876.308 376.19C877.177 379.354 868.485 394.663 868.485 394.663L852.828 435.054L847.422 413.092L859.723 393.75Z" fill="#FFE2E2"/>
<path id="Path_48" fill-rule="evenodd" clip-rule="evenodd" d="M813.094 402.112C813.094 402.112 832.201 432.259 836.422 438.106C840.849 444.237 848.669 446.952 854.218 437.17C855.233 435.382 857.849 430.382 857.849 430.382C856.357 421.4 853.323 413.987 847.067 409.85L844.308 413.908C844.308 413.908 831.621 390.593 827.666 385.092C817.001 370.256 800.75 383.578 813.094 402.112Z" fill="#88CEA7"/>
</g>
<g id="Body_2">
<path id="Path_49" fill-rule="evenodd" clip-rule="evenodd" d="M772.722 372.866C767.88 379.998 759.811 404.203 759.353 409.648C758.838 415.929 765.553 425.935 765.664 435.028C765.762 444.122 760.655 473.813 762.189 476.371C763.153 477.99 786.82 486.113 806.168 484.01C822.873 482.194 829.532 471.342 828.704 469.391C826.445 464.065 815.961 448.519 817.029 441.262C818.085 434.006 824.216 407.22 827.261 398.104C830.293 388.987 829.282 379.416 823.622 375.493C820.822 373.552 813.349 368.038 800.042 368.063C786.735 368.088 773.097 372.313 772.722 372.866Z" fill="#6BCA95"/>
<path id="Path_50" fill-rule="evenodd" clip-rule="evenodd" d="M765.694 388.29L765.843 388.215C774.809 383.727 780.195 383.529 782 387.62C784.265 392.754 778.63 406.982 765.095 430.302C763.466 422.62 758.925 414.854 759.352 409.648C759.617 406.496 762.431 397.062 765.694 388.29Z" fill="black" fill-opacity="0.159856"/>
</g>
<g id="LArm_2">
<path id="Path_51" fill-rule="evenodd" clip-rule="evenodd" d="M694.486 430.719C694.486 430.719 681.087 431.503 678.777 429.599C676.467 427.696 667.265 418.218 668.27 415.991C669.275 413.765 679.974 418.474 680.689 417.058C681.609 415.239 676.861 408.75 681.022 408.372C682.093 408.274 682.85 412.269 685.867 414.899C688.883 417.531 695.013 422.213 695.013 422.213L741.234 414.899L745.549 429.733L694.486 430.719Z" fill="#FFE2E2"/>
<path id="Path_52" fill-rule="evenodd" clip-rule="evenodd" d="M768.497 376.061C757.914 386.101 742.928 409.809 739.735 411.897C739.032 412.357 732.976 414.782 732.976 414.782C730.428 421.581 734.736 429.284 740.998 432.583C740.998 432.583 747.866 431.582 749.482 431.113C757.73 428.718 772.169 406.881 778.169 399.911C794.666 380.747 779.081 366.021 768.497 376.061Z" fill="#88CEA7"/>
</g>
<path id="Path_53" fill-rule="evenodd" clip-rule="evenodd" d="M831.563 369.755C820.457 352.025 818.092 329.451 810.218 321.874C803.968 315.859 794.047 317.527 794.047 317.527C794.047 317.527 785.454 310.301 777.029 317.527C768.603 324.754 768.466 349.886 774.325 365.681C780.184 381.477 786.332 399.761 809.38 399.761C822.294 399.761 844.106 389.781 831.563 369.755Z" fill="#28211D"/>
</g>
<g id="Group 28">
<path id="Rectangle_27" fill-rule="evenodd" clip-rule="evenodd" d="M831.271 244.681C831.271 240.373 834.764 236.881 839.071 236.881H895.752C900.06 236.881 903.552 240.373 903.552 244.681V315.124C903.552 319.432 900.06 322.924 895.752 322.924H839.071C834.764 322.924 831.271 319.432 831.271 315.124V244.681Z" fill="#FF9F43"/>
<path id="Rectangle_28" fill-rule="evenodd" clip-rule="evenodd" d="M837.295 248.119C837.295 245.247 839.623 242.919 842.495 242.919H892.329C895.201 242.919 897.529 245.247 897.529 248.119V311.686C897.529 314.558 895.201 316.886 892.329 316.886H842.495C839.623 316.886 837.295 314.558 837.295 311.686V248.119Z" fill="white"/>
<g id="Group 29">
<ellipse id="Oval_8" cx="899.788" cy="313.112" rx="18.8231" ry="18.8692" fill="#28C76F"/>
<path id="Path_54" fill-rule="evenodd" clip-rule="evenodd" d="M904.877 307.129C905.403 306.23 906.557 305.929 907.453 306.456C908.29 306.948 908.607 307.988 908.218 308.856L908.124 309.038L901.813 319.82C901.678 320.051 901.516 320.265 901.331 320.458C900.094 321.744 898.089 321.841 896.738 320.723L896.54 320.546L891.695 315.865C890.947 315.142 890.925 313.948 891.646 313.197C892.32 312.497 893.402 312.431 894.152 313.014L894.308 313.148L898.807 317.496L904.877 307.129Z" fill="white"/>
</g>
<path id="Rectangle_29" opacity="0.33996" d="M846.33 260.824C846.33 260.106 846.912 259.524 847.63 259.524H887.194C887.912 259.524 888.494 260.106 888.494 260.824V261.243C888.494 261.961 887.912 262.543 887.194 262.543H847.63C846.912 262.543 846.33 261.961 846.33 261.243V260.824Z" fill="#467FFF"/>
<path id="Rectangle_30" opacity="0.33996" d="M846.33 272.901C846.33 272.183 846.912 271.601 847.63 271.601H887.194C887.912 271.601 888.494 272.183 888.494 272.901V273.32C888.494 274.038 887.912 274.62 887.194 274.62H847.63C846.912 274.62 846.33 274.038 846.33 273.32V272.901Z" fill="#467FFF"/>
<path id="Rectangle_31" opacity="0.33996" d="M846.33 284.977C846.33 284.259 846.912 283.677 847.63 283.677H887.194C887.912 283.677 888.494 284.259 888.494 284.977V285.396C888.494 286.114 887.912 286.696 887.194 286.696H847.63C846.912 286.696 846.33 286.114 846.33 285.396V284.977Z" fill="#467FFF"/>
<rect id="Rectangle_32" x="847.836" y="232.353" width="39.152" height="16.6049" rx="5.2" fill="#FF9F43"/>
</g>
<g id="Icon17">
<circle id="Oval_9" cx="530.748" cy="426.839" r="21.3046" fill="#FF9F43"/>
<path id="Path_55" d="M528.515 414.998C528.573 414.533 528.975 414.196 529.433 414.207L529.525 414.214L539.51 415.47C539.975 415.531 540.31 415.935 540.296 416.393L540.288 416.485L538.984 426.333C538.953 426.568 538.831 426.781 538.644 426.927C538.274 427.217 537.749 427.172 537.432 426.837L537.375 426.771L535.59 424.487L526.238 431.715C525.868 432.001 525.345 431.955 525.029 431.622L524.973 431.556L523.492 429.662L522.602 437.779L530.591 438.748L529.151 436.904C528.861 436.533 528.906 436.008 529.24 435.691L529.306 435.634L535.879 430.499C536.214 430.237 536.697 430.297 536.959 430.631C537.204 430.945 537.167 431.39 536.886 431.659L536.826 431.711L530.752 436.456L532.744 439.005C533.033 439.375 532.989 439.9 532.654 440.217L532.588 440.274C532.423 440.403 532.219 440.47 532.011 440.466L531.922 440.459L521.796 439.231C521.335 439.175 520.996 438.781 521 438.326L521.006 438.234L522.133 427.945C522.188 427.448 522.634 427.09 523.131 427.144C523.343 427.167 523.539 427.265 523.685 427.417L523.745 427.486L525.796 430.112L535.148 422.885C535.519 422.598 536.042 422.644 536.357 422.978L536.414 423.044L537.657 424.635L538.679 416.915L530.857 415.931L532.23 417.688C532.519 418.058 532.474 418.583 532.14 418.9L532.074 418.957L525.618 424.001C525.284 424.262 524.8 424.203 524.539 423.868C524.294 423.554 524.33 423.11 524.612 422.84L524.671 422.789L530.627 418.135L528.7 415.668C528.57 415.502 528.503 415.296 528.508 415.088L528.515 414.998Z" fill="white"/>
</g>
</g>
</g>
<defs>
<filter id="filter0_d_2_86" x="319.523" y="167.208" width="353.453" height="261.721" filterUnits="userSpaceOnUse" color-interpolation-filters="sRGB">
<feFlood flood-opacity="0" result="BackgroundImageFix"/>
<feColorMatrix in="SourceAlpha" type="matrix" values="0 0 0 0 0 0 0 0 0 0 0 0 0 0 0 0 0 0 127 0" result="hardAlpha"/>
<feOffset dx="6" dy="4"/>
<feGaussianBlur stdDeviation="15"/>
<feColorMatrix type="matrix" values="0 0 0 0 0.567617 0 0 0 0 0.427451 0 0 0 0 1 0 0 0 0.725907 0"/>
<feBlend mode="normal" in2="BackgroundImageFix" result="effect1_dropShadow_2_86"/>
<feBlend mode="normal" in="SourceGraphic" in2="effect1_dropShadow_2_86" result="shape"/>
</filter>
<filter id="filter1_d_2_86" x="699.586" y="174.297" width="180.305" height="217.074" filterUnits="userSpaceOnUse" color-interpolation-filters="sRGB">
<feFlood flood-opacity="0" result="BackgroundImageFix"/>
<feColorMatrix in="SourceAlpha" type="matrix" values="0 0 0 0 0 0 0 0 0 0 0 0 0 0 0 0 0 0 127 0" result="hardAlpha"/>
<feOffset dx="8" dy="9"/>
<feGaussianBlur stdDeviation="10.5"/>
<feColorMatrix type="matrix" values="0 0 0 0 0.276721 0 0 0 0 0.276721 0 0 0 0 0.276721 0 0 0 0.208725 0"/>
<feBlend mode="normal" in2="BackgroundImageFix" result="effect1_dropShadow_2_86"/>
<feBlend mode="normal" in="SourceGraphic" in2="effect1_dropShadow_2_86" result="shape"/>
</filter>
<filter id="filter2_dd_2_86" x="735.215" y="196.092" width="109.221" height="110.337" filterUnits="userSpaceOnUse" color-interpolation-filters="sRGB">
<feFlood flood-opacity="0" result="BackgroundImageFix"/>
<feColorMatrix in="SourceAlpha" type="matrix" values="0 0 0 0 0 0 0 0 0 0 0 0 0 0 0 0 0 0 127 0" result="hardAlpha"/>
<feOffset dx="8" dy="9"/>
<feGaussianBlur stdDeviation="14"/>
<feColorMatrix type="matrix" values="0 0 0 0 0.0755213 0 0 0 0 0.582569 0 0 0 0 0.878793 0 0 0 0.229458 0"/>
<feBlend mode="normal" in2="BackgroundImageFix" result="effect1_dropShadow_2_86"/>
<feColorMatrix in="SourceAlpha" type="matrix" values="0 0 0 0 0 0 0 0 0 0 0 0 0 0 0 0 0 0 127 0" result="hardAlpha"/>
<feOffset dy="2"/>
<feGaussianBlur stdDeviation="7.5"/>
<feColorMatrix type="matrix" values="0 0 0 0 0.503982 0 0 0 0 0.700178 0 0 0 0 1 0 0 0 0.233829 0"/>
<feBlend mode="normal" in2="effect1_dropShadow_2_86" result="effect2_dropShadow_2_86"/>
<feBlend mode="normal" in="SourceGraphic" in2="effect2_dropShadow_2_86" result="shape"/>
</filter>
<filter id="filter3_d_2_86" x="335.363" y="409.966" width="218.574" height="102.438" filterUnits="userSpaceOnUse" color-interpolation-filters="sRGB">
<feFlood flood-opacity="0" result="BackgroundImageFix"/>
<feColorMatrix in="SourceAlpha" type="matrix" values="0 0 0 0 0 0 0 0 0 0 0 0 0 0 0 0 0 0 127 0" result="hardAlpha"/>
<feOffset dx="6" dy="7"/>
<feGaussianBlur stdDeviation="8.5"/>
<feColorMatrix type="matrix" values="0 0 0 0 0.561707 0 0 0 0 0.561707 0 0 0 0 0.561707 0 0 0 0.208725 0"/>
<feBlend mode="normal" in2="BackgroundImageFix" result="effect1_dropShadow_2_86"/>
<feBlend mode="normal" in="SourceGraphic" in2="effect1_dropShadow_2_86" result="shape"/>
</filter>
<filter id="filter4_d_2_86" x="338.363" y="505.772" width="210.574" height="94.4375" filterUnits="userSpaceOnUse" color-interpolation-filters="sRGB">
<feFlood flood-opacity="0" result="BackgroundImageFix"/>
<feColorMatrix in="SourceAlpha" type="matrix" values="0 0 0 0 0 0 0 0 0 0 0 0 0 0 0 0 0 0 127 0" result="hardAlpha"/>
<feOffset dx="5" dy="5"/>
<feGaussianBlur stdDeviation="6.5"/>
<feColorMatrix type="matrix" values="0 0 0 0 0.649655 0 0 0 0 0.649655 0 0 0 0 0.649655 0 0 0 0.208725 0"/>
<feBlend mode="normal" in2="BackgroundImageFix" result="effect1_dropShadow_2_86"/>
<feBlend mode="normal" in="SourceGraphic" in2="effect1_dropShadow_2_86" result="shape"/>
</filter>
<linearGradient id="paint0_linear_2_86" x1="471.712" y1="534.097" x2="471.712" y2="556.338" gradientUnits="userSpaceOnUse">
<stop stop-color="#71FFB0"/>
<stop offset="1" stop-color="#91F688"/>
</linearGradient>
<linearGradient id="paint1_linear_2_86" x1="269.724" y1="272.589" x2="256.952" y2="273.764" gradientUnits="userSpaceOnUse">
<stop stop-color="#4D63A0"/>
<stop offset="1" stop-color="#222735"/>
</linearGradient>
<linearGradient id="paint2_linear_2_86" x1="255.466" y1="415.568" x2="277.123" y2="409.264" gradientUnits="userSpaceOnUse">
<stop stop-color="#2E4175"/>
<stop offset="1" stop-color="#222735"/>
</linearGradient>
<linearGradient id="paint3_linear_2_86" x1="765.443" y1="319.146" x2="769.103" y2="376.758" gradientUnits="userSpaceOnUse">
<stop stop-color="#FDC6C6"/>
<stop offset="1" stop-color="#A47070"/>
</linearGradient>
</defs>
</svg>
