<svg width="18" height="18" viewBox="0 0 18 18" fill="none" xmlns="http://www.w3.org/2000/svg">
<g clip-path="url(#clip0_307_148749)">
<path fill-rule="evenodd" clip-rule="evenodd" d="M17.25 2.1748C17.25 2.0998 17.25 2.0248 17.175 1.9498V1.8748C17.175 1.7998 17.1 1.7248 17.025 1.6498C16.9875 1.6123 16.95 1.59355 16.9125 1.5748C16.875 1.55605 16.8375 1.5373 16.8 1.4998H16.725C16.65 1.4998 16.575 1.4998 16.5 1.4248V1.4998C16.425 1.4998 16.35 1.4998 16.275 1.5748L1.275 6.8248C0.975 6.8998 0.75 7.1248 0.75 7.4998C0.75 7.79981 0.9 8.0998 1.2 8.2498L7.65 11.0998L10.5 17.5498C10.65 17.8498 10.875 17.9998 11.175 17.9998C11.475 17.9998 11.775 17.7748 11.85 17.4748L17.1 2.4748C17.25 2.3998 17.25 2.3248 17.25 2.1748ZM13.65 4.0498L8.1 9.5998L3.525 7.5748L13.65 4.0498ZM9.15 10.6498L11.175 15.2248L14.7 5.0998L9.15 10.6498Z" fill="#5E5873"/>
<mask id="mask0_307_148749" style="mask-type:luminance" maskUnits="userSpaceOnUse" x="0" y="1" width="18" height="17">
<path fill-rule="evenodd" clip-rule="evenodd" d="M17.25 2.1748C17.25 2.0998 17.25 2.0248 17.175 1.9498V1.8748C17.175 1.7998 17.1 1.7248 17.025 1.6498C16.9875 1.6123 16.95 1.59355 16.9125 1.5748C16.875 1.55605 16.8375 1.5373 16.8 1.4998H16.725C16.65 1.4998 16.575 1.4998 16.5 1.4248V1.4998C16.425 1.4998 16.35 1.4998 16.275 1.5748L1.275 6.8248C0.975 6.8998 0.75 7.1248 0.75 7.4998C0.75 7.79981 0.9 8.0998 1.2 8.2498L7.65 11.0998L10.5 17.5498C10.65 17.8498 10.875 17.9998 11.175 17.9998C11.475 17.9998 11.775 17.7748 11.85 17.4748L17.1 2.4748C17.25 2.3998 17.25 2.3248 17.25 2.1748ZM13.65 4.0498L8.1 9.5998L3.525 7.5748L13.65 4.0498ZM9.15 10.6498L11.175 15.2248L14.7 5.0998L9.15 10.6498Z" fill="white"/>
</mask>
<g mask="url(#mask0_307_148749)">
<rect width="18" height="18" fill="#5E5873"/>
</g>
</g>
<defs>
<clipPath id="clip0_307_148749">
<rect width="18" height="18" fill="white"/>
</clipPath>
</defs>
</svg>
