<svg width="561" height="318" viewBox="0 0 561 318" fill="none" xmlns="http://www.w3.org/2000/svg">
<rect x="0.5" y="0.5" width="560" height="317" rx="11.5" fill="white"/>
<path d="M160 29C177.203 29 194.238 32.3884 210.132 38.9718C226.025 45.5552 240.467 55.2045 252.631 67.369C264.795 79.5335 274.445 93.9748 281.028 109.868C287.612 125.762 291 142.797 291 160C291 177.203 287.612 194.238 281.028 210.132C274.445 226.025 264.795 240.467 252.631 252.631C240.466 264.795 226.025 274.445 210.131 281.028C194.238 287.612 177.203 291 160 291C142.797 291 125.762 287.612 109.868 281.028C93.9748 274.445 79.5334 264.795 67.369 252.631C55.2045 240.466 45.5551 226.025 38.9718 210.131C32.3884 194.238 29 177.203 29 160C29 142.797 32.3884 125.762 38.9718 109.868C45.5552 93.9748 55.2046 79.5334 67.3691 67.369C79.5335 55.2045 93.9749 45.5551 109.869 38.9718C125.762 32.3884 142.797 29 160 29L160 29Z" stroke="#F2F4F7" stroke-width="18" stroke-linecap="round" stroke-linejoin="round"/>
<path d="M160 29C189.984 29 219.06 39.2857 242.374 58.1398C265.688 76.9939 281.829 103.275 288.101 132.595C294.374 161.916 290.398 192.5 276.839 219.243C263.279 245.985 240.956 267.267 213.596 279.534C186.237 291.802 155.497 294.312 126.51 286.647C97.5227 278.982 72.0421 261.604 54.3227 237.417C36.6034 213.229 27.7177 183.694 29.1494 153.745C30.5811 123.795 42.2434 95.2434 62.1892 72.8561" stroke="#53389E" stroke-width="18" stroke-linecap="round" stroke-linejoin="round"/>
<path d="M160 53C174.051 53 187.965 55.7676 200.947 61.1449C213.929 66.5221 225.725 74.4037 235.66 84.3396C245.596 94.2755 253.478 106.071 258.855 119.053C264.232 132.035 267 145.949 267 160C267 174.051 264.232 187.965 258.855 200.947C253.478 213.929 245.596 225.725 235.66 235.66C225.725 245.596 213.929 253.478 200.947 258.855C187.965 264.232 174.051 267 160 267C145.949 267 132.035 264.232 119.053 258.855C106.071 253.478 94.2754 245.596 84.3395 235.66C74.4037 225.725 66.5221 213.929 61.1449 200.947C55.7676 187.965 53 174.051 53 160C53 145.949 55.7677 132.035 61.1449 119.053C66.5222 106.071 74.4037 94.2754 84.3396 84.3395C94.2755 74.4037 106.071 66.5221 119.053 61.1449C132.035 55.7676 145.949 53 160 53L160 53Z" stroke="#F2F4F7" stroke-width="18" stroke-linecap="round" stroke-linejoin="round"/>
<path d="M160 53C181.855 53 203.187 59.6926 221.125 72.1776C239.063 84.6626 252.748 102.341 260.339 122.836C267.93 143.331 269.063 165.658 263.585 186.816C258.108 207.974 246.283 226.947 229.701 241.184C213.118 255.421 192.574 264.238 170.831 266.45C149.088 268.663 127.189 264.164 108.079 253.559C88.9693 242.954 73.5652 226.751 63.9387 207.13C54.3122 187.509 50.9249 165.411 54.2324 143.807" stroke="#7F56D9" stroke-width="18" stroke-linecap="round" stroke-linejoin="round"/>
<path d="M160 77C170.9 77 181.693 79.1469 191.763 83.318C201.833 87.4891 210.983 93.6029 218.69 101.31C226.397 109.017 232.511 118.167 236.682 128.237C240.853 138.307 243 149.1 243 160C243 170.9 240.853 181.693 236.682 191.763C232.511 201.833 226.397 210.983 218.69 218.69C210.983 226.397 201.833 232.511 191.763 236.682C181.693 240.853 170.9 243 160 243C149.1 243 138.307 240.853 128.237 236.682C118.167 232.511 109.017 226.397 101.31 218.69C93.6029 210.983 87.4891 201.833 83.318 191.763C79.1468 181.693 77 170.9 77 160C77 149.1 79.1469 138.307 83.318 128.237C87.4892 118.167 93.6029 109.017 101.31 101.31C109.017 93.6028 118.167 87.4891 128.237 83.318C138.307 79.1468 149.1 77 160 77L160 77Z" stroke="#F2F4F7" stroke-width="18" stroke-linecap="round" stroke-linejoin="round"/>
<path d="M160 77C174.44 77 188.63 80.7671 201.168 87.9291C213.706 95.0912 224.159 105.4 231.494 117.838C238.829 130.276 242.792 144.413 242.992 158.851C243.192 173.289 239.622 187.53 232.634 200.166C225.646 212.802 215.483 223.397 203.147 230.904C190.812 238.41 176.732 242.568 162.298 242.968C147.864 243.368 133.575 239.995 120.843 233.183C108.111 226.371 97.3771 216.355 89.7006 204.125" stroke="#B692F6" stroke-width="18" stroke-linecap="round" stroke-linejoin="round"/>
<path d="M114.992 171.111V150H116.345V171.111H114.992ZM118.893 156.754C118.816 156.034 118.492 155.473 117.92 155.072C117.354 154.67 116.617 154.47 115.71 154.47C115.072 154.47 114.525 154.566 114.069 154.758C113.613 154.951 113.263 155.212 113.022 155.542C112.78 155.872 112.656 156.248 112.65 156.671C112.65 157.023 112.73 157.328 112.89 157.587C113.055 157.845 113.277 158.065 113.558 158.247C113.838 158.422 114.149 158.571 114.489 158.692C114.83 158.813 115.174 158.914 115.52 158.997L117.104 159.393C117.741 159.541 118.354 159.742 118.943 159.995C119.536 160.248 120.067 160.567 120.534 160.951C121.007 161.336 121.381 161.801 121.656 162.345C121.931 162.889 122.068 163.527 122.068 164.258C122.068 165.248 121.815 166.119 121.309 166.872C120.804 167.62 120.072 168.206 119.116 168.629C118.165 169.047 117.013 169.256 115.66 169.256C114.346 169.256 113.206 169.052 112.238 168.645C111.276 168.239 110.523 167.645 109.979 166.864C109.44 166.083 109.148 165.132 109.104 164.011H112.114C112.158 164.599 112.34 165.088 112.659 165.479C112.978 165.869 113.393 166.16 113.904 166.353C114.421 166.545 114.998 166.641 115.636 166.641C116.301 166.641 116.884 166.543 117.384 166.345C117.89 166.141 118.286 165.861 118.571 165.503C118.857 165.141 119.003 164.717 119.009 164.234C119.003 163.794 118.874 163.431 118.621 163.145C118.368 162.854 118.013 162.612 117.557 162.419C117.106 162.221 116.579 162.045 115.974 161.891L114.052 161.397C112.661 161.039 111.562 160.498 110.754 159.772C109.951 159.041 109.55 158.071 109.55 156.861C109.55 155.866 109.819 154.995 110.358 154.247C110.902 153.499 111.642 152.919 112.576 152.507C113.511 152.089 114.569 151.88 115.751 151.88C116.95 151.88 118 152.089 118.901 152.507C119.808 152.919 120.52 153.494 121.037 154.23C121.554 154.962 121.821 155.803 121.837 156.754H118.893ZM123.861 165.866V163.434L131.027 152.111H133.056V155.575H131.819L126.995 163.219V163.351H136.998V165.866H123.861ZM131.918 169V165.124L131.951 164.036V152.111H134.837V169H131.918ZM145.229 169.231C144.042 169.231 142.986 169.027 142.063 168.621C141.144 168.214 140.419 167.648 139.886 166.922C139.352 166.196 139.069 165.358 139.036 164.407H142.137C142.164 164.863 142.316 165.262 142.59 165.602C142.865 165.938 143.231 166.199 143.687 166.386C144.143 166.573 144.655 166.666 145.221 166.666C145.826 166.666 146.362 166.562 146.829 166.353C147.296 166.138 147.662 165.842 147.926 165.462C148.19 165.083 148.319 164.646 148.313 164.151C148.319 163.64 148.187 163.189 147.918 162.799C147.648 162.408 147.258 162.103 146.747 161.883C146.241 161.663 145.631 161.553 144.916 161.553H143.423V159.195H144.916C145.504 159.195 146.018 159.093 146.458 158.89C146.903 158.686 147.252 158.4 147.505 158.032C147.758 157.658 147.882 157.227 147.876 156.737C147.882 156.259 147.775 155.844 147.555 155.492C147.34 155.135 147.035 154.857 146.639 154.659C146.249 154.461 145.79 154.362 145.262 154.362C144.745 154.362 144.267 154.456 143.827 154.643C143.388 154.83 143.033 155.096 142.764 155.443C142.494 155.784 142.351 156.19 142.335 156.663H139.391C139.413 155.718 139.685 154.887 140.207 154.173C140.735 153.453 141.439 152.892 142.318 152.49C143.198 152.084 144.185 151.88 145.279 151.88C146.406 151.88 147.384 152.092 148.215 152.515C149.05 152.933 149.696 153.497 150.152 154.206C150.609 154.915 150.837 155.698 150.837 156.556C150.842 157.507 150.562 158.304 149.996 158.947C149.435 159.591 148.698 160.011 147.786 160.209V160.341C148.973 160.506 149.883 160.946 150.515 161.661C151.153 162.37 151.469 163.252 151.464 164.308C151.464 165.253 151.194 166.1 150.655 166.848C150.122 167.59 149.386 168.173 148.445 168.596C147.511 169.019 146.439 169.231 145.229 169.231ZM160.699 152.111V169H157.64V155.088H157.541L153.591 157.612V154.808L157.788 152.111H160.699ZM167.131 166.691L167.024 167.598C166.947 168.291 166.809 168.995 166.611 169.709C166.419 170.429 166.216 171.092 166.001 171.697C165.787 172.301 165.614 172.777 165.482 173.123H163.469C163.546 172.788 163.651 172.332 163.783 171.754C163.92 171.177 164.052 170.528 164.179 169.808C164.305 169.088 164.39 168.357 164.434 167.615L164.492 166.691H167.131ZM175.346 169.231C174.12 169.231 173.031 169.025 172.08 168.612C171.135 168.2 170.393 167.637 169.854 166.922C169.32 166.202 169.057 165.385 169.062 164.473C169.057 163.763 169.211 163.112 169.524 162.518C169.837 161.924 170.261 161.43 170.794 161.034C171.333 160.633 171.932 160.377 172.592 160.267V160.151C171.723 159.959 171.019 159.516 170.48 158.824C169.947 158.126 169.683 157.32 169.689 156.408C169.683 155.539 169.925 154.764 170.414 154.082C170.904 153.4 171.575 152.864 172.427 152.474C173.279 152.078 174.252 151.88 175.346 151.88C176.429 151.88 177.394 152.078 178.24 152.474C179.093 152.864 179.763 153.4 180.253 154.082C180.747 154.764 180.995 155.539 180.995 156.408C180.995 157.32 180.723 158.126 180.178 158.824C179.64 159.516 178.944 159.959 178.092 160.151V160.267C178.752 160.377 179.345 160.633 179.873 161.034C180.407 161.43 180.83 161.924 181.143 162.518C181.462 163.112 181.622 163.763 181.622 164.473C181.622 165.385 181.352 166.202 180.813 166.922C180.275 167.637 179.532 168.2 178.587 168.612C177.647 169.025 176.566 169.231 175.346 169.231ZM175.346 166.872C175.978 166.872 176.528 166.765 176.995 166.551C177.463 166.331 177.825 166.023 178.084 165.627C178.342 165.231 178.474 164.775 178.48 164.258C178.474 163.719 178.334 163.244 178.059 162.832C177.79 162.414 177.419 162.087 176.946 161.85C176.478 161.614 175.945 161.496 175.346 161.496C174.741 161.496 174.202 161.614 173.73 161.85C173.257 162.087 172.883 162.414 172.608 162.832C172.339 163.244 172.207 163.719 172.212 164.258C172.207 164.775 172.333 165.231 172.592 165.627C172.85 166.018 173.213 166.323 173.68 166.543C174.153 166.762 174.708 166.872 175.346 166.872ZM175.346 159.178C175.863 159.178 176.319 159.074 176.715 158.865C177.116 158.656 177.432 158.365 177.663 157.991C177.894 157.617 178.012 157.185 178.018 156.696C178.012 156.212 177.897 155.789 177.671 155.426C177.446 155.058 177.133 154.775 176.731 154.577C176.33 154.373 175.868 154.272 175.346 154.272C174.813 154.272 174.343 154.373 173.936 154.577C173.534 154.775 173.221 155.058 172.996 155.426C172.776 155.789 172.669 156.212 172.674 156.696C172.669 157.185 172.779 157.617 173.004 157.991C173.235 158.359 173.551 158.651 173.952 158.865C174.359 159.074 174.824 159.178 175.346 159.178ZM189.872 169.231C188.646 169.231 187.557 169.025 186.606 168.612C185.66 168.2 184.918 167.637 184.379 166.922C183.846 166.202 183.582 165.385 183.588 164.473C183.582 163.763 183.736 163.112 184.05 162.518C184.363 161.924 184.786 161.43 185.32 161.034C185.858 160.633 186.458 160.377 187.117 160.267V160.151C186.249 159.959 185.545 159.516 185.006 158.824C184.473 158.126 184.209 157.32 184.214 156.408C184.209 155.539 184.451 154.764 184.94 154.082C185.429 153.4 186.1 152.864 186.952 152.474C187.804 152.078 188.778 151.88 189.872 151.88C190.955 151.88 191.919 152.078 192.766 152.474C193.618 152.864 194.289 153.4 194.778 154.082C195.273 154.764 195.52 155.539 195.52 156.408C195.52 157.32 195.248 158.126 194.704 158.824C194.165 159.516 193.47 159.959 192.618 160.151V160.267C193.277 160.377 193.871 160.633 194.399 161.034C194.932 161.43 195.356 161.924 195.669 162.518C195.988 163.112 196.147 163.763 196.147 164.473C196.147 165.385 195.878 166.202 195.339 166.922C194.8 167.637 194.058 168.2 193.112 168.612C192.172 169.025 191.092 169.231 189.872 169.231ZM189.872 166.872C190.504 166.872 191.054 166.765 191.521 166.551C191.988 166.331 192.351 166.023 192.609 165.627C192.868 165.231 193 164.775 193.005 164.258C193 163.719 192.86 163.244 192.585 162.832C192.315 162.414 191.944 162.087 191.471 161.85C191.004 161.614 190.471 161.496 189.872 161.496C189.267 161.496 188.728 161.614 188.255 161.85C187.782 162.087 187.409 162.414 187.134 162.832C186.864 163.244 186.732 163.719 186.738 164.258C186.732 164.775 186.859 165.231 187.117 165.627C187.376 166.018 187.739 166.323 188.206 166.543C188.679 166.762 189.234 166.872 189.872 166.872ZM189.872 159.178C190.388 159.178 190.845 159.074 191.241 158.865C191.642 158.656 191.958 158.365 192.189 157.991C192.42 157.617 192.538 157.185 192.543 156.696C192.538 156.212 192.423 155.789 192.197 155.426C191.972 155.058 191.658 154.775 191.257 154.577C190.856 154.373 190.394 154.272 189.872 154.272C189.338 154.272 188.868 154.373 188.461 154.577C188.06 154.775 187.747 155.058 187.521 155.426C187.301 155.789 187.194 156.212 187.2 156.696C187.194 157.185 187.304 157.617 187.53 157.991C187.76 158.359 188.077 158.651 188.478 158.865C188.885 159.074 189.349 159.178 189.872 159.178ZM204.257 151.88C205.065 151.886 205.851 152.029 206.616 152.309C207.385 152.584 208.078 153.035 208.694 153.661C209.309 154.283 209.799 155.116 210.162 156.16C210.524 157.205 210.706 158.497 210.706 160.036C210.711 161.487 210.557 162.785 210.244 163.928C209.936 165.066 209.494 166.029 208.916 166.815C208.339 167.601 207.644 168.2 206.83 168.612C206.016 169.025 205.101 169.231 204.084 169.231C203.017 169.231 202.072 169.022 201.247 168.604C200.428 168.186 199.765 167.615 199.26 166.889C198.754 166.163 198.443 165.333 198.328 164.398H201.338C201.492 165.069 201.805 165.602 202.278 165.998C202.756 166.389 203.358 166.584 204.084 166.584C205.255 166.584 206.157 166.075 206.789 165.058C207.421 164.041 207.737 162.628 207.737 160.819H207.622C207.352 161.303 207.003 161.721 206.574 162.073C206.146 162.419 205.659 162.686 205.115 162.873C204.576 163.06 204.004 163.153 203.399 163.153C202.41 163.153 201.519 162.917 200.728 162.444C199.941 161.971 199.317 161.322 198.856 160.498C198.399 159.673 198.168 158.73 198.163 157.669C198.163 156.57 198.416 155.583 198.922 154.709C199.433 153.829 200.145 153.136 201.057 152.631C201.97 152.119 203.037 151.869 204.257 151.88ZM204.265 154.354C203.672 154.354 203.136 154.5 202.657 154.791C202.184 155.077 201.811 155.467 201.536 155.962C201.266 156.452 201.132 156.999 201.132 157.603C201.137 158.203 201.272 158.747 201.536 159.236C201.805 159.725 202.171 160.113 202.633 160.399C203.1 160.685 203.633 160.828 204.232 160.828C204.678 160.828 205.093 160.742 205.478 160.572C205.862 160.402 206.198 160.165 206.484 159.863C206.775 159.555 207 159.206 207.16 158.816C207.325 158.425 207.405 158.013 207.399 157.579C207.399 157.001 207.262 156.468 206.987 155.979C206.717 155.489 206.346 155.096 205.873 154.799C205.406 154.503 204.87 154.354 204.265 154.354Z" fill="#101828"/>
<circle cx="384" cy="136" r="4" fill="#7F56D9"/>
<path d="M397.233 141V130.818H400.673C401.472 130.818 402.125 130.962 402.632 131.251C403.143 131.536 403.52 131.922 403.766 132.409C404.011 132.896 404.134 133.44 404.134 134.04C404.134 134.64 404.011 135.185 403.766 135.675C403.524 136.166 403.149 136.557 402.642 136.849C402.135 137.137 401.485 137.281 400.693 137.281H398.227V136.188H400.653C401.2 136.188 401.639 136.093 401.971 135.904C402.302 135.715 402.543 135.46 402.692 135.138C402.844 134.814 402.92 134.447 402.92 134.04C402.92 133.632 402.844 133.268 402.692 132.946C402.543 132.625 402.301 132.373 401.966 132.19C401.631 132.005 401.187 131.912 400.634 131.912H398.466V141H397.233ZM408.208 141.179C407.724 141.179 407.285 141.088 406.89 140.906C406.496 140.72 406.183 140.453 405.951 140.105C405.719 139.754 405.603 139.33 405.603 138.832C405.603 138.395 405.689 138.04 405.861 137.768C406.033 137.493 406.264 137.278 406.552 137.122C406.841 136.966 407.159 136.85 407.507 136.774C407.858 136.695 408.211 136.632 408.566 136.585C409.03 136.526 409.406 136.481 409.694 136.451C409.986 136.418 410.198 136.363 410.331 136.287C410.467 136.211 410.534 136.078 410.534 135.889V135.849C410.534 135.359 410.4 134.978 410.132 134.706C409.867 134.434 409.464 134.298 408.924 134.298C408.364 134.298 407.924 134.421 407.606 134.666C407.288 134.911 407.064 135.173 406.935 135.452L405.821 135.054C406.02 134.59 406.285 134.229 406.617 133.97C406.952 133.708 407.316 133.526 407.711 133.423C408.108 133.317 408.499 133.264 408.884 133.264C409.129 133.264 409.411 133.294 409.729 133.354C410.051 133.41 410.36 133.528 410.659 133.707C410.96 133.886 411.211 134.156 411.409 134.517C411.608 134.878 411.708 135.362 411.708 135.969V141H410.534V139.966H410.475C410.395 140.132 410.263 140.309 410.077 140.498C409.891 140.687 409.645 140.848 409.336 140.98C409.028 141.113 408.652 141.179 408.208 141.179ZM408.387 140.125C408.851 140.125 409.242 140.034 409.56 139.852C409.882 139.669 410.123 139.434 410.286 139.146C410.452 138.857 410.534 138.554 410.534 138.236V137.162C410.485 137.222 410.375 137.276 410.206 137.326C410.041 137.372 409.848 137.414 409.63 137.45C409.414 137.483 409.204 137.513 408.998 137.54C408.796 137.563 408.632 137.583 408.506 137.599C408.201 137.639 407.916 137.704 407.651 137.793C407.389 137.879 407.177 138.01 407.015 138.186C406.855 138.358 406.776 138.594 406.776 138.892C406.776 139.3 406.927 139.608 407.228 139.817C407.533 140.022 407.919 140.125 408.387 140.125ZM414.331 143.864C414.133 143.864 413.955 143.847 413.8 143.814C413.644 143.784 413.536 143.754 413.476 143.724L413.775 142.69C414.06 142.763 414.312 142.79 414.53 142.77C414.749 142.75 414.943 142.652 415.112 142.477C415.284 142.304 415.442 142.024 415.584 141.636L415.803 141.04L412.979 133.364H414.252L416.36 139.449H416.439L418.547 133.364H419.82L416.579 142.114C416.433 142.508 416.252 142.835 416.037 143.093C415.821 143.355 415.571 143.549 415.286 143.675C415.004 143.801 414.686 143.864 414.331 143.864ZM424.198 141.159C423.508 141.159 422.903 140.995 422.383 140.667C421.866 140.339 421.462 139.88 421.17 139.29C420.882 138.7 420.737 138.01 420.737 137.222C420.737 136.426 420.882 135.732 421.17 135.138C421.462 134.545 421.866 134.085 422.383 133.756C422.903 133.428 423.508 133.264 424.198 133.264C424.887 133.264 425.49 133.428 426.007 133.756C426.528 134.085 426.932 134.545 427.22 135.138C427.512 135.732 427.658 136.426 427.658 137.222C427.658 138.01 427.512 138.7 427.22 139.29C426.932 139.88 426.528 140.339 426.007 140.667C425.49 140.995 424.887 141.159 424.198 141.159ZM424.198 140.105C424.721 140.105 425.152 139.971 425.49 139.702C425.828 139.434 426.079 139.081 426.241 138.643C426.403 138.206 426.485 137.732 426.485 137.222C426.485 136.711 426.403 136.236 426.241 135.795C426.079 135.354 425.828 134.998 425.49 134.726C425.152 134.454 424.721 134.318 424.198 134.318C423.674 134.318 423.243 134.454 422.905 134.726C422.567 134.998 422.317 135.354 422.154 135.795C421.992 136.236 421.911 136.711 421.911 137.222C421.911 137.732 421.992 138.206 422.154 138.643C422.317 139.081 422.567 139.434 422.905 139.702C423.243 139.971 423.674 140.105 424.198 140.105ZM434.261 137.878V133.364H435.435V141H434.261V139.707H434.182C434.003 140.095 433.724 140.425 433.347 140.697C432.969 140.965 432.491 141.099 431.915 141.099C431.438 141.099 431.013 140.995 430.642 140.786C430.271 140.574 429.979 140.256 429.767 139.832C429.555 139.404 429.449 138.866 429.449 138.216V133.364H430.622V138.136C430.622 138.693 430.778 139.137 431.089 139.469C431.404 139.8 431.805 139.966 432.293 139.966C432.584 139.966 432.881 139.891 433.183 139.742C433.487 139.593 433.743 139.364 433.948 139.056C434.157 138.748 434.261 138.355 434.261 137.878ZM440.905 133.364V134.358H436.947V133.364H440.905ZM438.101 131.534H439.274V138.812C439.274 139.144 439.322 139.393 439.418 139.558C439.518 139.721 439.644 139.83 439.796 139.886C439.952 139.939 440.116 139.966 440.288 139.966C440.417 139.966 440.523 139.959 440.606 139.946C440.689 139.929 440.756 139.916 440.805 139.906L441.044 140.96C440.964 140.99 440.853 141.02 440.711 141.05C440.568 141.083 440.388 141.099 440.169 141.099C439.837 141.099 439.513 141.028 439.194 140.886C438.88 140.743 438.618 140.526 438.409 140.234C438.203 139.943 438.101 139.575 438.101 139.131V131.534ZM443.525 141.08C443.279 141.08 443.069 140.992 442.893 140.816C442.718 140.64 442.63 140.43 442.63 140.185C442.63 139.939 442.718 139.729 442.893 139.553C443.069 139.378 443.279 139.29 443.525 139.29C443.77 139.29 443.98 139.378 444.156 139.553C444.332 139.729 444.42 139.939 444.42 140.185C444.42 140.347 444.378 140.496 444.295 140.632C444.216 140.768 444.108 140.877 443.972 140.96C443.84 141.04 443.69 141.08 443.525 141.08ZM443.525 135.412C443.279 135.412 443.069 135.324 442.893 135.148C442.718 134.973 442.63 134.762 442.63 134.517C442.63 134.272 442.718 134.061 442.893 133.886C443.069 133.71 443.279 133.622 443.525 133.622C443.77 133.622 443.98 133.71 444.156 133.886C444.332 134.061 444.42 134.272 444.42 134.517C444.42 134.679 444.378 134.829 444.295 134.964C444.216 135.1 444.108 135.21 443.972 135.293C443.84 135.372 443.69 135.412 443.525 135.412ZM453.445 142.273V129.545H454.261V142.273H453.445ZM456.19 133.364C456.13 132.86 455.888 132.469 455.464 132.19C455.04 131.912 454.519 131.773 453.903 131.773C453.452 131.773 453.058 131.846 452.72 131.991C452.385 132.137 452.123 132.338 451.934 132.593C451.749 132.848 451.656 133.138 451.656 133.463C451.656 133.735 451.72 133.969 451.85 134.164C451.982 134.356 452.151 134.517 452.357 134.646C452.562 134.772 452.778 134.877 453.003 134.96C453.228 135.039 453.436 135.104 453.624 135.153L454.659 135.432C454.924 135.501 455.219 135.598 455.544 135.72C455.872 135.843 456.185 136.01 456.483 136.222C456.785 136.431 457.033 136.7 457.229 137.028C457.424 137.356 457.522 137.759 457.522 138.236C457.522 138.786 457.378 139.283 457.09 139.727C456.805 140.171 456.387 140.524 455.837 140.786C455.29 141.048 454.625 141.179 453.843 141.179C453.114 141.179 452.483 141.061 451.949 140.826C451.419 140.591 451.001 140.263 450.696 139.842C450.395 139.421 450.224 138.932 450.184 138.375H451.457C451.49 138.759 451.619 139.078 451.845 139.33C452.073 139.578 452.362 139.764 452.71 139.886C453.061 140.006 453.439 140.065 453.843 140.065C454.314 140.065 454.736 139.989 455.111 139.837C455.485 139.681 455.782 139.465 456.001 139.19C456.22 138.912 456.329 138.587 456.329 138.216C456.329 137.878 456.235 137.603 456.046 137.391C455.857 137.179 455.608 137.006 455.3 136.874C454.992 136.741 454.659 136.625 454.301 136.526L453.048 136.168C452.252 135.939 451.623 135.612 451.159 135.188C450.695 134.764 450.463 134.209 450.463 133.523C450.463 132.953 450.617 132.455 450.925 132.031C451.236 131.604 451.654 131.272 452.178 131.037C452.705 130.798 453.293 130.679 453.943 130.679C454.599 130.679 455.182 130.797 455.693 131.032C456.203 131.264 456.607 131.582 456.906 131.987C457.207 132.391 457.366 132.85 457.383 133.364H456.19ZM459.689 141L464.243 131.991V131.912H458.993V130.818H465.515V131.972L460.981 141H459.689ZM467.368 141V140.105L470.729 136.426C471.124 135.995 471.448 135.621 471.704 135.303C471.959 134.981 472.148 134.679 472.27 134.398C472.396 134.113 472.459 133.814 472.459 133.503C472.459 133.145 472.373 132.835 472.201 132.573C472.032 132.311 471.8 132.109 471.505 131.967C471.21 131.824 470.878 131.753 470.51 131.753C470.119 131.753 469.778 131.834 469.486 131.996C469.198 132.156 468.974 132.379 468.815 132.668C468.659 132.956 468.581 133.294 468.581 133.682H467.408C467.408 133.085 467.546 132.562 467.821 132.111C468.096 131.66 468.47 131.309 468.944 131.057C469.422 130.805 469.957 130.679 470.55 130.679C471.147 130.679 471.675 130.805 472.136 131.057C472.597 131.309 472.958 131.648 473.22 132.076C473.482 132.504 473.613 132.979 473.613 133.503C473.613 133.877 473.545 134.244 473.409 134.602C473.276 134.956 473.044 135.352 472.713 135.79C472.385 136.224 471.929 136.754 471.346 137.381L469.059 139.827V139.906H473.792V141H467.368ZM479.425 130.818V141H478.192V132.111H478.132L475.646 133.761V132.509L478.192 130.818H479.425ZM483.521 139.608L483.442 140.145C483.385 140.523 483.299 140.927 483.183 141.358C483.07 141.789 482.953 142.195 482.83 142.576C482.707 142.957 482.606 143.26 482.527 143.486H481.632C481.675 143.274 481.731 142.994 481.801 142.646C481.871 142.298 481.94 141.908 482.01 141.477C482.083 141.05 482.142 140.612 482.189 140.165L482.248 139.608H483.521ZM488.7 141.139C488.283 141.133 487.865 141.053 487.447 140.901C487.03 140.748 486.649 140.491 486.304 140.13C485.959 139.765 485.683 139.273 485.474 138.653C485.265 138.03 485.161 137.248 485.161 136.307C485.161 135.405 485.245 134.607 485.414 133.911C485.583 133.211 485.828 132.623 486.15 132.146C486.471 131.665 486.859 131.3 487.313 131.052C487.771 130.803 488.286 130.679 488.859 130.679C489.429 130.679 489.937 130.793 490.381 131.022C490.828 131.247 491.193 131.562 491.474 131.967C491.756 132.371 491.938 132.837 492.021 133.364H490.808C490.696 132.906 490.477 132.527 490.152 132.225C489.827 131.924 489.396 131.773 488.859 131.773C488.071 131.773 487.449 132.116 486.995 132.802C486.544 133.488 486.317 134.451 486.314 135.69H486.393C486.579 135.409 486.799 135.168 487.055 134.969C487.313 134.767 487.598 134.612 487.91 134.502C488.221 134.393 488.551 134.338 488.899 134.338C489.482 134.338 490.016 134.484 490.5 134.776C490.984 135.064 491.372 135.463 491.663 135.974C491.955 136.481 492.101 137.062 492.101 137.719C492.101 138.348 491.96 138.925 491.678 139.449C491.397 139.969 491 140.384 490.49 140.692C489.983 140.997 489.386 141.146 488.7 141.139ZM488.7 140.045C489.118 140.045 489.492 139.941 489.824 139.732C490.159 139.523 490.422 139.243 490.614 138.892C490.81 138.541 490.908 138.15 490.908 137.719C490.908 137.298 490.813 136.915 490.624 136.57C490.439 136.222 490.182 135.946 489.854 135.74C489.529 135.535 489.158 135.432 488.74 135.432C488.425 135.432 488.132 135.495 487.86 135.621C487.588 135.743 487.35 135.912 487.144 136.128C486.942 136.343 486.783 136.59 486.667 136.869C486.551 137.144 486.493 137.434 486.493 137.739C486.493 138.143 486.587 138.521 486.776 138.872C486.969 139.223 487.23 139.507 487.562 139.722C487.897 139.938 488.276 140.045 488.7 140.045ZM497.377 141.139C496.628 141.139 495.99 140.935 495.463 140.528C494.936 140.117 494.533 139.522 494.255 138.743C493.976 137.961 493.837 137.016 493.837 135.909C493.837 134.809 493.976 133.869 494.255 133.09C494.537 132.308 494.941 131.711 495.468 131.3C495.998 130.886 496.635 130.679 497.377 130.679C498.119 130.679 498.754 130.886 499.281 131.3C499.811 131.711 500.216 132.308 500.494 133.09C500.776 133.869 500.917 134.809 500.917 135.909C500.917 137.016 500.778 137.961 500.499 138.743C500.221 139.522 499.818 140.117 499.291 140.528C498.764 140.935 498.126 141.139 497.377 141.139ZM497.377 140.045C498.119 140.045 498.696 139.687 499.107 138.972C499.518 138.256 499.724 137.235 499.724 135.909C499.724 135.027 499.629 134.277 499.44 133.657C499.255 133.037 498.986 132.565 498.635 132.24C498.287 131.915 497.867 131.753 497.377 131.753C496.641 131.753 496.066 132.116 495.652 132.842C495.238 133.564 495.03 134.587 495.03 135.909C495.03 136.791 495.123 137.54 495.309 138.156C495.494 138.773 495.761 139.242 496.109 139.563C496.461 139.885 496.883 140.045 497.377 140.045ZM506.127 141.139C505.378 141.139 504.74 140.935 504.213 140.528C503.686 140.117 503.283 139.522 503.005 138.743C502.726 137.961 502.587 137.016 502.587 135.909C502.587 134.809 502.726 133.869 503.005 133.09C503.287 132.308 503.691 131.711 504.218 131.3C504.748 130.886 505.385 130.679 506.127 130.679C506.869 130.679 507.504 130.886 508.031 131.3C508.561 131.711 508.966 132.308 509.244 133.09C509.526 133.869 509.667 134.809 509.667 135.909C509.667 137.016 509.528 137.961 509.249 138.743C508.971 139.522 508.568 140.117 508.041 140.528C507.514 140.935 506.876 141.139 506.127 141.139ZM506.127 140.045C506.869 140.045 507.446 139.687 507.857 138.972C508.268 138.256 508.474 137.235 508.474 135.909C508.474 135.027 508.379 134.277 508.19 133.657C508.005 133.037 507.736 132.565 507.385 132.24C507.037 131.915 506.617 131.753 506.127 131.753C505.391 131.753 504.816 132.116 504.402 132.842C503.988 133.564 503.78 134.587 503.78 135.909C503.78 136.791 503.873 137.54 504.059 138.156C504.244 138.773 504.511 139.242 504.859 139.563C505.211 139.885 505.633 140.045 506.127 140.045Z" fill="#475467"/>
<circle cx="384" cy="160" r="4" fill="#B692F6"/>
<path d="M397.233 165V154.818H400.673C401.469 154.818 402.122 154.954 402.632 155.226C403.143 155.494 403.52 155.864 403.766 156.335C404.011 156.805 404.134 157.34 404.134 157.94C404.134 158.54 404.011 159.072 403.766 159.536C403.52 160 403.144 160.365 402.637 160.63C402.13 160.892 401.482 161.023 400.693 161.023H397.909V159.909H400.653C401.197 159.909 401.634 159.83 401.966 159.67C402.301 159.511 402.543 159.286 402.692 158.994C402.844 158.699 402.92 158.348 402.92 157.94C402.92 157.533 402.844 157.176 402.692 156.871C402.539 156.567 402.296 156.331 401.961 156.165C401.626 155.996 401.184 155.912 400.634 155.912H398.466V165H397.233ZM402.026 160.426L404.531 165H403.099L400.634 160.426H402.026ZM409.149 165.159C408.413 165.159 407.778 164.997 407.244 164.672C406.714 164.344 406.305 163.886 406.017 163.3C405.731 162.71 405.589 162.024 405.589 161.241C405.589 160.459 405.731 159.77 406.017 159.173C406.305 158.573 406.706 158.106 407.22 157.771C407.737 157.433 408.34 157.264 409.029 157.264C409.427 157.264 409.82 157.33 410.208 157.463C410.595 157.596 410.948 157.811 411.267 158.109C411.585 158.404 411.838 158.795 412.027 159.283C412.216 159.77 412.311 160.37 412.311 161.082V161.58H406.424V160.565H411.117C411.117 160.134 411.031 159.75 410.859 159.412C410.69 159.074 410.448 158.807 410.133 158.612C409.821 158.416 409.454 158.318 409.029 158.318C408.562 158.318 408.158 158.434 407.816 158.666C407.478 158.895 407.218 159.193 407.036 159.561C406.853 159.929 406.762 160.323 406.762 160.744V161.42C406.762 161.997 406.862 162.486 407.061 162.887C407.263 163.285 407.543 163.588 407.901 163.797C408.259 164.002 408.675 164.105 409.149 164.105C409.457 164.105 409.735 164.062 409.984 163.976C410.236 163.886 410.453 163.754 410.635 163.578C410.817 163.399 410.958 163.177 411.058 162.912L412.191 163.23C412.072 163.615 411.871 163.953 411.59 164.244C411.308 164.533 410.96 164.758 410.546 164.92C410.131 165.08 409.666 165.159 409.149 165.159ZM417.416 157.364V158.358H413.459V157.364H417.416ZM414.612 155.534H415.786V162.812C415.786 163.144 415.834 163.393 415.93 163.558C416.029 163.721 416.155 163.83 416.308 163.886C416.463 163.939 416.628 163.966 416.8 163.966C416.929 163.966 417.035 163.959 417.118 163.946C417.201 163.929 417.267 163.916 417.317 163.906L417.556 164.96C417.476 164.99 417.365 165.02 417.222 165.05C417.08 165.083 416.899 165.099 416.681 165.099C416.349 165.099 416.024 165.028 415.706 164.886C415.391 164.743 415.129 164.526 414.921 164.234C414.715 163.943 414.612 163.575 414.612 163.131V155.534ZM423.994 161.878V157.364H425.167V165H423.994V163.707H423.914C423.735 164.095 423.457 164.425 423.079 164.697C422.701 164.965 422.224 165.099 421.647 165.099C421.17 165.099 420.746 164.995 420.374 164.786C420.003 164.574 419.712 164.256 419.499 163.832C419.287 163.404 419.181 162.866 419.181 162.216V157.364H420.355V162.136C420.355 162.693 420.51 163.137 420.822 163.469C421.137 163.8 421.538 163.966 422.025 163.966C422.317 163.966 422.613 163.891 422.915 163.742C423.22 163.593 423.475 163.364 423.681 163.056C423.889 162.748 423.994 162.355 423.994 161.878ZM427.316 165V157.364H428.45V158.517H428.529C428.668 158.139 428.92 157.833 429.285 157.597C429.649 157.362 430.06 157.244 430.518 157.244C430.604 157.244 430.712 157.246 430.841 157.249C430.97 157.253 431.068 157.258 431.134 157.264V158.457C431.094 158.447 431.003 158.433 430.861 158.413C430.722 158.389 430.574 158.378 430.418 158.378C430.047 158.378 429.716 158.456 429.424 158.612C429.136 158.764 428.907 158.976 428.738 159.248C428.572 159.516 428.489 159.823 428.489 160.168V165H427.316ZM433.698 160.406V165H432.525V157.364H433.659V158.557H433.758C433.937 158.169 434.209 157.857 434.573 157.622C434.938 157.384 435.409 157.264 435.985 157.264C436.502 157.264 436.955 157.37 437.343 157.582C437.73 157.791 438.032 158.109 438.247 158.537C438.463 158.961 438.57 159.498 438.57 160.148V165H437.397V160.227C437.397 159.627 437.241 159.16 436.93 158.825C436.618 158.487 436.191 158.318 435.647 158.318C435.273 158.318 434.938 158.399 434.643 158.562C434.351 158.724 434.121 158.961 433.952 159.273C433.783 159.584 433.698 159.962 433.698 160.406ZM443.916 165.159C443.18 165.159 442.546 164.997 442.012 164.672C441.482 164.344 441.072 163.886 440.784 163.3C440.499 162.71 440.357 162.024 440.357 161.241C440.357 160.459 440.499 159.77 440.784 159.173C441.072 158.573 441.473 158.106 441.987 157.771C442.504 157.433 443.107 157.264 443.797 157.264C444.195 157.264 444.587 157.33 444.975 157.463C445.363 157.596 445.716 157.811 446.034 158.109C446.352 158.404 446.606 158.795 446.795 159.283C446.984 159.77 447.078 160.37 447.078 161.082V161.58H441.192V160.565H445.885C445.885 160.134 445.799 159.75 445.626 159.412C445.457 159.074 445.215 158.807 444.901 158.612C444.589 158.416 444.221 158.318 443.797 158.318C443.33 158.318 442.925 158.434 442.584 158.666C442.246 158.895 441.986 159.193 441.803 159.561C441.621 159.929 441.53 160.323 441.53 160.744V161.42C441.53 161.997 441.629 162.486 441.828 162.887C442.03 163.285 442.31 163.588 442.668 163.797C443.026 164.002 443.442 164.105 443.916 164.105C444.224 164.105 444.503 164.062 444.751 163.976C445.003 163.886 445.22 163.754 445.403 163.578C445.585 163.399 445.726 163.177 445.825 162.912L446.959 163.23C446.839 163.615 446.639 163.953 446.357 164.244C446.076 164.533 445.728 164.758 445.313 164.92C444.899 165.08 444.433 165.159 443.916 165.159ZM451.746 165.159C451.11 165.159 450.548 164.998 450.061 164.677C449.574 164.352 449.193 163.895 448.918 163.305C448.643 162.711 448.505 162.01 448.505 161.202C448.505 160.4 448.643 159.704 448.918 159.114C449.193 158.524 449.576 158.068 450.066 157.746C450.557 157.425 451.123 157.264 451.766 157.264C452.263 157.264 452.656 157.347 452.945 157.513C453.236 157.675 453.458 157.861 453.611 158.07C453.767 158.275 453.888 158.444 453.974 158.577H454.073V154.818H455.246V165H454.113V163.827H453.974C453.888 163.966 453.765 164.142 453.606 164.354C453.447 164.562 453.22 164.75 452.925 164.915C452.63 165.078 452.237 165.159 451.746 165.159ZM451.906 164.105C452.376 164.105 452.774 163.982 453.099 163.737C453.424 163.489 453.67 163.146 453.839 162.708C454.009 162.267 454.093 161.759 454.093 161.182C454.093 160.612 454.01 160.113 453.844 159.685C453.679 159.254 453.433 158.92 453.109 158.681C452.784 158.439 452.383 158.318 451.906 158.318C451.408 158.318 450.994 158.446 450.663 158.701C450.335 158.953 450.088 159.296 449.922 159.73C449.759 160.161 449.678 160.645 449.678 161.182C449.678 161.725 449.761 162.219 449.927 162.663C450.096 163.104 450.344 163.455 450.673 163.717C451.004 163.976 451.415 164.105 451.906 164.105ZM458.413 165.08C458.168 165.08 457.958 164.992 457.782 164.816C457.606 164.64 457.518 164.43 457.518 164.185C457.518 163.939 457.606 163.729 457.782 163.553C457.958 163.378 458.168 163.29 458.413 163.29C458.659 163.29 458.869 163.378 459.045 163.553C459.22 163.729 459.308 163.939 459.308 164.185C459.308 164.347 459.267 164.496 459.184 164.632C459.104 164.768 458.997 164.877 458.861 164.96C458.728 165.04 458.579 165.08 458.413 165.08ZM458.413 159.412C458.168 159.412 457.958 159.324 457.782 159.148C457.606 158.973 457.518 158.762 457.518 158.517C457.518 158.272 457.606 158.061 457.782 157.886C457.958 157.71 458.168 157.622 458.413 157.622C458.659 157.622 458.869 157.71 459.045 157.886C459.22 158.061 459.308 158.272 459.308 158.517C459.308 158.679 459.267 158.829 459.184 158.964C459.104 159.1 458.997 159.21 458.861 159.293C458.728 159.372 458.579 159.412 458.413 159.412ZM468.334 166.273V153.545H469.15V166.273H468.334ZM471.078 157.364C471.019 156.86 470.777 156.469 470.353 156.19C469.928 155.912 469.408 155.773 468.792 155.773C468.341 155.773 467.946 155.846 467.608 155.991C467.274 156.137 467.012 156.338 466.823 156.593C466.637 156.848 466.544 157.138 466.544 157.463C466.544 157.735 466.609 157.969 466.738 158.164C466.871 158.356 467.04 158.517 467.245 158.646C467.451 158.772 467.666 158.877 467.892 158.96C468.117 159.039 468.324 159.104 468.513 159.153L469.547 159.432C469.812 159.501 470.107 159.598 470.432 159.72C470.76 159.843 471.074 160.01 471.372 160.222C471.673 160.431 471.922 160.7 472.118 161.028C472.313 161.356 472.411 161.759 472.411 162.236C472.411 162.786 472.267 163.283 471.978 163.727C471.693 164.171 471.276 164.524 470.725 164.786C470.179 165.048 469.514 165.179 468.732 165.179C468.003 165.179 467.371 165.061 466.838 164.826C466.307 164.591 465.89 164.263 465.585 163.842C465.283 163.421 465.113 162.932 465.073 162.375H466.346C466.379 162.759 466.508 163.078 466.733 163.33C466.962 163.578 467.25 163.764 467.598 163.886C467.95 164.006 468.328 164.065 468.732 164.065C469.203 164.065 469.625 163.989 470 163.837C470.374 163.681 470.671 163.465 470.89 163.19C471.108 162.912 471.218 162.587 471.218 162.216C471.218 161.878 471.123 161.603 470.934 161.391C470.745 161.179 470.497 161.006 470.189 160.874C469.88 160.741 469.547 160.625 469.189 160.526L467.936 160.168C467.141 159.939 466.511 159.612 466.047 159.188C465.583 158.764 465.351 158.209 465.351 157.523C465.351 156.953 465.505 156.455 465.814 156.031C466.125 155.604 466.543 155.272 467.066 155.037C467.593 154.798 468.182 154.679 468.831 154.679C469.488 154.679 470.071 154.797 470.581 155.032C471.092 155.264 471.496 155.582 471.794 155.987C472.096 156.391 472.255 156.85 472.272 157.364H471.078ZM474.259 165V164.105L477.62 160.426C478.014 159.995 478.339 159.621 478.594 159.303C478.849 158.981 479.038 158.679 479.161 158.398C479.287 158.113 479.35 157.814 479.35 157.503C479.35 157.145 479.264 156.835 479.091 156.573C478.922 156.311 478.69 156.109 478.395 155.967C478.1 155.824 477.769 155.753 477.401 155.753C477.01 155.753 476.669 155.834 476.377 155.996C476.089 156.156 475.865 156.379 475.706 156.668C475.55 156.956 475.472 157.294 475.472 157.682H474.299C474.299 157.085 474.436 156.562 474.711 156.111C474.987 155.66 475.361 155.309 475.835 155.057C476.312 154.805 476.848 154.679 477.441 154.679C478.037 154.679 478.566 154.805 479.027 155.057C479.488 155.309 479.849 155.648 480.111 156.076C480.372 156.504 480.503 156.979 480.503 157.503C480.503 157.877 480.435 158.244 480.3 158.602C480.167 158.956 479.935 159.352 479.604 159.79C479.275 160.224 478.82 160.754 478.236 161.381L475.949 163.827V163.906H480.682V165H474.259ZM485.997 165.139C485.314 165.139 484.711 165.018 484.187 164.776C483.667 164.531 483.261 164.195 482.969 163.767C482.678 163.336 482.533 162.846 482.537 162.295C482.533 161.865 482.618 161.467 482.79 161.102C482.963 160.734 483.198 160.428 483.496 160.183C483.798 159.934 484.134 159.777 484.506 159.71V159.651C484.018 159.525 483.631 159.251 483.342 158.83C483.054 158.406 482.911 157.924 482.915 157.384C482.911 156.866 483.042 156.404 483.307 155.996C483.573 155.589 483.937 155.267 484.401 155.032C484.868 154.797 485.4 154.679 485.997 154.679C486.587 154.679 487.114 154.797 487.578 155.032C488.042 155.267 488.407 155.589 488.672 155.996C488.94 156.404 489.076 156.866 489.079 157.384C489.076 157.924 488.929 158.406 488.637 158.83C488.349 159.251 487.966 159.525 487.488 159.651V159.71C487.856 159.777 488.188 159.934 488.483 160.183C488.778 160.428 489.013 160.734 489.189 161.102C489.364 161.467 489.454 161.865 489.457 162.295C489.454 162.846 489.305 163.336 489.01 163.767C488.718 164.195 488.312 164.531 487.792 164.776C487.275 165.018 486.676 165.139 485.997 165.139ZM485.997 164.045C486.458 164.045 486.855 163.971 487.19 163.822C487.525 163.673 487.783 163.462 487.966 163.19C488.148 162.919 488.241 162.6 488.244 162.236C488.241 161.851 488.141 161.512 487.946 161.217C487.75 160.922 487.483 160.69 487.145 160.521C486.811 160.352 486.428 160.267 485.997 160.267C485.563 160.267 485.175 160.352 484.834 160.521C484.496 160.69 484.229 160.922 484.033 161.217C483.841 161.512 483.747 161.851 483.75 162.236C483.747 162.6 483.834 162.919 484.013 163.19C484.196 163.462 484.456 163.673 484.794 163.822C485.132 163.971 485.533 164.045 485.997 164.045ZM485.997 159.213C486.362 159.213 486.685 159.14 486.966 158.994C487.251 158.848 487.475 158.645 487.638 158.383C487.8 158.121 487.883 157.814 487.886 157.463C487.883 157.118 487.802 156.818 487.643 156.563C487.483 156.305 487.263 156.106 486.981 155.967C486.7 155.824 486.372 155.753 485.997 155.753C485.616 155.753 485.283 155.824 484.998 155.967C484.713 156.106 484.492 156.305 484.336 156.563C484.181 156.818 484.104 157.118 484.108 157.463C484.104 157.814 484.182 158.121 484.341 158.383C484.504 158.645 484.728 158.848 485.013 158.994C485.298 159.14 485.626 159.213 485.997 159.213ZM494.604 154.679C495.022 154.682 495.439 154.762 495.857 154.918C496.275 155.073 496.656 155.332 497 155.693C497.345 156.051 497.622 156.54 497.831 157.16C498.039 157.78 498.144 158.557 498.144 159.491C498.144 160.396 498.058 161.2 497.885 161.903C497.716 162.602 497.471 163.192 497.15 163.673C496.831 164.153 496.444 164.518 495.986 164.766C495.532 165.015 495.018 165.139 494.445 165.139C493.875 165.139 493.366 165.027 492.919 164.801C492.475 164.572 492.11 164.256 491.825 163.852C491.543 163.444 491.363 162.972 491.283 162.435H492.496C492.605 162.902 492.823 163.288 493.147 163.593C493.475 163.895 493.908 164.045 494.445 164.045C495.23 164.045 495.85 163.702 496.304 163.016C496.762 162.33 496.99 161.361 496.99 160.108H496.911C496.725 160.386 496.505 160.627 496.25 160.829C495.994 161.031 495.711 161.187 495.4 161.296C495.088 161.406 494.757 161.46 494.405 161.46C493.822 161.46 493.287 161.316 492.799 161.028C492.315 160.736 491.928 160.337 491.636 159.83C491.348 159.319 491.203 158.736 491.203 158.08C491.203 157.456 491.343 156.886 491.621 156.369C491.903 155.849 492.297 155.435 492.804 155.126C493.315 154.818 493.915 154.669 494.604 154.679ZM494.604 155.773C494.186 155.773 493.81 155.877 493.475 156.086C493.144 156.291 492.881 156.57 492.685 156.921C492.493 157.269 492.397 157.655 492.397 158.08C492.397 158.504 492.489 158.89 492.675 159.238C492.864 159.583 493.121 159.858 493.446 160.063C493.774 160.265 494.147 160.366 494.564 160.366C494.879 160.366 495.172 160.305 495.444 160.183C495.716 160.057 495.953 159.886 496.155 159.67C496.361 159.452 496.521 159.205 496.637 158.93C496.753 158.651 496.811 158.361 496.811 158.06C496.811 157.662 496.715 157.289 496.523 156.941C496.334 156.593 496.072 156.311 495.738 156.096C495.406 155.88 495.028 155.773 494.604 155.773ZM501.513 163.608L501.434 164.145C501.377 164.523 501.291 164.927 501.175 165.358C501.063 165.789 500.945 166.195 500.822 166.576C500.7 166.957 500.599 167.26 500.519 167.486H499.624C499.667 167.274 499.724 166.994 499.793 166.646C499.863 166.298 499.932 165.908 500.002 165.477C500.075 165.05 500.135 164.612 500.181 164.165L500.241 163.608H501.513ZM503.78 165L508.334 155.991V155.912H503.084V154.818H509.607V155.972L505.073 165H503.78ZM515.04 154.818V165H513.807V156.111H513.747L511.261 157.761V156.509L513.807 154.818H515.04ZM521.548 154.818V165H520.315V156.111H520.255L517.769 157.761V156.509L520.315 154.818H521.548Z" fill="#475467"/>
<circle cx="384" cy="184" r="4" fill="#53389E"/>
<path d="M398.466 178.818V189H397.233V178.818H398.466ZM401.952 184.406V189H400.779V181.364H401.912V182.557H402.012C402.191 182.169 402.463 181.857 402.827 181.622C403.192 181.384 403.662 181.264 404.239 181.264C404.756 181.264 405.209 181.37 405.596 181.582C405.984 181.791 406.286 182.109 406.501 182.537C406.717 182.961 406.824 183.498 406.824 184.148V189H405.651V184.227C405.651 183.627 405.495 183.16 405.184 182.825C404.872 182.487 404.445 182.318 403.901 182.318C403.527 182.318 403.192 182.399 402.897 182.562C402.605 182.724 402.375 182.961 402.206 183.273C402.037 183.584 401.952 183.962 401.952 184.406ZM412.906 191.864V181.364H414.039V182.577H414.179C414.265 182.444 414.384 182.275 414.537 182.07C414.692 181.861 414.914 181.675 415.203 181.513C415.494 181.347 415.889 181.264 416.386 181.264C417.029 181.264 417.596 181.425 418.086 181.746C418.577 182.068 418.96 182.524 419.235 183.114C419.51 183.704 419.647 184.4 419.647 185.202C419.647 186.01 419.51 186.711 419.235 187.305C418.96 187.895 418.578 188.352 418.091 188.677C417.604 188.998 417.042 189.159 416.406 189.159C415.915 189.159 415.523 189.078 415.228 188.915C414.933 188.75 414.706 188.562 414.547 188.354C414.387 188.142 414.265 187.966 414.179 187.827H414.079V191.864H412.906ZM414.059 185.182C414.059 185.759 414.144 186.267 414.313 186.708C414.482 187.146 414.729 187.489 415.054 187.737C415.378 187.982 415.776 188.105 416.247 188.105C416.737 188.105 417.147 187.976 417.475 187.717C417.806 187.455 418.055 187.104 418.221 186.663C418.39 186.219 418.474 185.725 418.474 185.182C418.474 184.645 418.391 184.161 418.225 183.73C418.063 183.296 417.816 182.953 417.485 182.701C417.157 182.446 416.744 182.318 416.247 182.318C415.77 182.318 415.368 182.439 415.044 182.681C414.719 182.92 414.474 183.254 414.308 183.685C414.142 184.113 414.059 184.612 414.059 185.182ZM421.437 189V181.364H422.571V182.517H422.65C422.789 182.139 423.041 181.833 423.406 181.597C423.77 181.362 424.181 181.244 424.639 181.244C424.725 181.244 424.833 181.246 424.962 181.249C425.091 181.253 425.189 181.258 425.255 181.264V182.457C425.216 182.447 425.124 182.433 424.982 182.413C424.843 182.389 424.695 182.378 424.539 182.378C424.168 182.378 423.837 182.456 423.545 182.612C423.257 182.764 423.028 182.976 422.859 183.248C422.693 183.516 422.61 183.823 422.61 184.168V189H421.437ZM429.516 189.159C428.827 189.159 428.222 188.995 427.701 188.667C427.184 188.339 426.78 187.88 426.488 187.29C426.2 186.7 426.056 186.01 426.056 185.222C426.056 184.426 426.2 183.732 426.488 183.138C426.78 182.545 427.184 182.085 427.701 181.756C428.222 181.428 428.827 181.264 429.516 181.264C430.205 181.264 430.809 181.428 431.326 181.756C431.846 182.085 432.25 182.545 432.539 183.138C432.83 183.732 432.976 184.426 432.976 185.222C432.976 186.01 432.83 186.7 432.539 187.29C432.25 187.88 431.846 188.339 431.326 188.667C430.809 188.995 430.205 189.159 429.516 189.159ZM429.516 188.105C430.04 188.105 430.471 187.971 430.809 187.702C431.147 187.434 431.397 187.081 431.559 186.643C431.722 186.206 431.803 185.732 431.803 185.222C431.803 184.711 431.722 184.236 431.559 183.795C431.397 183.354 431.147 182.998 430.809 182.726C430.471 182.454 430.04 182.318 429.516 182.318C428.992 182.318 428.561 182.454 428.223 182.726C427.885 182.998 427.635 183.354 427.473 183.795C427.31 184.236 427.229 184.711 427.229 185.222C427.229 185.732 427.31 186.206 427.473 186.643C427.635 187.081 427.885 187.434 428.223 187.702C428.561 187.971 428.992 188.105 429.516 188.105ZM437.85 192.023C437.283 192.023 436.796 191.95 436.388 191.804C435.98 191.661 435.641 191.473 435.369 191.237C435.1 191.005 434.887 190.757 434.727 190.491L435.662 189.835C435.768 189.974 435.902 190.134 436.065 190.312C436.227 190.495 436.449 190.652 436.731 190.785C437.016 190.921 437.389 190.989 437.85 190.989C438.466 190.989 438.975 190.839 439.376 190.541C439.777 190.243 439.977 189.776 439.977 189.139V187.588H439.878C439.792 187.727 439.669 187.9 439.51 188.105C439.354 188.307 439.129 188.488 438.834 188.647C438.542 188.803 438.148 188.881 437.651 188.881C437.034 188.881 436.481 188.735 435.99 188.443C435.503 188.152 435.117 187.727 434.832 187.17C434.55 186.614 434.409 185.937 434.409 185.142C434.409 184.36 434.547 183.679 434.822 183.099C435.097 182.515 435.48 182.065 435.97 181.746C436.461 181.425 437.028 181.264 437.671 181.264C438.168 181.264 438.562 181.347 438.854 181.513C439.149 181.675 439.374 181.861 439.53 182.07C439.689 182.275 439.812 182.444 439.898 182.577H440.017V181.364H441.151V189.219C441.151 189.875 441.002 190.409 440.703 190.82C440.408 191.234 440.011 191.537 439.51 191.729C439.013 191.925 438.459 192.023 437.85 192.023ZM437.81 187.827C438.28 187.827 438.678 187.719 439.003 187.504C439.328 187.288 439.575 186.978 439.744 186.574C439.913 186.17 439.997 185.686 439.997 185.122C439.997 184.572 439.914 184.086 439.749 183.665C439.583 183.245 439.338 182.915 439.013 182.676C438.688 182.437 438.287 182.318 437.81 182.318C437.313 182.318 436.898 182.444 436.567 182.696C436.239 182.948 435.992 183.286 435.826 183.71C435.664 184.134 435.583 184.605 435.583 185.122C435.583 185.652 435.665 186.121 435.831 186.529C436 186.933 436.249 187.252 436.577 187.484C436.908 187.712 437.319 187.827 437.81 187.827ZM443.298 189V181.364H444.432V182.517H444.512C444.651 182.139 444.903 181.833 445.267 181.597C445.632 181.362 446.043 181.244 446.5 181.244C446.586 181.244 446.694 181.246 446.823 181.249C446.953 181.253 447.05 181.258 447.117 181.264V182.457C447.077 182.447 446.986 182.433 446.843 182.413C446.704 182.389 446.557 182.378 446.401 182.378C446.03 182.378 445.698 182.456 445.406 182.612C445.118 182.764 444.889 182.976 444.72 183.248C444.555 183.516 444.472 183.823 444.472 184.168V189H443.298ZM451.477 189.159C450.741 189.159 450.106 188.997 449.573 188.672C449.042 188.344 448.633 187.886 448.345 187.3C448.06 186.71 447.917 186.024 447.917 185.241C447.917 184.459 448.06 183.77 448.345 183.173C448.633 182.573 449.034 182.106 449.548 181.771C450.065 181.433 450.668 181.264 451.357 181.264C451.755 181.264 452.148 181.33 452.536 181.463C452.923 181.596 453.276 181.811 453.595 182.109C453.913 182.404 454.166 182.795 454.355 183.283C454.544 183.77 454.639 184.37 454.639 185.082V185.58H448.752V184.565H453.445C453.445 184.134 453.359 183.75 453.187 183.412C453.018 183.074 452.776 182.807 452.461 182.612C452.15 182.416 451.782 182.318 451.357 182.318C450.89 182.318 450.486 182.434 450.144 182.666C449.806 182.895 449.546 183.193 449.364 183.561C449.182 183.929 449.09 184.323 449.09 184.744V185.42C449.09 185.997 449.19 186.486 449.389 186.887C449.591 187.285 449.871 187.588 450.229 187.797C450.587 188.002 451.003 188.105 451.477 188.105C451.785 188.105 452.063 188.062 452.312 187.976C452.564 187.886 452.781 187.754 452.963 187.578C453.146 187.399 453.286 187.177 453.386 186.912L454.519 187.23C454.4 187.615 454.2 187.953 453.918 188.244C453.636 188.533 453.288 188.758 452.874 188.92C452.459 189.08 451.994 189.159 451.477 189.159ZM461.833 183.074L460.779 183.372C460.712 183.196 460.615 183.026 460.485 182.86C460.359 182.691 460.187 182.552 459.968 182.442C459.749 182.333 459.469 182.278 459.128 182.278C458.661 182.278 458.271 182.386 457.96 182.602C457.651 182.814 457.497 183.084 457.497 183.412C457.497 183.704 457.603 183.934 457.816 184.103C458.028 184.272 458.359 184.413 458.81 184.526L459.943 184.804C460.626 184.97 461.135 185.223 461.47 185.565C461.804 185.903 461.972 186.339 461.972 186.872C461.972 187.31 461.846 187.701 461.594 188.045C461.345 188.39 460.997 188.662 460.55 188.861C460.102 189.06 459.582 189.159 458.989 189.159C458.21 189.159 457.565 188.99 457.055 188.652C456.544 188.314 456.221 187.82 456.085 187.17L457.199 186.892C457.305 187.303 457.506 187.611 457.801 187.817C458.099 188.022 458.488 188.125 458.969 188.125C459.516 188.125 459.95 188.009 460.271 187.777C460.596 187.542 460.759 187.26 460.759 186.932C460.759 186.667 460.666 186.445 460.48 186.266C460.295 186.083 460.01 185.947 459.625 185.858L458.352 185.56C457.653 185.394 457.139 185.137 456.811 184.789C456.486 184.438 456.324 183.999 456.324 183.472C456.324 183.041 456.445 182.66 456.687 182.328C456.932 181.997 457.265 181.737 457.686 181.548C458.11 181.359 458.591 181.264 459.128 181.264C459.884 181.264 460.477 181.43 460.908 181.761C461.342 182.093 461.65 182.53 461.833 183.074ZM469.147 183.074L468.093 183.372C468.027 183.196 467.929 183.026 467.8 182.86C467.674 182.691 467.501 182.552 467.283 182.442C467.064 182.333 466.784 182.278 466.442 182.278C465.975 182.278 465.586 182.386 465.274 182.602C464.966 182.814 464.812 183.084 464.812 183.412C464.812 183.704 464.918 183.934 465.13 184.103C465.342 184.272 465.674 184.413 466.124 184.526L467.258 184.804C467.941 184.97 468.449 185.223 468.784 185.565C469.119 185.903 469.286 186.339 469.286 186.872C469.286 187.31 469.16 187.701 468.908 188.045C468.66 188.39 468.312 188.662 467.864 188.861C467.417 189.06 466.897 189.159 466.303 189.159C465.524 189.159 464.88 188.99 464.369 188.652C463.859 188.314 463.536 187.82 463.4 187.17L464.513 186.892C464.62 187.303 464.82 187.611 465.115 187.817C465.413 188.022 465.803 188.125 466.283 188.125C466.83 188.125 467.264 188.009 467.586 187.777C467.911 187.542 468.073 187.26 468.073 186.932C468.073 186.667 467.98 186.445 467.795 186.266C467.609 186.083 467.324 185.947 466.94 185.858L465.667 185.56C464.968 185.394 464.454 185.137 464.126 184.789C463.801 184.438 463.638 183.999 463.638 183.472C463.638 183.041 463.759 182.66 464.001 182.328C464.247 181.997 464.58 181.737 465.001 181.548C465.425 181.359 465.906 181.264 466.442 181.264C467.198 181.264 467.791 181.43 468.222 181.761C468.656 182.093 468.965 182.53 469.147 183.074ZM471.907 189.08C471.662 189.08 471.452 188.992 471.276 188.816C471.1 188.64 471.013 188.43 471.013 188.185C471.013 187.939 471.1 187.729 471.276 187.553C471.452 187.378 471.662 187.29 471.907 187.29C472.153 187.29 472.363 187.378 472.539 187.553C472.715 187.729 472.802 187.939 472.802 188.185C472.802 188.347 472.761 188.496 472.678 188.632C472.599 188.768 472.491 188.877 472.355 188.96C472.222 189.04 472.073 189.08 471.907 189.08ZM471.907 183.412C471.662 183.412 471.452 183.324 471.276 183.148C471.1 182.973 471.013 182.762 471.013 182.517C471.013 182.272 471.1 182.061 471.276 181.886C471.452 181.71 471.662 181.622 471.907 181.622C472.153 181.622 472.363 181.71 472.539 181.886C472.715 182.061 472.802 182.272 472.802 182.517C472.802 182.679 472.761 182.829 472.678 182.964C472.599 183.1 472.491 183.21 472.355 183.293C472.222 183.372 472.073 183.412 471.907 183.412ZM481.828 190.273V177.545H482.644V190.273H481.828ZM484.573 181.364C484.513 180.86 484.271 180.469 483.847 180.19C483.423 179.912 482.902 179.773 482.286 179.773C481.835 179.773 481.441 179.846 481.102 179.991C480.768 180.137 480.506 180.338 480.317 180.593C480.131 180.848 480.039 181.138 480.039 181.463C480.039 181.735 480.103 181.969 480.232 182.164C480.365 182.356 480.534 182.517 480.74 182.646C480.945 182.772 481.16 182.877 481.386 182.96C481.611 183.039 481.818 183.104 482.007 183.153L483.041 183.432C483.307 183.501 483.602 183.598 483.926 183.72C484.254 183.843 484.568 184.01 484.866 184.222C485.168 184.431 485.416 184.7 485.612 185.028C485.807 185.356 485.905 185.759 485.905 186.236C485.905 186.786 485.761 187.283 485.472 187.727C485.187 188.171 484.77 188.524 484.22 188.786C483.673 189.048 483.008 189.179 482.226 189.179C481.497 189.179 480.865 189.061 480.332 188.826C479.802 188.591 479.384 188.263 479.079 187.842C478.777 187.421 478.607 186.932 478.567 186.375H479.84C479.873 186.759 480.002 187.078 480.227 187.33C480.456 187.578 480.744 187.764 481.093 187.886C481.444 188.006 481.822 188.065 482.226 188.065C482.697 188.065 483.119 187.989 483.494 187.837C483.868 187.681 484.165 187.465 484.384 187.19C484.602 186.912 484.712 186.587 484.712 186.216C484.712 185.878 484.617 185.603 484.428 185.391C484.24 185.179 483.991 185.006 483.683 184.874C483.374 184.741 483.041 184.625 482.683 184.526L481.431 184.168C480.635 183.939 480.005 183.612 479.541 183.188C479.077 182.764 478.845 182.209 478.845 181.523C478.845 180.953 478.999 180.455 479.308 180.031C479.619 179.604 480.037 179.272 480.561 179.037C481.088 178.798 481.676 178.679 482.325 178.679C482.982 178.679 483.565 178.797 484.075 179.032C484.586 179.264 484.99 179.582 485.289 179.987C485.59 180.391 485.749 180.85 485.766 181.364H484.573ZM487.515 186.912V185.898L491.989 178.818H492.725V180.389H492.228L488.847 185.739V185.818H494.873V186.912H487.515ZM492.307 189V186.604V186.131V178.818H493.48V189H492.307ZM500.176 189.139C499.52 189.139 498.935 189.027 498.421 188.801C497.911 188.576 497.505 188.263 497.203 187.862C496.905 187.457 496.742 186.988 496.716 186.455H497.969C497.995 186.783 498.108 187.066 498.307 187.305C498.506 187.54 498.766 187.722 499.087 187.852C499.409 187.981 499.765 188.045 500.156 188.045C500.594 188.045 500.981 187.969 501.319 187.817C501.657 187.664 501.923 187.452 502.115 187.18C502.307 186.909 502.403 186.594 502.403 186.236C502.403 185.861 502.31 185.531 502.125 185.246C501.939 184.958 501.667 184.733 501.309 184.57C500.952 184.408 500.514 184.327 499.997 184.327H499.182V183.233H499.997C500.401 183.233 500.756 183.16 501.061 183.014C501.369 182.868 501.609 182.663 501.782 182.398C501.957 182.133 502.045 181.821 502.045 181.463C502.045 181.118 501.969 180.818 501.817 180.563C501.664 180.308 501.449 180.109 501.17 179.967C500.895 179.824 500.57 179.753 500.196 179.753C499.845 179.753 499.513 179.817 499.202 179.947C498.893 180.073 498.641 180.257 498.446 180.499C498.25 180.737 498.144 181.026 498.128 181.364H496.934C496.954 180.83 497.115 180.363 497.417 179.962C497.718 179.557 498.113 179.242 498.6 179.017C499.09 178.792 499.629 178.679 500.216 178.679C500.845 178.679 501.386 178.807 501.836 179.062C502.287 179.314 502.634 179.647 502.876 180.061C503.117 180.475 503.238 180.923 503.238 181.403C503.238 181.977 503.088 182.466 502.786 182.87C502.488 183.274 502.082 183.554 501.568 183.71V183.79C502.211 183.896 502.713 184.169 503.074 184.61C503.436 185.048 503.616 185.589 503.616 186.236C503.616 186.789 503.465 187.286 503.164 187.727C502.866 188.165 502.458 188.509 501.941 188.761C501.424 189.013 500.836 189.139 500.176 189.139ZM509.229 178.818V189H507.996V180.111H507.937L505.451 181.761V180.509L507.996 178.818H509.229ZM513.326 187.608L513.246 188.145C513.19 188.523 513.104 188.927 512.988 189.358C512.875 189.789 512.757 190.195 512.635 190.576C512.512 190.957 512.411 191.26 512.331 191.486H511.437C511.48 191.274 511.536 190.994 511.606 190.646C511.675 190.298 511.745 189.908 511.814 189.477C511.887 189.05 511.947 188.612 511.993 188.165L512.053 187.608H513.326ZM518.427 189.139C517.744 189.139 517.141 189.018 516.617 188.776C516.097 188.531 515.691 188.195 515.399 187.767C515.107 187.336 514.963 186.846 514.966 186.295C514.963 185.865 515.048 185.467 515.22 185.102C515.392 184.734 515.628 184.428 515.926 184.183C516.228 183.934 516.564 183.777 516.935 183.71V183.651C516.448 183.525 516.06 183.251 515.772 182.83C515.483 182.406 515.341 181.924 515.344 181.384C515.341 180.866 515.472 180.404 515.737 179.996C516.002 179.589 516.367 179.267 516.831 179.032C517.298 178.797 517.83 178.679 518.427 178.679C519.017 178.679 519.544 178.797 520.008 179.032C520.472 179.267 520.836 179.589 521.101 179.996C521.37 180.404 521.506 180.866 521.509 181.384C521.506 181.924 521.358 182.406 521.067 182.83C520.778 183.251 520.395 183.525 519.918 183.651V183.71C520.286 183.777 520.617 183.934 520.912 184.183C521.207 184.428 521.443 184.734 521.618 185.102C521.794 185.467 521.884 185.865 521.887 186.295C521.884 186.846 521.734 187.336 521.439 187.767C521.148 188.195 520.742 188.531 520.221 188.776C519.704 189.018 519.106 189.139 518.427 189.139ZM518.427 188.045C518.887 188.045 519.285 187.971 519.62 187.822C519.955 187.673 520.213 187.462 520.395 187.19C520.578 186.919 520.671 186.6 520.674 186.236C520.671 185.851 520.571 185.512 520.376 185.217C520.18 184.922 519.913 184.69 519.575 184.521C519.24 184.352 518.858 184.267 518.427 184.267C517.992 184.267 517.605 184.352 517.263 184.521C516.925 184.69 516.658 184.922 516.463 185.217C516.271 185.512 516.176 185.851 516.18 186.236C516.176 186.6 516.264 186.919 516.443 187.19C516.625 187.462 516.885 187.673 517.224 187.822C517.562 187.971 517.963 188.045 518.427 188.045ZM518.427 183.213C518.791 183.213 519.114 183.14 519.396 182.994C519.681 182.848 519.905 182.645 520.067 182.383C520.23 182.121 520.313 181.814 520.316 181.463C520.313 181.118 520.231 180.818 520.072 180.563C519.913 180.305 519.693 180.106 519.411 179.967C519.129 179.824 518.801 179.753 518.427 179.753C518.046 179.753 517.712 179.824 517.427 179.967C517.142 180.106 516.922 180.305 516.766 180.563C516.61 180.818 516.534 181.118 516.537 181.463C516.534 181.814 516.612 182.121 516.771 182.383C516.934 182.645 517.157 182.848 517.442 182.994C517.727 183.14 518.055 183.213 518.427 183.213ZM527.054 189.139C526.371 189.139 525.768 189.018 525.244 188.776C524.724 188.531 524.318 188.195 524.026 187.767C523.734 187.336 523.59 186.846 523.593 186.295C523.59 185.865 523.675 185.467 523.847 185.102C524.019 184.734 524.255 184.428 524.553 184.183C524.855 183.934 525.191 183.777 525.562 183.71V183.651C525.075 183.525 524.687 183.251 524.399 182.83C524.11 182.406 523.968 181.924 523.971 181.384C523.968 180.866 524.099 180.404 524.364 179.996C524.629 179.589 524.994 179.267 525.458 179.032C525.925 178.797 526.457 178.679 527.054 178.679C527.644 178.679 528.171 178.797 528.635 179.032C529.099 179.267 529.463 179.589 529.728 179.996C529.997 180.404 530.133 180.866 530.136 181.384C530.133 181.924 529.985 182.406 529.694 182.83C529.405 183.251 529.022 183.525 528.545 183.651V183.71C528.913 183.777 529.244 183.934 529.539 184.183C529.834 184.428 530.07 184.734 530.245 185.102C530.421 185.467 530.511 185.865 530.514 186.295C530.511 186.846 530.361 187.336 530.066 187.767C529.775 188.195 529.369 188.531 528.848 188.776C528.331 189.018 527.733 189.139 527.054 189.139ZM527.054 188.045C527.514 188.045 527.912 187.971 528.247 187.822C528.582 187.673 528.84 187.462 529.022 187.19C529.205 186.919 529.297 186.6 529.301 186.236C529.297 185.851 529.198 185.512 529.002 185.217C528.807 184.922 528.54 184.69 528.202 184.521C527.867 184.352 527.484 184.267 527.054 184.267C526.619 184.267 526.232 184.352 525.89 184.521C525.552 184.69 525.285 184.922 525.09 185.217C524.898 185.512 524.803 185.851 524.806 186.236C524.803 186.6 524.891 186.919 525.07 187.19C525.252 187.462 525.512 187.673 525.85 187.822C526.189 187.971 526.59 188.045 527.054 188.045ZM527.054 183.213C527.418 183.213 527.741 183.14 528.023 182.994C528.308 182.848 528.532 182.645 528.694 182.383C528.857 182.121 528.94 181.814 528.943 181.463C528.94 181.118 528.858 180.818 528.699 180.563C528.54 180.305 528.32 180.106 528.038 179.967C527.756 179.824 527.428 179.753 527.054 179.753C526.672 179.753 526.339 179.824 526.054 179.967C525.769 180.106 525.549 180.305 525.393 180.563C525.237 180.818 525.161 181.118 525.164 181.463C525.161 181.814 525.239 182.121 525.398 182.383C525.56 182.645 525.784 182.848 526.069 182.994C526.354 183.14 526.682 183.213 527.054 183.213ZM535.661 178.679C536.078 178.682 536.496 178.762 536.914 178.918C537.331 179.073 537.712 179.332 538.057 179.693C538.402 180.051 538.678 180.54 538.887 181.16C539.096 181.78 539.2 182.557 539.2 183.491C539.2 184.396 539.114 185.2 538.942 185.903C538.773 186.602 538.528 187.192 538.206 187.673C537.888 188.153 537.5 188.518 537.043 188.766C536.589 189.015 536.075 189.139 535.502 189.139C534.932 189.139 534.423 189.027 533.975 188.801C533.531 188.572 533.167 188.256 532.882 187.852C532.6 187.444 532.419 186.972 532.34 186.435H533.553C533.662 186.902 533.879 187.288 534.204 187.593C534.532 187.895 534.965 188.045 535.502 188.045C536.287 188.045 536.907 187.702 537.361 187.016C537.818 186.33 538.047 185.361 538.047 184.108H537.968C537.782 184.386 537.561 184.627 537.306 184.829C537.051 185.031 536.768 185.187 536.456 185.296C536.145 185.406 535.813 185.46 535.462 185.46C534.878 185.46 534.343 185.316 533.856 185.028C533.372 184.736 532.984 184.337 532.693 183.83C532.404 183.319 532.26 182.736 532.26 182.08C532.26 181.456 532.399 180.886 532.678 180.369C532.959 179.849 533.354 179.435 533.861 179.126C534.371 178.818 534.971 178.669 535.661 178.679ZM535.661 179.773C535.243 179.773 534.867 179.877 534.532 180.086C534.201 180.291 533.937 180.57 533.742 180.921C533.549 181.269 533.453 181.655 533.453 182.08C533.453 182.504 533.546 182.89 533.732 183.238C533.921 183.583 534.177 183.858 534.502 184.063C534.83 184.265 535.203 184.366 535.621 184.366C535.936 184.366 536.229 184.305 536.501 184.183C536.773 184.057 537.01 183.886 537.212 183.67C537.417 183.452 537.578 183.205 537.694 182.93C537.81 182.651 537.868 182.361 537.868 182.06C537.868 181.662 537.772 181.289 537.58 180.941C537.391 180.593 537.129 180.311 536.794 180.096C536.463 179.88 536.085 179.773 535.661 179.773Z" fill="#475467"/>
<rect x="0.5" y="0.5" width="560" height="317" rx="11.5" stroke="#EFF0F6"/>
</svg>
