<svg width="18" height="18" viewBox="0 0 18 18" fill="none" xmlns="http://www.w3.org/2000/svg">
<path fill-rule="evenodd" clip-rule="evenodd" d="M1.49807 16.1998C1.87307 16.4248 2.24807 16.4998 2.62307 16.4998H15.3731C15.9731 16.4998 16.4981 16.2748 16.8731 15.8248C17.3231 15.4498 17.5481 14.8498 17.5481 14.2498C17.5481 13.8748 17.4731 13.4998 17.2481 13.1248L10.9481 2.5498C10.5731 2.0248 10.1231 1.6498 9.52307 1.4998C8.92307 1.3498 8.32307 1.4248 7.79807 1.7248C7.49807 1.8748 7.19807 2.1748 7.04807 2.4748L0.673068 13.1248C0.0730677 14.1748 0.448068 15.5998 1.49807 16.1998ZM2.02307 13.8748L8.32307 3.2998C8.39807 3.1498 8.47307 3.0748 8.62307 2.9998C8.99807 2.8498 9.44807 2.9248 9.67307 3.2998L15.9731 13.8748C16.0481 14.0248 16.0481 14.0998 16.0481 14.2498C16.0481 14.4748 15.9731 14.6248 15.8231 14.7748C15.6731 14.9248 15.5231 14.9998 15.2981 14.9998H2.62307C2.54807 14.9998 2.39807 14.9998 2.32307 14.9248C1.94807 14.6998 1.79807 14.2498 2.02307 13.8748ZM9.74807 9.7498V6.7498C9.74807 6.2998 9.44807 5.9998 8.99807 5.9998C8.54807 5.9998 8.24807 6.2998 8.24807 6.7498V9.7498C8.24807 10.1998 8.54807 10.4998 8.99807 10.4998C9.44807 10.4998 9.74807 10.1998 9.74807 9.7498ZM9.74807 12.7498C9.74807 12.9748 9.67307 13.1248 9.52307 13.2748C9.37307 13.4248 9.22307 13.4998 8.92307 13.4998C8.69807 13.4998 8.54807 13.4248 8.39807 13.2748C8.24807 13.1248 8.17307 12.9748 8.17307 12.7498C8.17307 12.6619 8.1988 12.5998 8.22012 12.5483C8.2352 12.5119 8.24807 12.4809 8.24807 12.4498C8.24807 12.3748 8.32307 12.2998 8.39807 12.2248C8.47307 12.1498 8.54807 12.0748 8.62307 12.0748C8.77307 11.9998 8.92307 11.9998 9.07307 11.9998C9.1162 12.0429 9.13452 12.0613 9.15657 12.069C9.17287 12.0748 9.1912 12.0748 9.22307 12.0748C9.26057 12.0748 9.27932 12.0936 9.29807 12.1123C9.31682 12.1311 9.33557 12.1498 9.37307 12.1498C9.44807 12.1498 9.52307 12.2248 9.52307 12.2248C9.59807 12.2998 9.67307 12.3748 9.67307 12.4498C9.74807 12.5248 9.74807 12.6748 9.74807 12.7498Z" fill="#5E5873"/>
<mask id="mask0_307_156274" style="mask-type:luminance" maskUnits="userSpaceOnUse" x="0" y="1" width="18" height="16">
<path fill-rule="evenodd" clip-rule="evenodd" d="M1.49807 16.1998C1.87307 16.4248 2.24807 16.4998 2.62307 16.4998H15.3731C15.9731 16.4998 16.4981 16.2748 16.8731 15.8248C17.3231 15.4498 17.5481 14.8498 17.5481 14.2498C17.5481 13.8748 17.4731 13.4998 17.2481 13.1248L10.9481 2.5498C10.5731 2.0248 10.1231 1.6498 9.52307 1.4998C8.92307 1.3498 8.32307 1.4248 7.79807 1.7248C7.49807 1.8748 7.19807 2.1748 7.04807 2.4748L0.673068 13.1248C0.0730677 14.1748 0.448068 15.5998 1.49807 16.1998ZM2.02307 13.8748L8.32307 3.2998C8.39807 3.1498 8.47307 3.0748 8.62307 2.9998C8.99807 2.8498 9.44807 2.9248 9.67307 3.2998L15.9731 13.8748C16.0481 14.0248 16.0481 14.0998 16.0481 14.2498C16.0481 14.4748 15.9731 14.6248 15.8231 14.7748C15.6731 14.9248 15.5231 14.9998 15.2981 14.9998H2.62307C2.54807 14.9998 2.39807 14.9998 2.32307 14.9248C1.94807 14.6998 1.79807 14.2498 2.02307 13.8748ZM9.74807 9.7498V6.7498C9.74807 6.2998 9.44807 5.9998 8.99807 5.9998C8.54807 5.9998 8.24807 6.2998 8.24807 6.7498V9.7498C8.24807 10.1998 8.54807 10.4998 8.99807 10.4998C9.44807 10.4998 9.74807 10.1998 9.74807 9.7498ZM9.74807 12.7498C9.74807 12.9748 9.67307 13.1248 9.52307 13.2748C9.37307 13.4248 9.22307 13.4998 8.92307 13.4998C8.69807 13.4998 8.54807 13.4248 8.39807 13.2748C8.24807 13.1248 8.17307 12.9748 8.17307 12.7498C8.17307 12.6619 8.1988 12.5998 8.22012 12.5483C8.2352 12.5119 8.24807 12.4809 8.24807 12.4498C8.24807 12.3748 8.32307 12.2998 8.39807 12.2248C8.47307 12.1498 8.54807 12.0748 8.62307 12.0748C8.77307 11.9998 8.92307 11.9998 9.07307 11.9998C9.1162 12.0429 9.13452 12.0613 9.15657 12.069C9.17287 12.0748 9.1912 12.0748 9.22307 12.0748C9.26057 12.0748 9.27932 12.0936 9.29807 12.1123C9.31682 12.1311 9.33557 12.1498 9.37307 12.1498C9.44807 12.1498 9.52307 12.2248 9.52307 12.2248C9.59807 12.2998 9.67307 12.3748 9.67307 12.4498C9.74807 12.5248 9.74807 12.6748 9.74807 12.7498Z" fill="white"/>
</mask>
<g mask="url(#mask0_307_156274)">
<rect width="18" height="18" fill="#5E5873"/>
</g>
</svg>
