<svg width="18" height="18" viewBox="0 0 18 18" fill="none" xmlns="http://www.w3.org/2000/svg">
<g clip-path="url(#clip0_307_124106)">
<path fill-rule="evenodd" clip-rule="evenodd" d="M8.7 9.66638L1.2 5.91212C0.9 5.76195 0.75 5.53669 0.75 5.23635C0.75 4.93601 0.9 4.71075 1.125 4.56058L8.625 0.806314C8.85 0.731229 9.075 0.731229 9.3 0.806314L16.8 4.56058C17.1 4.71075 17.25 4.93601 17.25 5.23635C17.25 5.53669 17.1 5.76195 16.8 5.91212L9.3 9.66638C9.225 9.74147 9.15 9.74147 9 9.74147C8.85 9.74147 8.775 9.74147 8.7 9.66638ZM14.85 5.23635L9 2.30802L3.15 5.23635L9 8.16468L14.85 5.23635ZM17.175 12.4445C17.325 12.82 17.175 13.2705 16.875 13.4206L9.375 17.1749C9.225 17.25 9.15 17.25 9 17.25C8.85 17.25 8.775 17.25 8.7 17.1749L1.2 13.4206C0.825 13.2705 0.675 12.82 0.9 12.4445C1.05 12.0691 1.5 11.9189 1.875 12.1442L9.075 15.7483L16.275 12.1442C16.5 11.9189 16.95 12.0691 17.175 12.4445ZM16.875 9.66638C17.175 9.51621 17.325 9.0657 17.175 8.69027C16.95 8.31485 16.5 8.16468 16.275 8.38993L9.075 11.994L1.875 8.38993C1.5 8.16468 1.05 8.31485 0.9 8.69027C0.675 9.0657 0.825 9.51621 1.2 9.66638L8.7 13.4206C8.775 13.4957 8.85 13.4957 9 13.4957C9.15 13.4957 9.225 13.4957 9.375 13.4206L16.875 9.66638Z" fill="#5E5873"/>
<mask id="mask0_307_124106" style="mask-type:luminance" maskUnits="userSpaceOnUse" x="0" y="0" width="18" height="18">
<path fill-rule="evenodd" clip-rule="evenodd" d="M8.7 9.66638L1.2 5.91212C0.9 5.76195 0.75 5.53669 0.75 5.23635C0.75 4.93601 0.9 4.71075 1.125 4.56058L8.625 0.806314C8.85 0.731229 9.075 0.731229 9.3 0.806314L16.8 4.56058C17.1 4.71075 17.25 4.93601 17.25 5.23635C17.25 5.53669 17.1 5.76195 16.8 5.91212L9.3 9.66638C9.225 9.74147 9.15 9.74147 9 9.74147C8.85 9.74147 8.775 9.74147 8.7 9.66638ZM14.85 5.23635L9 2.30802L3.15 5.23635L9 8.16468L14.85 5.23635ZM17.175 12.4445C17.325 12.82 17.175 13.2705 16.875 13.4206L9.375 17.1749C9.225 17.25 9.15 17.25 9 17.25C8.85 17.25 8.775 17.25 8.7 17.1749L1.2 13.4206C0.825 13.2705 0.675 12.82 0.9 12.4445C1.05 12.0691 1.5 11.9189 1.875 12.1442L9.075 15.7483L16.275 12.1442C16.5 11.9189 16.95 12.0691 17.175 12.4445ZM16.875 9.66638C17.175 9.51621 17.325 9.0657 17.175 8.69027C16.95 8.31485 16.5 8.16468 16.275 8.38993L9.075 11.994L1.875 8.38993C1.5 8.16468 1.05 8.31485 0.9 8.69027C0.675 9.0657 0.825 9.51621 1.2 9.66638L8.7 13.4206C8.775 13.4957 8.85 13.4957 9 13.4957C9.15 13.4957 9.225 13.4957 9.375 13.4206L16.875 9.66638Z" fill="white"/>
</mask>
<g mask="url(#mask0_307_124106)">
<rect width="18" height="18" fill="#5E5873"/>
</g>
</g>
<defs>
<clipPath id="clip0_307_124106">
<rect width="18" height="18" fill="white"/>
</clipPath>
</defs>
</svg>
