<svg width="18" height="18" viewBox="0 0 18 18" fill="none" xmlns="http://www.w3.org/2000/svg">
<path fill-rule="evenodd" clip-rule="evenodd" d="M16.5 2.25V6C16.5 6.45 16.2 6.75 15.75 6.75C15.3 6.75 15 6.45 15 6V4.05L3.525 15.525C3.375 15.675 3.225 15.75 3 15.75C2.775 15.75 2.625 15.675 2.475 15.525C2.175 15.225 2.175 14.775 2.475 14.475L13.95 3H12C11.55 3 11.25 2.7 11.25 2.25C11.25 1.8 11.55 1.5 12 1.5H15.75C15.825 1.5 15.975 1.5 16.05 1.575C16.2 1.65 16.35 1.8 16.425 1.95C16.5 2.025 16.5 2.175 16.5 2.25ZM15.75 11.25C15.3 11.25 15 11.55 15 12V13.95L11.775 10.725C11.475 10.425 11.025 10.425 10.725 10.725C10.425 11.025 10.425 11.475 10.725 11.775L13.95 15H12C11.55 15 11.25 15.3 11.25 15.75C11.25 16.2 11.55 16.5 12 16.5H15.75C15.825 16.5 15.975 16.5 16.05 16.425C16.2 16.35 16.35 16.2 16.425 16.05C16.5 15.975 16.5 15.825 16.5 15.75V12C16.5 11.55 16.2 11.25 15.75 11.25ZM6.75 7.5C6.525 7.5 6.375 7.425 6.225 7.275L2.475 3.525C2.175 3.225 2.175 2.775 2.475 2.475C2.775 2.175 3.225 2.175 3.525 2.475L7.275 6.225C7.575 6.525 7.575 6.975 7.275 7.275C7.125 7.425 6.975 7.5 6.75 7.5Z" fill="#5E5873"/>
<mask id="mask0_307_122736" style="mask-type:luminance" maskUnits="userSpaceOnUse" x="2" y="1" width="15" height="16">
<path fill-rule="evenodd" clip-rule="evenodd" d="M16.5 2.25V6C16.5 6.45 16.2 6.75 15.75 6.75C15.3 6.75 15 6.45 15 6V4.05L3.525 15.525C3.375 15.675 3.225 15.75 3 15.75C2.775 15.75 2.625 15.675 2.475 15.525C2.175 15.225 2.175 14.775 2.475 14.475L13.95 3H12C11.55 3 11.25 2.7 11.25 2.25C11.25 1.8 11.55 1.5 12 1.5H15.75C15.825 1.5 15.975 1.5 16.05 1.575C16.2 1.65 16.35 1.8 16.425 1.95C16.5 2.025 16.5 2.175 16.5 2.25ZM15.75 11.25C15.3 11.25 15 11.55 15 12V13.95L11.775 10.725C11.475 10.425 11.025 10.425 10.725 10.725C10.425 11.025 10.425 11.475 10.725 11.775L13.95 15H12C11.55 15 11.25 15.3 11.25 15.75C11.25 16.2 11.55 16.5 12 16.5H15.75C15.825 16.5 15.975 16.5 16.05 16.425C16.2 16.35 16.35 16.2 16.425 16.05C16.5 15.975 16.5 15.825 16.5 15.75V12C16.5 11.55 16.2 11.25 15.75 11.25ZM6.75 7.5C6.525 7.5 6.375 7.425 6.225 7.275L2.475 3.525C2.175 3.225 2.175 2.775 2.475 2.475C2.775 2.175 3.225 2.175 3.525 2.475L7.275 6.225C7.575 6.525 7.575 6.975 7.275 7.275C7.125 7.425 6.975 7.5 6.75 7.5Z" fill="white"/>
</mask>
<g mask="url(#mask0_307_122736)">
<rect width="18" height="18" fill="#5E5873"/>
</g>
</svg>
