<svg width="24" height="24" viewBox="0 0 24 24" fill="none" xmlns="http://www.w3.org/2000/svg">
<path fill-rule="evenodd" clip-rule="evenodd" d="M3.84844 10.0004C3.84844 6.60384 6.60189 3.85039 9.99844 3.85039C13.395 3.85039 16.1484 6.60384 16.1484 10.0004C16.1484 13.3969 13.395 16.1504 9.99844 16.1504C6.60189 16.1504 3.84844 13.3969 3.84844 10.0004ZM9.99844 2.15039C5.663 2.15039 2.14844 5.66496 2.14844 10.0004C2.14844 14.3358 5.663 17.8504 9.99844 17.8504C11.86 17.8504 13.5701 17.2024 14.9157 16.1198L20.3974 21.6014C20.7293 21.9334 21.2675 21.9334 21.5995 21.6014C21.9314 21.2695 21.9314 20.7313 21.5995 20.3993L16.1178 14.9177C17.2005 13.5721 17.8484 11.8619 17.8484 10.0004C17.8484 5.66496 14.3339 2.15039 9.99844 2.15039Z" fill="#5E5873"/>
</svg>
