<svg width="20" height="20" viewBox="0 0 20 20" fill="none" xmlns="http://www.w3.org/2000/svg">
<path d="M9.99876 5.93748C9.19527 5.93748 8.40983 6.17574 7.74176 6.62213C7.07368 7.06853 6.55298 7.703 6.2455 8.44533C5.93802 9.18765 5.85757 10.0045 6.01432 10.7925C6.17107 11.5806 6.55799 12.3044 7.12614 12.8726C7.69429 13.4408 8.41816 13.8277 9.20621 13.9844C9.99425 14.1412 10.8111 14.0607 11.5534 13.7532C12.2957 13.4458 12.9302 12.9251 13.3766 12.257C13.823 11.5889 14.0613 10.8035 14.0613 9.99998C14.06 8.92292 13.6316 7.89033 12.87 7.12873C12.1084 6.36713 11.0758 5.93872 9.99876 5.93748ZM9.99876 12.1875C9.56611 12.1875 9.14318 12.0592 8.78345 11.8188C8.42372 11.5785 8.14334 11.2368 7.97777 10.8371C7.81221 10.4374 7.76889 9.99755 7.85329 9.57322C7.9377 9.14889 8.14604 8.75911 8.45196 8.45318C8.75789 8.14726 9.14767 7.93892 9.572 7.85451C9.99633 7.77011 10.4362 7.81343 10.8359 7.97899C11.2356 8.14456 11.5772 8.42494 11.8176 8.78467C12.058 9.1444 12.1863 9.56733 12.1863 9.99998C12.1863 10.5801 11.9558 11.1365 11.5456 11.5468C11.1353 11.957 10.5789 12.1875 9.99876 12.1875ZM17.1863 10.0617V9.93826L18.28 8.57029C18.3718 8.45567 18.4354 8.32108 18.4657 8.17737C18.4959 8.03367 18.492 7.88486 18.4542 7.74295C18.2569 6.9985 17.9619 6.28344 17.5769 5.61639C17.5027 5.48918 17.3996 5.38124 17.276 5.30129C17.1523 5.22135 17.0116 5.17165 16.8652 5.15623L15.1245 4.96092L15.0378 4.8742L14.8425 3.13279C14.827 2.9865 14.7772 2.84591 14.6973 2.7224C14.6173 2.5989 14.5095 2.49594 14.3824 2.42185C13.7153 2.03567 12.9999 1.73961 12.255 1.54139C12.113 1.50415 11.9642 1.5008 11.8206 1.5316C11.677 1.56241 11.5427 1.6265 11.4284 1.71873L10.0605 2.81248H9.93704L8.56907 1.71873C8.45445 1.62692 8.31986 1.56332 8.17616 1.53306C8.03245 1.5028 7.88364 1.50672 7.74173 1.54451C6.99709 1.74311 6.28202 2.03944 5.61517 2.42576C5.48846 2.49954 5.38082 2.60201 5.3009 2.72494C5.22099 2.84787 5.17102 2.98783 5.15501 3.13357L4.9597 4.8742L4.87298 4.96092L3.13157 5.15623C2.98528 5.17177 2.84469 5.22152 2.72118 5.30146C2.59768 5.3814 2.49472 5.48928 2.42063 5.61639C2.03554 6.28365 1.74053 6.99899 1.54329 7.74373C1.50563 7.88553 1.50177 8.03418 1.53203 8.17774C1.56229 8.3213 1.62582 8.45576 1.71751 8.57029L2.81126 9.93826V10.0617L1.71751 11.4297C1.6257 11.5443 1.5621 11.6789 1.53184 11.8226C1.50158 11.9663 1.5055 12.1151 1.54329 12.257C1.74214 13.0017 2.03873 13.7168 2.42532 14.3836C2.49902 14.5102 2.60137 14.6178 2.72416 14.6977C2.84694 14.7776 2.98674 14.8276 3.13235 14.8437L4.87298 15.0375L4.9597 15.1242L5.15501 16.8672C5.17055 17.0135 5.2203 17.154 5.30024 17.2776C5.38018 17.4011 5.48806 17.504 5.61517 17.5781C6.28227 17.9643 6.99761 18.2604 7.74251 18.4586C7.88455 18.4958 8.03335 18.4992 8.17692 18.4684C8.32049 18.4376 8.45481 18.3735 8.56907 18.2812L9.93704 17.1875H10.0605L11.4284 18.2812C11.5431 18.373 11.6777 18.4366 11.8214 18.4669C11.9651 18.4972 12.1139 18.4932 12.2558 18.4554C13.0002 18.2581 13.7153 17.9631 14.3824 17.5781C14.5094 17.5045 14.6173 17.4021 14.6975 17.2792C14.7777 17.1562 14.8279 17.0162 14.8441 16.8703L15.0378 15.1297L15.1245 15.0429L16.8659 14.8437C17.0118 14.8276 17.1519 14.7773 17.2748 14.6971C17.3978 14.617 17.5002 14.509 17.5738 14.382C17.9599 13.7149 18.256 12.9996 18.4542 12.2547C18.4916 12.1131 18.4954 11.9647 18.4651 11.8215C18.4349 11.6782 18.3715 11.544 18.28 11.4297L17.1863 10.0617ZM15.3019 9.67967C15.3144 9.89303 15.3144 10.1069 15.3019 10.3203C15.2879 10.5522 15.3606 10.7811 15.5058 10.9625L16.5089 12.2164C16.4142 12.4967 16.3012 12.7704 16.1706 13.0359L14.5745 13.2133C14.3435 13.2397 14.1304 13.3511 13.9769 13.5258C13.835 13.6857 13.6837 13.837 13.5238 13.9789C13.3491 14.1324 13.2377 14.3455 13.2113 14.5765L13.0347 16.1719C12.7693 16.303 12.4955 16.4165 12.2152 16.5117L10.9613 15.5078C10.7949 15.375 10.5882 15.3028 10.3753 15.3031C10.3566 15.3031 10.3378 15.3031 10.3191 15.3031C10.1057 15.3156 9.89181 15.3156 9.67845 15.3031C9.44667 15.2894 9.21798 15.3617 9.03626 15.5062L7.78235 16.5101C7.50206 16.4154 7.2283 16.3024 6.96282 16.1719L6.78548 14.5758C6.75906 14.3447 6.64768 14.1317 6.47298 13.9781C6.31309 13.8362 6.16178 13.6849 6.01985 13.525C5.8663 13.3503 5.65328 13.2389 5.4222 13.2125L3.82688 13.0359C3.69577 12.7705 3.58224 12.4967 3.48704 12.2164L4.49017 10.9625C4.63537 10.7811 4.70803 10.5522 4.69407 10.3203C4.68157 10.1069 4.68157 9.89303 4.69407 9.67967C4.70803 9.44773 4.63537 9.21888 4.49017 9.03748L3.4886 7.78357C3.5833 7.50328 3.6963 7.22952 3.82688 6.96404L5.42298 6.7867C5.65407 6.76028 5.86708 6.6489 6.02064 6.4742C6.16256 6.3143 6.31387 6.163 6.47376 6.02107C6.64846 5.86752 6.75984 5.6545 6.78626 5.42342L6.96282 3.8281C7.22826 3.69699 7.50203 3.58346 7.78235 3.48826L9.03626 4.49217C9.21798 4.63669 9.44667 4.70902 9.67845 4.69529C9.89181 4.68279 10.1057 4.68279 10.3191 4.69529C10.5509 4.70947 10.7798 4.63709 10.9613 4.49217L12.2152 3.48826C12.4955 3.58346 12.7693 3.69699 13.0347 3.8281L13.212 5.4242C13.2385 5.65528 13.3498 5.8683 13.5245 6.02185C13.6844 6.16378 13.8357 6.31509 13.9777 6.47498C14.1312 6.64968 14.3442 6.76106 14.5753 6.78748L16.1706 6.96404C16.3018 7.22948 16.4153 7.50324 16.5105 7.78357L15.5074 9.03748C15.3616 9.21865 15.2884 9.44753 15.3019 9.67967Z" fill="#5E5873"/>
</svg>
